<?xml version="1.0" encoding="UTF-8" standalone="no"?>
<!-- Created with Inkscape (http://www.inkscape.org/) -->

<svg
   xmlns:dc="http://purl.org/dc/elements/1.1/"
   xmlns:cc="http://creativecommons.org/ns#"
   xmlns:rdf="http://www.w3.org/1999/02/22-rdf-syntax-ns#"
   xmlns:svg="http://www.w3.org/2000/svg"
   xmlns="http://www.w3.org/2000/svg"
   xmlns:sodipodi="http://sodipodi.sourceforge.net/DTD/sodipodi-0.dtd"
   xmlns:inkscape="http://www.inkscape.org/namespaces/inkscape"
   width="28.8925mm"
   height="27.042004mm"
   viewBox="0 0 28.8925 27.042004"
   version="1.1"
   id="svg8"
   inkscape:version="0.92.1 r15371"
   sodipodi:docname="eclipse_logo.svg">
  <defs
     id="defs2" />
  <sodipodi:namedview
     id="base"
     pagecolor="#ffffff"
     bordercolor="#666666"
     borderopacity="1.0"
     inkscape:pageopacity="0.0"
     inkscape:pageshadow="2"
     inkscape:zoom="0.7"
     inkscape:cx="305.8053"
     inkscape:cy="-48.945711"
     inkscape:document-units="mm"
     inkscape:current-layer="layer1"
     showgrid="false"
     inkscape:window-width="1280"
     inkscape:window-height="1002"
     inkscape:window-x="1912"
     inkscape:window-y="-8"
     inkscape:window-maximized="1"
     fit-margin-top="0"
     fit-margin-left="0"
     fit-margin-right="0"
     fit-margin-bottom="0" />
  <metadata
     id="metadata5">
    <rdf:RDF>
      <cc:Work
         rdf:about="">
        <dc:format>image/svg+xml</dc:format>
        <dc:type
           rdf:resource="http://purl.org/dc/dcmitype/StillImage" />
        <dc:title></dc:title>
      </cc:Work>
    </rdf:RDF>
  </metadata>
  <g
     inkscape:label="Calque 1"
     inkscape:groupmode="layer"
     id="layer1"
     transform="translate(-0.96346326,-1.5091644)">
    <g
       id="g3806"
       transform="translate(-37.041666,-129.64583)">
      <path
         style="fill:#2c2255;stroke-width:0.26458332"
         inkscape:connector-curvature="0"
         id="path3"
         d="m 45.956916,148.40847 h -4.430183 c 0.586581,2.01216 1.675077,3.81556 3.268663,5.40941 2.540529,2.54079 5.595408,3.80947 9.167812,3.80947 0.71411,0 1.405996,-0.0532 2.078037,-0.15452 2.690813,-0.40613 5.046663,-1.62269 7.065169,-3.65495 1.603904,-1.59332 2.700073,-3.39725 3.291152,-5.40941 h -1.797844 -2.6289 z" />
      <g
         transform="matrix(0.26458333,0,0,0.26458333,19.201192,44.444158)"
         id="g5">
        <path
           style="fill:#2c2255"
           inkscape:connector-curvature="0"
           id="path7"
           d="m 91.891,370.194 h -8.747 c -0.32,1.922 -0.538,3.884 -0.637,5.896 h 10.396 5.215 75.275 6.871 c -0.1,-2.012 -0.318,-3.974 -0.641,-5.896" />
        <path
           style="fill:#2c2255"
           inkscape:connector-curvature="0"
           id="path9"
           d="m 82.507,381.565 c 0.099,2.013 0.316,3.975 0.637,5.896 h 9.094 6.893 73.648 6.846 c 0.322,-1.921 0.542,-3.883 0.642,-5.896" />
      </g>
      <path
         style="fill:#2c2255;stroke-width:0.26458332"
         inkscape:connector-curvature="0"
         id="path11"
         d="m 66.398095,140.94246 c -0.59055,-2.01771 -1.686983,-3.82958 -3.291681,-5.43454 -2.013214,-2.01322 -4.36245,-3.22104 -7.044531,-3.62744 -0.678392,-0.10292 -1.377156,-0.1569 -2.098675,-0.1569 -3.572404,0 -6.627548,1.2618 -9.167812,3.78434 -1.594115,1.60496 -2.68314,3.41683 -3.269457,5.43454" />
      <g
         transform="matrix(0.26458333,0,0,0.26458333,19.201192,44.444158)"
         id="g13">
        <path
           style="fill:#f7941e"
           inkscape:connector-curvature="0"
           id="path15"
           d="m 79.6,378.829 c 0,-25.824 19.395,-47.281 44.626,-51.055 -0.626,-0.023 -1.255,-0.048 -1.887,-0.048 -28.314,0 -51.269,22.88 -51.269,51.103 0,28.224 22.954,51.103 51.269,51.103 0.634,0 1.263,-0.024 1.891,-0.047 C 98.995,426.111 79.6,404.654 79.6,378.829 Z" />
      </g>
      <g
         transform="matrix(0.26458333,0,0,0.26458333,19.201192,44.444158)"
         id="g33">
        <linearGradient
           gradientTransform="matrix(1,0,0,-1,0,793)"
           y2="432.21109"
           x2="131.3853"
           y1="358.5762"
           x1="131.3853"
           gradientUnits="userSpaceOnUse"
           id="SVGID_1_">
          <stop
             id="stop36"
             style="stop-color:#473788"
             offset="0.3033" />
          <stop
             id="stop38"
             style="stop-color:#2C2255"
             offset="0.872" />
        </linearGradient>
        <path
           style="fill:url(#SVGID_1_)"
           inkscape:connector-curvature="0"
           id="path40"
           d="m 164.653,376.089 c -0.164,-2.021 -0.504,-3.992 -1.012,-5.896 h -64.51 c -0.508,1.903 -0.849,3.874 -1.013,5.896 z" />
        <linearGradient
           gradientTransform="matrix(1,0,0,-1,0,793)"
           y2="432.21011"
           x2="131.3853"
           y1="358.5752"
           x1="131.3853"
           gradientUnits="userSpaceOnUse"
           id="SVGID_2_">
          <stop
             id="stop43"
             style="stop-color:#473788"
             offset="0.3033" />
          <stop
             id="stop45"
             style="stop-color:#2C2255"
             offset="0.872" />
        </linearGradient>
        <path
           style="fill:url(#SVGID_2_)"
           inkscape:connector-curvature="0"
           id="path47"
           d="M 164.653,381.565 H 98.119 c 0.164,2.021 0.503,3.992 1.012,5.896 h 64.511 c 0.508,-1.904 0.847,-3.875 1.011,-5.896 z" />
        <linearGradient
           gradientTransform="matrix(1,0,0,-1,0,793)"
           y2="432.2084"
           x2="131.3853"
           y1="358.57709"
           x1="131.3853"
           gradientUnits="userSpaceOnUse"
           id="SVGID_3_">
          <stop
             id="stop50"
             style="stop-color:#473788"
             offset="0.3033" />
          <stop
             id="stop52"
             style="stop-color:#2C2255"
             offset="0.8631" />
        </linearGradient>
        <path
           style="fill:url(#SVGID_3_)"
           inkscape:connector-curvature="0"
           id="path54"
           d="m 131.386,412.217 c 13.397,0 24.945,-7.893 30.263,-19.281 h -60.526 c 5.318,11.388 16.866,19.281 30.263,19.281 z" />
      </g>
      <g
         transform="matrix(0.26458333,0,0,0.26458333,19.201192,44.444158)"
         id="g56">
        <path
           style="fill:#ffffff"
           inkscape:connector-curvature="0"
           id="path58"
           d="m 93.188,381.565 h 4.884 66.706 8.763 6.657 c 0.046,-0.871 0.072,-1.748 0.072,-2.631 0,-0.955 -0.035,-1.902 -0.089,-2.845 H 173.54 164.777 98.071 92.842 82.507 c -0.054,0.942 -0.089,1.89 -0.089,2.845 0,0.883 0.026,1.76 0.072,2.631 z" />
        <path
           style="fill:#ffffff"
           inkscape:connector-curvature="0"
           id="path60"
           d="M 100.928,364.718 H 84.376 c -0.544,1.783 -0.895,3.612 -1.232,5.476 h 8.525 7.259 64.679 9.16 6.547 c -0.338,-1.863 -0.773,-3.692 -1.316,-5.476" />
        <path
           style="fill:#ffffff"
           inkscape:connector-curvature="0"
           id="path62"
           d="m 173.026,387.46 h -9.16 -64.678 -6.912 -9.133 c 0.328,1.863 0.701,3.691 1.236,5.476 h 16.807 60.682 9.962 6.488 c 0.534,-1.784 0.965,-3.612 1.294,-5.476 z" />
      </g>
    </g>
  </g>
</svg>
