<?xml version="1.0" encoding="UTF-8" standalone="no"?>
<svg
   xmlns:dc="http://purl.org/dc/elements/1.1/"
   xmlns:cc="http://creativecommons.org/ns#"
   xmlns:rdf="http://www.w3.org/1999/02/22-rdf-syntax-ns#"
   xmlns:svg="http://www.w3.org/2000/svg"
   xmlns="http://www.w3.org/2000/svg"
   id="svg8"
   version="1.1"
   viewBox="0 0 135.74416 151.68719"
   height="151.68719mm"
   width="135.74416mm">
  <defs
     id="defs2" />
  <metadata
     id="metadata5">
    <rdf:RDF>
      <cc:Work
         rdf:about="">
        <dc:format>image/svg+xml</dc:format>
        <dc:type
           rdf:resource="http://purl.org/dc/dcmitype/StillImage" />
        <dc:title></dc:title>
      </cc:Work>
    </rdf:RDF>
  </metadata>
  <g
     transform="translate(-26.494712,-59.454866)"
     id="layer1">
    <g
       id="g4554">
      <rect
         style="fill:#ffbe00;fill-opacity:1;fill-rule:nonzero;stroke:none;stroke-width:0.90373069;stroke-linecap:square;stroke-linejoin:miter;stroke-miterlimit:4;stroke-dasharray:none;stroke-opacity:1;paint-order:normal"
         id="rect4496"
         width="22.772579"
         height="22.772579"
         x="-76.437485"
         y="142.94049"
         ry="0"
         transform="rotate(-60)" />
      <rect
         style="fill:#ffbe00;fill-opacity:1;fill-rule:nonzero;stroke:none;stroke-width:0.90373069;stroke-linecap:square;stroke-linejoin:miter;stroke-miterlimit:4;stroke-dasharray:none;stroke-opacity:1;paint-order:normal"
         id="rect4496-3"
         width="22.772579"
         height="22.772579"
         x="-51.061344"
         y="143.29224"
         ry="0"
         transform="rotate(-60)" />
      <path
         style="fill:#999999;fill-opacity:1;fill-rule:nonzero;stroke:none;stroke-width:1.51522875;stroke-linecap:square;stroke-linejoin:miter;stroke-miterlimit:4;stroke-dasharray:none;stroke-opacity:1;paint-order:normal"
         d="m 113.8214,209.26047 c -2.60369,-5.48685 -3.98044,-22.18605 -3.04713,-36.96005 0.92766,-14.68477 2.34339,-21.20459 7.07098,-32.56384 8.05556,-19.35553 24.6124,-44.633916 29.19755,-44.577751 1.42827,0.01749 5.00597,1.768052 6.92561,3.388674 2.58033,2.178397 5.34961,6.720457 6.25378,10.257177 0.44718,1.74922 1.08909,5.70608 1.42646,8.79305 0.62769,5.74346 0.8095,32.45741 0.27648,40.62496 -0.16308,2.49897 -0.55808,8.63281 -0.87777,13.63075 -0.47515,7.42828 -0.77417,9.40207 -1.63801,10.81217 -2.30584,3.76396 -10.94887,10.54339 -21.91167,17.18709 -8.30395,5.03238 -20.32378,11.28936 -21.68717,11.28936 -0.72857,0 -1.3957,-0.63107 -1.98911,-1.88159 z"
         id="path4540" />
      <path
         style="fill:#ffbe00;fill-opacity:1;fill-rule:nonzero;stroke:none;stroke-width:1.51522875;stroke-linecap:square;stroke-linejoin:miter;stroke-miterlimit:4;stroke-dasharray:none;stroke-opacity:1;paint-order:normal"
         d="m 81.057904,183.09096 c -4.306014,-1.21264 -8.054567,-3.32694 -11.240296,-6.33987 -4.905343,-4.63926 -7.432117,-10.26116 -7.975282,-17.74443 l -0.31169,-4.29415 10.460847,-6.26831 10.460844,-6.2683 10.190134,5.92628 10.190129,5.92628 v 11.921 11.92099 l -2.80633,1.92131 c -1.54348,1.05672 -3.88877,2.30974 -5.211753,2.7845 -3.41489,1.22545 -10.315935,1.48365 -13.756603,0.5147 z"
         id="path4542" />
      <path
         style="fill:#999999;fill-opacity:1;fill-rule:nonzero;stroke:none;stroke-width:1.51522875;stroke-linecap:square;stroke-linejoin:miter;stroke-miterlimit:4;stroke-dasharray:none;stroke-opacity:1;paint-order:normal"
         d="m 28.271223,162.51006 c -1.364374,-2.2076 -2.359776,-30.78528 -1.387483,-39.83421 1.330203,-12.37993 1.645693,-12.93796 11.234314,-19.87123 23.429391,-16.94115 44.972639,-29.827665 54.490561,-32.594598 5.457973,-1.586677 13.598275,0.05212 16.709585,3.36396 2.43909,2.596293 0.95423,8.169265 -6.03278,22.642187 -7.207615,14.929891 -15.296795,27.606651 -22.966383,35.991171 -7.721354,8.44113 -22.433444,18.84335 -36.820279,26.03388 -8.331742,4.1642 -14.264338,5.82732 -15.227535,4.26884 z"
         id="path4544" />
      <path
         style="fill:#ffbe00;fill-opacity:1;fill-rule:nonzero;stroke:none;stroke-width:1.51522875;stroke-linecap:square;stroke-linejoin:miter;stroke-miterlimit:4;stroke-dasharray:none;stroke-opacity:1;paint-order:normal"
         d="m 121.54146,99.911081 c -4.55695,-2.650607 -8.62196,-5.016916 -9.03336,-5.258467 -0.60035,-0.352486 -0.3626,-1.07364 1.20435,-3.653121 6.51493,-10.724718 6.49501,-16.851722 -0.0683,-21.014057 l -2.3846,-1.512276 2.72603,-2.65524 c 9.37176,-9.128379 24.71698,-8.340455 34.15984,1.753992 5.60094,5.987415 7.85824,13.072329 6.5974,20.707011 -0.34721,2.102437 -0.74418,4.005268 -0.88215,4.228513 -0.13798,0.223245 -1.51281,-0.289862 -3.05519,-1.140235 -6.38871,-3.522345 -10.69065,-1.558454 -16.70234,7.624828 -2.05797,3.143701 -3.86203,5.720891 -4.00903,5.727081 -0.147,0.006 -3.99568,-2.15742 -8.55263,-4.808029 z"
         id="path4546" />
    </g>
  </g>
</svg>
