<?xml version="1.0" encoding="UTF-8" standalone="no"?>
<!-- Created with Inkscape (http://www.inkscape.org/) -->

<svg
   xmlns:dc="http://purl.org/dc/elements/1.1/"
   xmlns:cc="http://creativecommons.org/ns#"
   xmlns:rdf="http://www.w3.org/1999/02/22-rdf-syntax-ns#"
   xmlns:svg="http://www.w3.org/2000/svg"
   xmlns="http://www.w3.org/2000/svg"
   xmlns:sodipodi="http://sodipodi.sourceforge.net/DTD/sodipodi-0.dtd"
   xmlns:inkscape="http://www.inkscape.org/namespaces/inkscape"
   width="32.984089mm"
   height="6.2615061mm"
   viewBox="0 0 32.984089 6.2615061"
   version="1.1"
   id="svg8"
   sodipodi:docname="Maven_logo2.svg"
   inkscape:version="0.92.1 r15371">
  <defs
     id="defs2" />
  <sodipodi:namedview
     id="base"
     pagecolor="#ffffff"
     bordercolor="#666666"
     borderopacity="1.0"
     inkscape:pageopacity="0.0"
     inkscape:pageshadow="2"
     inkscape:zoom="3.959798"
     inkscape:cx="76.146995"
     inkscape:cy="46.845919"
     inkscape:document-units="mm"
     inkscape:current-layer="g4516"
     showgrid="false"
     inkscape:window-width="1280"
     inkscape:window-height="1002"
     inkscape:window-x="1912"
     inkscape:window-y="-8"
     inkscape:window-maximized="1"
     fit-margin-top="0"
     fit-margin-left="0"
     fit-margin-right="0"
     fit-margin-bottom="0" />
  <metadata
     id="metadata5">
    <rdf:RDF>
      <cc:Work
         rdf:about="">
        <dc:format>image/svg+xml</dc:format>
        <dc:type
           rdf:resource="http://purl.org/dc/dcmitype/StillImage" />
        <dc:title></dc:title>
      </cc:Work>
    </rdf:RDF>
  </metadata>
  <g
     inkscape:label="Layer 1"
     inkscape:groupmode="layer"
     id="layer1"
     transform="translate(-61.048766,-244.75791)">
    <g
       id="layer1-1"
       transform="translate(51.762404,21.581336)">
      <g
         style="font-style:oblique;font-weight:bold;font-family:Verdana"
         transform="matrix(0.10804782,0,0,0.10804782,0.74041445,220.66764)"
         font-style="oblique"
         font-weight="bold"
         id="g4491">
        <g
           id="g4516">
          <g
             id="g4549">
            <g
               id="text4485"
               style="font-size:96px"
               transform="scale(0.943,1.06)"
               aria-label="m">
              <path
                 id="path4539"
                 style="font-size:96px"
                 d="m 178.79687,35.078125 q 0,1.453125 -0.23437,3.140625 -0.1875,1.6875 -0.60938,3.515625 L 170.03125,76 h -17.0625 l 6.09375,-26.296875 q 0.60937,-2.71875 1.07812,-5.203125 0.51563,-2.484375 0.51563,-4.03125 0,-2.71875 -1.5,-3.984375 -1.5,-1.265625 -5.34375,-1.265625 -1.82813,0 -4.17188,0.890625 -2.29687,0.84375 -5.57812,2.578125 L 135.4375,76 H 118.375 l 6.09375,-26.296875 q 0.51563,-2.296875 1.03125,-4.96875 0.51563,-2.671875 0.51563,-4.078125 0,-2.859375 -1.45313,-4.125 -1.40625,-1.3125 -5.29687,-1.3125 -2.01563,0 -4.40625,0.9375 -2.39063,0.9375 -5.39063,2.53125 L 100.84375,76 H 83.875 L 96.0625,23.359375 h 16.96875 l -1.35937,5.8125 q 5.15625,-3.421875 9.28125,-5.34375 4.17187,-1.921875 8.99999,-1.921875 5.20313,0 8.76563,2.34375 3.5625,2.296875 4.96875,6.796875 6.28125,-4.546875 11.25,-6.84375 4.96875,-2.296875 9.60937,-2.296875 6.9375,0 10.59375,3.421875 3.65625,3.421875 3.65625,9.75 z" />
            </g>
            <g
               id="text4489"
               style="font-size:80px;word-spacing:0"
               aria-label="aven">
              <path
                 id="path4530"
                 style="fill:#ff6804"
                 d="m 205.92969,59.296875 q -3.75,0.3125 -7.03125,0.742187 -3.28125,0.429688 -5.58594,1.25 -2.38281,0.859375 -3.63281,2.421875 -1.25,1.5625 -1.25,4.140625 0,2.265625 1.64062,3.203125 1.67969,0.898438 4.84375,0.898438 2.07031,0 4.41406,-0.9375 2.38282,-0.976563 4.45313,-2.460938 z m -3.71094,16.054687 q -1.32813,0.859375 -3.20313,2.070313 -1.875,1.210937 -3.47656,1.914062 -2.1875,0.898438 -4.10156,1.367188 -1.91406,0.46875 -5.3125,0.46875 -5.46875,0 -8.94531,-3.046875 -3.4375,-3.085938 -3.4375,-8.007813 0,-5.195312 2.46093,-8.789062 2.46094,-3.632813 7.30469,-5.78125 4.53125,-2.03125 10.78125,-2.929688 6.28906,-0.898437 13.59375,-1.328125 0.0391,-0.234375 0.15625,-0.742187 0.11719,-0.546875 0.11719,-1.210938 0,-2.773437 -2.57813,-3.867187 -2.57812,-1.132813 -7.69531,-1.132813 -3.47656,0 -7.69531,1.171875 -4.17969,1.171875 -6.28906,1.953125 h -1.28907 l 2.07032,-10.390625 q 2.46093,-0.625 7.61718,-1.40625 5.15625,-0.78125 10.27344,-0.78125 10.3125,0 15.11719,2.695313 4.84375,2.695312 4.84375,8.359375 0,0.78125 -0.15625,2.03125 -0.11719,1.25 -0.35156,2.1875 L 215.14844,80 h -13.98438 z" />
              <path
                 id="path4532"
                 style="font-size:80px;word-spacing:0"
                 d="M 281.86719,36.132812 254.79687,80 h -16.01562 l -6.64063,-43.867188 h 14.49219 L 249.83594,66.328125 266.75,36.132812 Z" />
              <path
                 id="path4534"
                 style="font-size:80px;word-spacing:0"
                 d="m 315.38281,52.421875 q 0.11719,-0.703125 0.15625,-1.289063 0.0781,-0.585937 0.0781,-1.210937 0,-3.085938 -1.91407,-4.726563 -1.91406,-1.640625 -5.50781,-1.640625 -4.33594,0 -7.30469,2.34375 -2.92968,2.34375 -4.45312,6.523438 z m -10.74219,28.75 q -11.21093,0 -17.30468,-4.960938 Q 281.24219,71.25 281.24219,62.5 q 0,-5.976563 1.99218,-10.976563 1.99219,-5 5.74219,-8.789062 3.59375,-3.671875 8.98438,-5.820313 5.39062,-2.148437 11.83593,-2.148437 9.80469,0 14.76563,3.984375 5,3.945312 5,11.679687 0,2.65625 -0.54688,5.195313 -0.50781,2.539062 -1.36718,5.039062 h -32.57813 q 0,0.234375 0,0.46875 0,0.195313 0,0.429688 0,4.570312 3.20313,7.148437 3.20312,2.578125 9.80468,2.578125 4.60938,0 8.71094,-1.5625 4.14063,-1.5625 7.1875,-3.476562 h 1.5625 l -2.61719,11.289062 q -4.10156,1.796875 -8.63281,2.695313 -4.53125,0.9375 -9.64844,0.9375 z" />
              <path
                 id="path4536"
                 style="font-size:80px;word-spacing:0"
                 d="m 384.36719,46.054687 q 0,1.171875 -0.15625,2.539063 -0.15625,1.367187 -0.50782,2.851562 L 377.14062,80 h -14.21875 l 5,-21.757813 q 0.54688,-2.421875 0.85938,-4.140625 0.3125,-1.71875 0.3125,-3.203125 0,-2.539062 -1.28906,-3.710937 -1.28907,-1.171875 -4.72657,-1.171875 -1.67968,0 -3.86718,0.742187 -2.1875,0.703125 -4.92188,2.148438 L 347.14062,80 H 333 l 10.11719,-43.867188 h 14.14062 l -1.13281,4.84375 q 4.33594,-2.851562 7.89062,-4.453125 3.59375,-1.601562 7.89063,-1.601562 5.89844,0 9.17969,2.851562 3.28125,2.851563 3.28125,8.28125 z" />
            </g>
          </g>
        </g>
      </g>
    </g>
  </g>
</svg>
