<?xml version="1.0" encoding="UTF-8" standalone="no"?>
<svg
   xmlns:dc="http://purl.org/dc/elements/1.1/"
   xmlns:cc="http://creativecommons.org/ns#"
   xmlns:rdf="http://www.w3.org/1999/02/22-rdf-syntax-ns#"
   xmlns:svg="http://www.w3.org/2000/svg"
   xmlns="http://www.w3.org/2000/svg"
   id="svg3814"
   version="1.1"
   viewBox="0 0 162.65752 154.82541"
   height="154.82541mm"
   width="162.65752mm">
  <defs
     id="defs3808" />
  <metadata
     id="metadata3811">
    <rdf:RDF>
      <cc:Work
         rdf:about="">
        <dc:format>image/svg+xml</dc:format>
        <dc:type
           rdf:resource="http://purl.org/dc/dcmitype/StillImage" />
        <dc:title></dc:title>
      </cc:Work>
    </rdf:RDF>
  </metadata>
  <g
     transform="translate(-27.927817,-67.473479)"
     style="display:inline"
     id="layer1" />
  <g
     transform="translate(-27.927817,-67.473479)"
     style="display:inline"
     id="layer2">
    <g
       transform="translate(6.4255952,-0.75595238)"
       id="g4732">
      <path
         id="path3829"
         d="m 152.87816,222.16454 -49.86422,-23.51362 -49.74293,23.76911 6.953889,-54.6898 -37.977174,-39.96328 54.161953,-10.28653 26.271752,-48.467774 26.52004,48.332364 54.214,10.00855 -37.77167,40.15758 z"
         style="display:inline;fill:none;stroke:#000000;stroke-width:0.75;stroke-miterlimit:4;stroke-dasharray:none;stroke-opacity:1" />
      <path
         style="display:inline;fill:none;stroke:#000000;stroke-width:0.75;stroke-linecap:butt;stroke-linejoin:miter;stroke-miterlimit:4;stroke-dasharray:none;stroke-opacity:1"
         d="M 145.6438,167.51114 22.247724,127.76695"
         id="path4642" />
      <g
         id="g4711">
        <path
           id="path4638"
           d="m 102.68142,69.012646 0.33252,129.638274"
           style="display:inline;fill:none;stroke:#000000;stroke-width:0.75;stroke-linecap:butt;stroke-linejoin:miter;stroke-miterlimit:4;stroke-dasharray:none;stroke-opacity:1" />
        <path
           id="path4640"
           d="M 129.20146,117.34501 53.271009,222.42002"
           style="display:inline;fill:none;stroke:#000000;stroke-width:0.75;stroke-linecap:butt;stroke-linejoin:miter;stroke-miterlimit:4;stroke-dasharray:none;stroke-opacity:1" />
        <path
           id="path4644"
           d="M 183.41547,127.35356 60.224899,167.73023"
           style="display:inline;fill:none;stroke:#000000;stroke-width:0.75;stroke-linecap:butt;stroke-linejoin:miter;stroke-miterlimit:4;stroke-dasharray:none;stroke-opacity:1" />
        <path
           id="path4646"
           d="M 152.87815,222.16454 76.409676,117.48042"
           style="display:inline;fill:none;stroke:#000000;stroke-width:0.75;stroke-linecap:butt;stroke-linejoin:miter;stroke-miterlimit:4;stroke-dasharray:none;stroke-opacity:1" />
        <path
           transform="scale(0.26458333)"
           id="path4648"
           d="m 339.0036,511.23803 c -26.80724,-36.69024 -48.59885,-67.29114 -48.4258,-68.002 0.17306,-0.71085 21.90666,-41.10733 48.29689,-89.76995 l 47.98225,-88.47748 0.65119,156.2496 c 0.35815,85.93727 0.55775,156.35305 0.44355,156.47948 -0.1142,0.12643 -22.14083,-29.78941 -48.94808,-66.47965 z"
           style="fill:#ffb900;fill-opacity:1;fill-rule:nonzero;stroke:none;stroke-width:3.77952766;stroke-linecap:square;stroke-linejoin:miter;stroke-miterlimit:4;stroke-dasharray:none;stroke-opacity:1;paint-order:normal" />
        <path
           transform="scale(0.26458333)"
           id="path4650"
           d="m 389.16594,432.28785 c -0.19349,-80.65019 -0.27852,-151.49946 -0.18896,-157.44281 l 0.16282,-10.80609 48.9924,89.32136 c 26.94582,49.12675 48.97485,89.67312 48.95339,90.10307 -0.0303,0.60879 -95.52436,133.32521 -97.16879,135.04405 -0.2195,0.22942 -0.55738,-65.56939 -0.75086,-146.21958 z"
           style="fill:#980f39;fill-opacity:1;fill-rule:nonzero;stroke:none;stroke-width:27.10708618;stroke-linecap:butt;stroke-linejoin:miter;stroke-miterlimit:4;stroke-dasharray:none;stroke-opacity:1;paint-order:normal" />
        <path
           transform="scale(0.26458333)"
           id="path4652"
           d="m 390.90757,579.57027 c 0,-0.13031 97.39309,-135.1099 97.67851,-135.37514 0.0908,-0.0844 200.52683,36.98855 201.20145,37.2145 0.34784,0.1165 -60.33707,20.19686 -134.85536,44.62303 -161.1623,52.82699 -164.0246,53.76124 -164.0246,53.53761 z"
           style="fill:#e53059;fill-opacity:1;fill-rule:nonzero;stroke:none;stroke-width:0.75590551;stroke-linecap:butt;stroke-linejoin:miter;stroke-miterlimit:4;stroke-dasharray:none;stroke-opacity:1;paint-order:normal" />
        <path
           transform="scale(0.26458333)"
           id="path4654"
           d="m 470.37514,606.71321 c -43.6584,-14.07585 -79.11475,-25.6902 -78.79189,-25.80965 3.65185,-1.35119 298.62766,-97.86827 298.75243,-97.75281 0.21682,0.20062 -139.96325,149.24911 -140.31794,149.19508 -0.14503,-0.0221 -35.98419,-11.55677 -79.6426,-25.63262 z"
           style="fill:#838383;fill-opacity:1;fill-rule:nonzero;stroke:none;stroke-width:0.75590551;stroke-linecap:butt;stroke-linejoin:miter;stroke-miterlimit:4;stroke-dasharray:none;stroke-opacity:1;paint-order:normal" />
        <path
           transform="scale(0.26458333)"
           id="path4656"
           d="M 483.71432,709.78572 C 432.66949,639.90078 390.9678,582.65993 391.04389,582.58384 c 0.11225,-0.11225 158.51502,50.75704 158.79246,50.99443 0.16322,0.13967 26.94674,203.01933 26.81837,203.14359 -0.0724,0.0701 -41.89557,-57.0512 -92.9404,-126.93614 z"
           style="fill:#c0c0c0;fill-opacity:1;fill-rule:nonzero;stroke:none;stroke-width:27.10708618;stroke-linecap:butt;stroke-linejoin:miter;stroke-miterlimit:4;stroke-dasharray:none;stroke-opacity:1;paint-order:normal" />
        <path
           transform="scale(0.26458333)"
           id="path4658"
           d="m 482.28087,793.94034 -92.22193,-43.49393 -0.3002,-83.39114 c -0.16512,-45.86513 -0.22767,-83.46369 -0.13899,-83.55236 0.0887,-0.0887 41.70249,56.72836 92.47517,126.26007 50.77267,69.53171 92.53338,126.7054 92.80157,127.05264 0.26818,0.34724 0.28931,0.62848 0.047,0.62499 -0.24236,-0.004 -41.94052,-19.57861 -92.66257,-43.50027 z"
           style="fill:#29006a;fill-opacity:1;fill-rule:nonzero;stroke:none;stroke-width:0.75590551;stroke-linecap:butt;stroke-linejoin:miter;stroke-miterlimit:4;stroke-dasharray:none;stroke-opacity:1;paint-order:normal" />
        <path
           transform="scale(0.26458333)"
           id="path4660"
           d="m 204.0867,838.1175 c 0.10735,-0.27532 41.56093,-57.73511 92.11907,-127.68843 l 91.92388,-127.18784 0.32309,83.54003 c 0.1777,45.94702 0.29134,83.5732 0.25254,83.61372 -0.11601,0.12115 -183.35346,87.65181 -184.1135,87.94915 -0.38515,0.15067 -0.61243,0.0487 -0.50508,-0.22663 z"
           style="fill:#8e59e9;fill-opacity:1;fill-rule:nonzero;stroke:none;stroke-width:27.10708618;stroke-linecap:butt;stroke-linejoin:miter;stroke-miterlimit:4;stroke-dasharray:none;stroke-opacity:1;paint-order:normal" />
        <path
           transform="scale(0.26458333)"
           id="path4662"
           d="m 202.51412,836.95637 c 0,-1.58724 25.29948,-200.37774 25.63971,-201.46385 0.33722,-1.07649 7.7074,-3.59137 79.41615,-27.09861 43.47444,-14.25159 79.11112,-25.84852 79.19262,-25.77096 0.14246,0.13559 -182.83593,253.56538 -183.78446,254.54622 -0.28966,0.29952 -0.46402,0.21956 -0.46402,-0.2128 z"
           style="fill:#fee250;fill-opacity:1;fill-rule:nonzero;stroke:none;stroke-width:2.83464575;stroke-linecap:butt;stroke-linejoin:miter;stroke-miterlimit:4;stroke-dasharray:none;stroke-opacity:1;paint-order:normal" />
        <path
           transform="scale(0.26458333)"
           id="path4664"
           d="m 158.23202,560.00505 c -38.28693,-40.28322 -69.683687,-73.64874 -69.77057,-74.14561 -0.134214,-0.76754 0.05567,-0.84067 1.262691,-0.48635 2.186033,0.64172 296.877319,95.58605 296.985119,95.68336 0.0522,0.0471 -24.49455,8.13871 -54.54824,17.98139 -30.05369,9.84267 -65.81957,21.56635 -79.47974,26.0526 l -24.83666,8.15684 z"
           style="fill:#ffb900;fill-opacity:1;fill-rule:nonzero;stroke:none;stroke-width:27.10708618;stroke-linecap:butt;stroke-linejoin:miter;stroke-miterlimit:4;stroke-dasharray:none;stroke-opacity:1;paint-order:normal" />
        <path
           transform="scale(0.26458333)"
           id="path4668"
           d="M 259.91931,538.93166 C 191.1658,516.74903 124.04528,495.10217 110.76258,490.82753 l -24.150345,-7.77207 2.937146,-0.56927 c 1.615431,-0.3131 46.689379,-8.8662 100.164329,-19.00689 53.47495,-10.14069 97.57617,-18.51978 98.00271,-18.6202 0.53425,-0.12579 15.85473,20.45509 49.24493,66.15354 26.65818,36.48487 48.78125,66.7933 49.16237,67.35206 0.61706,0.90468 0.58941,1.00953 -0.25254,0.95747 -0.52002,-0.0322 -57.19836,-18.20789 -125.95187,-40.39051 z"
           style="fill:#fee250;fill-opacity:1;fill-rule:nonzero;stroke:none;stroke-width:0.75590551;stroke-linecap:butt;stroke-linejoin:miter;stroke-miterlimit:4;stroke-dasharray:none;stroke-opacity:1;paint-order:normal" />
      </g>
    </g>
  </g>
</svg>
