<svg xmlns="http://www.w3.org/2000/svg" xmlns:xlink="http://www.w3.org/1999/xlink" width="1387.87" height="1698.09"><g transform="translate(0 0)"><path d="M1007.06 65c0-2.76 2.24-5 5-5h171.88c2.76 0 5 2.24 5 5v237c0 2.76-2.24 5-5 5h-171.88c-2.76 0-5-2.24-5-5z" stroke="#000" stroke-width="2" fill="#fff"/><path d="M1007.06 98h181.88m-181.88 181h181.88" stroke="#000" stroke-width="2" fill="none"/><use xlink:href="#a" transform="matrix(1,0,0,1,1015.060608757565,60) translate(55.025 22.6)"/><use xlink:href="#b" transform="matrix(1,0,0,1,1019.060608757565,105.6) translate(0 14.4)"/><use xlink:href="#c" transform="matrix(1,0,0,1,1019.060608757565,105.6) translate(10.95 14.4)"/><use xlink:href="#d" transform="matrix(1,0,0,1,1019.060608757565,105.6) translate(81.85000000000001 14.4)"/><use xlink:href="#b" transform="matrix(1,0,0,1,1019.060608757565,105.6) translate(0 36)"/><use xlink:href="#e" transform="matrix(1,0,0,1,1019.060608757565,105.6) translate(10.95 36)"/><use xlink:href="#d" transform="matrix(1,0,0,1,1019.060608757565,105.6) translate(55.900000000000006 36)"/><use xlink:href="#b" transform="matrix(1,0,0,1,1019.060608757565,105.6) translate(0 57.6)"/><use xlink:href="#f" transform="matrix(1,0,0,1,1019.060608757565,105.6) translate(10.95 57.6)"/><use xlink:href="#g" transform="matrix(1,0,0,1,1019.060608757565,105.6) translate(58.95 57.6)"/><use xlink:href="#b" transform="matrix(1,0,0,1,1019.060608757565,105.6) translate(0 79.20000000000002)"/><use xlink:href="#h" transform="matrix(1,0,0,1,1019.060608757565,105.6) translate(10.95 79.20000000000002)"/><use xlink:href="#i" transform="matrix(1,0,0,1,1019.060608757565,105.6) translate(50.95 79.20000000000002)"/><use xlink:href="#b" transform="matrix(1,0,0,1,1019.060608757565,105.6) translate(0 100.80000000000001)"/><use xlink:href="#j" transform="matrix(1,0,0,1,1019.060608757565,105.6) translate(10.95 100.80000000000001)"/><use xlink:href="#i" transform="matrix(1,0,0,1,1019.060608757565,105.6) translate(63.900000000000006 100.80000000000001)"/><use xlink:href="#b" transform="matrix(1,0,0,1,1019.060608757565,105.6) translate(0 122.4)"/><use xlink:href="#k" transform="matrix(1,0,0,1,1019.060608757565,105.6) translate(10.95 122.4)"/><use xlink:href="#i" transform="matrix(1,0,0,1,1019.060608757565,105.6) translate(57.8 122.4)"/><use xlink:href="#b" transform="matrix(1,0,0,1,1019.060608757565,105.6) translate(0 144)"/><use xlink:href="#l" transform="matrix(1,0,0,1,1019.060608757565,105.6) translate(10.95 144)"/><use xlink:href="#d" transform="matrix(1,0,0,1,1019.060608757565,105.6) translate(77.85000000000001 144)"/><use xlink:href="#b" transform="matrix(1,0,0,1,1019.060608757565,105.6) translate(0 165.6)"/><use xlink:href="#m" transform="matrix(1,0,0,1,1019.060608757565,105.6) translate(10.95 165.6)"/><use xlink:href="#n" transform="matrix(1,0,0,1,1019.060608757565,105.6) translate(90.85000000000001 165.6)"/><path d="M468 65c0-2.76 2.24-5 5-5h292c2.76 0 5 2.24 5 5v210c0 2.76-2.24 5-5 5H473c-2.76 0-5-2.24-5-5z" stroke="#000" stroke-width="2" fill="#fff"/><path d="M468 98h302M468 245h302" stroke="#000" stroke-width="2" fill="none"/><use xlink:href="#o" transform="matrix(1,0,0,1,476,60) translate(103.05 22.6)"/><use xlink:href="#b" transform="matrix(1,0,0,1,480,105.6) translate(0 15.600000000000003)"/><use xlink:href="#e" transform="matrix(1,0,0,1,480,105.6) translate(10.95 15.600000000000003)"/><use xlink:href="#d" transform="matrix(1,0,0,1,480,105.6) translate(55.900000000000006 15.600000000000003)"/><use xlink:href="#b" transform="matrix(1,0,0,1,480,105.6) translate(0 37.2)"/><use xlink:href="#p" transform="matrix(1,0,0,1,480,105.6) translate(10.95 37.2)"/><use xlink:href="#q" transform="matrix(1,0,0,1,480,105.6) translate(72.75000000000001 37.2)"/><use xlink:href="#b" transform="matrix(1,0,0,1,480,105.6) translate(0 58.800000000000004)"/><use xlink:href="#r" transform="matrix(1,0,0,1,480,105.6) translate(10.95 58.800000000000004)"/><use xlink:href="#s" transform="matrix(1,0,0,1,480,105.6) translate(116.80000000000001 58.800000000000004)"/><use xlink:href="#b" transform="matrix(1,0,0,1,480,105.6) translate(0 80.40000000000002)"/><use xlink:href="#t" transform="matrix(1,0,0,1,480,105.6) translate(10.95 80.40000000000002)"/><use xlink:href="#u" transform="matrix(1,0,0,1,480,105.6) translate(75.9 80.40000000000002)"/><use xlink:href="#v" transform="matrix(1,0,0,1,480,105.6) translate(0 102.00000000000001)"/><use xlink:href="#w" transform="matrix(1,0,0,1,480,105.6) translate(10.95 102.00000000000001)"/><use xlink:href="#x" transform="matrix(1,0,0,1,480,105.6) translate(66.85 102.00000000000001)"/><use xlink:href="#v" transform="matrix(1,0,0,1,480,105.6) translate(0 123.60000000000001)"/><use xlink:href="#y" transform="matrix(1,0,0,1,480,105.6) translate(10.95 123.60000000000001)"/><use xlink:href="#z" transform="matrix(1,0,0,1,480,105.6) translate(142.75 123.60000000000001)"/><path d="M300 369.7c0-2.76 2.24-5 5-5h171.88c2.76 0 5 2.24 5 5V467c0 2.76-2.24 5-5 5H305c-2.76 0-5-2.24-5-5z" stroke="#000" stroke-width="2" fill="#fff"/><path d="M300 402h181.88M300 452h181.88" stroke="#000" stroke-width="2" fill="none"/><use xlink:href="#A" transform="matrix(1,0,0,1,308,364.69668921324313) translate(66.525 22.6)"/><use xlink:href="#v" transform="matrix(1,0,0,1,312,410.29668921324316) translate(0 14.4)"/><use xlink:href="#B" transform="matrix(1,0,0,1,312,410.29668921324316) translate(10.95 14.4)"/><use xlink:href="#C" transform="matrix(1,0,0,1,312,410.29668921324316) translate(84.9 14.4)"/><use xlink:href="#b" transform="matrix(1,0,0,1,312,410.29668921324316) translate(0 36)"/><use xlink:href="#D" transform="matrix(1,0,0,1,312,410.29668921324316) translate(10.95 36)"/><use xlink:href="#E" transform="matrix(1,0,0,1,312,410.29668921324316) translate(59.900000000000006 36)"/><path d="M500 607c0-2.76 2.24-5 5-5h228c2.76 0 5 2.24 5 5v73c0 2.76-2.24 5-5 5H505c-2.76 0-5-2.24-5-5z" stroke="#000" stroke-width="2" fill="#fff"/><path d="M500 640h238m-238 45h238" stroke="#000" stroke-width="2" fill="none"/><use xlink:href="#F" transform="matrix(1,0,0,1,508,602) translate(95.525 22.6)"/><use xlink:href="#v" transform="matrix(1,0,0,1,512,647.6) translate(0 18.6)"/><use xlink:href="#G" transform="matrix(1,0,0,1,512,647.6) translate(10.95 18.6)"/><use xlink:href="#H" transform="matrix(1,0,0,1,512,647.6) translate(55.900000000000006 18.6)"/><path d="M619 280v322" stroke="#000" stroke-width="2" fill="none"/><use xlink:href="#I" transform="matrix(1,0,0,1,584,287.5275881442213) translate(0 14.4)"/><use xlink:href="#J" transform="matrix(1,0,0,1,584,577.2795574654815) translate(0 14.4)"/><path d="M996 477c0-2.76 2.24-5 5-5h194c2.76 0 5 2.24 5 5v120c0 2.76-2.24 5-5 5h-194c-2.76 0-5-2.24-5-5z" stroke="#000" stroke-width="2" fill="#fff"/><path d="M996 510h204m-204 70h204" stroke="#000" stroke-width="2" fill="none"/><use xlink:href="#K" transform="matrix(1,0,0,1,1004,472) translate(52.574999999999996 22.6)"/><use xlink:href="#b" transform="matrix(1,0,0,1,1008,517.6) translate(0 14.4)"/><use xlink:href="#e" transform="matrix(1,0,0,1,1008,517.6) translate(10.95 14.4)"/><use xlink:href="#d" transform="matrix(1,0,0,1,1008,517.6) translate(55.900000000000006 14.4)"/><use xlink:href="#b" transform="matrix(1,0,0,1,1008,517.6) translate(0 36)"/><use xlink:href="#L" transform="matrix(1,0,0,1,1008,517.6) translate(10.95 36)"/><use xlink:href="#M" transform="matrix(1,0,0,1,1008,517.6) translate(54.95 36)"/><use xlink:href="#b" transform="matrix(1,0,0,1,1008,517.6) translate(0 57.6)"/><use xlink:href="#N" transform="matrix(1,0,0,1,1008,517.6) translate(10.95 57.6)"/><use xlink:href="#O" transform="matrix(1,0,0,1,1008,517.6) translate(71.9 57.6)"/><path d="M1098 307v164" stroke="#000" stroke-width="2" fill="none"/><path d="M1112.85 321.85L1098 337l-14.85-15.15L1098 307z" fill="#fff"/><path d="M1114.26 321.84l-16.26 16.6-16.26-16.6L1096.6 307h2.8zm-29.7.02l13.44 13.7 13.44-13.7L1098 308.4zM1099 472h-2v-1h2z"/><use xlink:href="#J" transform="matrix(1,0,0,1,1106,328.6942828000504) translate(0 14.4)"/><use xlink:href="#J" transform="matrix(1,0,0,1,1106,450.2) translate(0 14.4)"/><path d="M1098 307" stroke="#000" stroke-width="2" fill="none"/><path d="M1120 897.5c0-2.76 2.24-5 5-5h210c2.76 0 5 2.24 5 5v95c0 2.76-2.24 5-5 5h-210c-2.76 0-5-2.24-5-5z" stroke="#000" stroke-width="2" fill="#fff"/><path d="M1120 930.5h220m-220 37h220" stroke="#000" stroke-width="2" fill="none"/><use xlink:href="#P" transform="matrix(1,0,0,1,1128,892.5) translate(39.55 22.6)"/><use xlink:href="#v" transform="matrix(1,0,0,1,1132,938.1) translate(0 14.6)"/><use xlink:href="#G" transform="matrix(1,0,0,1,1132,938.1) translate(10.95 14.6)"/><use xlink:href="#H" transform="matrix(1,0,0,1,1132,938.1) translate(55.900000000000006 14.6)"/><path d="M439 900c0-2.76 2.24-5 5-5h350c2.76 0 5 2.24 5 5v110c0 2.76-2.24 5-5 5H444c-2.76 0-5-2.24-5-5z" stroke="#000" stroke-width="2" fill="#fff"/><path d="M439 933h360m-360 43h360" stroke="#000" stroke-width="2" fill="none"/><use xlink:href="#Q" transform="matrix(1,0,0,1,447,895) translate(149.525 22.6)"/><use xlink:href="#v" transform="matrix(1,0,0,1,451,940.6) translate(0 17.6)"/><use xlink:href="#R" transform="matrix(1,0,0,1,451,940.6) translate(10.95 17.6)"/><use xlink:href="#S" transform="matrix(1,0,0,1,451,940.6) translate(55.95 17.6)"/><path d="M891 816.5c0-2.76 2.24-5 5-5h133.7c2.76 0 6.58 1.58 8.54 3.54l9.22 9.22c1.96 1.96 3.54 5.78 3.54 8.54V888c0 2.76-2.24 5-5 5H896c-2.76 0-5-2.24-5-5z" stroke="#000" stroke-width="2" fill="#fff"/><path d="M1035.9 816.35c-.66-2.68.38-3.27 2.34-1.3l9.22 9.2c1.96 1.97 1.37 3-1.3 2.34l-3.35-.85c-2.67-.67-5.38-3.38-6.05-6.06z" stroke="#000" stroke-width="2" fill="#b3b3b3"/><use xlink:href="#T" transform="matrix(1,0,0,1,891,811.5) translate(6.01 22.0875)"/><use xlink:href="#U" transform="matrix(1,0,0,1,891,811.5) translate(70.96000000000001 22.0875)"/><use xlink:href="#V" transform="matrix(1,0,0,1,891,811.5) translate(5.01 43.6875)"/><use xlink:href="#W" transform="matrix(1,0,0,1,891,811.5) translate(72.96000000000001 43.6875)"/><use xlink:href="#X" transform="matrix(1,0,0,1,891,811.5) translate(115.96000000000001 43.6875)"/><use xlink:href="#Y" transform="matrix(1,0,0,1,891,811.5) translate(5.01 65.28750000000001)"/><use xlink:href="#Z" transform="matrix(1,0,0,1,891,811.5) translate(59.910000000000004 65.28750000000001)"/><path d="M1119 910.65h-29c-2.76 0-5-2.24-5-5v-48.4c0-2.76-2.24-5-5-5h-29" fill="none"/><path d="M1119 910.65h-2.9m-3.87 0h-5.8m-3.86 0h-5.8m-3.87 0h-2.9l-2.2-.72m-2.12-2.12l-.43-.57-.25-1.58v-2.9m0-3.88v-5.8m0-3.88v-5.82m0-3.87v-5.8m0-3.87v-5.8m0-3.88v-2.9l-.72-2.2m-2.12-2.12l-.58-.43-1.58-.25h-2.9m-3.87 0h-5.8m-3.86 0h-5.8m-3.87 0h-2.9" stroke="#000" stroke-width="2" fill="none"/><path d="M1120 911.65h-1v-2h1z"/><path d="M619 685v209" stroke="#000" stroke-width="2" fill="none"/><path d="M633.85 879.15L619 894l-14.85-14.85L619 864z" fill="#fff"/><path d="M635.26 879.16L619.4 895h-.8l-15.86-15.84 16.26-16.6zm-29.7-.02L619 892.6l13.44-13.46-13.44-13.7z"/><use xlink:href="#I" transform="matrix(1,0,0,1,627,685.2) translate(0 14.4)"/><use xlink:href="#J" transform="matrix(1,0,0,1,627,852.0891606558247) translate(0 14.4)"/><path d="M799 955h320" stroke="#000" stroke-width="2" fill="none"/><path d="M1120 956h-1v-2h1z"/><use xlink:href="#I" transform="matrix(1,0,0,1,804.1495969667262,929.4) translate(0 14.4)"/><use xlink:href="#aa" transform="matrix(1,0,0,1,1100.7521055263148,929.4) translate(0 14.4)"/><path d="M120 626.5c0-2.76 2.24-5 5-5h150c2.76 0 5 2.24 5 5v110c0 2.76-2.24 5-5 5H125c-2.76 0-5-2.24-5-5z" stroke="#000" stroke-width="2" fill="#fff"/><path d="M120 659h160m-160 41h160" stroke="#000" stroke-width="2" fill="none"/><use xlink:href="#ab" transform="matrix(1,0,0,1,128,621.5) translate(17.599999999999994 22.6)"/><path d="M120 778c0-2.76 2.24-5 5-5h150c2.76 0 5 2.24 5 5v110c0 2.76-2.24 5-5 5H125c-2.76 0-5-2.24-5-5z" stroke="#000" stroke-width="2" fill="#fff"/><path d="M120 811h160m-160 41h160" stroke="#000" stroke-width="2" fill="none"/><use xlink:href="#ac" transform="matrix(1,0,0,1,128,773) translate(35.574999999999996 22.6)"/><path d="M120 929.5c0-2.76 2.24-5 5-5h150c2.76 0 5 2.24 5 5v110c0 2.76-2.24 5-5 5H125c-2.76 0-5-2.24-5-5z" stroke="#000" stroke-width="2" fill="#fff"/><path d="M120 962h160m-160 41h160" stroke="#000" stroke-width="2" fill="none"/><use xlink:href="#ad" transform="matrix(1,0,0,1,128,924.5) translate(50.574999999999996 22.6)"/><path d="M280 681.5h73.5c2.76 0 5 2.24 5 5v70.54c0 .1.1.2.2.2.13 0 .23.1.23.22V833M280 833h74c2.76 0 5 2.24 5 5v112.3c0 2.76 2.24 5 5 5h74" stroke="#000" stroke-width="2" fill="none"/><path d="M438 955.3l-21.52 12.73v-25.45z" fill="#fff"/><path d="M439 954.73v1.14l-23.52 13.9v-28.95zm-21.52 11.55l18.56-10.98-18.56-10.97z"/><path d="M280 984.5h73.67c2.77 0 5-2.24 5-5V833" stroke="#000" stroke-width="2" fill="none"/><path d="M623 418.37c0-2.76 2.24-5 5-5h108c2.76 0 5 2.24 5 5v10c0 2.76-2.24 5-5 5H628c-2.76 0-5-2.24-5-5z" fill="none"/><use xlink:href="#ae" transform="matrix(1,0,0,1,623,413.3668351303145) translate(17.574999999999996 14.4)"/><path d="M620 286.42c0-2.76 2.24-5 5-5h111c2.76 0 5 2.24 5 5V303c0 2.76-2.24 5-5 5H625c-2.76 0-5-2.24-5-5z" fill="none"/><use xlink:href="#af" transform="matrix(1,0,0,1,620,281.42251690993237) translate(9.524999999999999 17.1)"/><use xlink:href="#ag" transform="matrix(1,0,0,1,620,281.42251690993237) translate(38.525 17.1)"/><path d="M630 585c0-2.76 2.24-5 5-5h88c2.76 0 5 2.24 5 5v12c0 2.76-2.24 5-5 5h-88c-2.76 0-5-2.24-5-5z" fill="none"/><use xlink:href="#ah" transform="matrix(1,0,0,1,630,580) translate(12.524999999999999 14.6)"/><path d="M620 773.63c0-2.76 2.24-5 5-5h110c2.76 0 5 2.24 5 5v12.04c0 2.76-2.24 5-5 5H625c-2.76 0-5-2.24-5-5z" fill="none"/><use xlink:href="#ai" transform="matrix(1,0,0,1,620,768.6331648696855) translate(19.074999999999996 15.1)"/><path d="M500 690c0-2.76 2.24-5 5-5h110c2.76 0 5 2.24 5 5v13c0 2.76-2.24 5-5 5H505c-2.76 0-5-2.24-5-5z" fill="none"/><use xlink:href="#af" transform="matrix(1,0,0,1,500,685) translate(9.524999999999999 15.1)"/><use xlink:href="#aj" transform="matrix(1,0,0,1,500,685) translate(38.525 15.1)"/><path d="M520 865c0-2.76 2.24-5 5-5h70c2.76 0 5 2.24 5 5v10c0 2.76-2.24 5-5 5h-70c-2.76 0-5-2.24-5-5z" fill="none"/><use xlink:href="#ak" transform="matrix(1,0,0,1,520,860) translate(4.024999999999999 14.4)"/><path d="M1037.6 384.5c0-2.76 2.23-5 5-5h50c2.75 0 5 2.24 5 5v10c0 2.76-2.25 5-5 5h-50c-2.77 0-5-2.24-5-5z" fill="none"/><use xlink:href="#al" transform="matrix(1,0,0,1,1037.5909131363474,379.5) translate(9.049999999999997 14.4)"/><path d="M1038 457c0-2.76 2.24-5 5-5h50c2.76 0 5 2.24 5 5v10c0 2.76-2.24 5-5 5h-50c-2.76 0-5-2.24-5-5z" fill="none"/><use xlink:href="#am" transform="matrix(1,0,0,1,1038,452) translate(9.524999999999999 14.4)"/><path d="M982 312.2c0-2.76 2.24-5 5-5h86c2.76 0 5 2.24 5 5v11.6c0 2.76-2.24 5-5 5h-86c-2.76 0-5-2.24-5-5z" fill="none"/><use xlink:href="#an" transform="matrix(1,0,0,1,982,307.2) translate(1.5499999999999972 14.6)"/><use xlink:href="#ao" transform="matrix(1,0,0,1,982,307.2) translate(30.549999999999997 14.6)"/><use xlink:href="#ap" transform="matrix(1,0,0,1,982,307.2) translate(68.5 14.6)"/><path d="M907 936.5c0-2.76 2.24-5 5-5h90c2.76 0 5 2.24 5 5v10c0 2.76-2.24 5-5 5h-90c-2.76 0-5-2.24-5-5z" fill="none"/><use xlink:href="#aq" transform="matrix(1,0,0,1,907,931.5) translate(1.0999999999999943 14.4)"/><path d="M802 965c0-2.76 2.24-5 5-5h82.7c2.76 0 5 2.24 5 5v10c0 2.76-2.24 5-5 5H807c-2.76 0-5-2.24-5-5z" fill="none"/><use xlink:href="#ar" transform="matrix(1,0,0,1,802,960) translate(0.5749999999999957 14.4)"/><path d="M987.3 960c0-2.76 2.24-5 5-5H1115c2.76 0 5 2.24 5 5v10c0 2.76-2.24 5-5 5H992.3c-2.76 0-5-2.24-5-5z" fill="none"/><use xlink:href="#af" transform="matrix(1,0,0,1,987.3033107867232,955) translate(8.049999999999997 14.4)"/><use xlink:href="#as" transform="matrix(1,0,0,1,987.3033107867232,955) translate(37.05 14.4)"/><path d="M801.97 1384.65c0-2.76 2.24-5 5-5h170c2.76 0 5 2.24 5 5v250c0 2.76-2.24 5-5 5h-170c-2.76 0-5-2.24-5-5z" stroke="#000" stroke-width="2" fill="#fff"/><path d="M801.97 1439h180" stroke="#000" stroke-width="2" fill="none"/><use xlink:href="#at" transform="matrix(1,0,0,1,809.9696956212174,1379.6516553933616) translate(7.125 22.799999999999997)"/><use xlink:href="#au" transform="matrix(1,0,0,1,809.9696956212174,1379.6516553933616) translate(22.599999999999994 44.4)"/><use xlink:href="#av" transform="matrix(1,0,0,1,813.9696956212174,1446.8516553933616) translate(0 20.500000000000007)"/><use xlink:href="#aw" transform="matrix(1,0,0,1,813.9696956212174,1446.8516553933616) translate(0 42.10000000000001)"/><use xlink:href="#ax" transform="matrix(1,0,0,1,813.9696956212174,1446.8516553933616) translate(0 63.70000000000001)"/><use xlink:href="#ay" transform="matrix(1,0,0,1,813.9696956212174,1446.8516553933616) translate(0 85.30000000000003)"/><use xlink:href="#az" transform="matrix(1,0,0,1,813.9696956212174,1446.8516553933616) translate(0 106.90000000000002)"/><use xlink:href="#aA" transform="matrix(1,0,0,1,813.9696956212174,1446.8516553933616) translate(0 128.5)"/><use xlink:href="#aB" transform="matrix(1,0,0,1,813.9696956212174,1446.8516553933616) translate(0 150.1)"/><use xlink:href="#aC" transform="matrix(1,0,0,1,813.9696956212174,1446.8516553933616) translate(0 171.70000000000002)"/><path d="M60 65c0-2.76 2.24-5 5-5h308.6c2.76 0 6.58 1.58 8.54 3.54l14.32 14.32c1.96 1.96 3.54 5.78 3.54 8.54V162c0 2.76-2.24 5-5 5H65c-2.76 0-5-2.24-5-5z" stroke="#000" stroke-width="2" fill="#fff"/><path d="M379.8 64.85c-.66-2.68.38-3.27 2.34-1.3l14.32 14.3c1.96 1.97 1.37 3-1.3 2.34l-7.43-1.87c-2.68-.67-5.4-3.38-6.06-6.06z" stroke="#000" stroke-width="2" fill="#b3b3b3"/><g><use xlink:href="#aD" transform="matrix(1,0,0,1,60,60) translate(5.01 24.43125)"/><use xlink:href="#aE" transform="matrix(1,0,0,1,60,60) translate(30.009999999999998 24.43125)"/><use xlink:href="#aF" transform="matrix(1,0,0,1,60,60) translate(68.96000000000001 24.43125)"/><use xlink:href="#aG" transform="matrix(1,0,0,1,60,60) translate(97.96000000000001 24.43125)"/><use xlink:href="#aH" transform="matrix(1,0,0,1,60,60) translate(175.91000000000003 24.43125)"/><use xlink:href="#aI" transform="matrix(1,0,0,1,60,60) translate(200.91000000000003 24.43125)"/><use xlink:href="#aH" transform="matrix(1,0,0,1,60,60) translate(234.86 24.43125)"/><use xlink:href="#aJ" transform="matrix(1,0,0,1,60,60) translate(259.86 24.43125)"/><use xlink:href="#aH" transform="matrix(1,0,0,1,60,60) translate(5.01 46.03125)"/><use xlink:href="#aK" transform="matrix(1,0,0,1,60,60) translate(30.009999999999998 46.03125)"/><use xlink:href="#aL" transform="matrix(1,0,0,1,60,60) translate(57.959999999999994 46.03125)"/><use xlink:href="#aM" transform="matrix(1,0,0,1,60,60) translate(77.96 46.03125)"/><use xlink:href="#aN" transform="matrix(1,0,0,1,60,60) translate(126.35999999999999 46.03125)"/><use xlink:href="#aO" transform="matrix(1,0,0,1,60,60) translate(153.76 46.03125)"/><use xlink:href="#aP" transform="matrix(1,0,0,1,60,60) translate(5.01 67.63125000000001)"/><use xlink:href="#aQ" transform="matrix(1,0,0,1,60,60) translate(30.009999999999998 67.63125000000001)"/><use xlink:href="#aR" transform="matrix(1,0,0,1,60,60) translate(98.96000000000001 67.63125000000001)"/><use xlink:href="#aF" transform="matrix(1,0,0,1,60,60) translate(150.81 67.63125000000001)"/><use xlink:href="#aS" transform="matrix(1,0,0,1,60,60) translate(179.81 67.63125000000001)"/><use xlink:href="#aT" transform="matrix(1,0,0,1,60,60) translate(204.81 67.63125000000001)"/><use xlink:href="#aU" transform="matrix(1,0,0,1,60,60) translate(5.01 89.23125000000002)"/></g><path d="M401 131.56h66" fill="none"/><path d="M401 131.56h2.83m3.77 0h5.66m3.77 0h5.66m3.76 0h5.65m3.8 0h5.64m3.77 0h5.67m3.77 0h5.66m3.77 0H467" stroke="#000" stroke-width="2" fill="none"/><path d="M401 132.56h-1v-2h1zM468 132.56h-1v-2h1z"/><path d="M120 1384.65c0-2.76 2.24-5 5-5h150c2.76 0 5 2.24 5 5v150c0 2.76-2.24 5-5 5H125c-2.76 0-5-2.24-5-5z" stroke="#000" stroke-width="2" fill="#fff"/><path d="M120 1439h160" stroke="#000" stroke-width="2" fill="none"/><g><use xlink:href="#aV" transform="matrix(1,0,0,1,128,1379.6516553933616) translate(-2.875 22.799999999999997)"/><use xlink:href="#aW" transform="matrix(1,0,0,1,128,1379.6516553933616) translate(39.55 44.4)"/></g><g><use xlink:href="#aX" transform="matrix(1,0,0,1,132,1446.8516553933616) translate(0 14.4)"/><use xlink:href="#aY" transform="matrix(1,0,0,1,132,1446.8516553933616) translate(0 36)"/><use xlink:href="#aZ" transform="matrix(1,0,0,1,132,1446.8516553933616) translate(0 57.6)"/><use xlink:href="#ba" transform="matrix(1,0,0,1,132,1446.8516553933616) translate(0 79.20000000000002)"/></g><path d="M334.03 1384.65c0-2.76 2.24-5 5-5h168c2.76 0 5 2.24 5 5v137.3c0 2.77-2.24 5-5 5h-168c-2.76 0-5-2.23-5-5z" stroke="#000" stroke-width="2" fill="#fff"/><path d="M334.03 1439h178" stroke="#000" stroke-width="2" fill="none"/><g><use xlink:href="#aV" transform="matrix(1,0,0,1,342.0303043787824,1379.6516553933616) translate(6.125 22.799999999999997)"/><use xlink:href="#bb" transform="matrix(1,0,0,1,342.0303043787824,1379.6516553933616) translate(45.025 44.4)"/></g><g><use xlink:href="#bc" transform="matrix(1,0,0,1,346.0303043787824,1446.8516553933616) translate(0 18.5)"/><use xlink:href="#bd" transform="matrix(1,0,0,1,346.0303043787824,1446.8516553933616) translate(0 40.1)"/><use xlink:href="#be" transform="matrix(1,0,0,1,346.0303043787824,1446.8516553933616) translate(49.85 40.1)"/><use xlink:href="#bf" transform="matrix(1,0,0,1,346.0303043787824,1446.8516553933616) translate(64.85 40.1)"/><use xlink:href="#ba" transform="matrix(1,0,0,1,346.0303043787824,1446.8516553933616) translate(0 61.7)"/></g><path d="M566.06 1384.65c0-2.76 2.24-5 5-5h171.88c2.76 0 5 2.24 5 5v120c0 2.76-2.24 5-5 5H571.06c-2.76 0-5-2.24-5-5z" stroke="#000" stroke-width="2" fill="#fff"/><path d="M566.06 1439h181.88" stroke="#000" stroke-width="2" fill="none"/><g><use xlink:href="#aV" transform="matrix(1,0,0,1,574.060608757565,1379.6516553933616) translate(8.125 22.799999999999997)"/><use xlink:href="#bg" transform="matrix(1,0,0,1,574.060608757565,1379.6516553933616) translate(46.25 44.4)"/></g><g><use xlink:href="#bh" transform="matrix(1,0,0,1,578.060608757565,1446.8516553933616) translate(0 20.299999999999997)"/><use xlink:href="#bi" transform="matrix(1,0,0,1,578.060608757565,1446.8516553933616) translate(0 41.9)"/></g><path d="M825 638c0-2.76 2.24-5 5-5h152c2.76 0 5 2.24 5 5v130c0 2.76-2.24 5-5 5H830c-2.76 0-5-2.24-5-5z" stroke="#000" stroke-width="2" fill="#fff"/><path d="M825 692h162" stroke="#000" stroke-width="2" fill="none"/><g><use xlink:href="#aV" transform="matrix(1,0,0,1,833,633) translate(-1.875 22.799999999999997)"/><use xlink:href="#bj" transform="matrix(1,0,0,1,833,633) translate(39.575 44.4)"/></g><g><use xlink:href="#bk" transform="matrix(1,0,0,1,837,700.2) translate(0 14.500000000000002)"/><use xlink:href="#bl" transform="matrix(1,0,0,1,837,700.2) translate(0 36.1)"/><use xlink:href="#bm" transform="matrix(1,0,0,1,837,700.2) translate(0 57.7)"/></g><path d="M420 1105c0-2.76 2.24-5 5-5h150c2.76 0 5 2.24 5 5v77.3c0 2.76-2.24 5-5 5H425c-2.76 0-5-2.24-5-5z" stroke="#000" stroke-width="2" fill="#fff"/><path d="M420 1138h160m-160 36h160" stroke="#000" stroke-width="2" fill="none"/><g><use xlink:href="#bn" transform="matrix(1,0,0,1,428,1100) translate(13.624999999999993 22.6)"/></g><path d="M200 1379.65l268.37-191.35" stroke="#000" stroke-width="2" fill="none"/><path d="M200 1379.65h-1.72l1.14-.8z"/><path d="M458.24 1211.16l-14.78-20.73 24.9-2.13z" fill="#fff"/><path d="M458.44 1213.17l-16.8-23.58 26.7-2.3h1.57zm-13.14-21.9l12.74 17.88 8.73-19.7z"/><path d="M423.03 1379.65l63.82-191.35" stroke="#000" stroke-width="2" fill="none"/><path d="M423.03 1379.65h-1.05l.1-.3z"/><path d="M492.1 1212.74l-24.13-8.05 18.88-16.4z" fill="#fff"/><path d="M493.46 1214.25l-27.47-9.17 20.47-17.78h1.2zm-23.5-9.95l20.8 6.94-4.53-21.07z"/><path d="M657 1379.65L500 1187.3" stroke="#000" stroke-width="2" fill="none"/><path d="M658.3 1379.65H657l.77-.63z"/><path d="M523.47 1195.93l-19.72 16.1-3.75-24.73z" fill="#fff"/><path d="M525.46 1195.6l-22.44 18.3-4.03-26.6h3.9zm-21 14.54l17.02-13.88-20.24-7.43z"/><path d="M891.97 1379.65L545.35 1188.3" stroke="#000" stroke-width="2" fill="none"/><path d="M894.04 1379.65h-2.07l.48-.87z"/><path d="M558.04 1209.84l-12.7-21.54 25-.74z" fill="#fff"/><path d="M558.07 1211.86l-14.44-24.5 1.7-.06h26.3zm-11-22.6l10.94 18.57 10.62-19.22z"/><path d="M770 170h108c2.76 0 5 2.24 5 5v357c0 2.76 2.24 5 5 5h108" stroke="#000" stroke-width="2" fill="none"/><path d="M996 537l-14.85 14.85L966 537l15.15-14.85z"/><path d="M996 535.6v2.8l-14.84 14.86-16.6-16.26 16.6-16.26zm-28.57 1.4l13.7 13.44L994.6 537l-13.46-13.44z"/><g><use xlink:href="#bo" transform="matrix(1,0,0,1,770.5,174) translate(0 14.4)"/></g><g><use xlink:href="#bp" transform="matrix(1,0,0,1,944.2511347894417,511.40000000000003) translate(0 14.4)"/></g><path d="M802 365c0-2.76 2.24-5 5-5h50c2.76 0 5 2.24 5 5v21.6c0 2.76-2.24 5-5 5h-50c-2.76 0-5-2.24-5-5z" fill="none"/><g><use xlink:href="#bq" transform="matrix(1,0,0,1,802,360) translate(4.574999999999996 19.6)"/></g><path d="M927 565c0-2.76 2.24-5 5-5h50c2.76 0 5 2.24 5 5v10c0 2.76-2.24 5-5 5h-50c-2.76 0-5-2.24-5-5z" fill="none"/><g><use xlink:href="#br" transform="matrix(1,0,0,1,927,560) translate(5.049999999999997 14.4)"/></g><path d="M770 145c0-2.76 2.24-5 5-5h130c2.76 0 5 2.24 5 5v10c0 2.76-2.24 5-5 5H775c-2.76 0-5-2.24-5-5z" fill="none"/><g><use xlink:href="#bs" transform="matrix(1,0,0,1,770,140) translate(12.574999999999996 14.4)"/><use xlink:href="#bt" transform="matrix(1,0,0,1,770,140) translate(43.574999999999996 14.4)"/><use xlink:href="#bu" transform="matrix(1,0,0,1,770,140) translate(101.475 14.4)"/></g><path d="M1300 891.45V188.5c0-2.76-2.24-5-5-5h-106.06" stroke="#000" stroke-width="2" fill="none"/><path d="M1301 892.5h-2v-1.05h2z"/><g><use xlink:href="#aa" transform="matrix(1,0,0,1,1308,870.6500000000001) translate(0 14.4)"/></g><g><use xlink:href="#bv" transform="matrix(1,0,0,1,1196.5312204251882,187.49999999999997) translate(0 14.4)"/></g><path d="M481.88 418.35h68.35c.1 0 .2.1.2.2 0 .13.1.23.22.23H619" fill="none"/><path d="M481.88 418.35h2.93m3.9 0h5.87m3.9 0h5.87m3.9 0h5.86m3.9 0h5.86m3.9 0h5.87m3.9 0h5.86m3.9 0h2.93l.15.06.06.16.06.15.15.08h2.93m3.9 0h5.87m3.9 0h5.86m3.92 0h5.85m3.9 0h5.87m3.9 0h5.86m3.9 0h5.87m3.9 0H619M1165.3 603v288.45" stroke="#000" stroke-width="2" fill="none"/><path d="M1166.3 603h-2v-1h2zM1166.3 892.5h-2v-1.05h2z"/><g><use xlink:href="#J" transform="matrix(1,0,0,1,1173.3069401939845,602.7633032258442) translate(0 14.4)"/></g><g><use xlink:href="#J" transform="matrix(1,0,0,1,1173.3069401939845,870.6500000000001) translate(0 14.4)"/></g><g><path d="M1273.4 580c-2.76 0-5-2.24-5-5v-70c0-2.76 2.24-5 5-5h33.2c2.76 0 5 2.24 5 5v70c0 2.76-2.24 5-5 5z" fill="none"/></g><g><use xlink:href="#bw" transform="matrix(6.123233995736766e-17,-1,1,6.123233995736766e-17,1268.4,580) translate(11.099999999999998 25.6)"/></g><g><path d="M1273 891c-2.76 0-5-2.24-5-5v-90c0-2.76 2.24-5 5-5h16.58c2.76 0 5 2.24 5 5v90c0 2.76-2.24 5-5 5z" fill="none"/></g><g><use xlink:href="#bx" transform="matrix(6.123233995736766e-17,-1,1,6.123233995736766e-17,1268,891.0000000000002) translate(24.075 17.1)"/></g><path d="M1192 165c0-2.76 2.24-5 5-5h110c2.76 0 5 2.24 5 5v10c0 2.76-2.24 5-5 5h-110c-2.76 0-5-2.24-5-5z" fill="none"/><g><use xlink:href="#by" transform="matrix(1,0,0,1,1192,160) translate(6.074999999999996 14.4)"/><use xlink:href="#bz" transform="matrix(1,0,0,1,1192,160) translate(37.074999999999996 14.4)"/><use xlink:href="#ap" transform="matrix(1,0,0,1,1192,160) translate(87.975 14.4)"/></g><path d="M1099 723.5c0-2.76 2.24-5 5-5h50c2.76 0 5 2.24 5 5v10c0 2.76-2.24 5-5 5h-50c-2.76 0-5-2.24-5-5z" fill="none"/><g><use xlink:href="#bA" transform="matrix(1,0,0,1,1099,718.5) translate(-0.8000000000000007 14.4)"/></g><defs><path d="M30-248c87 1 191-15 191 75 0 78-77 80-158 76V0H30v-248zm33 125c57 0 124 11 124-50 0-59-68-47-124-48v98" id="bB"/><path d="M141-36C126-15 110 5 73 4 37 3 15-17 15-53c-1-64 63-63 125-63 3-35-9-54-41-54-24 1-41 7-42 31l-33-3c5-37 33-52 76-52 45 0 72 20 72 64v82c-1 20 7 32 28 27v20c-31 9-61-2-59-35zM48-53c0 20 12 33 32 33 41-3 63-29 60-74-43 2-92-5-92 41" id="bC"/><path d="M59-47c-2 24 18 29 38 22v24C64 9 27 4 27-40v-127H5v-23h24l9-43h21v43h35v23H59v120" id="bD"/><path d="M24-231v-30h32v30H24zM24 0v-190h32V0H24" id="bE"/><path d="M100-194c63 0 86 42 84 106H49c0 40 14 67 53 68 26 1 43-12 49-29l28 8c-11 28-37 45-77 45C44 4 14-33 15-96c1-61 26-98 85-98zm52 81c6-60-76-77-97-28-3 7-6 17-6 28h103" id="bF"/><path d="M117-194c89-4 53 116 60 194h-32v-121c0-31-8-49-39-48C34-167 62-67 57 0H25l-1-190h30c1 10-1 24 2 32 11-22 29-35 61-36" id="bG"/><g id="a"><use transform="matrix(0.05,0,0,0.05,0,0)" xlink:href="#bB"/><use transform="matrix(0.05,0,0,0.05,12,0)" xlink:href="#bC"/><use transform="matrix(0.05,0,0,0.05,22,0)" xlink:href="#bD"/><use transform="matrix(0.05,0,0,0.05,27,0)" xlink:href="#bE"/><use transform="matrix(0.05,0,0,0.05,30.950000000000003,0)" xlink:href="#bF"/><use transform="matrix(0.05,0,0,0.05,40.95,0)" xlink:href="#bG"/><use transform="matrix(0.05,0,0,0.05,50.95,0)" xlink:href="#bD"/></g><path d="M16-82v-28h88v28H16" id="bH"/><use transform="matrix(0.05,0,0,0.05,0,0)" xlink:href="#bH" id="b"/><path d="M115-194c55 1 70 41 70 98S169 2 115 4C84 4 66-9 55-30l1 105H24l-1-265h31l2 30c10-21 28-34 59-34zm-8 174c40 0 45-34 45-75s-6-73-45-74c-42 0-51 32-51 76 0 43 10 73 51 73" id="bI"/><path d="M114-163C36-179 61-72 57 0H25l-1-190h30c1 12-1 29 2 39 6-27 23-49 58-41v29" id="bJ"/><path d="M100-194c62-1 85 37 85 99 1 63-27 99-86 99S16-35 15-95c0-66 28-99 85-99zM99-20c44 1 53-31 53-75 0-43-8-75-51-75s-53 32-53 75 10 74 51 75" id="bK"/><path d="M210-169c-67 3-38 105-44 169h-31v-121c0-29-5-50-35-48C34-165 62-65 56 0H25l-1-190h30c1 10-1 24 2 32 10-44 99-50 107 0 11-21 27-35 58-36 85-2 47 119 55 194h-31v-121c0-29-5-49-35-48" id="bL"/><path d="M33-154v-36h34v36H33zM33 0v-36h34V0H33" id="bM"/><g id="c"><use transform="matrix(0.05,0,0,0.05,0,0)" xlink:href="#bI"/><use transform="matrix(0.05,0,0,0.05,10,0)" xlink:href="#bJ"/><use transform="matrix(0.05,0,0,0.05,15.949999999999998,0)" xlink:href="#bF"/><use transform="matrix(0.05,0,0,0.05,25.950000000000003,0)" xlink:href="#bG"/><use transform="matrix(0.05,0,0,0.05,35.95,0)" xlink:href="#bK"/><use transform="matrix(0.05,0,0,0.05,45.95,0)" xlink:href="#bL"/><use transform="matrix(0.05,0,0,0.05,60.900000000000006,0)" xlink:href="#bM"/></g><path d="M185-189c-5-48-123-54-124 2 14 75 158 14 163 119 3 78-121 87-175 55-17-10-28-26-33-46l33-7c5 56 141 63 141-1 0-78-155-14-162-118-5-82 145-84 179-34 5 7 8 16 11 25" id="bN"/><path d="M177-190C167-65 218 103 67 71c-23-6-38-20-44-43l32-5c15 47 100 32 89-28v-30C133-14 115 1 83 1 29 1 15-40 15-95c0-56 16-97 71-98 29-1 48 16 59 35 1-10 0-23 2-32h30zM94-22c36 0 50-32 50-73 0-42-14-75-50-75-39 0-46 34-46 75s6 73 46 73" id="bO"/><g id="d"><use transform="matrix(0.05,0,0,0.05,0,0)" xlink:href="#bN"/><use transform="matrix(0.05,0,0,0.05,12,0)" xlink:href="#bD"/><use transform="matrix(0.05,0,0,0.05,17,0)" xlink:href="#bJ"/><use transform="matrix(0.05,0,0,0.05,22.95,0)" xlink:href="#bE"/><use transform="matrix(0.05,0,0,0.05,26.899999999999995,0)" xlink:href="#bG"/><use transform="matrix(0.05,0,0,0.05,36.9,0)" xlink:href="#bO"/></g><g id="e"><use transform="matrix(0.05,0,0,0.05,0,0)" xlink:href="#bG"/><use transform="matrix(0.05,0,0,0.05,10,0)" xlink:href="#bK"/><use transform="matrix(0.05,0,0,0.05,20,0)" xlink:href="#bL"/><use transform="matrix(0.05,0,0,0.05,34.95,0)" xlink:href="#bM"/></g><path d="M135-143c-3-34-86-38-87 0 15 53 115 12 119 90S17 21 10-45l28-5c4 36 97 45 98 0-10-56-113-15-118-90-4-57 82-63 122-42 12 7 21 19 24 35" id="bP"/><path d="M141 0L90-78 38 0H4l68-98-65-92h35l48 74 47-74h35l-64 92 68 98h-35" id="bQ"/><g id="f"><use transform="matrix(0.05,0,0,0.05,0,0)" xlink:href="#bP"/><use transform="matrix(0.05,0,0,0.05,9,0)" xlink:href="#bF"/><use transform="matrix(0.05,0,0,0.05,19,0)" xlink:href="#bQ"/><use transform="matrix(0.05,0,0,0.05,28,0)" xlink:href="#bF"/><use transform="matrix(0.05,0,0,0.05,38,0)" xlink:href="#bM"/></g><path d="M160-131c35 5 61 23 61 61C221 17 115-2 30 0v-248c76 3 177-17 177 60 0 33-19 50-47 57zm-97-11c50-1 110 9 110-42 0-47-63-36-110-37v79zm0 115c55-2 124 14 124-45 0-56-70-42-124-44v89" id="bR"/><path d="M24 0v-261h32V0H24" id="bS"/><g id="g"><use transform="matrix(0.05,0,0,0.05,0,0)" xlink:href="#bR"/><use transform="matrix(0.05,0,0,0.05,12,0)" xlink:href="#bK"/><use transform="matrix(0.05,0,0,0.05,22,0)" xlink:href="#bK"/><use transform="matrix(0.05,0,0,0.05,32,0)" xlink:href="#bS"/><use transform="matrix(0.05,0,0,0.05,35.95,0)" xlink:href="#bF"/><use transform="matrix(0.05,0,0,0.05,45.95,0)" xlink:href="#bC"/><use transform="matrix(0.05,0,0,0.05,55.95,0)" xlink:href="#bG"/></g><g id="h"><use transform="matrix(0.05,0,0,0.05,0,0)" xlink:href="#bC"/><use transform="matrix(0.05,0,0,0.05,10,0)" xlink:href="#bO"/><use transform="matrix(0.05,0,0,0.05,20,0)" xlink:href="#bF"/><use transform="matrix(0.05,0,0,0.05,30,0)" xlink:href="#bM"/></g><path d="M33 0v-248h34V0H33" id="bT"/><g id="i"><use transform="matrix(0.05,0,0,0.05,0,0)" xlink:href="#bT"/><use transform="matrix(0.05,0,0,0.05,5,0)" xlink:href="#bG"/><use transform="matrix(0.05,0,0,0.05,15,0)" xlink:href="#bD"/><use transform="matrix(0.05,0,0,0.05,20,0)" xlink:href="#bF"/><use transform="matrix(0.05,0,0,0.05,30,0)" xlink:href="#bO"/><use transform="matrix(0.05,0,0,0.05,40,0)" xlink:href="#bF"/><use transform="matrix(0.05,0,0,0.05,50,0)" xlink:href="#bJ"/></g><path d="M85-194c31 0 48 13 60 33l-1-100h32l1 261h-30c-2-10 0-23-3-31C134-8 116 4 85 4 32 4 16-35 15-94c0-66 23-100 70-100zm9 24c-40 0-46 34-46 75 0 40 6 74 45 74 42 0 51-32 51-76 0-42-9-74-50-73" id="bU"/><g id="j"><use transform="matrix(0.05,0,0,0.05,0,0)" xlink:href="#bI"/><use transform="matrix(0.05,0,0,0.05,10,0)" xlink:href="#bK"/><use transform="matrix(0.05,0,0,0.05,20,0)" xlink:href="#bE"/><use transform="matrix(0.05,0,0,0.05,23.95,0)" xlink:href="#bU"/><use transform="matrix(0.05,0,0,0.05,33.95,0)" xlink:href="#bP"/><use transform="matrix(0.05,0,0,0.05,42.95,0)" xlink:href="#bM"/></g><g id="k"><use transform="matrix(0.05,0,0,0.05,0,0)" xlink:href="#bD"/><use transform="matrix(0.05,0,0,0.05,5,0)" xlink:href="#bC"/><use transform="matrix(0.05,0,0,0.05,15,0)" xlink:href="#bE"/><use transform="matrix(0.05,0,0,0.05,18.95,0)" xlink:href="#bS"/><use transform="matrix(0.05,0,0,0.05,22.9,0)" xlink:href="#bS"/><use transform="matrix(0.05,0,0,0.05,26.849999999999994,0)" xlink:href="#bF"/><use transform="matrix(0.05,0,0,0.05,36.849999999999994,0)" xlink:href="#bM"/></g><path d="M108 0H70L1-190h34L89-25l56-165h34" id="bV"/><path d="M96-169c-40 0-48 33-48 73s9 75 48 75c24 0 41-14 43-38l32 2c-6 37-31 61-74 61-59 0-76-41-82-99-10-93 101-131 147-64 4 7 5 14 7 22l-32 3c-4-21-16-35-41-35" id="bW"/><g id="l"><use transform="matrix(0.05,0,0,0.05,0,0)" xlink:href="#bP"/><use transform="matrix(0.05,0,0,0.05,9,0)" xlink:href="#bF"/><use transform="matrix(0.05,0,0,0.05,19,0)" xlink:href="#bJ"/><use transform="matrix(0.05,0,0,0.05,24.95,0)" xlink:href="#bV"/><use transform="matrix(0.05,0,0,0.05,33.95,0)" xlink:href="#bE"/><use transform="matrix(0.05,0,0,0.05,37.900000000000006,0)" xlink:href="#bW"/><use transform="matrix(0.05,0,0,0.05,46.900000000000006,0)" xlink:href="#bF"/><use transform="matrix(0.05,0,0,0.05,56.900000000000006,0)" xlink:href="#bM"/></g><path d="M106-169C34-169 62-67 57 0H25v-261h32l-1 103c12-21 28-36 61-36 89 0 53 116 60 194h-32v-121c2-32-8-49-39-48" id="bX"/><path d="M115-194c53 0 69 39 70 98 0 66-23 100-70 100C84 3 66-7 56-30L54 0H23l1-261h32v101c10-23 28-34 59-34zm-8 174c40 0 45-34 45-75 0-40-5-75-45-74-42 0-51 32-51 76 0 43 10 73 51 73" id="bY"/><g id="m"><use transform="matrix(0.05,0,0,0.05,0,0)" xlink:href="#bW"/><use transform="matrix(0.05,0,0,0.05,9,0)" xlink:href="#bX"/><use transform="matrix(0.05,0,0,0.05,19,0)" xlink:href="#bC"/><use transform="matrix(0.05,0,0,0.05,29,0)" xlink:href="#bL"/><use transform="matrix(0.05,0,0,0.05,43.95,0)" xlink:href="#bY"/><use transform="matrix(0.05,0,0,0.05,53.95,0)" xlink:href="#bJ"/><use transform="matrix(0.05,0,0,0.05,59.900000000000006,0)" xlink:href="#bF"/><use transform="matrix(0.05,0,0,0.05,69.9,0)" xlink:href="#bM"/></g><g id="n"><use transform="matrix(0.05,0,0,0.05,0,0)" xlink:href="#bT"/><use transform="matrix(0.05,0,0,0.05,5,0)" xlink:href="#bG"/><use transform="matrix(0.05,0,0,0.05,15,0)" xlink:href="#bD"/><use transform="matrix(0.05,0,0,0.05,20,0)" xlink:href="#bF"/><use transform="matrix(0.05,0,0,0.05,30,0)" xlink:href="#bO"/><use transform="matrix(0.05,0,0,0.05,40,0)" xlink:href="#bF"/><use transform="matrix(0.05,0,0,0.05,50,0)" xlink:href="#bJ"/></g><g id="o"><use transform="matrix(0.05,0,0,0.05,0,0)" xlink:href="#bT"/><use transform="matrix(0.05,0,0,0.05,5,0)" xlink:href="#bG"/><use transform="matrix(0.05,0,0,0.05,15,0)" xlink:href="#bO"/><use transform="matrix(0.05,0,0,0.05,25,0)" xlink:href="#bJ"/><use transform="matrix(0.05,0,0,0.05,30.950000000000003,0)" xlink:href="#bF"/><use transform="matrix(0.05,0,0,0.05,40.95,0)" xlink:href="#bU"/><use transform="matrix(0.05,0,0,0.05,50.95,0)" xlink:href="#bE"/><use transform="matrix(0.05,0,0,0.05,54.900000000000006,0)" xlink:href="#bF"/><use transform="matrix(0.05,0,0,0.05,64.9,0)" xlink:href="#bG"/><use transform="matrix(0.05,0,0,0.05,74.9,0)" xlink:href="#bD"/></g><path d="M101-234c-31-9-42 10-38 44h38v23H63V0H32v-167H5v-23h27c-7-52 17-82 69-68v24" id="bZ"/><g id="p"><use transform="matrix(0.05,0,0,0.05,0,0)" xlink:href="#bZ"/><use transform="matrix(0.05,0,0,0.05,5,0)" xlink:href="#bC"/><use transform="matrix(0.05,0,0,0.05,15,0)" xlink:href="#bL"/><use transform="matrix(0.05,0,0,0.05,29.950000000000003,0)" xlink:href="#bE"/><use transform="matrix(0.05,0,0,0.05,33.900000000000006,0)" xlink:href="#bS"/><use transform="matrix(0.05,0,0,0.05,37.85000000000001,0)" xlink:href="#bS"/><use transform="matrix(0.05,0,0,0.05,41.80000000000001,0)" xlink:href="#bF"/><use transform="matrix(0.05,0,0,0.05,51.80000000000001,0)" xlink:href="#bM"/></g><path d="M63-220v92h138v28H63V0H30v-248h175v28H63" id="ca"/><g id="q"><use transform="matrix(0.05,0,0,0.05,0,0)" xlink:href="#ca"/><use transform="matrix(0.05,0,0,0.05,10.950000000000001,0)" xlink:href="#bC"/><use transform="matrix(0.05,0,0,0.05,20.950000000000003,0)" xlink:href="#bL"/><use transform="matrix(0.05,0,0,0.05,35.900000000000006,0)" xlink:href="#bE"/><use transform="matrix(0.05,0,0,0.05,39.85000000000001,0)" xlink:href="#bS"/><use transform="matrix(0.05,0,0,0.05,43.80000000000001,0)" xlink:href="#bS"/><use transform="matrix(0.05,0,0,0.05,47.750000000000014,0)" xlink:href="#bF"/><use transform="matrix(0.05,0,0,0.05,57.750000000000014,0)" xlink:href="#bP"/></g><g id="r"><use transform="matrix(0.05,0,0,0.05,0,0)" xlink:href="#bW"/><use transform="matrix(0.05,0,0,0.05,9,0)" xlink:href="#bK"/><use transform="matrix(0.05,0,0,0.05,19,0)" xlink:href="#bL"/><use transform="matrix(0.05,0,0,0.05,33.95,0)" xlink:href="#bI"/><use transform="matrix(0.05,0,0,0.05,43.95,0)" xlink:href="#bK"/><use transform="matrix(0.05,0,0,0.05,53.95,0)" xlink:href="#bP"/><use transform="matrix(0.05,0,0,0.05,62.95,0)" xlink:href="#bE"/><use transform="matrix(0.05,0,0,0.05,66.9,0)" xlink:href="#bD"/><use transform="matrix(0.05,0,0,0.05,71.9,0)" xlink:href="#bE"/><use transform="matrix(0.05,0,0,0.05,75.85000000000001,0)" xlink:href="#bK"/><use transform="matrix(0.05,0,0,0.05,85.85000000000001,0)" xlink:href="#bG"/><use transform="matrix(0.05,0,0,0.05,95.85000000000001,0)" xlink:href="#bM"/></g><path d="M205 0l-28-72H64L36 0H1l101-248h38L239 0h-34zm-38-99l-47-123c-12 45-31 82-46 123h93" id="cb"/><path d="M26 75v-336h71v23H56V52h41v23H26" id="cc"/><path d="M27 0v-27h64v-190l-56 39v-29l58-41h29v221h61V0H27" id="cd"/><path d="M33 0v-38h34V0H33" id="ce"/><path d="M80-196l47-18 7 23-49 13 32 44-20 13-27-46-27 45-21-12 33-44-49-13 8-23 47 19-2-53h23" id="cf"/><path d="M3 75V52h41v-290H3v-23h71V75H3" id="cg"/><g id="s"><use transform="matrix(0.05,0,0,0.05,0,0)" xlink:href="#cb"/><use transform="matrix(0.05,0,0,0.05,12,0)" xlink:href="#bS"/><use transform="matrix(0.05,0,0,0.05,15.949999999999998,0)" xlink:href="#bE"/><use transform="matrix(0.05,0,0,0.05,19.9,0)" xlink:href="#bL"/><use transform="matrix(0.05,0,0,0.05,34.85,0)" xlink:href="#bF"/><use transform="matrix(0.05,0,0,0.05,44.85,0)" xlink:href="#bG"/><use transform="matrix(0.05,0,0,0.05,54.85,0)" xlink:href="#bD"/><use transform="matrix(0.05,0,0,0.05,59.85,0)" xlink:href="#bP"/><use transform="matrix(0.05,0,0,0.05,68.85,0)" xlink:href="#bR"/><use transform="matrix(0.05,0,0,0.05,80.85,0)" xlink:href="#bC"/><use transform="matrix(0.05,0,0,0.05,90.85,0)" xlink:href="#bP"/><use transform="matrix(0.05,0,0,0.05,99.85,0)" xlink:href="#bF"/><use transform="matrix(0.05,0,0,0.05,109.84999999999998,0)" xlink:href="#cc"/><use transform="matrix(0.05,0,0,0.05,114.84999999999998,0)" xlink:href="#cd"/><use transform="matrix(0.05,0,0,0.05,124.84999999999998,0)" xlink:href="#ce"/><use transform="matrix(0.05,0,0,0.05,129.85,0)" xlink:href="#ce"/><use transform="matrix(0.05,0,0,0.05,134.85,0)" xlink:href="#cf"/><use transform="matrix(0.05,0,0,0.05,141.85,0)" xlink:href="#cg"/></g><path d="M84 4C-5 8 30-112 23-190h32v120c0 31 7 50 39 49 72-2 45-101 50-169h31l1 190h-30c-1-10 1-25-2-33-11 22-28 36-60 37" id="ch"/><g id="t"><use transform="matrix(0.05,0,0,0.05,0,0)" xlink:href="#bD"/><use transform="matrix(0.05,0,0,0.05,5,0)" xlink:href="#bF"/><use transform="matrix(0.05,0,0,0.05,15,0)" xlink:href="#bQ"/><use transform="matrix(0.05,0,0,0.05,24,0)" xlink:href="#bD"/><use transform="matrix(0.05,0,0,0.05,29,0)" xlink:href="#ch"/><use transform="matrix(0.05,0,0,0.05,39,0)" xlink:href="#bJ"/><use transform="matrix(0.05,0,0,0.05,44.95,0)" xlink:href="#bF"/><use transform="matrix(0.05,0,0,0.05,54.95,0)" xlink:href="#bM"/></g><path d="M127-220V0H93v-220H8v-28h204v28h-85" id="ci"/><g id="u"><use transform="matrix(0.05,0,0,0.05,0,0)" xlink:href="#ci"/><use transform="matrix(0.05,0,0,0.05,8.950000000000001,0)" xlink:href="#bF"/><use transform="matrix(0.05,0,0,0.05,18.950000000000003,0)" xlink:href="#bQ"/><use transform="matrix(0.05,0,0,0.05,27.950000000000003,0)" xlink:href="#bD"/><use transform="matrix(0.05,0,0,0.05,32.95,0)" xlink:href="#ch"/><use transform="matrix(0.05,0,0,0.05,42.95,0)" xlink:href="#bJ"/><use transform="matrix(0.05,0,0,0.05,48.900000000000006,0)" xlink:href="#bF"/><use transform="matrix(0.05,0,0,0.05,58.900000000000006,0)" xlink:href="#bP"/></g><use transform="matrix(0.05,0,0,0.05,0,0)" xlink:href="#bH" id="v"/><g id="w"><use transform="matrix(0.05,0,0,0.05,0,0)" xlink:href="#bZ"/><use transform="matrix(0.05,0,0,0.05,5,0)" xlink:href="#bK"/><use transform="matrix(0.05,0,0,0.05,15,0)" xlink:href="#bJ"/><use transform="matrix(0.05,0,0,0.05,20.95,0)" xlink:href="#bL"/><use transform="matrix(0.05,0,0,0.05,35.9,0)" xlink:href="#bF"/><use transform="matrix(0.05,0,0,0.05,45.9,0)" xlink:href="#bM"/></g><g id="x"><use transform="matrix(0.05,0,0,0.05,0,0)" xlink:href="#ca"/><use transform="matrix(0.05,0,0,0.05,10.950000000000001,0)" xlink:href="#bK"/><use transform="matrix(0.05,0,0,0.05,20.950000000000003,0)" xlink:href="#bJ"/><use transform="matrix(0.05,0,0,0.05,26.900000000000002,0)" xlink:href="#bL"/><use transform="matrix(0.05,0,0,0.05,41.85,0)" xlink:href="#bF"/><use transform="matrix(0.05,0,0,0.05,51.85,0)" xlink:href="#bP"/></g><path d="M30-248c118-7 216 8 213 122C240-48 200 0 122 0H30v-248zM63-27c89 8 146-16 146-99s-60-101-146-95v194" id="cj"/><g id="y"><use transform="matrix(0.05,0,0,0.05,0,0)" xlink:href="#bC"/><use transform="matrix(0.05,0,0,0.05,10,0)" xlink:href="#bS"/><use transform="matrix(0.05,0,0,0.05,13.949999999999998,0)" xlink:href="#bE"/><use transform="matrix(0.05,0,0,0.05,17.9,0)" xlink:href="#bL"/><use transform="matrix(0.05,0,0,0.05,32.85,0)" xlink:href="#bF"/><use transform="matrix(0.05,0,0,0.05,42.85,0)" xlink:href="#bG"/><use transform="matrix(0.05,0,0,0.05,52.85,0)" xlink:href="#bD"/><use transform="matrix(0.05,0,0,0.05,57.85,0)" xlink:href="#cj"/><use transform="matrix(0.05,0,0,0.05,70.8,0)" xlink:href="#bF"/><use transform="matrix(0.05,0,0,0.05,80.8,0)" xlink:href="#bR"/><use transform="matrix(0.05,0,0,0.05,92.8,0)" xlink:href="#bC"/><use transform="matrix(0.05,0,0,0.05,102.80000000000001,0)" xlink:href="#bP"/><use transform="matrix(0.05,0,0,0.05,111.80000000000001,0)" xlink:href="#bF"/><use transform="matrix(0.05,0,0,0.05,121.80000000000001,0)" xlink:href="#bM"/></g><g id="z"><use transform="matrix(0.05,0,0,0.05,0,0)" xlink:href="#bR"/><use transform="matrix(0.05,0,0,0.05,12,0)" xlink:href="#bK"/><use transform="matrix(0.05,0,0,0.05,22,0)" xlink:href="#bK"/><use transform="matrix(0.05,0,0,0.05,32,0)" xlink:href="#bS"/><use transform="matrix(0.05,0,0,0.05,35.95,0)" xlink:href="#bF"/><use transform="matrix(0.05,0,0,0.05,45.95,0)" xlink:href="#bC"/><use transform="matrix(0.05,0,0,0.05,55.95,0)" xlink:href="#bG"/></g><g id="A"><use transform="matrix(0.05,0,0,0.05,0,0)" xlink:href="#bB"/><use transform="matrix(0.05,0,0,0.05,12,0)" xlink:href="#bC"/><use transform="matrix(0.05,0,0,0.05,22,0)" xlink:href="#bJ"/><use transform="matrix(0.05,0,0,0.05,27.950000000000003,0)" xlink:href="#bD"/></g><path d="M145-31C134-9 116 4 85 4 32 4 16-35 15-94c0-59 17-99 70-100 32-1 48 14 60 33 0-11-1-24 2-32h30l-1 268h-32zM93-21c41 0 51-33 51-76s-8-73-50-73c-40 0-46 35-46 75s5 74 45 74" id="ck"/><path d="M100-194c63 0 86 42 84 106H49c0 40 14 67 53 68 26 1 43-12 49-29l28 8c-11 28-37 45-77 45C44 4 14-33 15-96c1-61 26-98 85-98zm52 81c6-60-76-77-97-28-3 7-6 17-6 28h103zm-74-98c8-23 27-35 38-54h36v5l-58 49H78" id="cl"/><g id="B"><use transform="matrix(0.05,0,0,0.05,0,0)" xlink:href="#ck"/><use transform="matrix(0.05,0,0,0.05,10,0)" xlink:href="#ch"/><use transform="matrix(0.05,0,0,0.05,20,0)" xlink:href="#bC"/><use transform="matrix(0.05,0,0,0.05,30,0)" xlink:href="#bG"/><use transform="matrix(0.05,0,0,0.05,40,0)" xlink:href="#bD"/><use transform="matrix(0.05,0,0,0.05,45,0)" xlink:href="#bE"/><use transform="matrix(0.05,0,0,0.05,48.95,0)" xlink:href="#bD"/><use transform="matrix(0.05,0,0,0.05,53.95,0)" xlink:href="#cl"/><use transform="matrix(0.05,0,0,0.05,63.95,0)" xlink:href="#bM"/></g><g id="C"><use transform="matrix(0.05,0,0,0.05,0,0)" xlink:href="#bT"/><use transform="matrix(0.05,0,0,0.05,5,0)" xlink:href="#bG"/><use transform="matrix(0.05,0,0,0.05,15,0)" xlink:href="#bD"/><use transform="matrix(0.05,0,0,0.05,20,0)" xlink:href="#bF"/><use transform="matrix(0.05,0,0,0.05,30,0)" xlink:href="#bO"/><use transform="matrix(0.05,0,0,0.05,40,0)" xlink:href="#bF"/><use transform="matrix(0.05,0,0,0.05,50,0)" xlink:href="#bJ"/></g><g id="D"><use transform="matrix(0.05,0,0,0.05,0,0)" xlink:href="#ch"/><use transform="matrix(0.05,0,0,0.05,10,0)" xlink:href="#bG"/><use transform="matrix(0.05,0,0,0.05,20,0)" xlink:href="#bE"/><use transform="matrix(0.05,0,0,0.05,23.95,0)" xlink:href="#bD"/><use transform="matrix(0.05,0,0,0.05,28.950000000000003,0)" xlink:href="#cl"/><use transform="matrix(0.05,0,0,0.05,38.95,0)" xlink:href="#bM"/></g><g id="E"><use transform="matrix(0.05,0,0,0.05,0,0)" xlink:href="#bN"/><use transform="matrix(0.05,0,0,0.05,12,0)" xlink:href="#bD"/><use transform="matrix(0.05,0,0,0.05,17,0)" xlink:href="#bJ"/><use transform="matrix(0.05,0,0,0.05,22.95,0)" xlink:href="#bE"/><use transform="matrix(0.05,0,0,0.05,26.899999999999995,0)" xlink:href="#bG"/><use transform="matrix(0.05,0,0,0.05,36.9,0)" xlink:href="#bO"/></g><g id="F"><use transform="matrix(0.05,0,0,0.05,0,0)" xlink:href="#bB"/><use transform="matrix(0.05,0,0,0.05,12,0)" xlink:href="#bS"/><use transform="matrix(0.05,0,0,0.05,15.949999999999998,0)" xlink:href="#bC"/><use transform="matrix(0.05,0,0,0.05,25.950000000000003,0)" xlink:href="#bD"/></g><g id="G"><use transform="matrix(0.05,0,0,0.05,0,0)" xlink:href="#bG"/><use transform="matrix(0.05,0,0,0.05,10,0)" xlink:href="#bK"/><use transform="matrix(0.05,0,0,0.05,20,0)" xlink:href="#bL"/><use transform="matrix(0.05,0,0,0.05,34.95,0)" xlink:href="#bM"/></g><g id="H"><use transform="matrix(0.05,0,0,0.05,0,0)" xlink:href="#bN"/><use transform="matrix(0.05,0,0,0.05,12,0)" xlink:href="#bD"/><use transform="matrix(0.05,0,0,0.05,17,0)" xlink:href="#bJ"/><use transform="matrix(0.05,0,0,0.05,22.95,0)" xlink:href="#bE"/><use transform="matrix(0.05,0,0,0.05,26.899999999999995,0)" xlink:href="#bG"/><use transform="matrix(0.05,0,0,0.05,36.9,0)" xlink:href="#bO"/></g><g id="I"><use transform="matrix(0.05,0,0,0.05,0,0)" xlink:href="#cd"/><use transform="matrix(0.05,0,0,0.05,10,0)" xlink:href="#ce"/><use transform="matrix(0.05,0,0,0.05,15,0)" xlink:href="#ce"/><use transform="matrix(0.05,0,0,0.05,20,0)" xlink:href="#cf"/></g><path d="M101-251c68 0 85 55 85 127S166 4 100 4C33 4 14-52 14-124c0-73 17-127 87-127zm-1 229c47 0 54-49 54-102s-4-102-53-102c-51 0-55 48-55 102 0 53 5 102 54 102" id="cm"/><g id="J"><use transform="matrix(0.05,0,0,0.05,0,0)" xlink:href="#cm"/><use transform="matrix(0.05,0,0,0.05,10,0)" xlink:href="#ce"/><use transform="matrix(0.05,0,0,0.05,15,0)" xlink:href="#ce"/><use transform="matrix(0.05,0,0,0.05,20,0)" xlink:href="#cf"/></g><path d="M212-179c-10-28-35-45-73-45-59 0-87 40-87 99 0 60 29 101 89 101 43 0 62-24 78-52l27 14C228-24 195 4 139 4 59 4 22-46 18-125c-6-104 99-153 187-111 19 9 31 26 39 46" id="cn"/><g id="K"><use transform="matrix(0.05,0,0,0.05,0,0)" xlink:href="#cn"/><use transform="matrix(0.05,0,0,0.05,12.950000000000001,0)" xlink:href="#bK"/><use transform="matrix(0.05,0,0,0.05,22.950000000000003,0)" xlink:href="#bG"/><use transform="matrix(0.05,0,0,0.05,32.95,0)" xlink:href="#bD"/><use transform="matrix(0.05,0,0,0.05,37.95,0)" xlink:href="#bJ"/><use transform="matrix(0.05,0,0,0.05,43.900000000000006,0)" xlink:href="#bC"/><use transform="matrix(0.05,0,0,0.05,53.900000000000006,0)" xlink:href="#bE"/><use transform="matrix(0.05,0,0,0.05,57.85,0)" xlink:href="#bG"/><use transform="matrix(0.05,0,0,0.05,67.85000000000001,0)" xlink:href="#bD"/><use transform="matrix(0.05,0,0,0.05,72.85000000000001,0)" xlink:href="#bF"/></g><path d="M179-190L93 31C79 59 56 82 12 73V49c39 6 53-20 64-50L1-190h34L92-34l54-156h33" id="co"/><g id="L"><use transform="matrix(0.05,0,0,0.05,0,0)" xlink:href="#bD"/><use transform="matrix(0.05,0,0,0.05,5,0)" xlink:href="#co"/><use transform="matrix(0.05,0,0,0.05,14,0)" xlink:href="#bI"/><use transform="matrix(0.05,0,0,0.05,24,0)" xlink:href="#bF"/><use transform="matrix(0.05,0,0,0.05,34,0)" xlink:href="#bM"/></g><g id="M"><use transform="matrix(0.05,0,0,0.05,0,0)" xlink:href="#cb"/><use transform="matrix(0.05,0,0,0.05,12,0)" xlink:href="#bD"/><use transform="matrix(0.05,0,0,0.05,17,0)" xlink:href="#bD"/><use transform="matrix(0.05,0,0,0.05,22,0)" xlink:href="#bJ"/><use transform="matrix(0.05,0,0,0.05,27.950000000000003,0)" xlink:href="#bE"/><use transform="matrix(0.05,0,0,0.05,31.899999999999995,0)" xlink:href="#bY"/><use transform="matrix(0.05,0,0,0.05,41.9,0)" xlink:href="#ch"/><use transform="matrix(0.05,0,0,0.05,51.900000000000006,0)" xlink:href="#bD"/><use transform="matrix(0.05,0,0,0.05,56.900000000000006,0)" xlink:href="#cb"/><use transform="matrix(0.05,0,0,0.05,68.9,0)" xlink:href="#bS"/><use transform="matrix(0.05,0,0,0.05,72.85000000000001,0)" xlink:href="#bE"/><use transform="matrix(0.05,0,0,0.05,76.80000000000001,0)" xlink:href="#bL"/><use transform="matrix(0.05,0,0,0.05,91.75000000000001,0)" xlink:href="#bF"/><use transform="matrix(0.05,0,0,0.05,101.75000000000001,0)" xlink:href="#bG"/><use transform="matrix(0.05,0,0,0.05,111.75,0)" xlink:href="#bD"/></g><g id="N"><use transform="matrix(0.05,0,0,0.05,0,0)" xlink:href="#bG"/><use transform="matrix(0.05,0,0,0.05,10,0)" xlink:href="#bC"/><use transform="matrix(0.05,0,0,0.05,20,0)" xlink:href="#bD"/><use transform="matrix(0.05,0,0,0.05,25,0)" xlink:href="#ch"/><use transform="matrix(0.05,0,0,0.05,35,0)" xlink:href="#bJ"/><use transform="matrix(0.05,0,0,0.05,40.95,0)" xlink:href="#bF"/><use transform="matrix(0.05,0,0,0.05,50.95,0)" xlink:href="#bM"/></g><path d="M190 0L58-211 59 0H30v-248h39L202-35l-2-213h31V0h-41" id="cp"/><g id="O"><use transform="matrix(0.05,0,0,0.05,0,0)" xlink:href="#cp"/><use transform="matrix(0.05,0,0,0.05,12.950000000000001,0)" xlink:href="#bC"/><use transform="matrix(0.05,0,0,0.05,22.950000000000003,0)" xlink:href="#bD"/><use transform="matrix(0.05,0,0,0.05,27.950000000000003,0)" xlink:href="#ch"/><use transform="matrix(0.05,0,0,0.05,37.95,0)" xlink:href="#bJ"/><use transform="matrix(0.05,0,0,0.05,43.900000000000006,0)" xlink:href="#bF"/><use transform="matrix(0.05,0,0,0.05,53.900000000000006,0)" xlink:href="#bP"/></g><path d="M143 4C61 4 22-44 18-125c-5-107 100-154 193-111 17 8 29 25 37 43l-32 9c-13-25-37-40-76-40-61 0-88 39-88 99 0 61 29 100 91 101 35 0 62-11 79-27v-45h-74v-28h105v86C228-13 192 4 143 4" id="cq"/><g id="P"><use transform="matrix(0.05,0,0,0.05,0,0)" xlink:href="#cq"/><use transform="matrix(0.05,0,0,0.05,14,0)" xlink:href="#bJ"/><use transform="matrix(0.05,0,0,0.05,19.95,0)" xlink:href="#bK"/><use transform="matrix(0.05,0,0,0.05,29.950000000000003,0)" xlink:href="#ch"/><use transform="matrix(0.05,0,0,0.05,39.95,0)" xlink:href="#bI"/><use transform="matrix(0.05,0,0,0.05,49.95,0)" xlink:href="#bF"/><use transform="matrix(0.05,0,0,0.05,59.95,0)" xlink:href="#bB"/><use transform="matrix(0.05,0,0,0.05,71.95,0)" xlink:href="#bC"/><use transform="matrix(0.05,0,0,0.05,81.95,0)" xlink:href="#bD"/><use transform="matrix(0.05,0,0,0.05,86.95,0)" xlink:href="#bE"/><use transform="matrix(0.05,0,0,0.05,90.9,0)" xlink:href="#bF"/><use transform="matrix(0.05,0,0,0.05,100.9,0)" xlink:href="#bG"/><use transform="matrix(0.05,0,0,0.05,110.9,0)" xlink:href="#bD"/><use transform="matrix(0.05,0,0,0.05,115.9,0)" xlink:href="#bP"/></g><path d="M240 0l2-218c-23 76-54 145-80 218h-23L58-218 59 0H30v-248h44l77 211c21-75 51-140 76-211h43V0h-30" id="cr"/><g id="Q"><use transform="matrix(0.05,0,0,0.05,0,0)" xlink:href="#cr"/><use transform="matrix(0.05,0,0,0.05,14.950000000000001,0)" xlink:href="#bF"/><use transform="matrix(0.05,0,0,0.05,24.950000000000003,0)" xlink:href="#bG"/><use transform="matrix(0.05,0,0,0.05,34.95,0)" xlink:href="#ch"/></g><g id="R"><use transform="matrix(0.05,0,0,0.05,0,0)" xlink:href="#bU"/><use transform="matrix(0.05,0,0,0.05,10,0)" xlink:href="#bC"/><use transform="matrix(0.05,0,0,0.05,20,0)" xlink:href="#bD"/><use transform="matrix(0.05,0,0,0.05,25,0)" xlink:href="#bF"/><use transform="matrix(0.05,0,0,0.05,35,0)" xlink:href="#bM"/></g><g id="S"><use transform="matrix(0.05,0,0,0.05,0,0)" xlink:href="#cj"/><use transform="matrix(0.05,0,0,0.05,12.950000000000001,0)" xlink:href="#bC"/><use transform="matrix(0.05,0,0,0.05,22.950000000000003,0)" xlink:href="#bD"/><use transform="matrix(0.05,0,0,0.05,27.950000000000003,0)" xlink:href="#bF"/></g><g id="T"><use transform="matrix(0.05,0,0,0.05,0,0)" xlink:href="#cq"/><use transform="matrix(0.05,0,0,0.05,14,0)" xlink:href="#bJ"/><use transform="matrix(0.05,0,0,0.05,19.95,0)" xlink:href="#bK"/><use transform="matrix(0.05,0,0,0.05,29.950000000000003,0)" xlink:href="#ch"/><use transform="matrix(0.05,0,0,0.05,39.95,0)" xlink:href="#bI"/><use transform="matrix(0.05,0,0,0.05,49.95,0)" xlink:href="#bF"/></g><g id="U"><use transform="matrix(0.05,0,0,0.05,0,0)" xlink:href="#bU"/><use transform="matrix(0.05,0,0,0.05,10,0)" xlink:href="#bF"/></g><g id="V"><use transform="matrix(0.05,0,0,0.05,0,0)" xlink:href="#bI"/><use transform="matrix(0.05,0,0,0.05,10,0)" xlink:href="#bC"/><use transform="matrix(0.05,0,0,0.05,20,0)" xlink:href="#bD"/><use transform="matrix(0.05,0,0,0.05,25,0)" xlink:href="#bE"/><use transform="matrix(0.05,0,0,0.05,28.950000000000003,0)" xlink:href="#bF"/><use transform="matrix(0.05,0,0,0.05,38.95,0)" xlink:href="#bG"/><use transform="matrix(0.05,0,0,0.05,48.95,0)" xlink:href="#bD"/><use transform="matrix(0.05,0,0,0.05,53.95,0)" xlink:href="#bP"/></g><g id="W"><use transform="matrix(0.05,0,0,0.05,0,0)" xlink:href="#bC"/><use transform="matrix(0.05,0,0,0.05,10,0)" xlink:href="#bV"/><use transform="matrix(0.05,0,0,0.05,19,0)" xlink:href="#bF"/><use transform="matrix(0.05,0,0,0.05,29,0)" xlink:href="#bW"/></g><g id="X"><use transform="matrix(0.05,0,0,0.05,0,0)" xlink:href="#bS"/><use transform="matrix(0.05,0,0,0.05,3.95,0)" xlink:href="#bC"/></g><path d="M100-194c63 0 86 42 84 106H49c0 40 14 67 53 68 26 1 43-12 49-29l28 8c-11 28-37 45-77 45C44 4 14-33 15-96c1-61 26-98 85-98zm52 81c6-60-76-77-97-28-3 7-6 17-6 28h103zm-32-149c12 18 30 30 39 51-31 2-38-20-57-30-20 10-27 32-59 30 9-22 29-33 41-51h36" id="cs"/><g id="Y"><use transform="matrix(0.05,0,0,0.05,0,0)" xlink:href="#bL"/><use transform="matrix(0.05,0,0,0.05,14.950000000000001,0)" xlink:href="#cs"/><use transform="matrix(0.05,0,0,0.05,24.950000000000003,0)" xlink:href="#bL"/><use transform="matrix(0.05,0,0,0.05,39.900000000000006,0)" xlink:href="#bF"/></g><g id="Z"><use transform="matrix(0.05,0,0,0.05,0,0)" xlink:href="#bI"/><use transform="matrix(0.05,0,0,0.05,10,0)" xlink:href="#bC"/><use transform="matrix(0.05,0,0,0.05,20,0)" xlink:href="#bD"/><use transform="matrix(0.05,0,0,0.05,25,0)" xlink:href="#bX"/><use transform="matrix(0.05,0,0,0.05,35,0)" xlink:href="#bK"/><use transform="matrix(0.05,0,0,0.05,45,0)" xlink:href="#bS"/><use transform="matrix(0.05,0,0,0.05,48.95,0)" xlink:href="#bK"/><use transform="matrix(0.05,0,0,0.05,58.95,0)" xlink:href="#bO"/><use transform="matrix(0.05,0,0,0.05,68.95,0)" xlink:href="#bE"/><use transform="matrix(0.05,0,0,0.05,72.9,0)" xlink:href="#bF"/></g><use transform="matrix(0.05,0,0,0.05,0,0)" xlink:href="#cd" id="aa"/><path d="M24-231v-30h32v30H24zM-9 49c24 4 33-6 33-30v-209h32V24c2 40-23 58-65 49V49" id="ct"/><g id="ab"><use transform="matrix(0.05,0,0,0.05,0,0)" xlink:href="#bB"/><use transform="matrix(0.05,0,0,0.05,12,0)" xlink:href="#bF"/><use transform="matrix(0.05,0,0,0.05,22,0)" xlink:href="#bD"/><use transform="matrix(0.05,0,0,0.05,27,0)" xlink:href="#bE"/><use transform="matrix(0.05,0,0,0.05,30.950000000000003,0)" xlink:href="#bD"/><use transform="matrix(0.05,0,0,0.05,35.95,0)" xlink:href="#cj"/><use transform="matrix(0.05,0,0,0.05,48.900000000000006,0)" xlink:href="#bF"/><use transform="matrix(0.05,0,0,0.05,58.900000000000006,0)" xlink:href="#ct"/><use transform="matrix(0.05,0,0,0.05,62.85,0)" xlink:href="#bF"/><use transform="matrix(0.05,0,0,0.05,72.85000000000001,0)" xlink:href="#ch"/><use transform="matrix(0.05,0,0,0.05,82.85000000000001,0)" xlink:href="#bG"/><use transform="matrix(0.05,0,0,0.05,92.85000000000001,0)" xlink:href="#bF"/><use transform="matrix(0.05,0,0,0.05,102.85000000000001,0)" xlink:href="#bJ"/></g><g id="ac"><use transform="matrix(0.05,0,0,0.05,0,0)" xlink:href="#cj"/><use transform="matrix(0.05,0,0,0.05,12.950000000000001,0)" xlink:href="#bF"/><use transform="matrix(0.05,0,0,0.05,22.950000000000003,0)" xlink:href="#ct"/><use transform="matrix(0.05,0,0,0.05,26.900000000000002,0)" xlink:href="#bF"/><use transform="matrix(0.05,0,0,0.05,36.900000000000006,0)" xlink:href="#ch"/><use transform="matrix(0.05,0,0,0.05,46.900000000000006,0)" xlink:href="#bG"/><use transform="matrix(0.05,0,0,0.05,56.900000000000006,0)" xlink:href="#bF"/><use transform="matrix(0.05,0,0,0.05,66.9,0)" xlink:href="#bJ"/></g><g id="ad"><use transform="matrix(0.05,0,0,0.05,0,0)" xlink:href="#cj"/><use transform="matrix(0.05,0,0,0.05,12.950000000000001,0)" xlink:href="#bE"/><use transform="matrix(0.05,0,0,0.05,16.900000000000002,0)" xlink:href="#bG"/><use transform="matrix(0.05,0,0,0.05,26.900000000000002,0)" xlink:href="#bF"/><use transform="matrix(0.05,0,0,0.05,36.900000000000006,0)" xlink:href="#bJ"/></g><g id="ae"><use transform="matrix(0.05,0,0,0.05,0,0)" xlink:href="#cn"/><use transform="matrix(0.05,0,0,0.05,12.950000000000001,0)" xlink:href="#bK"/><use transform="matrix(0.05,0,0,0.05,22.950000000000003,0)" xlink:href="#bL"/><use transform="matrix(0.05,0,0,0.05,37.900000000000006,0)" xlink:href="#bI"/><use transform="matrix(0.05,0,0,0.05,47.900000000000006,0)" xlink:href="#bK"/><use transform="matrix(0.05,0,0,0.05,57.900000000000006,0)" xlink:href="#bP"/><use transform="matrix(0.05,0,0,0.05,66.9,0)" xlink:href="#bF"/><use transform="matrix(0.05,0,0,0.05,76.9,0)" xlink:href="#bJ"/></g><g id="af"><use transform="matrix(0.05,0,0,0.05,0,0)" xlink:href="#bF"/><use transform="matrix(0.05,0,0,0.05,10,0)" xlink:href="#bP"/><use transform="matrix(0.05,0,0,0.05,19,0)" xlink:href="#bD"/></g><g id="ag"><use transform="matrix(0.05,0,0,0.05,0,0)" xlink:href="#bW"/><use transform="matrix(0.05,0,0,0.05,9,0)" xlink:href="#bK"/><use transform="matrix(0.05,0,0,0.05,19,0)" xlink:href="#bL"/><use transform="matrix(0.05,0,0,0.05,33.95,0)" xlink:href="#bI"/><use transform="matrix(0.05,0,0,0.05,43.95,0)" xlink:href="#bK"/><use transform="matrix(0.05,0,0,0.05,53.95,0)" xlink:href="#bP"/><use transform="matrix(0.05,0,0,0.05,62.95,0)" xlink:href="#cl"/></g><g id="ah"><use transform="matrix(0.05,0,0,0.05,0,0)" xlink:href="#bW"/><use transform="matrix(0.05,0,0,0.05,9,0)" xlink:href="#bK"/><use transform="matrix(0.05,0,0,0.05,19,0)" xlink:href="#bL"/><use transform="matrix(0.05,0,0,0.05,33.95,0)" xlink:href="#bI"/><use transform="matrix(0.05,0,0,0.05,43.95,0)" xlink:href="#bK"/><use transform="matrix(0.05,0,0,0.05,53.95,0)" xlink:href="#bP"/><use transform="matrix(0.05,0,0,0.05,62.95,0)" xlink:href="#bF"/></g><g id="ai"><use transform="matrix(0.05,0,0,0.05,0,0)" xlink:href="#cn"/><use transform="matrix(0.05,0,0,0.05,12.950000000000001,0)" xlink:href="#bK"/><use transform="matrix(0.05,0,0,0.05,22.950000000000003,0)" xlink:href="#bG"/><use transform="matrix(0.05,0,0,0.05,32.95,0)" xlink:href="#bP"/><use transform="matrix(0.05,0,0,0.05,41.95,0)" xlink:href="#bD"/><use transform="matrix(0.05,0,0,0.05,46.95,0)" xlink:href="#bE"/><use transform="matrix(0.05,0,0,0.05,50.900000000000006,0)" xlink:href="#bD"/><use transform="matrix(0.05,0,0,0.05,55.900000000000006,0)" xlink:href="#ch"/><use transform="matrix(0.05,0,0,0.05,65.9,0)" xlink:href="#bF"/><use transform="matrix(0.05,0,0,0.05,75.9,0)" xlink:href="#bJ"/></g><g id="aj"><use transform="matrix(0.05,0,0,0.05,0,0)" xlink:href="#bW"/><use transform="matrix(0.05,0,0,0.05,9,0)" xlink:href="#bK"/><use transform="matrix(0.05,0,0,0.05,19,0)" xlink:href="#bG"/><use transform="matrix(0.05,0,0,0.05,29,0)" xlink:href="#bP"/><use transform="matrix(0.05,0,0,0.05,38,0)" xlink:href="#bD"/><use transform="matrix(0.05,0,0,0.05,43,0)" xlink:href="#bE"/><use transform="matrix(0.05,0,0,0.05,46.95,0)" xlink:href="#bD"/><use transform="matrix(0.05,0,0,0.05,51.95,0)" xlink:href="#ch"/><use transform="matrix(0.05,0,0,0.05,61.95,0)" xlink:href="#cl"/></g><g id="ak"><use transform="matrix(0.05,0,0,0.05,0,0)" xlink:href="#bW"/><use transform="matrix(0.05,0,0,0.05,9,0)" xlink:href="#bK"/><use transform="matrix(0.05,0,0,0.05,19,0)" xlink:href="#bG"/><use transform="matrix(0.05,0,0,0.05,29,0)" xlink:href="#bP"/><use transform="matrix(0.05,0,0,0.05,38,0)" xlink:href="#bD"/><use transform="matrix(0.05,0,0,0.05,43,0)" xlink:href="#bE"/><use transform="matrix(0.05,0,0,0.05,46.95,0)" xlink:href="#bD"/><use transform="matrix(0.05,0,0,0.05,51.95,0)" xlink:href="#ch"/><use transform="matrix(0.05,0,0,0.05,61.95,0)" xlink:href="#bF"/></g><g id="al"><use transform="matrix(0.05,0,0,0.05,0,0)" xlink:href="#bN"/><use transform="matrix(0.05,0,0,0.05,12,0)" xlink:href="#ch"/><use transform="matrix(0.05,0,0,0.05,22,0)" xlink:href="#bY"/><use transform="matrix(0.05,0,0,0.05,32,0)" xlink:href="#bE"/><use transform="matrix(0.05,0,0,0.05,35.95,0)" xlink:href="#bJ"/></g><g id="am"><use transform="matrix(0.05,0,0,0.05,0,0)" xlink:href="#bN"/><use transform="matrix(0.05,0,0,0.05,12,0)" xlink:href="#ch"/><use transform="matrix(0.05,0,0,0.05,22,0)" xlink:href="#bY"/><use transform="matrix(0.05,0,0,0.05,32,0)" xlink:href="#bE"/><use transform="matrix(0.05,0,0,0.05,35.95,0)" xlink:href="#bD"/></g><g id="an"><use transform="matrix(0.05,0,0,0.05,0,0)" xlink:href="#bF"/><use transform="matrix(0.05,0,0,0.05,10,0)" xlink:href="#bP"/><use transform="matrix(0.05,0,0,0.05,19,0)" xlink:href="#bD"/></g><g id="ao"><use transform="matrix(0.05,0,0,0.05,0,0)" xlink:href="#bP"/><use transform="matrix(0.05,0,0,0.05,9,0)" xlink:href="#ch"/><use transform="matrix(0.05,0,0,0.05,19,0)" xlink:href="#bY"/><use transform="matrix(0.05,0,0,0.05,29,0)" xlink:href="#bE"/></g><g id="ap"><use transform="matrix(0.05,0,0,0.05,0,0)" xlink:href="#bI"/><use transform="matrix(0.05,0,0,0.05,10,0)" xlink:href="#bC"/><use transform="matrix(0.05,0,0,0.05,20,0)" xlink:href="#bJ"/></g><g id="aq"><use transform="matrix(0.05,0,0,0.05,0,0)" xlink:href="#cn"/><use transform="matrix(0.05,0,0,0.05,12.950000000000001,0)" xlink:href="#bK"/><use transform="matrix(0.05,0,0,0.05,22.950000000000003,0)" xlink:href="#bG"/><use transform="matrix(0.05,0,0,0.05,32.95,0)" xlink:href="#bP"/><use transform="matrix(0.05,0,0,0.05,41.95,0)" xlink:href="#bK"/><use transform="matrix(0.05,0,0,0.05,51.95,0)" xlink:href="#bL"/><use transform="matrix(0.05,0,0,0.05,66.9,0)" xlink:href="#bL"/><use transform="matrix(0.05,0,0,0.05,81.85000000000001,0)" xlink:href="#bF"/><use transform="matrix(0.05,0,0,0.05,91.85000000000001,0)" xlink:href="#bJ"/></g><g id="ar"><use transform="matrix(0.05,0,0,0.05,0,0)" xlink:href="#cn"/><use transform="matrix(0.05,0,0,0.05,12.950000000000001,0)" xlink:href="#bK"/><use transform="matrix(0.05,0,0,0.05,22.950000000000003,0)" xlink:href="#bG"/><use transform="matrix(0.05,0,0,0.05,32.95,0)" xlink:href="#bP"/><use transform="matrix(0.05,0,0,0.05,41.95,0)" xlink:href="#bK"/><use transform="matrix(0.05,0,0,0.05,51.95,0)" xlink:href="#bL"/><use transform="matrix(0.05,0,0,0.05,66.9,0)" xlink:href="#bL"/><use transform="matrix(0.05,0,0,0.05,81.85000000000001,0)" xlink:href="#bF"/></g><g id="as"><use transform="matrix(0.05,0,0,0.05,0,0)" xlink:href="#bW"/><use transform="matrix(0.05,0,0,0.05,9,0)" xlink:href="#bK"/><use transform="matrix(0.05,0,0,0.05,19,0)" xlink:href="#bG"/><use transform="matrix(0.05,0,0,0.05,29,0)" xlink:href="#bP"/><use transform="matrix(0.05,0,0,0.05,38,0)" xlink:href="#bK"/><use transform="matrix(0.05,0,0,0.05,48,0)" xlink:href="#bL"/><use transform="matrix(0.05,0,0,0.05,62.95,0)" xlink:href="#bL"/><use transform="matrix(0.05,0,0,0.05,77.9,0)" xlink:href="#cl"/></g><path d="M15-91v-56l181-69v40L49-119l147 57v40" id="cu"/><path d="M185-48c-13 30-37 53-82 52C43 2 14-33 14-96s30-98 90-98c62 0 83 45 84 108H66c0 31 8 55 39 56 18 0 30-7 34-22zm-45-69c5-46-57-63-70-21-2 6-4 13-4 21h74" id="cv"/><path d="M135-194c87-1 58 113 63 194h-50c-7-57 23-157-34-157-59 0-34 97-39 157H25l-1-190h47c2 12-1 28 3 38 12-26 28-41 61-42" id="cw"/><path d="M85 4C-2 5 27-109 22-190h50c7 57-23 150 33 157 60-5 35-97 40-157h50l1 190h-47c-2-12 1-28-3-38-12 25-28 42-61 42" id="cx"/><path d="M220-157c-53 9-28 100-34 157h-49v-107c1-27-5-49-29-50C55-147 81-57 75 0H25l-1-190h47c2 12-1 28 3 38 10-53 101-56 108 0 13-22 24-43 59-42 82 1 51 116 57 194h-49v-107c-1-25-5-48-29-50" id="cy"/><path d="M185-48c-13 30-37 53-82 52C43 2 14-33 14-96s30-98 90-98c62 0 83 45 84 108H66c0 31 8 55 39 56 18 0 30-7 34-22zm-45-69c5-46-57-63-70-21-2 6-4 13-4 21h74zm-67-91v-5l45-51h45v8l-60 48H73" id="cz"/><path d="M135-150c-39-12-60 13-60 57V0H25l-1-190h47c2 13-1 29 3 40 6-28 27-53 61-41v41" id="cA"/><path d="M133-34C117-15 103 5 69 4 32 3 11-16 11-54c-1-60 55-63 116-61 1-26-3-47-28-47-18 1-26 9-28 27l-52-2c7-38 36-58 82-57s74 22 75 68l1 82c-1 14 12 18 25 15v27c-30 8-71 5-69-32zm-48 3c29 0 43-24 42-57-32 0-66-3-65 30 0 17 8 27 23 27" id="cB"/><path d="M115-3C79 11 28 4 28-45v-112H4v-33h27l15-45h31v45h36v33H77v99c-1 23 16 31 38 25v30" id="cC"/><path d="M25-224v-37h50v37H25zM25 0v-190h50V0H25" id="cD"/><path d="M110-194c64 0 96 36 96 99 0 64-35 99-97 99-61 0-95-36-95-99 0-62 34-99 96-99zm-1 164c35 0 45-28 45-65 0-40-10-65-43-65-34 0-45 26-45 65 0 36 10 65 43 65" id="cE"/><path d="M15-22v-40l146-57-146-57v-40l181 69v56" id="cF"/><g id="at"><use transform="matrix(0.05,0,0,0.05,0,0)" xlink:href="#cu"/><use transform="matrix(0.05,0,0,0.05,10.5,0)" xlink:href="#cu"/><use transform="matrix(0.05,0,0,0.05,21,0)" xlink:href="#cv"/><use transform="matrix(0.05,0,0,0.05,31,0)" xlink:href="#cw"/><use transform="matrix(0.05,0,0,0.05,41.95,0)" xlink:href="#cx"/><use transform="matrix(0.05,0,0,0.05,52.900000000000006,0)" xlink:href="#cy"/><use transform="matrix(0.05,0,0,0.05,68.9,0)" xlink:href="#cz"/><use transform="matrix(0.05,0,0,0.05,78.9,0)" xlink:href="#cA"/><use transform="matrix(0.05,0,0,0.05,85.9,0)" xlink:href="#cB"/><use transform="matrix(0.05,0,0,0.05,95.9,0)" xlink:href="#cC"/><use transform="matrix(0.05,0,0,0.05,101.85000000000001,0)" xlink:href="#cD"/><use transform="matrix(0.05,0,0,0.05,106.85000000000001,0)" xlink:href="#cE"/><use transform="matrix(0.05,0,0,0.05,117.80000000000001,0)" xlink:href="#cw"/><use transform="matrix(0.05,0,0,0.05,128.75,0)" xlink:href="#cF"/><use transform="matrix(0.05,0,0,0.05,139.25,0)" xlink:href="#cF"/></g><path d="M199 0l-22-63H83L61 0H9l90-248h61L250 0h-51zm-33-102l-36-108c-10 38-24 72-36 108h72" id="cG"/><path d="M25 0v-261h50V0H25" id="cH"/><path d="M137-138c1-29-70-34-71-4 15 46 118 7 119 86 1 83-164 76-172 9l43-7c4 19 20 25 44 25 33 8 57-30 24-41C81-84 22-81 20-136c-2-80 154-74 161-7" id="cI"/><path d="M182-130c37 4 62 22 62 59C244 23 116-4 24 0v-248c84 5 203-23 205 63 0 31-19 50-47 55zM76-148c40-3 101 13 101-30 0-44-60-28-101-31v61zm0 110c48-3 116 14 116-37 0-48-69-32-116-35v72" id="cJ"/><g id="au"><use transform="matrix(0.05,0,0,0.05,0,0)" xlink:href="#cG"/><use transform="matrix(0.05,0,0,0.05,12.950000000000001,0)" xlink:href="#cH"/><use transform="matrix(0.05,0,0,0.05,17.950000000000003,0)" xlink:href="#cD"/><use transform="matrix(0.05,0,0,0.05,22.950000000000003,0)" xlink:href="#cy"/><use transform="matrix(0.05,0,0,0.05,38.95,0)" xlink:href="#cv"/><use transform="matrix(0.05,0,0,0.05,48.95,0)" xlink:href="#cw"/><use transform="matrix(0.05,0,0,0.05,59.900000000000006,0)" xlink:href="#cC"/><use transform="matrix(0.05,0,0,0.05,65.85000000000001,0)" xlink:href="#cI"/><use transform="matrix(0.05,0,0,0.05,75.85000000000001,0)" xlink:href="#cJ"/><use transform="matrix(0.05,0,0,0.05,88.80000000000001,0)" xlink:href="#cB"/><use transform="matrix(0.05,0,0,0.05,98.80000000000001,0)" xlink:href="#cI"/><use transform="matrix(0.05,0,0,0.05,108.80000000000001,0)" xlink:href="#cv"/></g><g id="av"><use transform="matrix(0.05,0,0,0.05,0,0)" xlink:href="#bR"/><use transform="matrix(0.05,0,0,0.05,12,0)" xlink:href="#bS"/><use transform="matrix(0.05,0,0,0.05,15.949999999999998,0)" xlink:href="#cl"/></g><g id="aw"><use transform="matrix(0.05,0,0,0.05,0,0)" xlink:href="#cq"/><use transform="matrix(0.05,0,0,0.05,14,0)" xlink:href="#bS"/><use transform="matrix(0.05,0,0,0.05,17.95,0)" xlink:href="#ch"/><use transform="matrix(0.05,0,0,0.05,27.950000000000003,0)" xlink:href="#bD"/><use transform="matrix(0.05,0,0,0.05,32.95,0)" xlink:href="#bF"/><use transform="matrix(0.05,0,0,0.05,42.95,0)" xlink:href="#bG"/></g><g id="ax"><use transform="matrix(0.05,0,0,0.05,0,0)" xlink:href="#bN"/><use transform="matrix(0.05,0,0,0.05,12,0)" xlink:href="#bF"/><use transform="matrix(0.05,0,0,0.05,22,0)" xlink:href="#bS"/></g><g id="ay"><use transform="matrix(0.05,0,0,0.05,0,0)" xlink:href="#bB"/><use transform="matrix(0.05,0,0,0.05,12,0)" xlink:href="#bK"/><use transform="matrix(0.05,0,0,0.05,22,0)" xlink:href="#bE"/><use transform="matrix(0.05,0,0,0.05,25.950000000000003,0)" xlink:href="#bV"/><use transform="matrix(0.05,0,0,0.05,34.95,0)" xlink:href="#bJ"/><use transform="matrix(0.05,0,0,0.05,40.900000000000006,0)" xlink:href="#bF"/></g><g id="az"><use transform="matrix(0.05,0,0,0.05,0,0)" xlink:href="#cb"/><use transform="matrix(0.05,0,0,0.05,12,0)" xlink:href="#bJ"/><use transform="matrix(0.05,0,0,0.05,17.95,0)" xlink:href="#bC"/><use transform="matrix(0.05,0,0,0.05,27.950000000000003,0)" xlink:href="#bW"/><use transform="matrix(0.05,0,0,0.05,36.95,0)" xlink:href="#bX"/><use transform="matrix(0.05,0,0,0.05,46.95,0)" xlink:href="#bE"/><use transform="matrix(0.05,0,0,0.05,50.900000000000006,0)" xlink:href="#bU"/><use transform="matrix(0.05,0,0,0.05,60.900000000000006,0)" xlink:href="#bF"/></g><g id="aA"><use transform="matrix(0.05,0,0,0.05,0,0)" xlink:href="#bN"/><use transform="matrix(0.05,0,0,0.05,12,0)" xlink:href="#bK"/><use transform="matrix(0.05,0,0,0.05,22,0)" xlink:href="#ct"/><use transform="matrix(0.05,0,0,0.05,25.950000000000003,0)" xlink:href="#bC"/></g><path d="M30 0v-248h33v221h125V0H30" id="cK"/><g id="aB"><use transform="matrix(0.05,0,0,0.05,0,0)" xlink:href="#cK"/><use transform="matrix(0.05,0,0,0.05,10,0)" xlink:href="#bC"/><use transform="matrix(0.05,0,0,0.05,20,0)" xlink:href="#bE"/><use transform="matrix(0.05,0,0,0.05,23.95,0)" xlink:href="#bD"/></g><g id="aC"><use transform="matrix(0.05,0,0,0.05,0,0)" xlink:href="#ce"/><use transform="matrix(0.05,0,0,0.05,5,0)" xlink:href="#ce"/><use transform="matrix(0.05,0,0,0.05,10,0)" xlink:href="#ce"/></g><g id="aD"><use transform="matrix(0.05,0,0,0.05,0,0)" xlink:href="#cK"/><use transform="matrix(0.05,0,0,0.05,10,0)" xlink:href="#bF"/></g><g id="aE"><use transform="matrix(0.05,0,0,0.05,0,0)" xlink:href="#bI"/><use transform="matrix(0.05,0,0,0.05,10,0)" xlink:href="#bC"/><use transform="matrix(0.05,0,0,0.05,20,0)" xlink:href="#bE"/><use transform="matrix(0.05,0,0,0.05,23.95,0)" xlink:href="#bG"/></g><g id="aF"><use transform="matrix(0.05,0,0,0.05,0,0)" xlink:href="#bF"/><use transform="matrix(0.05,0,0,0.05,10,0)" xlink:href="#bP"/><use transform="matrix(0.05,0,0,0.05,19,0)" xlink:href="#bD"/></g><g id="aG"><use transform="matrix(0.05,0,0,0.05,0,0)" xlink:href="#bW"/><use transform="matrix(0.05,0,0,0.05,9,0)" xlink:href="#bK"/><use transform="matrix(0.05,0,0,0.05,19,0)" xlink:href="#bL"/><use transform="matrix(0.05,0,0,0.05,33.95,0)" xlink:href="#bI"/><use transform="matrix(0.05,0,0,0.05,43.95,0)" xlink:href="#bK"/><use transform="matrix(0.05,0,0,0.05,53.95,0)" xlink:href="#bP"/><use transform="matrix(0.05,0,0,0.05,62.95,0)" xlink:href="#cl"/></g><g id="aH"><use transform="matrix(0.05,0,0,0.05,0,0)" xlink:href="#bU"/><use transform="matrix(0.05,0,0,0.05,10,0)" xlink:href="#bF"/></g><path d="M68-38c1 34 0 65-14 84H32c9-13 17-26 17-46H33v-38h35" id="cL"/><g id="aI"><use transform="matrix(0.05,0,0,0.05,0,0)" xlink:href="#bY"/><use transform="matrix(0.05,0,0,0.05,10,0)" xlink:href="#bS"/><use transform="matrix(0.05,0,0,0.05,13.949999999999998,0)" xlink:href="#cl"/><use transform="matrix(0.05,0,0,0.05,23.95,0)" xlink:href="#cL"/></g><g id="aJ"><use transform="matrix(0.05,0,0,0.05,0,0)" xlink:href="#bO"/><use transform="matrix(0.05,0,0,0.05,10,0)" xlink:href="#bS"/><use transform="matrix(0.05,0,0,0.05,13.949999999999998,0)" xlink:href="#ch"/><use transform="matrix(0.05,0,0,0.05,23.95,0)" xlink:href="#bD"/><use transform="matrix(0.05,0,0,0.05,28.950000000000003,0)" xlink:href="#bF"/><use transform="matrix(0.05,0,0,0.05,38.95,0)" xlink:href="#bG"/><use transform="matrix(0.05,0,0,0.05,48.95,0)" xlink:href="#cL"/></g><g id="aK"><use transform="matrix(0.05,0,0,0.05,0,0)" xlink:href="#bP"/><use transform="matrix(0.05,0,0,0.05,9,0)" xlink:href="#bF"/><use transform="matrix(0.05,0,0,0.05,19,0)" xlink:href="#bS"/></g><g id="aL"><use transform="matrix(0.05,0,0,0.05,0,0)" xlink:href="#bF"/><use transform="matrix(0.05,0,0,0.05,10,0)" xlink:href="#bD"/></g><path d="M47-170H22l-4-78h33" id="cM"/><g id="aM"><use transform="matrix(0.05,0,0,0.05,0,0)" xlink:href="#bU"/><use transform="matrix(0.05,0,0,0.05,10,0)" xlink:href="#cM"/><use transform="matrix(0.05,0,0,0.05,13.4,0)" xlink:href="#bF"/><use transform="matrix(0.05,0,0,0.05,23.4,0)" xlink:href="#bC"/><use transform="matrix(0.05,0,0,0.05,33.4,0)" xlink:href="#ch"/></g><path d="M18-27v-27l151-64-151-65v-27l175 74v36" id="cN"/><g id="aN"><use transform="matrix(0.05,0,0,0.05,0,0)" xlink:href="#bH"/><use transform="matrix(0.05,0,0,0.05,5.95,0)" xlink:href="#bH"/><use transform="matrix(0.05,0,0,0.05,11.9,0)" xlink:href="#cN"/></g><g id="aO"><use transform="matrix(0.05,0,0,0.05,0,0)" xlink:href="#cb"/><use transform="matrix(0.05,0,0,0.05,12,0)" xlink:href="#bS"/><use transform="matrix(0.05,0,0,0.05,15.949999999999998,0)" xlink:href="#bE"/><use transform="matrix(0.05,0,0,0.05,19.9,0)" xlink:href="#bL"/><use transform="matrix(0.05,0,0,0.05,34.85,0)" xlink:href="#bF"/><use transform="matrix(0.05,0,0,0.05,44.85,0)" xlink:href="#bG"/><use transform="matrix(0.05,0,0,0.05,54.85,0)" xlink:href="#bD"/><use transform="matrix(0.05,0,0,0.05,59.85,0)" xlink:href="#bP"/><use transform="matrix(0.05,0,0,0.05,68.85,0)" xlink:href="#bR"/><use transform="matrix(0.05,0,0,0.05,80.85,0)" xlink:href="#bC"/><use transform="matrix(0.05,0,0,0.05,90.85,0)" xlink:href="#bP"/><use transform="matrix(0.05,0,0,0.05,99.85,0)" xlink:href="#bF"/></g><g id="aP"><use transform="matrix(0.05,0,0,0.05,0,0)" xlink:href="#cK"/><use transform="matrix(0.05,0,0,0.05,10,0)" xlink:href="#bC"/></g><g id="aQ"><use transform="matrix(0.05,0,0,0.05,0,0)" xlink:href="#bW"/><use transform="matrix(0.05,0,0,0.05,9,0)" xlink:href="#bJ"/><use transform="matrix(0.05,0,0,0.05,14.949999999999998,0)" xlink:href="#bF"/><use transform="matrix(0.05,0,0,0.05,24.95,0)" xlink:href="#bV"/><use transform="matrix(0.05,0,0,0.05,33.95,0)" xlink:href="#bF"/><use transform="matrix(0.05,0,0,0.05,43.95,0)" xlink:href="#bD"/><use transform="matrix(0.05,0,0,0.05,48.95,0)" xlink:href="#bD"/><use transform="matrix(0.05,0,0,0.05,53.95,0)" xlink:href="#bF"/></g><path d="M87 75C49 33 22-17 22-94c0-76 28-126 65-167h31c-38 41-64 92-64 168S80 34 118 75H87" id="cO"/><path d="M33-261c38 41 65 92 65 168S71 34 33 75H2C39 34 66-17 66-93S39-220 2-261h31" id="cP"/><g id="aR"><use transform="matrix(0.05,0,0,0.05,0,0)" xlink:href="#cO"/><use transform="matrix(0.05,0,0,0.05,5.95,0)" xlink:href="#bG"/><use transform="matrix(0.05,0,0,0.05,15.949999999999998,0)" xlink:href="#bK"/><use transform="matrix(0.05,0,0,0.05,25.950000000000003,0)" xlink:href="#bL"/><use transform="matrix(0.05,0,0,0.05,40.9,0)" xlink:href="#cP"/></g><g id="aS"><use transform="matrix(0.05,0,0,0.05,0,0)" xlink:href="#ch"/><use transform="matrix(0.05,0,0,0.05,10,0)" xlink:href="#bG"/></g><g id="aT"><use transform="matrix(0.05,0,0,0.05,0,0)" xlink:href="#bW"/><use transform="matrix(0.05,0,0,0.05,9,0)" xlink:href="#bJ"/><use transform="matrix(0.05,0,0,0.05,14.949999999999998,0)" xlink:href="#ch"/><use transform="matrix(0.05,0,0,0.05,24.95,0)" xlink:href="#bP"/><use transform="matrix(0.05,0,0,0.05,33.95,0)" xlink:href="#bD"/><use transform="matrix(0.05,0,0,0.05,38.95,0)" xlink:href="#bC"/><use transform="matrix(0.05,0,0,0.05,48.95,0)" xlink:href="#bW"/><use transform="matrix(0.05,0,0,0.05,57.95,0)" xlink:href="#cl"/></g><g id="aU"><use transform="matrix(0.05,0,0,0.05,0,0)" xlink:href="#cO"/><use transform="matrix(0.05,0,0,0.05,5.95,0)" xlink:href="#bZ"/><use transform="matrix(0.05,0,0,0.05,10.95,0)" xlink:href="#bC"/><use transform="matrix(0.05,0,0,0.05,20.95,0)" xlink:href="#bL"/><use transform="matrix(0.05,0,0,0.05,35.9,0)" xlink:href="#bE"/><use transform="matrix(0.05,0,0,0.05,39.85,0)" xlink:href="#bS"/><use transform="matrix(0.05,0,0,0.05,43.800000000000004,0)" xlink:href="#bS"/><use transform="matrix(0.05,0,0,0.05,47.75000000000001,0)" xlink:href="#bF"/><use transform="matrix(0.05,0,0,0.05,57.75,0)" xlink:href="#cP"/></g><g id="aV"><use transform="matrix(0.05,0,0,0.05,0,0)" xlink:href="#cu"/><use transform="matrix(0.05,0,0,0.05,10.5,0)" xlink:href="#cu"/><use transform="matrix(0.05,0,0,0.05,21,0)" xlink:href="#cv"/><use transform="matrix(0.05,0,0,0.05,31,0)" xlink:href="#cw"/><use transform="matrix(0.05,0,0,0.05,41.95,0)" xlink:href="#cx"/><use transform="matrix(0.05,0,0,0.05,52.900000000000006,0)" xlink:href="#cy"/><use transform="matrix(0.05,0,0,0.05,68.9,0)" xlink:href="#cv"/><use transform="matrix(0.05,0,0,0.05,78.9,0)" xlink:href="#cA"/><use transform="matrix(0.05,0,0,0.05,85.9,0)" xlink:href="#cB"/><use transform="matrix(0.05,0,0,0.05,95.9,0)" xlink:href="#cC"/><use transform="matrix(0.05,0,0,0.05,101.85000000000001,0)" xlink:href="#cD"/><use transform="matrix(0.05,0,0,0.05,106.85000000000001,0)" xlink:href="#cE"/><use transform="matrix(0.05,0,0,0.05,117.80000000000001,0)" xlink:href="#cw"/><use transform="matrix(0.05,0,0,0.05,128.75,0)" xlink:href="#cF"/><use transform="matrix(0.05,0,0,0.05,139.25,0)" xlink:href="#cF"/></g><path d="M76-208v77h127v40H76V0H24v-248h183v40H76" id="cQ"/><g id="aW"><use transform="matrix(0.05,0,0,0.05,0,0)" xlink:href="#cQ"/><use transform="matrix(0.05,0,0,0.05,10.950000000000001,0)" xlink:href="#cE"/><use transform="matrix(0.05,0,0,0.05,21.900000000000002,0)" xlink:href="#cA"/><use transform="matrix(0.05,0,0,0.05,28.900000000000002,0)" xlink:href="#cy"/><use transform="matrix(0.05,0,0,0.05,44.900000000000006,0)" xlink:href="#cv"/><use transform="matrix(0.05,0,0,0.05,54.900000000000006,0)" xlink:href="#cI"/></g><g id="aX"><use transform="matrix(0.05,0,0,0.05,0,0)" xlink:href="#cK"/><use transform="matrix(0.05,0,0,0.05,10,0)" xlink:href="#bE"/><use transform="matrix(0.05,0,0,0.05,13.949999999999998,0)" xlink:href="#ck"/><use transform="matrix(0.05,0,0,0.05,23.95,0)" xlink:href="#ch"/><use transform="matrix(0.05,0,0,0.05,33.95,0)" xlink:href="#bE"/><use transform="matrix(0.05,0,0,0.05,37.900000000000006,0)" xlink:href="#bU"/><use transform="matrix(0.05,0,0,0.05,47.900000000000006,0)" xlink:href="#bF"/></g><g id="aY"><use transform="matrix(0.05,0,0,0.05,0,0)" xlink:href="#bN"/><use transform="matrix(0.05,0,0,0.05,12,0)" xlink:href="#bK"/><use transform="matrix(0.05,0,0,0.05,22,0)" xlink:href="#bS"/><use transform="matrix(0.05,0,0,0.05,25.950000000000003,0)" xlink:href="#bE"/><use transform="matrix(0.05,0,0,0.05,29.899999999999995,0)" xlink:href="#bU"/><use transform="matrix(0.05,0,0,0.05,39.9,0)" xlink:href="#bF"/></g><g id="aZ"><use transform="matrix(0.05,0,0,0.05,0,0)" xlink:href="#cq"/><use transform="matrix(0.05,0,0,0.05,14,0)" xlink:href="#cl"/><use transform="matrix(0.05,0,0,0.05,24,0)" xlink:href="#bS"/><use transform="matrix(0.05,0,0,0.05,27.950000000000003,0)" xlink:href="#bE"/><use transform="matrix(0.05,0,0,0.05,31.899999999999995,0)" xlink:href="#bZ"/><use transform="matrix(0.05,0,0,0.05,36.9,0)" xlink:href="#bE"/><use transform="matrix(0.05,0,0,0.05,40.85,0)" xlink:href="#cl"/></g><g id="ba"><use transform="matrix(0.05,0,0,0.05,0,0)" xlink:href="#ce"/><use transform="matrix(0.05,0,0,0.05,5,0)" xlink:href="#ce"/><use transform="matrix(0.05,0,0,0.05,10,0)" xlink:href="#ce"/><use transform="matrix(0.05,0,0,0.05,15,0)" xlink:href="#ce"/></g><g id="bb"><use transform="matrix(0.05,0,0,0.05,0,0)" xlink:href="#cQ"/><use transform="matrix(0.05,0,0,0.05,10.950000000000001,0)" xlink:href="#cB"/><use transform="matrix(0.05,0,0,0.05,20.950000000000003,0)" xlink:href="#cy"/><use transform="matrix(0.05,0,0,0.05,36.95,0)" xlink:href="#cD"/><use transform="matrix(0.05,0,0,0.05,41.95,0)" xlink:href="#cH"/><use transform="matrix(0.05,0,0,0.05,46.95,0)" xlink:href="#cH"/><use transform="matrix(0.05,0,0,0.05,51.95,0)" xlink:href="#cv"/><use transform="matrix(0.05,0,0,0.05,61.95,0)" xlink:href="#cI"/></g><g id="bc"><use transform="matrix(0.05,0,0,0.05,0,0)" xlink:href="#cn"/><use transform="matrix(0.05,0,0,0.05,12.950000000000001,0)" xlink:href="#bJ"/><use transform="matrix(0.05,0,0,0.05,18.900000000000002,0)" xlink:href="#ch"/><use transform="matrix(0.05,0,0,0.05,28.900000000000002,0)" xlink:href="#bP"/><use transform="matrix(0.05,0,0,0.05,37.900000000000006,0)" xlink:href="#bD"/><use transform="matrix(0.05,0,0,0.05,42.900000000000006,0)" xlink:href="#bC"/><use transform="matrix(0.05,0,0,0.05,52.900000000000006,0)" xlink:href="#bW"/><use transform="matrix(0.05,0,0,0.05,61.900000000000006,0)" xlink:href="#cl"/><use transform="matrix(0.05,0,0,0.05,71.9,0)" xlink:href="#bP"/></g><g id="bd"><use transform="matrix(0.05,0,0,0.05,0,0)" xlink:href="#ca"/><use transform="matrix(0.05,0,0,0.05,10.950000000000001,0)" xlink:href="#bJ"/><use transform="matrix(0.05,0,0,0.05,16.900000000000002,0)" xlink:href="#ch"/><use transform="matrix(0.05,0,0,0.05,26.900000000000002,0)" xlink:href="#bE"/><use transform="matrix(0.05,0,0,0.05,30.85,0)" xlink:href="#bD"/><use transform="matrix(0.05,0,0,0.05,35.85,0)" xlink:href="#bP"/></g><path d="M141-36C126-15 110 5 73 4 37 3 15-17 15-53c-1-64 63-63 125-63 3-35-9-54-41-54-24 1-41 7-42 31l-33-3c5-37 33-52 76-52 45 0 72 20 72 64v82c-1 20 7 32 28 27v20c-31 9-61-2-59-35zM48-53c0 20 12 33 32 33 41-3 63-29 60-74-43 2-92-5-92 41zm62-158l-58-49v-5h36c12 19 30 32 38 54h-16" id="cR"/><use transform="matrix(0.05,0,0,0.05,0,0)" xlink:href="#cR" id="be"/><g id="bf"><use transform="matrix(0.05,0,0,0.05,0,0)" xlink:href="#bW"/><use transform="matrix(0.05,0,0,0.05,9,0)" xlink:href="#bK"/><use transform="matrix(0.05,0,0,0.05,19,0)" xlink:href="#ck"/><use transform="matrix(0.05,0,0,0.05,29,0)" xlink:href="#ch"/><use transform="matrix(0.05,0,0,0.05,39,0)" xlink:href="#bF"/><use transform="matrix(0.05,0,0,0.05,49,0)" xlink:href="#bP"/></g><path d="M136-208V0H84v-208H4v-40h212v40h-80" id="cS"/><path d="M144 0l-44-69L55 0H2l70-98-66-92h53l41 62 40-62h54l-67 91 71 99h-54" id="cT"/><g id="bg"><use transform="matrix(0.05,0,0,0.05,0,0)" xlink:href="#cS"/><use transform="matrix(0.05,0,0,0.05,9.600000000000001,0)" xlink:href="#cv"/><use transform="matrix(0.05,0,0,0.05,19.6,0)" xlink:href="#cT"/><use transform="matrix(0.05,0,0,0.05,29.6,0)" xlink:href="#cC"/><use transform="matrix(0.05,0,0,0.05,35.550000000000004,0)" xlink:href="#cx"/><use transform="matrix(0.05,0,0,0.05,46.50000000000001,0)" xlink:href="#cA"/><use transform="matrix(0.05,0,0,0.05,53.5,0)" xlink:href="#cv"/><use transform="matrix(0.05,0,0,0.05,63.5,0)" xlink:href="#cI"/></g><g id="bh"><use transform="matrix(0.05,0,0,0.05,0,0)" xlink:href="#cr"/><use transform="matrix(0.05,0,0,0.05,14.950000000000001,0)" xlink:href="#bC"/><use transform="matrix(0.05,0,0,0.05,24.950000000000003,0)" xlink:href="#bE"/><use transform="matrix(0.05,0,0,0.05,28.900000000000002,0)" xlink:href="#bG"/><use transform="matrix(0.05,0,0,0.05,38.900000000000006,0)" xlink:href="#bD"/><use transform="matrix(0.05,0,0,0.05,43.900000000000006,0)" xlink:href="#bF"/><use transform="matrix(0.05,0,0,0.05,53.900000000000006,0)" xlink:href="#bG"/><use transform="matrix(0.05,0,0,0.05,63.900000000000006,0)" xlink:href="#ch"/><use transform="matrix(0.05,0,0,0.05,73.9,0)" xlink:href="#bF"/></g><g id="bi"><use transform="matrix(0.05,0,0,0.05,0,0)" xlink:href="#cr"/><use transform="matrix(0.05,0,0,0.05,14.950000000000001,0)" xlink:href="#bK"/><use transform="matrix(0.05,0,0,0.05,24.950000000000003,0)" xlink:href="#bU"/><use transform="matrix(0.05,0,0,0.05,34.95,0)" xlink:href="#bE"/><use transform="matrix(0.05,0,0,0.05,38.900000000000006,0)" xlink:href="#bZ"/><use transform="matrix(0.05,0,0,0.05,43.900000000000006,0)" xlink:href="#bE"/><use transform="matrix(0.05,0,0,0.05,47.85000000000001,0)" xlink:href="#cl"/><use transform="matrix(0.05,0,0,0.05,57.85,0)" xlink:href="#bF"/></g><path d="M175 0L67-191c6 58 2 128 3 191H24v-248h59L193-55c-6-58-2-129-3-193h46V0h-61" id="cU"/><g id="bj"><use transform="matrix(0.05,0,0,0.05,0,0)" xlink:href="#cU"/><use transform="matrix(0.05,0,0,0.05,12.950000000000001,0)" xlink:href="#cB"/><use transform="matrix(0.05,0,0,0.05,22.950000000000003,0)" xlink:href="#cC"/><use transform="matrix(0.05,0,0,0.05,28.900000000000002,0)" xlink:href="#cx"/><use transform="matrix(0.05,0,0,0.05,39.85,0)" xlink:href="#cA"/><use transform="matrix(0.05,0,0,0.05,46.85,0)" xlink:href="#cv"/><use transform="matrix(0.05,0,0,0.05,56.85,0)" xlink:href="#cI"/></g><g id="bk"><use transform="matrix(0.05,0,0,0.05,0,0)" xlink:href="#cb"/><use transform="matrix(0.05,0,0,0.05,12,0)" xlink:href="#bS"/><use transform="matrix(0.05,0,0,0.05,15.949999999999998,0)" xlink:href="#bS"/><use transform="matrix(0.05,0,0,0.05,19.9,0)" xlink:href="#bF"/><use transform="matrix(0.05,0,0,0.05,29.899999999999995,0)" xlink:href="#bJ"/><use transform="matrix(0.05,0,0,0.05,35.85,0)" xlink:href="#bO"/><use transform="matrix(0.05,0,0,0.05,45.85,0)" xlink:href="#bE"/><use transform="matrix(0.05,0,0,0.05,49.800000000000004,0)" xlink:href="#bF"/></g><g id="bl"><use transform="matrix(0.05,0,0,0.05,0,0)" xlink:href="#cn"/><use transform="matrix(0.05,0,0,0.05,12.950000000000001,0)" xlink:href="#bK"/><use transform="matrix(0.05,0,0,0.05,22.950000000000003,0)" xlink:href="#bG"/><use transform="matrix(0.05,0,0,0.05,32.95,0)" xlink:href="#bD"/><use transform="matrix(0.05,0,0,0.05,37.95,0)" xlink:href="#bJ"/><use transform="matrix(0.05,0,0,0.05,43.900000000000006,0)" xlink:href="#bF"/><use transform="matrix(0.05,0,0,0.05,53.900000000000006,0)" xlink:href="#bH"/><use transform="matrix(0.05,0,0,0.05,59.85,0)" xlink:href="#bT"/><use transform="matrix(0.05,0,0,0.05,64.85000000000001,0)" xlink:href="#bG"/><use transform="matrix(0.05,0,0,0.05,74.85000000000001,0)" xlink:href="#bU"/><use transform="matrix(0.05,0,0,0.05,84.85000000000001,0)" xlink:href="#bE"/><use transform="matrix(0.05,0,0,0.05,88.80000000000001,0)" xlink:href="#bW"/><use transform="matrix(0.05,0,0,0.05,97.80000000000001,0)" xlink:href="#bC"/><use transform="matrix(0.05,0,0,0.05,107.80000000000001,0)" xlink:href="#bD"/><use transform="matrix(0.05,0,0,0.05,112.80000000000001,0)" xlink:href="#bE"/><use transform="matrix(0.05,0,0,0.05,116.75,0)" xlink:href="#bK"/><use transform="matrix(0.05,0,0,0.05,126.75,0)" xlink:href="#bG"/></g><g id="bm"><use transform="matrix(0.05,0,0,0.05,0,0)" xlink:href="#cr"/><use transform="matrix(0.05,0,0,0.05,14.950000000000001,0)" xlink:href="#bC"/><use transform="matrix(0.05,0,0,0.05,24.950000000000003,0)" xlink:href="#bS"/><use transform="matrix(0.05,0,0,0.05,28.900000000000002,0)" xlink:href="#bC"/><use transform="matrix(0.05,0,0,0.05,38.900000000000006,0)" xlink:href="#bU"/><use transform="matrix(0.05,0,0,0.05,48.900000000000006,0)" xlink:href="#bE"/><use transform="matrix(0.05,0,0,0.05,52.85,0)" xlink:href="#bF"/></g><g id="bn"><use transform="matrix(0.05,0,0,0.05,0,0)" xlink:href="#cb"/><use transform="matrix(0.05,0,0,0.05,12,0)" xlink:href="#bD"/><use transform="matrix(0.05,0,0,0.05,17,0)" xlink:href="#bD"/><use transform="matrix(0.05,0,0,0.05,22,0)" xlink:href="#bJ"/><use transform="matrix(0.05,0,0,0.05,27.950000000000003,0)" xlink:href="#bE"/><use transform="matrix(0.05,0,0,0.05,31.899999999999995,0)" xlink:href="#bY"/><use transform="matrix(0.05,0,0,0.05,41.9,0)" xlink:href="#ch"/><use transform="matrix(0.05,0,0,0.05,51.900000000000006,0)" xlink:href="#bD"/><use transform="matrix(0.05,0,0,0.05,56.900000000000006,0)" xlink:href="#cb"/><use transform="matrix(0.05,0,0,0.05,68.9,0)" xlink:href="#bS"/><use transform="matrix(0.05,0,0,0.05,72.85000000000001,0)" xlink:href="#bE"/><use transform="matrix(0.05,0,0,0.05,76.80000000000001,0)" xlink:href="#bL"/><use transform="matrix(0.05,0,0,0.05,91.75000000000001,0)" xlink:href="#bF"/><use transform="matrix(0.05,0,0,0.05,101.75000000000001,0)" xlink:href="#bG"/><use transform="matrix(0.05,0,0,0.05,111.75,0)" xlink:href="#bD"/></g><g id="bo"><use transform="matrix(0.05,0,0,0.05,0,0)" xlink:href="#cd"/><use transform="matrix(0.05,0,0,0.05,10,0)" xlink:href="#ce"/><use transform="matrix(0.05,0,0,0.05,15,0)" xlink:href="#ce"/><use transform="matrix(0.05,0,0,0.05,20,0)" xlink:href="#cf"/></g><g id="bp"><use transform="matrix(0.05,0,0,0.05,0,0)" xlink:href="#cm"/><use transform="matrix(0.05,0,0,0.05,10,0)" xlink:href="#ce"/><use transform="matrix(0.05,0,0,0.05,15,0)" xlink:href="#ce"/><use transform="matrix(0.05,0,0,0.05,20,0)" xlink:href="#cf"/></g><path d="M97-269c9-18 26-28 38-43h36v5l-54 38H97zM30 0v-248h187v28H63v79h144v27H63v87h162V0H30" id="cV"/><g id="bq"><use transform="matrix(0.05,0,0,0.05,0,0)" xlink:href="#cV"/><use transform="matrix(0.05,0,0,0.05,12,0)" xlink:href="#bD"/><use transform="matrix(0.05,0,0,0.05,17,0)" xlink:href="#bC"/><use transform="matrix(0.05,0,0,0.05,27,0)" xlink:href="#bY"/><use transform="matrix(0.05,0,0,0.05,37,0)" xlink:href="#bS"/><use transform="matrix(0.05,0,0,0.05,40.95,0)" xlink:href="#bE"/><use transform="matrix(0.05,0,0,0.05,44.900000000000006,0)" xlink:href="#bJ"/></g><g id="br"><use transform="matrix(0.05,0,0,0.05,0,0)" xlink:href="#cV"/><use transform="matrix(0.05,0,0,0.05,12,0)" xlink:href="#bD"/><use transform="matrix(0.05,0,0,0.05,17,0)" xlink:href="#bC"/><use transform="matrix(0.05,0,0,0.05,27,0)" xlink:href="#bY"/><use transform="matrix(0.05,0,0,0.05,37,0)" xlink:href="#bS"/><use transform="matrix(0.05,0,0,0.05,40.95,0)" xlink:href="#bE"/><use transform="matrix(0.05,0,0,0.05,44.900000000000006,0)" xlink:href="#bD"/></g><path d="M30 0v-248h187v28H63v79h144v27H63v87h162V0H30" id="cW"/><g id="bs"><use transform="matrix(0.05,0,0,0.05,0,0)" xlink:href="#cW"/><use transform="matrix(0.05,0,0,0.05,12,0)" xlink:href="#bP"/><use transform="matrix(0.05,0,0,0.05,21,0)" xlink:href="#bD"/></g><g id="bt"><use transform="matrix(0.05,0,0,0.05,0,0)" xlink:href="#cl"/><use transform="matrix(0.05,0,0,0.05,10,0)" xlink:href="#bD"/><use transform="matrix(0.05,0,0,0.05,15,0)" xlink:href="#bC"/><use transform="matrix(0.05,0,0,0.05,25,0)" xlink:href="#bY"/><use transform="matrix(0.05,0,0,0.05,35,0)" xlink:href="#bS"/><use transform="matrix(0.05,0,0,0.05,38.95,0)" xlink:href="#bE"/><use transform="matrix(0.05,0,0,0.05,42.900000000000006,0)" xlink:href="#bF"/></g><g id="bu"><use transform="matrix(0.05,0,0,0.05,0,0)" xlink:href="#bI"/><use transform="matrix(0.05,0,0,0.05,10,0)" xlink:href="#bC"/><use transform="matrix(0.05,0,0,0.05,20,0)" xlink:href="#bJ"/></g><use transform="matrix(0.05,0,0,0.05,0,0)" xlink:href="#cf" id="bv"/><g id="bw"><use transform="matrix(0.05,0,0,0.05,0,0)" xlink:href="#ca"/><use transform="matrix(0.05,0,0,0.05,10.950000000000001,0)" xlink:href="#bK"/><use transform="matrix(0.05,0,0,0.05,20.950000000000003,0)" xlink:href="#bJ"/><use transform="matrix(0.05,0,0,0.05,26.900000000000002,0)" xlink:href="#bL"/><use transform="matrix(0.05,0,0,0.05,41.85,0)" xlink:href="#bF"/><use transform="matrix(0.05,0,0,0.05,51.85,0)" xlink:href="#bJ"/></g><g id="bx"><use transform="matrix(0.05,0,0,0.05,0,0)" xlink:href="#ca"/><use transform="matrix(0.05,0,0,0.05,10.950000000000001,0)" xlink:href="#bK"/><use transform="matrix(0.05,0,0,0.05,20.950000000000003,0)" xlink:href="#bJ"/><use transform="matrix(0.05,0,0,0.05,26.900000000000002,0)" xlink:href="#bL"/><use transform="matrix(0.05,0,0,0.05,41.85,0)" xlink:href="#bF"/></g><g id="by"><use transform="matrix(0.05,0,0,0.05,0,0)" xlink:href="#cW"/><use transform="matrix(0.05,0,0,0.05,12,0)" xlink:href="#bP"/><use transform="matrix(0.05,0,0,0.05,21,0)" xlink:href="#bD"/></g><g id="bz"><use transform="matrix(0.05,0,0,0.05,0,0)" xlink:href="#bZ"/><use transform="matrix(0.05,0,0,0.05,5,0)" xlink:href="#bK"/><use transform="matrix(0.05,0,0,0.05,15,0)" xlink:href="#bJ"/><use transform="matrix(0.05,0,0,0.05,20.95,0)" xlink:href="#bL"/><use transform="matrix(0.05,0,0,0.05,35.9,0)" xlink:href="#cl"/></g><g id="bA"><use transform="matrix(0.05,0,0,0.05,0,0)" xlink:href="#cb"/><use transform="matrix(0.05,0,0,0.05,12,0)" xlink:href="#bZ"/><use transform="matrix(0.05,0,0,0.05,16.65,0)" xlink:href="#bZ"/><use transform="matrix(0.05,0,0,0.05,21.65,0)" xlink:href="#bF"/><use transform="matrix(0.05,0,0,0.05,31.649999999999995,0)" xlink:href="#bW"/><use transform="matrix(0.05,0,0,0.05,40.65,0)" xlink:href="#bD"/><use transform="matrix(0.05,0,0,0.05,45.65,0)" xlink:href="#bF"/><use transform="matrix(0.05,0,0,0.05,55.650000000000006,0)" xlink:href="#bJ"/></g></defs></g></svg>