<svg xmlns="http://www.w3.org/2000/svg" xmlns:xlink="http://www.w3.org/1999/xlink" width="2898.32" height="1080.28"><g transform="translate(0 0)"><path d="M898.12 57.7c0-2.76 2.24-5 5-5h390c2.76 0 5 2.24 5 5v210c0 2.76-2.24 5-5 5h-390c-2.76 0-5-2.24-5-5z" stroke="#000" stroke-width="2" fill="#fff"/><path d="M898.12 90h400m-400 156h400" stroke="#000" stroke-width="2" fill="none"/><use xlink:href="#a" transform="matrix(1,0,0,1,906.12121751513,52.69668921324313) translate(164.025 22.6)"/><use xlink:href="#b" transform="matrix(1,0,0,1,910.12121751513,98.29668921324313) translate(0 19.6)"/><use xlink:href="#c" transform="matrix(1,0,0,1,910.12121751513,98.29668921324313) translate(10.95 19.6)"/><use xlink:href="#d" transform="matrix(1,0,0,1,910.12121751513,98.29668921324313) translate(81.85000000000001 19.6)"/><use xlink:href="#b" transform="matrix(1,0,0,1,910.12121751513,98.29668921324313) translate(0 41.2)"/><use xlink:href="#e" transform="matrix(1,0,0,1,910.12121751513,98.29668921324313) translate(10.95 41.2)"/><use xlink:href="#d" transform="matrix(1,0,0,1,910.12121751513,98.29668921324313) translate(55.900000000000006 41.2)"/><use xlink:href="#b" transform="matrix(1,0,0,1,910.12121751513,98.29668921324313) translate(0 62.800000000000004)"/><use xlink:href="#f" transform="matrix(1,0,0,1,910.12121751513,98.29668921324313) translate(10.95 62.800000000000004)"/><use xlink:href="#g" transform="matrix(1,0,0,1,910.12121751513,98.29668921324313) translate(58.95 62.800000000000004)"/><use xlink:href="#b" transform="matrix(1,0,0,1,910.12121751513,98.29668921324313) translate(0 84.40000000000002)"/><use xlink:href="#h" transform="matrix(1,0,0,1,910.12121751513,98.29668921324313) translate(10.95 84.40000000000002)"/><use xlink:href="#i" transform="matrix(1,0,0,1,910.12121751513,98.29668921324313) translate(50.95 84.40000000000002)"/><use xlink:href="#b" transform="matrix(1,0,0,1,910.12121751513,98.29668921324313) translate(0 106.00000000000001)"/><use xlink:href="#j" transform="matrix(1,0,0,1,910.12121751513,98.29668921324313) translate(10.95 106.00000000000001)"/><use xlink:href="#i" transform="matrix(1,0,0,1,910.12121751513,98.29668921324313) translate(63.900000000000006 106.00000000000001)"/><use xlink:href="#b" transform="matrix(1,0,0,1,910.12121751513,98.29668921324313) translate(0 127.60000000000001)"/><use xlink:href="#k" transform="matrix(1,0,0,1,910.12121751513,98.29668921324313) translate(10.95 127.60000000000001)"/><use xlink:href="#l" transform="matrix(1,0,0,1,910.12121751513,98.29668921324313) translate(57.8 127.60000000000001)"/><path d="M1398.12 297.7c0-2.76 2.24-5 5-5h350c2.76 0 5 2.24 5 5v390c0 2.76-2.24 5-5 5h-350c-2.76 0-5-2.24-5-5z" stroke="#000" stroke-width="2" fill="#fff"/><path d="M1398.12 352h360m-360 310h360" stroke="#000" stroke-width="2" fill="none"/><use xlink:href="#m" transform="matrix(1,0,0,1,1406.1212175151302,292.69668921324313) translate(101.07499999999999 22.799999999999997)"/><use xlink:href="#n" transform="matrix(1,0,0,1,1406.1212175151302,292.69668921324313) translate(137.6 44.4)"/><use xlink:href="#o" transform="matrix(1,0,0,1,1410.1212175151302,359.8966892132431) translate(0 14.4)"/><use xlink:href="#p" transform="matrix(1,0,0,1,1410.1212175151302,359.8966892132431) translate(0 36)"/><use xlink:href="#q" transform="matrix(1,0,0,1,1410.1212175151302,359.8966892132431) translate(0 57.6)"/><use xlink:href="#r" transform="matrix(1,0,0,1,1410.1212175151302,359.8966892132431) translate(0 79.20000000000002)"/><use xlink:href="#s" transform="matrix(1,0,0,1,1410.1212175151302,359.8966892132431) translate(0 100.80000000000001)"/><use xlink:href="#t" transform="matrix(1,0,0,1,1410.1212175151302,359.8966892132431) translate(0 122.4)"/><use xlink:href="#u" transform="matrix(1,0,0,1,1410.1212175151302,359.8966892132431) translate(0 144)"/><use xlink:href="#v" transform="matrix(1,0,0,1,1410.1212175151302,359.8966892132431) translate(0 165.6)"/><use xlink:href="#w" transform="matrix(1,0,0,1,1410.1212175151302,359.8966892132431) translate(49.85 165.6)"/><use xlink:href="#x" transform="matrix(1,0,0,1,1410.1212175151302,359.8966892132431) translate(64.85 165.6)"/><use xlink:href="#y" transform="matrix(1,0,0,1,1410.1212175151302,359.8966892132431) translate(0 187.2)"/><use xlink:href="#z" transform="matrix(1,0,0,1,1410.1212175151302,359.8966892132431) translate(0 208.79999999999998)"/><use xlink:href="#A" transform="matrix(1,0,0,1,1410.1212175151302,359.8966892132431) translate(0 230.39999999999998)"/><use xlink:href="#B" transform="matrix(1,0,0,1,1410.1212175151302,359.8966892132431) translate(67.9 230.39999999999998)"/><use xlink:href="#C" transform="matrix(1,0,0,1,1410.1212175151302,359.8966892132431) translate(92.9 230.39999999999998)"/><use xlink:href="#D" transform="matrix(1,0,0,1,1410.1212175151302,359.8966892132431) translate(0 251.46666666666664)"/><use xlink:href="#E" transform="matrix(1,0,0,1,1410.1212175151302,359.8966892132431) translate(82.71851851851854 251.46666666666664)"/><use xlink:href="#F" transform="matrix(1,0,0,1,1410.1212175151302,359.8966892132431) translate(157.73333333333335 251.46666666666664)"/><use xlink:href="#G" transform="matrix(1,0,0,1,1410.1212175151302,359.8966892132431) translate(176.99259259259262 251.46666666666664)"/><use xlink:href="#H" transform="matrix(1,0,0,1,1410.1212175151302,359.8966892132431) translate(0 272.26666666666665)"/><use xlink:href="#I" transform="matrix(1,0,0,1,1410.1212175151302,359.8966892132431) translate(0 293.06666666666666)"/><path d="M1398.12 57.7c0-2.76 2.24-5 5-5h350c2.76 0 5 2.24 5 5v170c0 2.76-2.24 5-5 5h-350c-2.76 0-5-2.24-5-5z" stroke="#000" stroke-width="2" fill="#fff"/><path d="M1398.12 112h360m-360 95h360" stroke="#000" stroke-width="2" fill="none"/><use xlink:href="#m" transform="matrix(1,0,0,1,1406.1212175151302,52.69668921324313) translate(101.07499999999999 22.799999999999997)"/><use xlink:href="#J" transform="matrix(1,0,0,1,1406.1212175151302,52.69668921324313) translate(102.1 44.4)"/><use xlink:href="#K" transform="matrix(1,0,0,1,1410.1212175151302,119.89668921324314) translate(0 22)"/><use xlink:href="#L" transform="matrix(1,0,0,1,1410.1212175151302,119.89668921324314) translate(73.85 22)"/><use xlink:href="#M" transform="matrix(1,0,0,1,1410.1212175151302,119.89668921324314) translate(0 43.6)"/><use xlink:href="#K" transform="matrix(1,0,0,1,1410.1212175151302,119.89668921324314) translate(0 65.2)"/><use xlink:href="#N" transform="matrix(1,0,0,1,1410.1212175151302,119.89668921324314) translate(73.85 65.2)"/><use xlink:href="#O" transform="matrix(1,0,0,1,1410.1212175151302,119.89668921324314) translate(134.75 65.2)"/><use xlink:href="#P" transform="matrix(1,0,0,1,1410.1212175151302,119.89668921324314) translate(159.75 65.2)"/><use xlink:href="#Q" transform="matrix(1,0,0,1,1410.1212175151302,119.89668921324314) translate(243.65 65.2)"/><use xlink:href="#R" transform="matrix(1,0,0,1,1410.1212175151302,119.89668921324314) translate(271.05 65.2)"/><path d="M898.12 577.7c0-2.76 2.24-5 5-5h390c2.76 0 5 2.24 5 5v110c0 2.76-2.24 5-5 5h-390c-2.76 0-5-2.24-5-5z" stroke="#000" stroke-width="2" fill="#fff"/><path d="M898.12 610h400m-400 56h400" stroke="#000" stroke-width="2" fill="none"/><use xlink:href="#S" transform="matrix(1,0,0,1,906.12121751513,572.6966892132432) translate(157.2 22.6)"/><use xlink:href="#b" transform="matrix(1,0,0,1,910.12121751513,618.2966892132432) translate(0 14.4)"/><use xlink:href="#T" transform="matrix(1,0,0,1,910.12121751513,618.2966892132432) translate(10.95 14.4)"/><use xlink:href="#d" transform="matrix(1,0,0,1,910.12121751513,618.2966892132432) translate(71.9 14.4)"/><use xlink:href="#b" transform="matrix(1,0,0,1,910.12121751513,618.2966892132432) translate(0 36)"/><use xlink:href="#U" transform="matrix(1,0,0,1,910.12121751513,618.2966892132432) translate(10.95 36)"/><use xlink:href="#V" transform="matrix(1,0,0,1,910.12121751513,618.2966892132432) translate(147.8 36)"/><path d="M1838.12 57.7c0-2.76 2.24-5 5-5h174c2.76 0 6.58 1.58 8.54 3.53l8.93 8.93c1.94 1.95 3.52 5.78 3.52 8.54v54c0 2.76-2.24 5-5 5h-190c-2.76 0-5-2.24-5-5z" stroke="#000" stroke-width="2" fill="#fff"/><path d="M2023.33 57.55c-.67-2.68.37-3.27 2.33-1.32l8.93 8.93c1.94 1.95 1.35 3-1.33 2.32l-3.1-.77c-2.68-.66-5.4-3.38-6.06-6.05z" stroke="#000" stroke-width="2" fill="#b3b3b3"/><use xlink:href="#W" transform="matrix(1,0,0,1,1838.12121751513,52.69668921324315) translate(6.01 21.9)"/><use xlink:href="#X" transform="matrix(1,0,0,1,1838.12121751513,52.69668921324315) translate(77.86000000000001 21.9)"/><use xlink:href="#Y" transform="matrix(1,0,0,1,1838.12121751513,52.69668921324315) translate(5.01 43.5)"/><use xlink:href="#Z" transform="matrix(1,0,0,1,1838.12121751513,52.69668921324315) translate(74.01 43.5)"/><use xlink:href="#aa" transform="matrix(1,0,0,1,1838.12121751513,52.69668921324315) translate(132.86 43.5)"/><use xlink:href="#ab" transform="matrix(1,0,0,1,1838.12121751513,52.69668921324315) translate(6.01 65.10000000000001)"/><use xlink:href="#ac" transform="matrix(1,0,0,1,1838.12121751513,52.69668921324315) translate(69.96000000000001 65.10000000000001)"/><path d="M1759.12 91.4h78" fill="none"/><path d="M1759.12 91.4h2.93m3.9 0h5.85m3.9 0h5.85m3.9 0h5.85m3.9 0h5.85m3.9 0h5.85m3.9 0h5.85m3.9 0h5.85m3.9 0h2.92" stroke="#000" stroke-width="2" fill="none"/><path d="M1759.12 92.4h-1v-2h1zM1838.12 92.4h-1v-2h1z"/><path d="M1838.12 317.7c0-2.76 2.24-5 5-5h985.5c2.76 0 6.58 1.58 8.54 3.53l4.93 4.93c1.94 1.95 3.52 5.78 3.52 8.54v38c0 2.76-2.24 5-5 5h-997.5c-2.76 0-5-2.24-5-5z" stroke="#000" stroke-width="2" fill="#fff"/><path d="M2834.82 317.5c-.66-2.65.37-3.24 2.3-1.3l5 5c1.93 1.93 1.35 2.96-1.3 2.3-2.65-.67-5.34-3.35-6-6z" stroke="#000" stroke-width="2" fill="#b3b3b3"/><use xlink:href="#ad" transform="matrix(1,0,0,1,1838.12121751513,312.69668921324313) translate(5.01 33.15)"/><path d="M1759.12 332.37h38.92c.04 0 .08.04.08.08 0 .05.04.08.08.08h38.92" fill="none"/><path d="M1759.12 332.37h2.92m3.9 0h5.83m3.9 0h5.83m3.9 0h5.83m3.9 0h2.9l.07.02.02.05.03.06.05.03h2.92m3.9 0h5.83m3.9 0h5.83m3.9 0h5.83m3.9 0h2.92" stroke="#000" stroke-width="2" fill="none"/><path d="M1759.12 333.37h-1v-2h1zM1838.12 333.53h-1v-2h1z"/><path d="M438.12 57.7c0-2.76 2.24-5 5-5h350c2.76 0 5 2.24 5 5v150c0 2.76-2.24 5-5 5h-350c-2.76 0-5-2.24-5-5z" stroke="#000" stroke-width="2" fill="#fff"/><path d="M438.12 112h360m-360 60h360" stroke="#000" stroke-width="2" fill="none"/><use xlink:href="#m" transform="matrix(1,0,0,1,446.12121751512996,52.69668921324313) translate(101.07499999999999 22.799999999999997)"/><use xlink:href="#ae" transform="matrix(1,0,0,1,446.12121751512996,52.69668921324313) translate(137.575 44.4)"/><path d="M438.12 277.7c0-2.76 2.24-5 5-5h350c2.76 0 5 2.24 5 5v130c0 2.76-2.24 5-5 5h-350c-2.76 0-5-2.24-5-5z" stroke="#000" stroke-width="2" fill="#fff"/><path d="M438.12 310h360m-360 83h360" stroke="#000" stroke-width="2" fill="none"/><use xlink:href="#af" transform="matrix(1,0,0,1,446.12121751512996,272.69668921324313) translate(132.05 22.6)"/><use xlink:href="#b" transform="matrix(1,0,0,1,450.12121751512996,318.29668921324316) translate(0 16)"/><use xlink:href="#ag" transform="matrix(1,0,0,1,450.12121751512996,318.29668921324316) translate(10.95 16)"/><use xlink:href="#ah" transform="matrix(1,0,0,1,450.12121751512996,318.29668921324316) translate(78.8 16)"/><use xlink:href="#b" transform="matrix(1,0,0,1,450.12121751512996,318.29668921324316) translate(0 37.6)"/><use xlink:href="#ai" transform="matrix(1,0,0,1,450.12121751512996,318.29668921324316) translate(10.95 37.6)"/><use xlink:href="#i" transform="matrix(1,0,0,1,450.12121751512996,318.29668921324316) translate(84.9 37.6)"/><use xlink:href="#b" transform="matrix(1,0,0,1,450.12121751512996,318.29668921324316) translate(0 59.2)"/><use xlink:href="#aj" transform="matrix(1,0,0,1,450.12121751512996,318.29668921324316) translate(10.95 59.2)"/><use xlink:href="#ak" transform="matrix(1,0,0,1,450.12121751512996,318.29668921324316) translate(59.900000000000006 59.2)"/><path d="M438 527.7c0-2.76 2.24-5 5-5h350c2.76 0 5 2.24 5 5v130c0 2.76-2.24 5-5 5H443c-2.76 0-5-2.24-5-5z" stroke="#000" stroke-width="2" fill="#fff"/><path d="M438 560.7h360m-360 51h360" stroke="#000" stroke-width="2" fill="none"/><g><use xlink:href="#al" transform="matrix(1,0,0,1,446,522.6966892132432) translate(156.525 22.6)"/></g><path d="M618.12 412.7v54.64c0 .04-.03.07-.06.07s-.06.03-.06.07v54.64" stroke="#000" stroke-width="2" fill="none"/><path d="M632.97 427.55l-14.85 15.15-14.85-15.15 14.85-14.85z"/><path d="M634.38 427.54l-16.26 16.6-16.26-16.6 14.85-14.84h2.84zm-29.7 0l13.44 13.73 13.44-13.72-13.44-13.44zM619 522.7h-2v-.6h2z"/><path d="M618.12 412.7v54.94c0 .03-.03.06-.06.06s-.06.02-.06.06v54.94" stroke="#000" stroke-width="2" fill="none"/><g><use xlink:href="#am" transform="matrix(1,0,0,1,583.12121751513,429.2471751212542) translate(0 14.4)"/></g><g><use xlink:href="#an" transform="matrix(1,0,0,1,583,500.1498195439085) translate(0 14.4)"/></g><path d="M898.12 377.7c0-2.76 2.24-5 5-5h390c2.76 0 5 2.24 5 5v110c0 2.76-2.24 5-5 5h-390c-2.76 0-5-2.24-5-5z" stroke="#000" stroke-width="2" fill="#fff"/><path d="M898.12 410h400m-400 65h400" stroke="#000" stroke-width="2" fill="none"/><g><use xlink:href="#ao" transform="matrix(1,0,0,1,906.12121751513,372.69668921324313) translate(149.55 22.6)"/></g><g><use xlink:href="#b" transform="matrix(1,0,0,1,910.12121751513,418.29668921324316) translate(0 17.299999999999997)"/><use xlink:href="#ap" transform="matrix(1,0,0,1,910.12121751513,418.29668921324316) translate(10.95 17.299999999999997)"/><use xlink:href="#aq" transform="matrix(1,0,0,1,910.12121751513,418.29668921324316) translate(87.75000000000001 17.299999999999997)"/><use xlink:href="#b" transform="matrix(1,0,0,1,910.12121751513,418.29668921324316) translate(0 38.9)"/><use xlink:href="#ar" transform="matrix(1,0,0,1,910.12121751513,418.29668921324316) translate(10.95 38.9)"/><use xlink:href="#as" transform="matrix(1,0,0,1,910.12121751513,418.29668921324316) translate(156.8 38.9)"/></g><path d="M1098.12 571.7v-78" stroke="#000" stroke-width="2" fill="none"/><path d="M1099.12 572.7h-2v-1h2z"/><path d="M1112.97 508.55l-14.85 15.15-14.85-15.15 14.85-14.85z" fill="#fff"/><path d="M1114.38 508.54l-16.26 16.6-16.26-16.6 15.85-15.84h.84zm-29.7 0l13.44 13.73 13.44-13.72-13.44-13.44z"/><g><use xlink:href="#an" transform="matrix(1,0,0,1,1063.12121751513,550.8966892132432) translate(0 14.4)"/></g><g><use xlink:href="#an" transform="matrix(1,0,0,1,1106.12121751513,515.7398067064923) translate(0 14.4)"/></g><path d="M1098.12 272.7v99" stroke="#000" stroke-width="2" fill="none"/><path d="M1112.97 287.55l-14.85 15.15-14.85-15.15 14.85-14.85z" fill="#fff"/><path d="M1114.38 287.54l-16.26 16.6-16.26-16.6 14.85-14.84h2.84zm-29.7 0l13.44 13.73 13.44-13.72-13.44-13.44zM1099.12 372.7h-2v-1h2z"/><g><use xlink:href="#an" transform="matrix(1,0,0,1,1106.12121751513,292.02029446924723) translate(0 14.4)"/></g><g><use xlink:href="#an" transform="matrix(1,0,0,1,1106.12121751513,350.8966892132432) translate(0 14.4)"/></g><path d="M1215.67 273.7v98" stroke="#000" stroke-width="2" fill="none"/><path d="M1216.67 273.7h-2v-1h2zM1216.67 372.7h-2v-1h2z"/><path d="M1138.12 777.7c0-2.76 2.24-5 5-5h350c2.76 0 5 2.24 5 5v90c0 2.76-2.24 5-5 5h-350c-2.76 0-5-2.24-5-5z" stroke="#000" stroke-width="2" fill="#fff"/><path d="M1138.12 810h360m-360 42h360" stroke="#000" stroke-width="2" fill="none"/><g><use xlink:href="#at" transform="matrix(1,0,0,1,1146.12121751513,772.6966892132432) translate(109.55 22.6)"/></g><path d="M1348.07 772.28v-451.9c0-2.76-2.24-5-5-5h-127.4" fill="none"/><path d="M1348.07 772.28v-3m0-4.03v-6.02m0-4.02v-6.02m0-4v-6.04m0-4.02v-6.02m0-4.02v-6.02m0-4.02V709m0-4v-6.03m0-4.02v-6.02m0-4.02v-6m0-4.03v-6.03m0-4v-6.04m0-4v-6.04m0-4.02v-6.02m0-4.02v-6.02m0-4.02v-6.03m0-4v-6.04m0-4.03v-6.02m0-4.02v-6.02m0-4v-6.04m0-4v-6.04m0-4v-6.04m0-4.02v-6.02m0-4.02v-6.02m0-4.02v-6.03m0-4v-6.04m0-4v-6.03m0-4.02v-6.02m0-4.02v-6.02m0-4v-6.04m0-4V468m0-4.02v-6.02m0-4.02v-6.02m0-4.02v-6.03m0-4v-6.04m0-4.02v-6m0-4.03v-6.02m0-4.02v-6.03m0-4v-6.04m0-4v-6.04m0-4.02v-6.02m0-4.02v-6.02m0-4.02v-6.03m0-4.02v-6.03m0-4.02v-6.02m0-4v-3.02l-.72-2.2m-2.12-2.12l-.58-.43-1.58-.25h-2.94m-3.92 0h-5.87m-3.92 0h-5.87m-3.92 0h-5.87m-3.92 0h-5.87m-3.92 0h-5.87m-3.92 0h-5.87m-3.92 0h-5.87m-3.92 0h-5.87m-3.92 0h-5.87m-3.92 0h-5.87m-3.92 0h-5.87m-3.92 0h-5.87m-3.92 0h-2.93" stroke="#000" stroke-width="2" fill="none"/><path d="M1349.07 772.7h-2v-.42h2z"/><path d="M438.12 777.7c0-2.76 2.24-5 5-5h350c2.76 0 5 2.24 5 5v110c0 2.76-2.24 5-5 5h-350c-2.76 0-5-2.24-5-5z" stroke="#000" stroke-width="2" fill="#fff"/><path d="M438.12 810h360m-360 51h360" stroke="#000" stroke-width="2" fill="none"/><g><use xlink:href="#au" transform="matrix(1,0,0,1,446.12121751512996,772.6966892132432) translate(149.525 22.6)"/></g><path d="M1598.12 777.7c0-2.76 2.24-5 5-5h132c2.76 0 6.58 1.58 8.54 3.53l10.93 10.93c1.94 1.95 3.52 5.78 3.52 8.54v62c0 2.76-2.24 5-5 5h-150c-2.76 0-5-2.24-5-5z" stroke="#000" stroke-width="2" fill="#fff"/><path d="M1741.33 777.55c-.67-2.68.37-3.27 2.33-1.32l10.93 10.93c1.94 1.95 1.35 3-1.33 2.32l-4.7-1.17c-2.68-.66-5.4-3.38-6.06-6.05z" stroke="#000" stroke-width="2" fill="#b3b3b3"/><g><use xlink:href="#av" transform="matrix(1,0,0,1,1598.12121751513,772.6966892132432) translate(7.01 19.41)"/><use xlink:href="#aw" transform="matrix(1,0,0,1,1598.12121751513,772.6966892132432) translate(71.96000000000001 19.41)"/><use xlink:href="#ax" transform="matrix(1,0,0,1,1598.12121751513,772.6966892132432) translate(5.01 41.01)"/><use xlink:href="#ay" transform="matrix(1,0,0,1,1598.12121751513,772.6966892132432) translate(72.96000000000001 41.01)"/><use xlink:href="#az" transform="matrix(1,0,0,1,1598.12121751513,772.6966892132432) translate(115.96000000000001 41.01)"/><use xlink:href="#aA" transform="matrix(1,0,0,1,1598.12121751513,772.6966892132432) translate(5.01 62.61)"/><use xlink:href="#aB" transform="matrix(1,0,0,1,1598.12121751513,772.6966892132432) translate(59.910000000000004 62.61)"/></g><path d="M1498.12 822.7h99" fill="none"/><path d="M1498.12 822.7h2.97m3.95 0h5.94m3.95 0h5.94m3.95 0h5.94m3.95 0h5.94m3.95 0h5.94m3.95 0h5.94m3.95 0h5.94m3.95 0h5.94m3.95 0h5.94m3.95 0h2.97" stroke="#000" stroke-width="2" fill="none"/><path d="M1598.12 823.7h-1v-2h1z"/><path d="M618 662.7v54.44c0 .03.03.06.06.06s.06.02.06.06v54.44" stroke="#000" stroke-width="2" fill="none"/><path d="M632.97 756.85l-14.85 14.85-14.85-14.85 14.85-15.15z"/><path d="M634.38 756.85l-15.84 15.85h-.83l-15.84-15.85 16.26-16.58zm-29.7 0l13.44 13.43 13.44-13.44-13.44-13.7z"/><g><use xlink:href="#am" transform="matrix(1,0,0,1,626,662.8966892132432) translate(0 14.4)"/></g><g><use xlink:href="#an" transform="matrix(1,0,0,1,626.12121751513,723.1746505928356) translate(0 14.4)"/></g><path d="M798.12 832.7h339" stroke="#000" stroke-width="2" fill="none"/><path d="M1138.12 833.7h-1v-2h1z"/><g><use xlink:href="#aC" transform="matrix(1,0,0,1,799.12121751513,807.0966892132433) translate(0 14.4)"/></g><g><use xlink:href="#aC" transform="matrix(1,0,0,1,1128.12121751513,807.0966892132433) translate(0 14.4)"/></g><path d="M120 626.5c0-2.76 2.24-5 5-5h150c2.76 0 5 2.24 5 5v110c0 2.76-2.24 5-5 5H125c-2.76 0-5-2.24-5-5z" stroke="#000" stroke-width="2" fill="#fff"/><path d="M120 659h160m-160 41h160" stroke="#000" stroke-width="2" fill="none"/><g><use xlink:href="#aD" transform="matrix(1,0,0,1,128,621.5) translate(17.599999999999994 22.6)"/></g><path d="M120 778c0-2.76 2.24-5 5-5h150c2.76 0 5 2.24 5 5v110c0 2.76-2.24 5-5 5H125c-2.76 0-5-2.24-5-5z" stroke="#000" stroke-width="2" fill="#fff"/><path d="M120 811h160m-160 41h160" stroke="#000" stroke-width="2" fill="none"/><g><use xlink:href="#aE" transform="matrix(1,0,0,1,128,773) translate(35.574999999999996 22.6)"/></g><path d="M120 929.5c0-2.76 2.24-5 5-5h150c2.76 0 5 2.24 5 5v110c0 2.76-2.24 5-5 5H125c-2.76 0-5-2.24-5-5z" stroke="#000" stroke-width="2" fill="#fff"/><path d="M120 962h160m-160 41h160" stroke="#000" stroke-width="2" fill="none"/><g><use xlink:href="#aF" transform="matrix(1,0,0,1,128,924.5) translate(43.025 22.6)"/></g><path d="M280 681.5h73.75c2.76 0 5 2.24 5 5V833M280 833h157.12" stroke="#000" stroke-width="2" fill="none"/><path d="M437.12 833l-21.52 12.73v-25.46z" fill="#fff"/><path d="M438.12 832.43v1.14l-23.52 13.9v-28.95zm-21.52 11.54L435.16 833l-18.56-10.97z"/><path d="M280 984.5h73.75c2.76 0 5-2.24 5-5V833" stroke="#000" stroke-width="2" fill="none"/><defs><path d="M30-248c87 1 191-15 191 75 0 78-77 80-158 76V0H30v-248zm33 125c57 0 124 11 124-50 0-59-68-47-124-48v98" id="aG"/><path d="M141-36C126-15 110 5 73 4 37 3 15-17 15-53c-1-64 63-63 125-63 3-35-9-54-41-54-24 1-41 7-42 31l-33-3c5-37 33-52 76-52 45 0 72 20 72 64v82c-1 20 7 32 28 27v20c-31 9-61-2-59-35zM48-53c0 20 12 33 32 33 41-3 63-29 60-74-43 2-92-5-92 41" id="aH"/><path d="M59-47c-2 24 18 29 38 22v24C64 9 27 4 27-40v-127H5v-23h24l9-43h21v43h35v23H59v120" id="aI"/><path d="M24-231v-30h32v30H24zM24 0v-190h32V0H24" id="aJ"/><path d="M100-194c63 0 86 42 84 106H49c0 40 14 67 53 68 26 1 43-12 49-29l28 8c-11 28-37 45-77 45C44 4 14-33 15-96c1-61 26-98 85-98zm52 81c6-60-76-77-97-28-3 7-6 17-6 28h103" id="aK"/><path d="M117-194c89-4 53 116 60 194h-32v-121c0-31-8-49-39-48C34-167 62-67 57 0H25l-1-190h30c1 10-1 24 2 32 11-22 29-35 61-36" id="aL"/><g id="a"><use transform="matrix(0.05,0,0,0.05,0,0)" xlink:href="#aG"/><use transform="matrix(0.05,0,0,0.05,12,0)" xlink:href="#aH"/><use transform="matrix(0.05,0,0,0.05,22,0)" xlink:href="#aI"/><use transform="matrix(0.05,0,0,0.05,27,0)" xlink:href="#aJ"/><use transform="matrix(0.05,0,0,0.05,30.950000000000003,0)" xlink:href="#aK"/><use transform="matrix(0.05,0,0,0.05,40.95,0)" xlink:href="#aL"/><use transform="matrix(0.05,0,0,0.05,50.95,0)" xlink:href="#aI"/></g><path d="M16-82v-28h88v28H16" id="aM"/><use transform="matrix(0.05,0,0,0.05,0,0)" xlink:href="#aM" id="b"/><path d="M115-194c55 1 70 41 70 98S169 2 115 4C84 4 66-9 55-30l1 105H24l-1-265h31l2 30c10-21 28-34 59-34zm-8 174c40 0 45-34 45-75s-6-73-45-74c-42 0-51 32-51 76 0 43 10 73 51 73" id="aN"/><path d="M114-163C36-179 61-72 57 0H25l-1-190h30c1 12-1 29 2 39 6-27 23-49 58-41v29" id="aO"/><path d="M100-194c62-1 85 37 85 99 1 63-27 99-86 99S16-35 15-95c0-66 28-99 85-99zM99-20c44 1 53-31 53-75 0-43-8-75-51-75s-53 32-53 75 10 74 51 75" id="aP"/><path d="M210-169c-67 3-38 105-44 169h-31v-121c0-29-5-50-35-48C34-165 62-65 56 0H25l-1-190h30c1 10-1 24 2 32 10-44 99-50 107 0 11-21 27-35 58-36 85-2 47 119 55 194h-31v-121c0-29-5-49-35-48" id="aQ"/><path d="M33-154v-36h34v36H33zM33 0v-36h34V0H33" id="aR"/><g id="c"><use transform="matrix(0.05,0,0,0.05,0,0)" xlink:href="#aN"/><use transform="matrix(0.05,0,0,0.05,10,0)" xlink:href="#aO"/><use transform="matrix(0.05,0,0,0.05,15.949999999999998,0)" xlink:href="#aK"/><use transform="matrix(0.05,0,0,0.05,25.950000000000003,0)" xlink:href="#aL"/><use transform="matrix(0.05,0,0,0.05,35.95,0)" xlink:href="#aP"/><use transform="matrix(0.05,0,0,0.05,45.95,0)" xlink:href="#aQ"/><use transform="matrix(0.05,0,0,0.05,60.900000000000006,0)" xlink:href="#aR"/></g><path d="M185-189c-5-48-123-54-124 2 14 75 158 14 163 119 3 78-121 87-175 55-17-10-28-26-33-46l33-7c5 56 141 63 141-1 0-78-155-14-162-118-5-82 145-84 179-34 5 7 8 16 11 25" id="aS"/><path d="M177-190C167-65 218 103 67 71c-23-6-38-20-44-43l32-5c15 47 100 32 89-28v-30C133-14 115 1 83 1 29 1 15-40 15-95c0-56 16-97 71-98 29-1 48 16 59 35 1-10 0-23 2-32h30zM94-22c36 0 50-32 50-73 0-42-14-75-50-75-39 0-46 34-46 75s6 73 46 73" id="aT"/><g id="d"><use transform="matrix(0.05,0,0,0.05,0,0)" xlink:href="#aS"/><use transform="matrix(0.05,0,0,0.05,12,0)" xlink:href="#aI"/><use transform="matrix(0.05,0,0,0.05,17,0)" xlink:href="#aO"/><use transform="matrix(0.05,0,0,0.05,22.95,0)" xlink:href="#aJ"/><use transform="matrix(0.05,0,0,0.05,26.899999999999995,0)" xlink:href="#aL"/><use transform="matrix(0.05,0,0,0.05,36.9,0)" xlink:href="#aT"/></g><g id="e"><use transform="matrix(0.05,0,0,0.05,0,0)" xlink:href="#aL"/><use transform="matrix(0.05,0,0,0.05,10,0)" xlink:href="#aP"/><use transform="matrix(0.05,0,0,0.05,20,0)" xlink:href="#aQ"/><use transform="matrix(0.05,0,0,0.05,34.95,0)" xlink:href="#aR"/></g><path d="M135-143c-3-34-86-38-87 0 15 53 115 12 119 90S17 21 10-45l28-5c4 36 97 45 98 0-10-56-113-15-118-90-4-57 82-63 122-42 12 7 21 19 24 35" id="aU"/><path d="M141 0L90-78 38 0H4l68-98-65-92h35l48 74 47-74h35l-64 92 68 98h-35" id="aV"/><g id="f"><use transform="matrix(0.05,0,0,0.05,0,0)" xlink:href="#aU"/><use transform="matrix(0.05,0,0,0.05,9,0)" xlink:href="#aK"/><use transform="matrix(0.05,0,0,0.05,19,0)" xlink:href="#aV"/><use transform="matrix(0.05,0,0,0.05,28,0)" xlink:href="#aK"/><use transform="matrix(0.05,0,0,0.05,38,0)" xlink:href="#aR"/></g><path d="M160-131c35 5 61 23 61 61C221 17 115-2 30 0v-248c76 3 177-17 177 60 0 33-19 50-47 57zm-97-11c50-1 110 9 110-42 0-47-63-36-110-37v79zm0 115c55-2 124 14 124-45 0-56-70-42-124-44v89" id="aW"/><path d="M24 0v-261h32V0H24" id="aX"/><g id="g"><use transform="matrix(0.05,0,0,0.05,0,0)" xlink:href="#aW"/><use transform="matrix(0.05,0,0,0.05,12,0)" xlink:href="#aP"/><use transform="matrix(0.05,0,0,0.05,22,0)" xlink:href="#aP"/><use transform="matrix(0.05,0,0,0.05,32,0)" xlink:href="#aX"/><use transform="matrix(0.05,0,0,0.05,35.95,0)" xlink:href="#aK"/><use transform="matrix(0.05,0,0,0.05,45.95,0)" xlink:href="#aH"/><use transform="matrix(0.05,0,0,0.05,55.95,0)" xlink:href="#aL"/></g><g id="h"><use transform="matrix(0.05,0,0,0.05,0,0)" xlink:href="#aH"/><use transform="matrix(0.05,0,0,0.05,10,0)" xlink:href="#aT"/><use transform="matrix(0.05,0,0,0.05,20,0)" xlink:href="#aK"/><use transform="matrix(0.05,0,0,0.05,30,0)" xlink:href="#aR"/></g><path d="M33 0v-248h34V0H33" id="aY"/><g id="i"><use transform="matrix(0.05,0,0,0.05,0,0)" xlink:href="#aY"/><use transform="matrix(0.05,0,0,0.05,5,0)" xlink:href="#aL"/><use transform="matrix(0.05,0,0,0.05,15,0)" xlink:href="#aI"/><use transform="matrix(0.05,0,0,0.05,20,0)" xlink:href="#aK"/><use transform="matrix(0.05,0,0,0.05,30,0)" xlink:href="#aT"/><use transform="matrix(0.05,0,0,0.05,40,0)" xlink:href="#aK"/><use transform="matrix(0.05,0,0,0.05,50,0)" xlink:href="#aO"/></g><path d="M85-194c31 0 48 13 60 33l-1-100h32l1 261h-30c-2-10 0-23-3-31C134-8 116 4 85 4 32 4 16-35 15-94c0-66 23-100 70-100zm9 24c-40 0-46 34-46 75 0 40 6 74 45 74 42 0 51-32 51-76 0-42-9-74-50-73" id="aZ"/><g id="j"><use transform="matrix(0.05,0,0,0.05,0,0)" xlink:href="#aN"/><use transform="matrix(0.05,0,0,0.05,10,0)" xlink:href="#aP"/><use transform="matrix(0.05,0,0,0.05,20,0)" xlink:href="#aJ"/><use transform="matrix(0.05,0,0,0.05,23.95,0)" xlink:href="#aZ"/><use transform="matrix(0.05,0,0,0.05,33.95,0)" xlink:href="#aU"/><use transform="matrix(0.05,0,0,0.05,42.95,0)" xlink:href="#aR"/></g><g id="k"><use transform="matrix(0.05,0,0,0.05,0,0)" xlink:href="#aI"/><use transform="matrix(0.05,0,0,0.05,5,0)" xlink:href="#aH"/><use transform="matrix(0.05,0,0,0.05,15,0)" xlink:href="#aJ"/><use transform="matrix(0.05,0,0,0.05,18.95,0)" xlink:href="#aX"/><use transform="matrix(0.05,0,0,0.05,22.9,0)" xlink:href="#aX"/><use transform="matrix(0.05,0,0,0.05,26.849999999999994,0)" xlink:href="#aK"/><use transform="matrix(0.05,0,0,0.05,36.849999999999994,0)" xlink:href="#aR"/></g><g id="l"><use transform="matrix(0.05,0,0,0.05,0,0)" xlink:href="#aY"/><use transform="matrix(0.05,0,0,0.05,5,0)" xlink:href="#aL"/><use transform="matrix(0.05,0,0,0.05,15,0)" xlink:href="#aI"/><use transform="matrix(0.05,0,0,0.05,20,0)" xlink:href="#aK"/><use transform="matrix(0.05,0,0,0.05,30,0)" xlink:href="#aT"/><use transform="matrix(0.05,0,0,0.05,40,0)" xlink:href="#aK"/><use transform="matrix(0.05,0,0,0.05,50,0)" xlink:href="#aO"/></g><path d="M18-100v-36l175-74v27L42-118l151 64v27" id="ba"/><path d="M84 4C-5 8 30-112 23-190h32v120c0 31 7 50 39 49 72-2 45-101 50-169h31l1 190h-30c-1-10 1-25-2-33-11 22-28 36-60 37" id="bb"/><path d="M18-27v-27l151-64-151-65v-27l175 74v36" id="bc"/><g id="m"><use transform="matrix(0.05,0,0,0.05,0,0)" xlink:href="#ba"/><use transform="matrix(0.05,0,0,0.05,10.5,0)" xlink:href="#ba"/><use transform="matrix(0.05,0,0,0.05,21,0)" xlink:href="#aK"/><use transform="matrix(0.05,0,0,0.05,31,0)" xlink:href="#aL"/><use transform="matrix(0.05,0,0,0.05,41,0)" xlink:href="#bb"/><use transform="matrix(0.05,0,0,0.05,51,0)" xlink:href="#aQ"/><use transform="matrix(0.05,0,0,0.05,65.95,0)" xlink:href="#aK"/><use transform="matrix(0.05,0,0,0.05,75.95,0)" xlink:href="#aO"/><use transform="matrix(0.05,0,0,0.05,81.9,0)" xlink:href="#aH"/><use transform="matrix(0.05,0,0,0.05,91.9,0)" xlink:href="#aI"/><use transform="matrix(0.05,0,0,0.05,96.9,0)" xlink:href="#aJ"/><use transform="matrix(0.05,0,0,0.05,100.85000000000001,0)" xlink:href="#aP"/><use transform="matrix(0.05,0,0,0.05,110.85000000000001,0)" xlink:href="#aL"/><use transform="matrix(0.05,0,0,0.05,120.85000000000001,0)" xlink:href="#bc"/><use transform="matrix(0.05,0,0,0.05,131.35000000000002,0)" xlink:href="#bc"/></g><path d="M205 0l-28-72H64L36 0H1l101-248h38L239 0h-34zm-38-99l-47-123c-12 45-31 82-46 123h93" id="bd"/><g id="n"><use transform="matrix(0.05,0,0,0.05,0,0)" xlink:href="#bd"/><use transform="matrix(0.05,0,0,0.05,12,0)" xlink:href="#aX"/><use transform="matrix(0.05,0,0,0.05,15.949999999999998,0)" xlink:href="#aX"/><use transform="matrix(0.05,0,0,0.05,19.9,0)" xlink:href="#aK"/><use transform="matrix(0.05,0,0,0.05,29.899999999999995,0)" xlink:href="#aO"/><use transform="matrix(0.05,0,0,0.05,35.85,0)" xlink:href="#aT"/><use transform="matrix(0.05,0,0,0.05,45.85,0)" xlink:href="#aJ"/><use transform="matrix(0.05,0,0,0.05,49.800000000000004,0)" xlink:href="#aK"/><use transform="matrix(0.05,0,0,0.05,59.800000000000004,0)" xlink:href="#aU"/></g><path d="M143 4C61 4 22-44 18-125c-5-107 100-154 193-111 17 8 29 25 37 43l-32 9c-13-25-37-40-76-40-61 0-88 39-88 99 0 61 29 100 91 101 35 0 62-11 79-27v-45h-74v-28h105v86C228-13 192 4 143 4" id="be"/><g id="o"><use transform="matrix(0.05,0,0,0.05,0,0)" xlink:href="#be"/><use transform="matrix(0.05,0,0,0.05,14,0)" xlink:href="#aX"/><use transform="matrix(0.05,0,0,0.05,17.95,0)" xlink:href="#bb"/><use transform="matrix(0.05,0,0,0.05,27.950000000000003,0)" xlink:href="#aI"/><use transform="matrix(0.05,0,0,0.05,32.95,0)" xlink:href="#aK"/><use transform="matrix(0.05,0,0,0.05,42.95,0)" xlink:href="#aL"/></g><path d="M212-179c-10-28-35-45-73-45-59 0-87 40-87 99 0 60 29 101 89 101 43 0 62-24 78-52l27 14C228-24 195 4 139 4 59 4 22-46 18-125c-6-104 99-153 187-111 19 9 31 26 39 46" id="bf"/><path d="M96-169c-40 0-48 33-48 73s9 75 48 75c24 0 41-14 43-38l32 2c-6 37-31 61-74 61-59 0-76-41-82-99-10-93 101-131 147-64 4 7 5 14 7 22l-32 3c-4-21-16-35-41-35" id="bg"/><path d="M100-194c63 0 86 42 84 106H49c0 40 14 67 53 68 26 1 43-12 49-29l28 8c-11 28-37 45-77 45C44 4 14-33 15-96c1-61 26-98 85-98zm52 81c6-60-76-77-97-28-3 7-6 17-6 28h103zm-74-98c8-23 27-35 38-54h36v5l-58 49H78" id="bh"/><g id="p"><use transform="matrix(0.05,0,0,0.05,0,0)" xlink:href="#bf"/><use transform="matrix(0.05,0,0,0.05,12.950000000000001,0)" xlink:href="#aO"/><use transform="matrix(0.05,0,0,0.05,18.900000000000002,0)" xlink:href="#bb"/><use transform="matrix(0.05,0,0,0.05,28.900000000000002,0)" xlink:href="#aU"/><use transform="matrix(0.05,0,0,0.05,37.900000000000006,0)" xlink:href="#aI"/><use transform="matrix(0.05,0,0,0.05,42.900000000000006,0)" xlink:href="#aH"/><use transform="matrix(0.05,0,0,0.05,52.900000000000006,0)" xlink:href="#bg"/><use transform="matrix(0.05,0,0,0.05,61.900000000000006,0)" xlink:href="#bh"/><use transform="matrix(0.05,0,0,0.05,71.9,0)" xlink:href="#aU"/></g><path d="M140-251c81 0 123 46 123 126C263-46 219 4 140 4 59 4 17-45 17-125s42-126 123-126zm0 227c63 0 89-41 89-101s-29-99-89-99c-61 0-89 39-89 99S79-25 140-24" id="bi"/><path d="M101-234c-31-9-42 10-38 44h38v23H63V0H32v-167H5v-23h27c-7-52 17-82 69-68v24" id="bj"/><g id="q"><use transform="matrix(0.05,0,0,0.05,0,0)" xlink:href="#bi"/><use transform="matrix(0.05,0,0,0.05,14,0)" xlink:href="#aK"/><use transform="matrix(0.05,0,0,0.05,24,0)" xlink:href="#bb"/><use transform="matrix(0.05,0,0,0.05,34,0)" xlink:href="#bj"/><use transform="matrix(0.05,0,0,0.05,39,0)" xlink:href="#aU"/></g><g id="r"><use transform="matrix(0.05,0,0,0.05,0,0)" xlink:href="#aG"/><use transform="matrix(0.05,0,0,0.05,12,0)" xlink:href="#aP"/><use transform="matrix(0.05,0,0,0.05,22,0)" xlink:href="#aJ"/><use transform="matrix(0.05,0,0,0.05,25.950000000000003,0)" xlink:href="#aU"/><use transform="matrix(0.05,0,0,0.05,34.95,0)" xlink:href="#aU"/><use transform="matrix(0.05,0,0,0.05,43.95,0)" xlink:href="#aP"/><use transform="matrix(0.05,0,0,0.05,53.95,0)" xlink:href="#aL"/><use transform="matrix(0.05,0,0,0.05,63.95,0)" xlink:href="#aU"/></g><path d="M106-169C34-169 62-67 57 0H25v-261h32l-1 103c12-21 28-36 61-36 89 0 53 116 60 194h-32v-121c2-32-8-49-39-48" id="bk"/><g id="s"><use transform="matrix(0.05,0,0,0.05,0,0)" xlink:href="#bd"/><use transform="matrix(0.05,0,0,0.05,12,0)" xlink:href="#aO"/><use transform="matrix(0.05,0,0,0.05,17.95,0)" xlink:href="#aH"/><use transform="matrix(0.05,0,0,0.05,27.950000000000003,0)" xlink:href="#bg"/><use transform="matrix(0.05,0,0,0.05,36.95,0)" xlink:href="#bk"/><use transform="matrix(0.05,0,0,0.05,46.95,0)" xlink:href="#aJ"/><use transform="matrix(0.05,0,0,0.05,50.900000000000006,0)" xlink:href="#aZ"/><use transform="matrix(0.05,0,0,0.05,60.900000000000006,0)" xlink:href="#aK"/></g><path d="M24-231v-30h32v30H24zM-9 49c24 4 33-6 33-30v-209h32V24c2 40-23 58-65 49V49" id="bl"/><g id="t"><use transform="matrix(0.05,0,0,0.05,0,0)" xlink:href="#aS"/><use transform="matrix(0.05,0,0,0.05,12,0)" xlink:href="#aP"/><use transform="matrix(0.05,0,0,0.05,22,0)" xlink:href="#bl"/><use transform="matrix(0.05,0,0,0.05,25.950000000000003,0)" xlink:href="#aH"/></g><path d="M30 0v-248h33v221h125V0H30" id="bm"/><g id="u"><use transform="matrix(0.05,0,0,0.05,0,0)" xlink:href="#bm"/><use transform="matrix(0.05,0,0,0.05,10,0)" xlink:href="#aH"/><use transform="matrix(0.05,0,0,0.05,20,0)" xlink:href="#aJ"/><use transform="matrix(0.05,0,0,0.05,23.95,0)" xlink:href="#aI"/></g><path d="M63-220v92h138v28H63V0H30v-248h175v28H63" id="bn"/><g id="v"><use transform="matrix(0.05,0,0,0.05,0,0)" xlink:href="#bn"/><use transform="matrix(0.05,0,0,0.05,10.950000000000001,0)" xlink:href="#aO"/><use transform="matrix(0.05,0,0,0.05,16.900000000000002,0)" xlink:href="#bb"/><use transform="matrix(0.05,0,0,0.05,26.900000000000002,0)" xlink:href="#aJ"/><use transform="matrix(0.05,0,0,0.05,30.85,0)" xlink:href="#aI"/><use transform="matrix(0.05,0,0,0.05,35.85,0)" xlink:href="#aU"/></g><path d="M141-36C126-15 110 5 73 4 37 3 15-17 15-53c-1-64 63-63 125-63 3-35-9-54-41-54-24 1-41 7-42 31l-33-3c5-37 33-52 76-52 45 0 72 20 72 64v82c-1 20 7 32 28 27v20c-31 9-61-2-59-35zM48-53c0 20 12 33 32 33 41-3 63-29 60-74-43 2-92-5-92 41zm62-158l-58-49v-5h36c12 19 30 32 38 54h-16" id="bo"/><use transform="matrix(0.05,0,0,0.05,0,0)" xlink:href="#bo" id="w"/><path d="M145-31C134-9 116 4 85 4 32 4 16-35 15-94c0-59 17-99 70-100 32-1 48 14 60 33 0-11-1-24 2-32h30l-1 268h-32zM93-21c41 0 51-33 51-76s-8-73-50-73c-40 0-46 35-46 75s5 74 45 74" id="bp"/><g id="x"><use transform="matrix(0.05,0,0,0.05,0,0)" xlink:href="#bg"/><use transform="matrix(0.05,0,0,0.05,9,0)" xlink:href="#aP"/><use transform="matrix(0.05,0,0,0.05,19,0)" xlink:href="#bp"/><use transform="matrix(0.05,0,0,0.05,29,0)" xlink:href="#bb"/><use transform="matrix(0.05,0,0,0.05,39,0)" xlink:href="#aK"/><use transform="matrix(0.05,0,0,0.05,49,0)" xlink:href="#aU"/></g><g id="y"><use transform="matrix(0.05,0,0,0.05,0,0)" xlink:href="#bf"/><use transform="matrix(0.05,0,0,0.05,12.950000000000001,0)" xlink:href="#bh"/><use transform="matrix(0.05,0,0,0.05,22.950000000000003,0)" xlink:href="#aX"/><use transform="matrix(0.05,0,0,0.05,26.900000000000002,0)" xlink:href="#aK"/><use transform="matrix(0.05,0,0,0.05,36.900000000000006,0)" xlink:href="#aO"/><use transform="matrix(0.05,0,0,0.05,42.85000000000001,0)" xlink:href="#aJ"/></g><path d="M240 0l2-218c-23 76-54 145-80 218h-23L58-218 59 0H30v-248h44l77 211c21-75 51-140 76-211h43V0h-30" id="bq"/><g id="z"><use transform="matrix(0.05,0,0,0.05,0,0)" xlink:href="#bq"/><use transform="matrix(0.05,0,0,0.05,14.950000000000001,0)" xlink:href="#aP"/><use transform="matrix(0.05,0,0,0.05,24.950000000000003,0)" xlink:href="#bb"/><use transform="matrix(0.05,0,0,0.05,34.95,0)" xlink:href="#aI"/><use transform="matrix(0.05,0,0,0.05,39.95,0)" xlink:href="#aH"/><use transform="matrix(0.05,0,0,0.05,49.95,0)" xlink:href="#aO"/><use transform="matrix(0.05,0,0,0.05,55.900000000000006,0)" xlink:href="#aZ"/><use transform="matrix(0.05,0,0,0.05,65.9,0)" xlink:href="#aK"/></g><g id="A"><use transform="matrix(0.05,0,0,0.05,0,0)" xlink:href="#be"/><use transform="matrix(0.05,0,0,0.05,14,0)" xlink:href="#aO"/><use transform="matrix(0.05,0,0,0.05,19.95,0)" xlink:href="#aH"/><use transform="matrix(0.05,0,0,0.05,29.950000000000003,0)" xlink:href="#aJ"/><use transform="matrix(0.05,0,0,0.05,33.9,0)" xlink:href="#aL"/><use transform="matrix(0.05,0,0,0.05,43.9,0)" xlink:href="#aK"/><use transform="matrix(0.05,0,0,0.05,53.900000000000006,0)" xlink:href="#aU"/></g><g id="B"><use transform="matrix(0.05,0,0,0.05,0,0)" xlink:href="#aZ"/><use transform="matrix(0.05,0,0,0.05,10,0)" xlink:href="#aK"/></g><g id="C"><use transform="matrix(0.05,0,0,0.05,0,0)" xlink:href="#aU"/><use transform="matrix(0.05,0,0,0.05,9,0)" xlink:href="#bh"/><use transform="matrix(0.05,0,0,0.05,19,0)" xlink:href="#aU"/><use transform="matrix(0.05,0,0,0.05,28,0)" xlink:href="#aH"/><use transform="matrix(0.05,0,0,0.05,38,0)" xlink:href="#aQ"/><use transform="matrix(0.05,0,0,0.05,52.95,0)" xlink:href="#aK"/></g><path d="M179-190L93 31C79 59 56 82 12 73V49c39 6 53-20 64-50L1-190h34L92-34l54-156h33" id="br"/><g id="D"><use transform="matrix(0.048148148148148155,0,0,0.048148148148148155,0,0)" xlink:href="#bd"/><use transform="matrix(0.048148148148148155,0,0,0.048148148148148155,11.555555555555557,0)" xlink:href="#aL"/><use transform="matrix(0.048148148148148155,0,0,0.048148148148148155,21.18518518518519,0)" xlink:href="#bk"/><use transform="matrix(0.048148148148148155,0,0,0.048148148148148155,30.814814814814824,0)" xlink:href="#br"/><use transform="matrix(0.048148148148148155,0,0,0.048148148148148155,39.481481481481495,0)" xlink:href="#aZ"/><use transform="matrix(0.048148148148148155,0,0,0.048148148148148155,49.11111111111113,0)" xlink:href="#aO"/><use transform="matrix(0.048148148148148155,0,0,0.048148148148148155,54.84074074074076,0)" xlink:href="#aJ"/><use transform="matrix(0.048148148148148155,0,0,0.048148148148148155,58.64444444444447,0)" xlink:href="#aZ"/><use transform="matrix(0.048148148148148155,0,0,0.048148148148148155,68.2740740740741,0)" xlink:href="#aK"/></g><g id="E"><use transform="matrix(0.048148148148148155,0,0,0.048148148148148155,0,0)" xlink:href="#aU"/><use transform="matrix(0.048148148148148155,0,0,0.048148148148148155,8.666666666666668,0)" xlink:href="#bb"/><use transform="matrix(0.048148148148148155,0,0,0.048148148148148155,18.296296296296298,0)" xlink:href="#aX"/><use transform="matrix(0.048148148148148155,0,0,0.048148148148148155,22.1,0)" xlink:href="#bj"/><use transform="matrix(0.048148148148148155,0,0,0.048148148148148155,26.914814814814818,0)" xlink:href="#bb"/><use transform="matrix(0.048148148148148155,0,0,0.048148148148148155,36.54444444444445,0)" xlink:href="#aO"/><use transform="matrix(0.048148148148148155,0,0,0.048148148148148155,42.27407407407408,0)" xlink:href="#aK"/><use transform="matrix(0.048148148148148155,0,0,0.048148148148148155,51.90370370370371,0)" xlink:href="#bb"/><use transform="matrix(0.048148148148148155,0,0,0.048148148148148155,61.533333333333346,0)" xlink:href="#aV"/></g><g id="F"><use transform="matrix(0.048148148148148155,0,0,0.048148148148148155,0,0)" xlink:href="#aK"/><use transform="matrix(0.048148148148148155,0,0,0.048148148148148155,9.629629629629632,0)" xlink:href="#aI"/></g><g id="G"><use transform="matrix(0.048148148148148155,0,0,0.048148148148148155,0,0)" xlink:href="#aU"/><use transform="matrix(0.048148148148148155,0,0,0.048148148148148155,8.666666666666668,0)" xlink:href="#bb"/><use transform="matrix(0.048148148148148155,0,0,0.048148148148148155,18.296296296296298,0)" xlink:href="#aX"/><use transform="matrix(0.048148148148148155,0,0,0.048148148148148155,22.1,0)" xlink:href="#bj"/><use transform="matrix(0.048148148148148155,0,0,0.048148148148148155,26.914814814814818,0)" xlink:href="#aJ"/><use transform="matrix(0.048148148148148155,0,0,0.048148148148148155,30.718518518518522,0)" xlink:href="#aI"/><use transform="matrix(0.048148148148148155,0,0,0.048148148148148155,35.53333333333334,0)" xlink:href="#aK"/><use transform="matrix(0.048148148148148155,0,0,0.048148148148148155,45.16296296296297,0)" xlink:href="#aU"/></g><g id="H"><use transform="matrix(0.048148148148148155,0,0,0.048148148148148155,0,0)" xlink:href="#bm"/><use transform="matrix(0.048148148148148155,0,0,0.048148148148148155,9.629629629629632,0)" xlink:href="#bb"/><use transform="matrix(0.048148148148148155,0,0,0.048148148148148155,19.259259259259263,0)" xlink:href="#aN"/><use transform="matrix(0.048148148148148155,0,0,0.048148148148148155,28.888888888888893,0)" xlink:href="#aJ"/><use transform="matrix(0.048148148148148155,0,0,0.048148148148148155,32.6925925925926,0)" xlink:href="#aL"/></g><g id="I"><use transform="matrix(0.048148148148148155,0,0,0.048148148148148155,0,0)" xlink:href="#bq"/><use transform="matrix(0.048148148148148155,0,0,0.048148148148148155,14.396296296296299,0)" xlink:href="#aP"/><use transform="matrix(0.048148148148148155,0,0,0.048148148148148155,24.025925925925932,0)" xlink:href="#aX"/><use transform="matrix(0.048148148148148155,0,0,0.048148148148148155,27.829629629629633,0)" xlink:href="#aX"/><use transform="matrix(0.048148148148148155,0,0,0.048148148148148155,31.633333333333336,0)" xlink:href="#bb"/><use transform="matrix(0.048148148148148155,0,0,0.048148148148148155,41.26296296296297,0)" xlink:href="#aU"/><use transform="matrix(0.048148148148148155,0,0,0.048148148148148155,49.929629629629645,0)" xlink:href="#bp"/><use transform="matrix(0.048148148148148155,0,0,0.048148148148148155,59.55925925925928,0)" xlink:href="#bb"/><use transform="matrix(0.048148148148148155,0,0,0.048148148148148155,69.18888888888891,0)" xlink:href="#aK"/><use transform="matrix(0.048148148148148155,0,0,0.048148148148148155,78.81851851851854,0)" xlink:href="#aU"/></g><g id="J"><use transform="matrix(0.05,0,0,0.05,0,0)" xlink:href="#bf"/><use transform="matrix(0.05,0,0,0.05,12.950000000000001,0)" xlink:href="#aP"/><use transform="matrix(0.05,0,0,0.05,22.950000000000003,0)" xlink:href="#aL"/><use transform="matrix(0.05,0,0,0.05,32.95,0)" xlink:href="#aI"/><use transform="matrix(0.05,0,0,0.05,37.95,0)" xlink:href="#aO"/><use transform="matrix(0.05,0,0,0.05,43.900000000000006,0)" xlink:href="#aK"/><use transform="matrix(0.05,0,0,0.05,53.900000000000006,0)" xlink:href="#aY"/><use transform="matrix(0.05,0,0,0.05,58.900000000000006,0)" xlink:href="#aL"/><use transform="matrix(0.05,0,0,0.05,68.9,0)" xlink:href="#aZ"/><use transform="matrix(0.05,0,0,0.05,78.9,0)" xlink:href="#aJ"/><use transform="matrix(0.05,0,0,0.05,82.85000000000001,0)" xlink:href="#bg"/><use transform="matrix(0.05,0,0,0.05,91.85000000000001,0)" xlink:href="#aH"/><use transform="matrix(0.05,0,0,0.05,101.85000000000001,0)" xlink:href="#aI"/><use transform="matrix(0.05,0,0,0.05,106.85000000000001,0)" xlink:href="#aJ"/><use transform="matrix(0.05,0,0,0.05,110.80000000000001,0)" xlink:href="#aP"/><use transform="matrix(0.05,0,0,0.05,120.80000000000001,0)" xlink:href="#aL"/><use transform="matrix(0.05,0,0,0.05,130.8,0)" xlink:href="#aU"/></g><g id="K"><use transform="matrix(0.05,0,0,0.05,0,0)" xlink:href="#bd"/><use transform="matrix(0.05,0,0,0.05,12,0)" xlink:href="#aX"/><use transform="matrix(0.05,0,0,0.05,15.949999999999998,0)" xlink:href="#aJ"/><use transform="matrix(0.05,0,0,0.05,19.9,0)" xlink:href="#aQ"/><use transform="matrix(0.05,0,0,0.05,34.85,0)" xlink:href="#aK"/><use transform="matrix(0.05,0,0,0.05,44.85,0)" xlink:href="#aL"/><use transform="matrix(0.05,0,0,0.05,54.85,0)" xlink:href="#aI"/><use transform="matrix(0.05,0,0,0.05,59.85,0)" xlink:href="#aU"/></g><path d="M33 0v-38h34V0H33" id="bs"/><g id="L"><use transform="matrix(0.05,0,0,0.05,0,0)" xlink:href="#bs"/><use transform="matrix(0.05,0,0,0.05,5,0)" xlink:href="#bs"/><use transform="matrix(0.05,0,0,0.05,10,0)" xlink:href="#bs"/></g><g id="M"><use transform="matrix(0.05,0,0,0.05,0,0)" xlink:href="#bm"/><use transform="matrix(0.05,0,0,0.05,10,0)" xlink:href="#aJ"/><use transform="matrix(0.05,0,0,0.05,13.949999999999998,0)" xlink:href="#bp"/><use transform="matrix(0.05,0,0,0.05,23.95,0)" xlink:href="#bb"/><use transform="matrix(0.05,0,0,0.05,33.95,0)" xlink:href="#aJ"/><use transform="matrix(0.05,0,0,0.05,37.900000000000006,0)" xlink:href="#aZ"/><use transform="matrix(0.05,0,0,0.05,47.900000000000006,0)" xlink:href="#aK"/><use transform="matrix(0.05,0,0,0.05,57.900000000000006,0)" xlink:href="#aU"/></g><g id="N"><use transform="matrix(0.05,0,0,0.05,0,0)" xlink:href="#aU"/><use transform="matrix(0.05,0,0,0.05,9,0)" xlink:href="#aP"/><use transform="matrix(0.05,0,0,0.05,19,0)" xlink:href="#aX"/><use transform="matrix(0.05,0,0,0.05,22.95,0)" xlink:href="#aJ"/><use transform="matrix(0.05,0,0,0.05,26.899999999999995,0)" xlink:href="#aZ"/><use transform="matrix(0.05,0,0,0.05,36.9,0)" xlink:href="#aK"/><use transform="matrix(0.05,0,0,0.05,46.9,0)" xlink:href="#aU"/></g><g id="O"><use transform="matrix(0.05,0,0,0.05,0,0)" xlink:href="#aK"/><use transform="matrix(0.05,0,0,0.05,10,0)" xlink:href="#aL"/></g><g id="P"><use transform="matrix(0.05,0,0,0.05,0,0)" xlink:href="#aQ"/><use transform="matrix(0.05,0,0,0.05,14.950000000000001,0)" xlink:href="#aP"/><use transform="matrix(0.05,0,0,0.05,24.950000000000003,0)" xlink:href="#aO"/><use transform="matrix(0.05,0,0,0.05,30.900000000000002,0)" xlink:href="#bg"/><use transform="matrix(0.05,0,0,0.05,39.900000000000006,0)" xlink:href="#aK"/><use transform="matrix(0.05,0,0,0.05,49.900000000000006,0)" xlink:href="#aH"/><use transform="matrix(0.05,0,0,0.05,59.900000000000006,0)" xlink:href="#bb"/><use transform="matrix(0.05,0,0,0.05,69.9,0)" xlink:href="#aV"/></g><g id="Q"><use transform="matrix(0.05,0,0,0.05,0,0)" xlink:href="#aM"/><use transform="matrix(0.05,0,0,0.05,5.95,0)" xlink:href="#aM"/><use transform="matrix(0.05,0,0,0.05,11.9,0)" xlink:href="#bc"/></g><g id="R"><use transform="matrix(0.05,0,0,0.05,0,0)" xlink:href="#aQ"/><use transform="matrix(0.05,0,0,0.05,14.950000000000001,0)" xlink:href="#aJ"/><use transform="matrix(0.05,0,0,0.05,18.900000000000002,0)" xlink:href="#aV"/><use transform="matrix(0.05,0,0,0.05,27.900000000000002,0)" xlink:href="#aH"/><use transform="matrix(0.05,0,0,0.05,37.900000000000006,0)" xlink:href="#aT"/><use transform="matrix(0.05,0,0,0.05,47.900000000000006,0)" xlink:href="#aK"/></g><g id="S"><use transform="matrix(0.05,0,0,0.05,0,0)" xlink:href="#bd"/><use transform="matrix(0.05,0,0,0.05,12,0)" xlink:href="#bj"/><use transform="matrix(0.05,0,0,0.05,16.65,0)" xlink:href="#bj"/><use transform="matrix(0.05,0,0,0.05,21.65,0)" xlink:href="#aK"/><use transform="matrix(0.05,0,0,0.05,31.649999999999995,0)" xlink:href="#bg"/><use transform="matrix(0.05,0,0,0.05,40.65,0)" xlink:href="#aI"/><use transform="matrix(0.05,0,0,0.05,45.65,0)" xlink:href="#aJ"/><use transform="matrix(0.05,0,0,0.05,49.6,0)" xlink:href="#aP"/><use transform="matrix(0.05,0,0,0.05,59.6,0)" xlink:href="#aL"/></g><g id="T"><use transform="matrix(0.05,0,0,0.05,0,0)" xlink:href="#aL"/><use transform="matrix(0.05,0,0,0.05,10,0)" xlink:href="#aH"/><use transform="matrix(0.05,0,0,0.05,20,0)" xlink:href="#aI"/><use transform="matrix(0.05,0,0,0.05,25,0)" xlink:href="#bb"/><use transform="matrix(0.05,0,0,0.05,35,0)" xlink:href="#aO"/><use transform="matrix(0.05,0,0,0.05,40.95,0)" xlink:href="#aK"/><use transform="matrix(0.05,0,0,0.05,50.95,0)" xlink:href="#aR"/></g><g id="U"><use transform="matrix(0.05,0,0,0.05,0,0)" xlink:href="#bg"/><use transform="matrix(0.05,0,0,0.05,9,0)" xlink:href="#aP"/><use transform="matrix(0.05,0,0,0.05,19,0)" xlink:href="#aL"/><use transform="matrix(0.05,0,0,0.05,29,0)" xlink:href="#aI"/><use transform="matrix(0.05,0,0,0.05,34,0)" xlink:href="#aO"/><use transform="matrix(0.05,0,0,0.05,39.95,0)" xlink:href="#aK"/><use transform="matrix(0.05,0,0,0.05,49.95,0)" xlink:href="#aY"/><use transform="matrix(0.05,0,0,0.05,54.95,0)" xlink:href="#aL"/><use transform="matrix(0.05,0,0,0.05,64.95,0)" xlink:href="#aZ"/><use transform="matrix(0.05,0,0,0.05,74.95,0)" xlink:href="#aJ"/><use transform="matrix(0.05,0,0,0.05,78.9,0)" xlink:href="#bg"/><use transform="matrix(0.05,0,0,0.05,87.9,0)" xlink:href="#aH"/><use transform="matrix(0.05,0,0,0.05,97.9,0)" xlink:href="#aI"/><use transform="matrix(0.05,0,0,0.05,102.9,0)" xlink:href="#aJ"/><use transform="matrix(0.05,0,0,0.05,106.85000000000001,0)" xlink:href="#aP"/><use transform="matrix(0.05,0,0,0.05,116.85000000000001,0)" xlink:href="#aL"/><use transform="matrix(0.05,0,0,0.05,126.85000000000001,0)" xlink:href="#aR"/></g><path d="M26 75v-336h71v23H56V52h41v23H26" id="bt"/><path d="M101-251c68 0 85 55 85 127S166 4 100 4C33 4 14-52 14-124c0-73 17-127 87-127zm-1 229c47 0 54-49 54-102s-4-102-53-102c-51 0-55 48-55 102 0 53 5 102 54 102" id="bu"/><path d="M80-196l47-18 7 23-49 13 32 44-20 13-27-46-27 45-21-12 33-44-49-13 8-23 47 19-2-53h23" id="bv"/><path d="M3 75V52h41v-290H3v-23h71V75H3" id="bw"/><g id="V"><use transform="matrix(0.05,0,0,0.05,0,0)" xlink:href="#bm"/><use transform="matrix(0.05,0,0,0.05,10,0)" xlink:href="#aJ"/><use transform="matrix(0.05,0,0,0.05,13.949999999999998,0)" xlink:href="#aU"/><use transform="matrix(0.05,0,0,0.05,22.95,0)" xlink:href="#aI"/><use transform="matrix(0.05,0,0,0.05,27.950000000000003,0)" xlink:href="#aK"/><use transform="matrix(0.05,0,0,0.05,37.95,0)" xlink:href="#bf"/><use transform="matrix(0.05,0,0,0.05,50.900000000000006,0)" xlink:href="#aP"/><use transform="matrix(0.05,0,0,0.05,60.900000000000006,0)" xlink:href="#aL"/><use transform="matrix(0.05,0,0,0.05,70.9,0)" xlink:href="#aI"/><use transform="matrix(0.05,0,0,0.05,75.9,0)" xlink:href="#aO"/><use transform="matrix(0.05,0,0,0.05,81.85000000000001,0)" xlink:href="#aK"/><use transform="matrix(0.05,0,0,0.05,91.85000000000001,0)" xlink:href="#aY"/><use transform="matrix(0.05,0,0,0.05,96.85000000000001,0)" xlink:href="#aL"/><use transform="matrix(0.05,0,0,0.05,106.85000000000001,0)" xlink:href="#aZ"/><use transform="matrix(0.05,0,0,0.05,116.85000000000001,0)" xlink:href="#aJ"/><use transform="matrix(0.05,0,0,0.05,120.80000000000001,0)" xlink:href="#bg"/><use transform="matrix(0.05,0,0,0.05,129.8,0)" xlink:href="#aH"/><use transform="matrix(0.05,0,0,0.05,139.8,0)" xlink:href="#aI"/><use transform="matrix(0.05,0,0,0.05,144.8,0)" xlink:href="#aJ"/><use transform="matrix(0.05,0,0,0.05,148.75,0)" xlink:href="#aP"/><use transform="matrix(0.05,0,0,0.05,158.75,0)" xlink:href="#aL"/><use transform="matrix(0.05,0,0,0.05,168.75,0)" xlink:href="#aU"/><use transform="matrix(0.05,0,0,0.05,177.75,0)" xlink:href="#bt"/><use transform="matrix(0.05,0,0,0.05,182.75,0)" xlink:href="#bu"/><use transform="matrix(0.05,0,0,0.05,192.75,0)" xlink:href="#bs"/><use transform="matrix(0.05,0,0,0.05,197.75,0)" xlink:href="#bs"/><use transform="matrix(0.05,0,0,0.05,202.75,0)" xlink:href="#bv"/><use transform="matrix(0.05,0,0,0.05,209.75,0)" xlink:href="#bw"/></g><g id="W"><use transform="matrix(0.05,0,0,0.05,0,0)" xlink:href="#bf"/><use transform="matrix(0.05,0,0,0.05,12.950000000000001,0)" xlink:href="#aK"/><use transform="matrix(0.05,0,0,0.05,22.950000000000003,0)" xlink:href="#aO"/><use transform="matrix(0.05,0,0,0.05,28.900000000000002,0)" xlink:href="#aI"/><use transform="matrix(0.05,0,0,0.05,33.900000000000006,0)" xlink:href="#aH"/><use transform="matrix(0.05,0,0,0.05,43.900000000000006,0)" xlink:href="#aJ"/><use transform="matrix(0.05,0,0,0.05,47.85000000000001,0)" xlink:href="#aL"/><use transform="matrix(0.05,0,0,0.05,57.85,0)" xlink:href="#aU"/></g><g id="X"><use transform="matrix(0.05,0,0,0.05,0,0)" xlink:href="#aQ"/><use transform="matrix(0.05,0,0,0.05,14.950000000000001,0)" xlink:href="#bh"/><use transform="matrix(0.05,0,0,0.05,24.950000000000003,0)" xlink:href="#aZ"/><use transform="matrix(0.05,0,0,0.05,34.95,0)" xlink:href="#aJ"/><use transform="matrix(0.05,0,0,0.05,38.900000000000006,0)" xlink:href="#bg"/><use transform="matrix(0.05,0,0,0.05,47.900000000000006,0)" xlink:href="#aH"/><use transform="matrix(0.05,0,0,0.05,57.900000000000006,0)" xlink:href="#aQ"/><use transform="matrix(0.05,0,0,0.05,72.85000000000001,0)" xlink:href="#aK"/><use transform="matrix(0.05,0,0,0.05,82.85000000000001,0)" xlink:href="#aL"/><use transform="matrix(0.05,0,0,0.05,92.85000000000001,0)" xlink:href="#aI"/></g><path d="M108 0H70L1-190h34L89-25l56-165h34" id="bx"/><g id="Y"><use transform="matrix(0.05,0,0,0.05,0,0)" xlink:href="#aN"/><use transform="matrix(0.05,0,0,0.05,10,0)" xlink:href="#aK"/><use transform="matrix(0.05,0,0,0.05,20,0)" xlink:href="#bb"/><use transform="matrix(0.05,0,0,0.05,30,0)" xlink:href="#bx"/><use transform="matrix(0.05,0,0,0.05,39,0)" xlink:href="#aK"/><use transform="matrix(0.05,0,0,0.05,49,0)" xlink:href="#aL"/><use transform="matrix(0.05,0,0,0.05,59,0)" xlink:href="#aI"/></g><g id="Z"><use transform="matrix(0.05,0,0,0.05,0,0)" xlink:href="#aJ"/><use transform="matrix(0.05,0,0,0.05,3.95,0)" xlink:href="#aL"/><use transform="matrix(0.05,0,0,0.05,13.949999999999998,0)" xlink:href="#aZ"/><use transform="matrix(0.05,0,0,0.05,23.95,0)" xlink:href="#bb"/><use transform="matrix(0.05,0,0,0.05,33.95,0)" xlink:href="#aJ"/><use transform="matrix(0.05,0,0,0.05,37.900000000000006,0)" xlink:href="#aO"/><use transform="matrix(0.05,0,0,0.05,43.85000000000001,0)" xlink:href="#aK"/></g><g id="aa"><use transform="matrix(0.05,0,0,0.05,0,0)" xlink:href="#aZ"/><use transform="matrix(0.05,0,0,0.05,10,0)" xlink:href="#aK"/><use transform="matrix(0.05,0,0,0.05,20,0)" xlink:href="#aU"/></g><g id="ab"><use transform="matrix(0.05,0,0,0.05,0,0)" xlink:href="#bg"/><use transform="matrix(0.05,0,0,0.05,9,0)" xlink:href="#aP"/><use transform="matrix(0.05,0,0,0.05,19,0)" xlink:href="#aL"/><use transform="matrix(0.05,0,0,0.05,29,0)" xlink:href="#aI"/><use transform="matrix(0.05,0,0,0.05,34,0)" xlink:href="#aO"/><use transform="matrix(0.05,0,0,0.05,39.95,0)" xlink:href="#aK"/><use transform="matrix(0.05,0,0,0.05,49.95,0)" xlink:href="#aU"/></g><g id="ac"><use transform="matrix(0.05,0,0,0.05,0,0)" xlink:href="#aJ"/><use transform="matrix(0.05,0,0,0.05,3.95,0)" xlink:href="#aL"/><use transform="matrix(0.05,0,0,0.05,13.949999999999998,0)" xlink:href="#aZ"/><use transform="matrix(0.05,0,0,0.05,23.95,0)" xlink:href="#aJ"/><use transform="matrix(0.05,0,0,0.05,27.899999999999995,0)" xlink:href="#bg"/><use transform="matrix(0.05,0,0,0.05,36.9,0)" xlink:href="#aH"/><use transform="matrix(0.05,0,0,0.05,46.9,0)" xlink:href="#aI"/><use transform="matrix(0.05,0,0,0.05,51.900000000000006,0)" xlink:href="#aJ"/><use transform="matrix(0.05,0,0,0.05,55.85,0)" xlink:href="#aP"/><use transform="matrix(0.05,0,0,0.05,65.85,0)" xlink:href="#aL"/><use transform="matrix(0.05,0,0,0.05,75.85,0)" xlink:href="#aU"/><use transform="matrix(0.05,0,0,0.05,84.85,0)" xlink:href="#bs"/></g><path d="M0 4l72-265h28L28 4H0" id="by"/><path d="M134-131c28 9 52 24 51 62-1 50-34 73-85 73S17-19 16-69c0-36 21-54 49-61-75-25-45-126 34-121 46 3 78 18 79 63 0 33-17 51-44 57zm-34-11c31 1 46-15 46-44 0-28-17-43-47-42-29 0-46 13-45 42 1 28 16 44 46 44zm1 122c35 0 51-18 51-52 0-30-18-46-53-46-33 0-51 17-51 47 0 34 19 51 53 51" id="bz"/><path d="M99-251c64 0 84 50 84 122C183-37 130 33 47-8c-14-7-20-23-25-40l30-5c6 39 69 39 84 7 9-19 16-44 16-74-10 22-31 35-62 35-49 0-73-33-73-83 0-54 28-83 82-83zm-1 141c31-1 51-18 51-49 0-36-14-67-51-67-34 0-49 23-49 58 0 34 15 58 49 58" id="bA"/><path d="M27 0v-27h64v-190l-56 39v-29l58-41h29v221h61V0H27" id="bB"/><path d="M155-56V0h-30v-56H8v-25l114-167h33v167h35v25h-35zm-30-156c-27 46-58 90-88 131h88v-131" id="bC"/><g id="ad"><use transform="matrix(0.05,0,0,0.05,0,0)" xlink:href="#bk"/><use transform="matrix(0.05,0,0,0.05,10,0)" xlink:href="#aI"/><use transform="matrix(0.05,0,0,0.05,15,0)" xlink:href="#aI"/><use transform="matrix(0.05,0,0,0.05,20,0)" xlink:href="#aN"/><use transform="matrix(0.05,0,0,0.05,30,0)" xlink:href="#aU"/><use transform="matrix(0.05,0,0,0.05,39,0)" xlink:href="#aR"/><use transform="matrix(0.05,0,0,0.05,44,0)" xlink:href="#by"/><use transform="matrix(0.05,0,0,0.05,49,0)" xlink:href="#by"/><use transform="matrix(0.05,0,0,0.05,54,0)" xlink:href="#aH"/><use transform="matrix(0.05,0,0,0.05,64,0)" xlink:href="#aX"/><use transform="matrix(0.05,0,0,0.05,67.95,0)" xlink:href="#aX"/><use transform="matrix(0.05,0,0,0.05,71.9,0)" xlink:href="#aK"/><use transform="matrix(0.05,0,0,0.05,81.9,0)" xlink:href="#aO"/><use transform="matrix(0.05,0,0,0.05,87.85000000000001,0)" xlink:href="#aT"/><use transform="matrix(0.05,0,0,0.05,97.85000000000001,0)" xlink:href="#aJ"/><use transform="matrix(0.05,0,0,0.05,101.80000000000001,0)" xlink:href="#aK"/><use transform="matrix(0.05,0,0,0.05,111.80000000000001,0)" xlink:href="#aU"/><use transform="matrix(0.05,0,0,0.05,120.80000000000001,0)" xlink:href="#bs"/><use transform="matrix(0.05,0,0,0.05,125.80000000000001,0)" xlink:href="#aH"/><use transform="matrix(0.05,0,0,0.05,135.8,0)" xlink:href="#bj"/><use transform="matrix(0.05,0,0,0.05,140.8,0)" xlink:href="#aN"/><use transform="matrix(0.05,0,0,0.05,150.8,0)" xlink:href="#aO"/><use transform="matrix(0.05,0,0,0.05,156.75,0)" xlink:href="#aH"/><use transform="matrix(0.05,0,0,0.05,166.75,0)" xlink:href="#aX"/><use transform="matrix(0.05,0,0,0.05,170.7,0)" xlink:href="#bs"/><use transform="matrix(0.05,0,0,0.05,175.7,0)" xlink:href="#bj"/><use transform="matrix(0.05,0,0,0.05,180.7,0)" xlink:href="#aO"/><use transform="matrix(0.05,0,0,0.05,186.64999999999998,0)" xlink:href="#by"/><use transform="matrix(0.05,0,0,0.05,191.64999999999998,0)" xlink:href="#aH"/><use transform="matrix(0.05,0,0,0.05,201.64999999999998,0)" xlink:href="#aX"/><use transform="matrix(0.05,0,0,0.05,205.59999999999997,0)" xlink:href="#aX"/><use transform="matrix(0.05,0,0,0.05,209.54999999999995,0)" xlink:href="#aK"/><use transform="matrix(0.05,0,0,0.05,219.54999999999995,0)" xlink:href="#aO"/><use transform="matrix(0.05,0,0,0.05,225.49999999999991,0)" xlink:href="#aT"/><use transform="matrix(0.05,0,0,0.05,235.49999999999991,0)" xlink:href="#aJ"/><use transform="matrix(0.05,0,0,0.05,239.44999999999993,0)" xlink:href="#aK"/><use transform="matrix(0.05,0,0,0.05,249.44999999999993,0)" xlink:href="#by"/><use transform="matrix(0.05,0,0,0.05,254.44999999999993,0)" xlink:href="#aK"/><use transform="matrix(0.05,0,0,0.05,264.44999999999993,0)" xlink:href="#aL"/><use transform="matrix(0.05,0,0,0.05,274.44999999999993,0)" xlink:href="#aM"/><use transform="matrix(0.05,0,0,0.05,280.3999999999999,0)" xlink:href="#aU"/><use transform="matrix(0.05,0,0,0.05,289.3999999999999,0)" xlink:href="#aH"/><use transform="matrix(0.05,0,0,0.05,299.3999999999999,0)" xlink:href="#bx"/><use transform="matrix(0.05,0,0,0.05,308.3999999999999,0)" xlink:href="#aP"/><use transform="matrix(0.05,0,0,0.05,318.3999999999999,0)" xlink:href="#aJ"/><use transform="matrix(0.05,0,0,0.05,322.3499999999999,0)" xlink:href="#aO"/><use transform="matrix(0.05,0,0,0.05,328.2999999999999,0)" xlink:href="#aM"/><use transform="matrix(0.05,0,0,0.05,334.2499999999999,0)" xlink:href="#aN"/><use transform="matrix(0.05,0,0,0.05,344.2499999999999,0)" xlink:href="#aX"/><use transform="matrix(0.05,0,0,0.05,348.1999999999999,0)" xlink:href="#bb"/><use transform="matrix(0.05,0,0,0.05,358.1999999999999,0)" xlink:href="#aU"/><use transform="matrix(0.05,0,0,0.05,367.1999999999999,0)" xlink:href="#aM"/><use transform="matrix(0.05,0,0,0.05,373.14999999999986,0)" xlink:href="#aU"/><use transform="matrix(0.05,0,0,0.05,382.14999999999986,0)" xlink:href="#bb"/><use transform="matrix(0.05,0,0,0.05,392.14999999999986,0)" xlink:href="#aO"/><use transform="matrix(0.05,0,0,0.05,398.09999999999985,0)" xlink:href="#aM"/><use transform="matrix(0.05,0,0,0.05,404.04999999999984,0)" xlink:href="#aX"/><use transform="matrix(0.05,0,0,0.05,407.99999999999983,0)" xlink:href="#aK"/><use transform="matrix(0.05,0,0,0.05,417.99999999999983,0)" xlink:href="#aU"/><use transform="matrix(0.05,0,0,0.05,426.99999999999983,0)" xlink:href="#aM"/><use transform="matrix(0.05,0,0,0.05,432.9499999999998,0)" xlink:href="#aH"/><use transform="matrix(0.05,0,0,0.05,442.9499999999998,0)" xlink:href="#aX"/><use transform="matrix(0.05,0,0,0.05,446.89999999999986,0)" xlink:href="#aX"/><use transform="matrix(0.05,0,0,0.05,450.84999999999974,0)" xlink:href="#aK"/><use transform="matrix(0.05,0,0,0.05,460.84999999999974,0)" xlink:href="#aO"/><use transform="matrix(0.05,0,0,0.05,466.7999999999997,0)" xlink:href="#aT"/><use transform="matrix(0.05,0,0,0.05,476.7999999999997,0)" xlink:href="#aJ"/><use transform="matrix(0.05,0,0,0.05,480.7499999999998,0)" xlink:href="#aK"/><use transform="matrix(0.05,0,0,0.05,490.7499999999998,0)" xlink:href="#aU"/><use transform="matrix(0.05,0,0,0.05,499.7499999999998,0)" xlink:href="#by"/><use transform="matrix(0.05,0,0,0.05,504.7499999999998,0)" xlink:href="#aH"/><use transform="matrix(0.05,0,0,0.05,514.7499999999998,0)" xlink:href="#aX"/><use transform="matrix(0.05,0,0,0.05,518.6999999999998,0)" xlink:href="#aJ"/><use transform="matrix(0.05,0,0,0.05,522.6499999999999,0)" xlink:href="#aQ"/><use transform="matrix(0.05,0,0,0.05,537.5999999999999,0)" xlink:href="#aK"/><use transform="matrix(0.05,0,0,0.05,547.5999999999999,0)" xlink:href="#aL"/><use transform="matrix(0.05,0,0,0.05,557.5999999999999,0)" xlink:href="#aI"/><use transform="matrix(0.05,0,0,0.05,562.5999999999999,0)" xlink:href="#aH"/><use transform="matrix(0.05,0,0,0.05,572.5999999999999,0)" xlink:href="#aJ"/><use transform="matrix(0.05,0,0,0.05,576.55,0)" xlink:href="#aO"/><use transform="matrix(0.05,0,0,0.05,582.5,0)" xlink:href="#aK"/><use transform="matrix(0.05,0,0,0.05,592.5,0)" xlink:href="#aU"/><use transform="matrix(0.05,0,0,0.05,601.5,0)" xlink:href="#by"/><use transform="matrix(0.05,0,0,0.05,606.5,0)" xlink:href="#bz"/><use transform="matrix(0.05,0,0,0.05,616.5,0)" xlink:href="#bA"/><use transform="matrix(0.05,0,0,0.05,626.5,0)" xlink:href="#aM"/><use transform="matrix(0.05,0,0,0.05,632.45,0)" xlink:href="#aX"/><use transform="matrix(0.05,0,0,0.05,636.4000000000001,0)" xlink:href="#aJ"/><use transform="matrix(0.05,0,0,0.05,640.3500000000001,0)" xlink:href="#aU"/><use transform="matrix(0.05,0,0,0.05,649.3500000000001,0)" xlink:href="#aI"/><use transform="matrix(0.05,0,0,0.05,654.3500000000001,0)" xlink:href="#aK"/><use transform="matrix(0.05,0,0,0.05,664.3500000000001,0)" xlink:href="#aM"/><use transform="matrix(0.05,0,0,0.05,670.3000000000002,0)" xlink:href="#aZ"/><use transform="matrix(0.05,0,0,0.05,680.3000000000002,0)" xlink:href="#aK"/><use transform="matrix(0.05,0,0,0.05,690.3000000000002,0)" xlink:href="#aU"/><use transform="matrix(0.05,0,0,0.05,699.3000000000002,0)" xlink:href="#aM"/><use transform="matrix(0.05,0,0,0.05,705.2500000000002,0)" xlink:href="#bB"/><use transform="matrix(0.05,0,0,0.05,715.2500000000002,0)" xlink:href="#bC"/><use transform="matrix(0.05,0,0,0.05,725.2500000000002,0)" xlink:href="#aM"/><use transform="matrix(0.05,0,0,0.05,731.2000000000003,0)" xlink:href="#aH"/><use transform="matrix(0.05,0,0,0.05,741.2000000000003,0)" xlink:href="#aX"/><use transform="matrix(0.05,0,0,0.05,745.1500000000003,0)" xlink:href="#aX"/><use transform="matrix(0.05,0,0,0.05,749.1000000000004,0)" xlink:href="#aK"/><use transform="matrix(0.05,0,0,0.05,759.1000000000004,0)" xlink:href="#aO"/><use transform="matrix(0.05,0,0,0.05,765.0500000000004,0)" xlink:href="#aT"/><use transform="matrix(0.05,0,0,0.05,775.0500000000004,0)" xlink:href="#aK"/><use transform="matrix(0.05,0,0,0.05,785.0500000000004,0)" xlink:href="#aL"/><use transform="matrix(0.05,0,0,0.05,795.0500000000004,0)" xlink:href="#aK"/><use transform="matrix(0.05,0,0,0.05,805.0500000000004,0)" xlink:href="#aU"/><use transform="matrix(0.05,0,0,0.05,814.0500000000004,0)" xlink:href="#aM"/><use transform="matrix(0.05,0,0,0.05,820.0000000000005,0)" xlink:href="#aH"/><use transform="matrix(0.05,0,0,0.05,830.0000000000005,0)" xlink:href="#aX"/><use transform="matrix(0.05,0,0,0.05,833.9500000000004,0)" xlink:href="#aJ"/><use transform="matrix(0.05,0,0,0.05,837.9000000000005,0)" xlink:href="#aQ"/><use transform="matrix(0.05,0,0,0.05,852.8500000000006,0)" xlink:href="#aK"/><use transform="matrix(0.05,0,0,0.05,862.8500000000006,0)" xlink:href="#aL"/><use transform="matrix(0.05,0,0,0.05,872.8500000000006,0)" xlink:href="#aI"/><use transform="matrix(0.05,0,0,0.05,877.8500000000006,0)" xlink:href="#aH"/><use transform="matrix(0.05,0,0,0.05,887.8500000000006,0)" xlink:href="#aJ"/><use transform="matrix(0.05,0,0,0.05,891.8000000000006,0)" xlink:href="#aO"/><use transform="matrix(0.05,0,0,0.05,897.7500000000006,0)" xlink:href="#aK"/><use transform="matrix(0.05,0,0,0.05,907.7500000000006,0)" xlink:href="#aU"/><use transform="matrix(0.05,0,0,0.05,916.7500000000006,0)" xlink:href="#aM"/><use transform="matrix(0.05,0,0,0.05,922.7000000000007,0)" xlink:href="#aQ"/><use transform="matrix(0.05,0,0,0.05,937.6500000000008,0)" xlink:href="#aH"/><use transform="matrix(0.05,0,0,0.05,947.6500000000008,0)" xlink:href="#bl"/><use transform="matrix(0.05,0,0,0.05,951.6000000000008,0)" xlink:href="#aK"/><use transform="matrix(0.05,0,0,0.05,961.6000000000008,0)" xlink:href="#bb"/><use transform="matrix(0.05,0,0,0.05,971.6000000000008,0)" xlink:href="#aO"/><use transform="matrix(0.05,0,0,0.05,977.5500000000008,0)" xlink:href="#aU"/></g><g id="ae"><use transform="matrix(0.05,0,0,0.05,0,0)" xlink:href="#bd"/><use transform="matrix(0.05,0,0,0.05,12,0)" xlink:href="#aX"/><use transform="matrix(0.05,0,0,0.05,15.949999999999998,0)" xlink:href="#aJ"/><use transform="matrix(0.05,0,0,0.05,19.9,0)" xlink:href="#aQ"/><use transform="matrix(0.05,0,0,0.05,34.85,0)" xlink:href="#aK"/><use transform="matrix(0.05,0,0,0.05,44.85,0)" xlink:href="#aL"/><use transform="matrix(0.05,0,0,0.05,54.85,0)" xlink:href="#aI"/><use transform="matrix(0.05,0,0,0.05,59.85,0)" xlink:href="#aU"/></g><g id="af"><use transform="matrix(0.05,0,0,0.05,0,0)" xlink:href="#aY"/><use transform="matrix(0.05,0,0,0.05,5,0)" xlink:href="#aL"/><use transform="matrix(0.05,0,0,0.05,15,0)" xlink:href="#aT"/><use transform="matrix(0.05,0,0,0.05,25,0)" xlink:href="#aO"/><use transform="matrix(0.05,0,0,0.05,30.950000000000003,0)" xlink:href="#aK"/><use transform="matrix(0.05,0,0,0.05,40.95,0)" xlink:href="#aZ"/><use transform="matrix(0.05,0,0,0.05,50.95,0)" xlink:href="#aJ"/><use transform="matrix(0.05,0,0,0.05,54.900000000000006,0)" xlink:href="#aK"/><use transform="matrix(0.05,0,0,0.05,64.9,0)" xlink:href="#aL"/><use transform="matrix(0.05,0,0,0.05,74.9,0)" xlink:href="#aI"/></g><g id="ag"><use transform="matrix(0.05,0,0,0.05,0,0)" xlink:href="#aH"/><use transform="matrix(0.05,0,0,0.05,10,0)" xlink:href="#aX"/><use transform="matrix(0.05,0,0,0.05,13.949999999999998,0)" xlink:href="#aJ"/><use transform="matrix(0.05,0,0,0.05,17.9,0)" xlink:href="#aQ"/><use transform="matrix(0.05,0,0,0.05,32.85,0)" xlink:href="#aK"/><use transform="matrix(0.05,0,0,0.05,42.85,0)" xlink:href="#aL"/><use transform="matrix(0.05,0,0,0.05,52.85,0)" xlink:href="#aI"/><use transform="matrix(0.05,0,0,0.05,57.85,0)" xlink:href="#aR"/></g><g id="ah"><use transform="matrix(0.05,0,0,0.05,0,0)" xlink:href="#bd"/><use transform="matrix(0.05,0,0,0.05,12,0)" xlink:href="#aX"/><use transform="matrix(0.05,0,0,0.05,15.949999999999998,0)" xlink:href="#aJ"/><use transform="matrix(0.05,0,0,0.05,19.9,0)" xlink:href="#aQ"/><use transform="matrix(0.05,0,0,0.05,34.85,0)" xlink:href="#aK"/><use transform="matrix(0.05,0,0,0.05,44.85,0)" xlink:href="#aL"/><use transform="matrix(0.05,0,0,0.05,54.85,0)" xlink:href="#aI"/><use transform="matrix(0.05,0,0,0.05,59.85,0)" xlink:href="#aU"/></g><g id="ai"><use transform="matrix(0.05,0,0,0.05,0,0)" xlink:href="#bp"/><use transform="matrix(0.05,0,0,0.05,10,0)" xlink:href="#bb"/><use transform="matrix(0.05,0,0,0.05,20,0)" xlink:href="#aH"/><use transform="matrix(0.05,0,0,0.05,30,0)" xlink:href="#aL"/><use transform="matrix(0.05,0,0,0.05,40,0)" xlink:href="#aI"/><use transform="matrix(0.05,0,0,0.05,45,0)" xlink:href="#aJ"/><use transform="matrix(0.05,0,0,0.05,48.95,0)" xlink:href="#aI"/><use transform="matrix(0.05,0,0,0.05,53.95,0)" xlink:href="#bh"/><use transform="matrix(0.05,0,0,0.05,63.95,0)" xlink:href="#aR"/></g><g id="aj"><use transform="matrix(0.05,0,0,0.05,0,0)" xlink:href="#bb"/><use transform="matrix(0.05,0,0,0.05,10,0)" xlink:href="#aL"/><use transform="matrix(0.05,0,0,0.05,20,0)" xlink:href="#aJ"/><use transform="matrix(0.05,0,0,0.05,23.95,0)" xlink:href="#aI"/><use transform="matrix(0.05,0,0,0.05,28.950000000000003,0)" xlink:href="#bh"/><use transform="matrix(0.05,0,0,0.05,38.95,0)" xlink:href="#aR"/></g><g id="ak"><use transform="matrix(0.05,0,0,0.05,0,0)" xlink:href="#aS"/><use transform="matrix(0.05,0,0,0.05,12,0)" xlink:href="#aI"/><use transform="matrix(0.05,0,0,0.05,17,0)" xlink:href="#aO"/><use transform="matrix(0.05,0,0,0.05,22.95,0)" xlink:href="#aJ"/><use transform="matrix(0.05,0,0,0.05,26.899999999999995,0)" xlink:href="#aL"/><use transform="matrix(0.05,0,0,0.05,36.9,0)" xlink:href="#aT"/></g><g id="al"><use transform="matrix(0.05,0,0,0.05,0,0)" xlink:href="#aG"/><use transform="matrix(0.05,0,0,0.05,12,0)" xlink:href="#aX"/><use transform="matrix(0.05,0,0,0.05,15.949999999999998,0)" xlink:href="#aH"/><use transform="matrix(0.05,0,0,0.05,25.950000000000003,0)" xlink:href="#aI"/></g><g id="am"><use transform="matrix(0.05,0,0,0.05,0,0)" xlink:href="#bB"/><use transform="matrix(0.05,0,0,0.05,10,0)" xlink:href="#bs"/><use transform="matrix(0.05,0,0,0.05,15,0)" xlink:href="#bs"/><use transform="matrix(0.05,0,0,0.05,20,0)" xlink:href="#bv"/></g><g id="an"><use transform="matrix(0.05,0,0,0.05,0,0)" xlink:href="#bu"/><use transform="matrix(0.05,0,0,0.05,10,0)" xlink:href="#bs"/><use transform="matrix(0.05,0,0,0.05,15,0)" xlink:href="#bs"/><use transform="matrix(0.05,0,0,0.05,20,0)" xlink:href="#bv"/></g><g id="ao"><use transform="matrix(0.05,0,0,0.05,0,0)" xlink:href="#aG"/><use transform="matrix(0.05,0,0,0.05,12,0)" xlink:href="#aH"/><use transform="matrix(0.05,0,0,0.05,22,0)" xlink:href="#aI"/><use transform="matrix(0.05,0,0,0.05,27,0)" xlink:href="#bk"/><use transform="matrix(0.05,0,0,0.05,37,0)" xlink:href="#aP"/><use transform="matrix(0.05,0,0,0.05,47,0)" xlink:href="#aX"/><use transform="matrix(0.05,0,0,0.05,50.95,0)" xlink:href="#aP"/><use transform="matrix(0.05,0,0,0.05,60.95,0)" xlink:href="#aT"/><use transform="matrix(0.05,0,0,0.05,70.95,0)" xlink:href="#aJ"/><use transform="matrix(0.05,0,0,0.05,74.9,0)" xlink:href="#aK"/></g><g id="ap"><use transform="matrix(0.05,0,0,0.05,0,0)" xlink:href="#aH"/><use transform="matrix(0.05,0,0,0.05,10,0)" xlink:href="#aX"/><use transform="matrix(0.05,0,0,0.05,13.949999999999998,0)" xlink:href="#aX"/><use transform="matrix(0.05,0,0,0.05,17.9,0)" xlink:href="#aK"/><use transform="matrix(0.05,0,0,0.05,27.899999999999995,0)" xlink:href="#aO"/><use transform="matrix(0.05,0,0,0.05,33.85,0)" xlink:href="#aT"/><use transform="matrix(0.05,0,0,0.05,43.85,0)" xlink:href="#aJ"/><use transform="matrix(0.05,0,0,0.05,47.800000000000004,0)" xlink:href="#aK"/><use transform="matrix(0.05,0,0,0.05,57.800000000000004,0)" xlink:href="#aU"/><use transform="matrix(0.05,0,0,0.05,66.80000000000001,0)" xlink:href="#aR"/></g><g id="aq"><use transform="matrix(0.05,0,0,0.05,0,0)" xlink:href="#bd"/><use transform="matrix(0.05,0,0,0.05,12,0)" xlink:href="#aX"/><use transform="matrix(0.05,0,0,0.05,15.949999999999998,0)" xlink:href="#aX"/><use transform="matrix(0.05,0,0,0.05,19.9,0)" xlink:href="#aK"/><use transform="matrix(0.05,0,0,0.05,29.899999999999995,0)" xlink:href="#aO"/><use transform="matrix(0.05,0,0,0.05,35.85,0)" xlink:href="#aT"/><use transform="matrix(0.05,0,0,0.05,45.85,0)" xlink:href="#aJ"/><use transform="matrix(0.05,0,0,0.05,49.800000000000004,0)" xlink:href="#aK"/><use transform="matrix(0.05,0,0,0.05,59.800000000000004,0)" xlink:href="#aU"/><use transform="matrix(0.05,0,0,0.05,68.80000000000001,0)" xlink:href="#bt"/><use transform="matrix(0.05,0,0,0.05,73.80000000000001,0)" xlink:href="#bu"/><use transform="matrix(0.05,0,0,0.05,83.80000000000001,0)" xlink:href="#bs"/><use transform="matrix(0.05,0,0,0.05,88.80000000000001,0)" xlink:href="#bs"/><use transform="matrix(0.05,0,0,0.05,93.80000000000001,0)" xlink:href="#bv"/><use transform="matrix(0.05,0,0,0.05,100.80000000000001,0)" xlink:href="#bw"/></g><g id="ar"><use transform="matrix(0.05,0,0,0.05,0,0)" xlink:href="#bg"/><use transform="matrix(0.05,0,0,0.05,9,0)" xlink:href="#aP"/><use transform="matrix(0.05,0,0,0.05,19,0)" xlink:href="#aL"/><use transform="matrix(0.05,0,0,0.05,29,0)" xlink:href="#aI"/><use transform="matrix(0.05,0,0,0.05,34,0)" xlink:href="#aO"/><use transform="matrix(0.05,0,0,0.05,39.95,0)" xlink:href="#aK"/><use transform="matrix(0.05,0,0,0.05,49.95,0)" xlink:href="#aY"/><use transform="matrix(0.05,0,0,0.05,54.95,0)" xlink:href="#aL"/><use transform="matrix(0.05,0,0,0.05,64.95,0)" xlink:href="#aZ"/><use transform="matrix(0.05,0,0,0.05,74.95,0)" xlink:href="#aJ"/><use transform="matrix(0.05,0,0,0.05,78.9,0)" xlink:href="#bg"/><use transform="matrix(0.05,0,0,0.05,87.9,0)" xlink:href="#aH"/><use transform="matrix(0.05,0,0,0.05,97.9,0)" xlink:href="#aI"/><use transform="matrix(0.05,0,0,0.05,102.9,0)" xlink:href="#aJ"/><use transform="matrix(0.05,0,0,0.05,106.85000000000001,0)" xlink:href="#aP"/><use transform="matrix(0.05,0,0,0.05,116.85000000000001,0)" xlink:href="#aL"/><use transform="matrix(0.05,0,0,0.05,126.85000000000001,0)" xlink:href="#aU"/><use transform="matrix(0.05,0,0,0.05,135.85000000000002,0)" xlink:href="#aR"/></g><g id="as"><use transform="matrix(0.05,0,0,0.05,0,0)" xlink:href="#bf"/><use transform="matrix(0.05,0,0,0.05,12.950000000000001,0)" xlink:href="#aP"/><use transform="matrix(0.05,0,0,0.05,22.950000000000003,0)" xlink:href="#aL"/><use transform="matrix(0.05,0,0,0.05,32.95,0)" xlink:href="#aI"/><use transform="matrix(0.05,0,0,0.05,37.95,0)" xlink:href="#aO"/><use transform="matrix(0.05,0,0,0.05,43.900000000000006,0)" xlink:href="#aK"/><use transform="matrix(0.05,0,0,0.05,53.900000000000006,0)" xlink:href="#aY"/><use transform="matrix(0.05,0,0,0.05,58.900000000000006,0)" xlink:href="#aL"/><use transform="matrix(0.05,0,0,0.05,68.9,0)" xlink:href="#aZ"/><use transform="matrix(0.05,0,0,0.05,78.9,0)" xlink:href="#aJ"/><use transform="matrix(0.05,0,0,0.05,82.85000000000001,0)" xlink:href="#bg"/><use transform="matrix(0.05,0,0,0.05,91.85000000000001,0)" xlink:href="#aH"/><use transform="matrix(0.05,0,0,0.05,101.85000000000001,0)" xlink:href="#aI"/><use transform="matrix(0.05,0,0,0.05,106.85000000000001,0)" xlink:href="#aJ"/><use transform="matrix(0.05,0,0,0.05,110.80000000000001,0)" xlink:href="#aP"/><use transform="matrix(0.05,0,0,0.05,120.80000000000001,0)" xlink:href="#aL"/><use transform="matrix(0.05,0,0,0.05,130.8,0)" xlink:href="#aU"/><use transform="matrix(0.05,0,0,0.05,139.8,0)" xlink:href="#bt"/><use transform="matrix(0.05,0,0,0.05,144.8,0)" xlink:href="#bu"/><use transform="matrix(0.05,0,0,0.05,154.8,0)" xlink:href="#bs"/><use transform="matrix(0.05,0,0,0.05,159.8,0)" xlink:href="#bs"/><use transform="matrix(0.05,0,0,0.05,164.8,0)" xlink:href="#bv"/><use transform="matrix(0.05,0,0,0.05,171.8,0)" xlink:href="#bw"/></g><g id="at"><use transform="matrix(0.05,0,0,0.05,0,0)" xlink:href="#be"/><use transform="matrix(0.05,0,0,0.05,14,0)" xlink:href="#aO"/><use transform="matrix(0.05,0,0,0.05,19.95,0)" xlink:href="#aP"/><use transform="matrix(0.05,0,0,0.05,29.950000000000003,0)" xlink:href="#bb"/><use transform="matrix(0.05,0,0,0.05,39.95,0)" xlink:href="#aN"/><use transform="matrix(0.05,0,0,0.05,49.95,0)" xlink:href="#aK"/><use transform="matrix(0.05,0,0,0.05,59.95,0)" xlink:href="#aG"/><use transform="matrix(0.05,0,0,0.05,71.95,0)" xlink:href="#aH"/><use transform="matrix(0.05,0,0,0.05,81.95,0)" xlink:href="#aI"/><use transform="matrix(0.05,0,0,0.05,86.95,0)" xlink:href="#aJ"/><use transform="matrix(0.05,0,0,0.05,90.9,0)" xlink:href="#aK"/><use transform="matrix(0.05,0,0,0.05,100.9,0)" xlink:href="#aL"/><use transform="matrix(0.05,0,0,0.05,110.9,0)" xlink:href="#aI"/><use transform="matrix(0.05,0,0,0.05,115.9,0)" xlink:href="#aU"/></g><g id="au"><use transform="matrix(0.05,0,0,0.05,0,0)" xlink:href="#bq"/><use transform="matrix(0.05,0,0,0.05,14.950000000000001,0)" xlink:href="#aK"/><use transform="matrix(0.05,0,0,0.05,24.950000000000003,0)" xlink:href="#aL"/><use transform="matrix(0.05,0,0,0.05,34.95,0)" xlink:href="#bb"/></g><g id="av"><use transform="matrix(0.05,0,0,0.05,0,0)" xlink:href="#be"/><use transform="matrix(0.05,0,0,0.05,14,0)" xlink:href="#aO"/><use transform="matrix(0.05,0,0,0.05,19.95,0)" xlink:href="#aP"/><use transform="matrix(0.05,0,0,0.05,29.950000000000003,0)" xlink:href="#bb"/><use transform="matrix(0.05,0,0,0.05,39.95,0)" xlink:href="#aN"/><use transform="matrix(0.05,0,0,0.05,49.95,0)" xlink:href="#aK"/></g><g id="aw"><use transform="matrix(0.05,0,0,0.05,0,0)" xlink:href="#aZ"/><use transform="matrix(0.05,0,0,0.05,10,0)" xlink:href="#aK"/></g><g id="ax"><use transform="matrix(0.05,0,0,0.05,0,0)" xlink:href="#aN"/><use transform="matrix(0.05,0,0,0.05,10,0)" xlink:href="#aH"/><use transform="matrix(0.05,0,0,0.05,20,0)" xlink:href="#aI"/><use transform="matrix(0.05,0,0,0.05,25,0)" xlink:href="#aJ"/><use transform="matrix(0.05,0,0,0.05,28.950000000000003,0)" xlink:href="#aK"/><use transform="matrix(0.05,0,0,0.05,38.95,0)" xlink:href="#aL"/><use transform="matrix(0.05,0,0,0.05,48.95,0)" xlink:href="#aI"/><use transform="matrix(0.05,0,0,0.05,53.95,0)" xlink:href="#aU"/></g><g id="ay"><use transform="matrix(0.05,0,0,0.05,0,0)" xlink:href="#aH"/><use transform="matrix(0.05,0,0,0.05,10,0)" xlink:href="#bx"/><use transform="matrix(0.05,0,0,0.05,19,0)" xlink:href="#aK"/><use transform="matrix(0.05,0,0,0.05,29,0)" xlink:href="#bg"/></g><g id="az"><use transform="matrix(0.05,0,0,0.05,0,0)" xlink:href="#aX"/><use transform="matrix(0.05,0,0,0.05,3.95,0)" xlink:href="#aH"/></g><path d="M100-194c63 0 86 42 84 106H49c0 40 14 67 53 68 26 1 43-12 49-29l28 8c-11 28-37 45-77 45C44 4 14-33 15-96c1-61 26-98 85-98zm52 81c6-60-76-77-97-28-3 7-6 17-6 28h103zm-32-149c12 18 30 30 39 51-31 2-38-20-57-30-20 10-27 32-59 30 9-22 29-33 41-51h36" id="bD"/><g id="aA"><use transform="matrix(0.05,0,0,0.05,0,0)" xlink:href="#aQ"/><use transform="matrix(0.05,0,0,0.05,14.950000000000001,0)" xlink:href="#bD"/><use transform="matrix(0.05,0,0,0.05,24.950000000000003,0)" xlink:href="#aQ"/><use transform="matrix(0.05,0,0,0.05,39.900000000000006,0)" xlink:href="#aK"/></g><g id="aB"><use transform="matrix(0.05,0,0,0.05,0,0)" xlink:href="#aN"/><use transform="matrix(0.05,0,0,0.05,10,0)" xlink:href="#aH"/><use transform="matrix(0.05,0,0,0.05,20,0)" xlink:href="#aI"/><use transform="matrix(0.05,0,0,0.05,25,0)" xlink:href="#bk"/><use transform="matrix(0.05,0,0,0.05,35,0)" xlink:href="#aP"/><use transform="matrix(0.05,0,0,0.05,45,0)" xlink:href="#aX"/><use transform="matrix(0.05,0,0,0.05,48.95,0)" xlink:href="#aP"/><use transform="matrix(0.05,0,0,0.05,58.95,0)" xlink:href="#aT"/><use transform="matrix(0.05,0,0,0.05,68.95,0)" xlink:href="#aJ"/><use transform="matrix(0.05,0,0,0.05,72.9,0)" xlink:href="#aK"/></g><use transform="matrix(0.05,0,0,0.05,0,0)" xlink:href="#bB" id="aC"/><path d="M30-248c118-7 216 8 213 122C240-48 200 0 122 0H30v-248zM63-27c89 8 146-16 146-99s-60-101-146-95v194" id="bE"/><g id="aD"><use transform="matrix(0.05,0,0,0.05,0,0)" xlink:href="#aG"/><use transform="matrix(0.05,0,0,0.05,12,0)" xlink:href="#aK"/><use transform="matrix(0.05,0,0,0.05,22,0)" xlink:href="#aI"/><use transform="matrix(0.05,0,0,0.05,27,0)" xlink:href="#aJ"/><use transform="matrix(0.05,0,0,0.05,30.950000000000003,0)" xlink:href="#aI"/><use transform="matrix(0.05,0,0,0.05,35.95,0)" xlink:href="#bE"/><use transform="matrix(0.05,0,0,0.05,48.900000000000006,0)" xlink:href="#aK"/><use transform="matrix(0.05,0,0,0.05,58.900000000000006,0)" xlink:href="#bl"/><use transform="matrix(0.05,0,0,0.05,62.85,0)" xlink:href="#aK"/><use transform="matrix(0.05,0,0,0.05,72.85000000000001,0)" xlink:href="#bb"/><use transform="matrix(0.05,0,0,0.05,82.85000000000001,0)" xlink:href="#aL"/><use transform="matrix(0.05,0,0,0.05,92.85000000000001,0)" xlink:href="#aK"/><use transform="matrix(0.05,0,0,0.05,102.85000000000001,0)" xlink:href="#aO"/></g><g id="aE"><use transform="matrix(0.05,0,0,0.05,0,0)" xlink:href="#bE"/><use transform="matrix(0.05,0,0,0.05,12.950000000000001,0)" xlink:href="#aK"/><use transform="matrix(0.05,0,0,0.05,22.950000000000003,0)" xlink:href="#bl"/><use transform="matrix(0.05,0,0,0.05,26.900000000000002,0)" xlink:href="#aK"/><use transform="matrix(0.05,0,0,0.05,36.900000000000006,0)" xlink:href="#bb"/><use transform="matrix(0.05,0,0,0.05,46.900000000000006,0)" xlink:href="#aL"/><use transform="matrix(0.05,0,0,0.05,56.900000000000006,0)" xlink:href="#aK"/><use transform="matrix(0.05,0,0,0.05,66.9,0)" xlink:href="#aO"/></g><g id="aF"><use transform="matrix(0.05,0,0,0.05,0,0)" xlink:href="#aS"/><use transform="matrix(0.05,0,0,0.05,12,0)" xlink:href="#aP"/><use transform="matrix(0.05,0,0,0.05,22,0)" xlink:href="#bb"/><use transform="matrix(0.05,0,0,0.05,32,0)" xlink:href="#aN"/><use transform="matrix(0.05,0,0,0.05,42,0)" xlink:href="#aK"/><use transform="matrix(0.05,0,0,0.05,52,0)" xlink:href="#aO"/></g></defs></g></svg>