<svg version="1.1" xmlns="http://www.w3.org/2000/svg" xmlns:xlink="http://www.w3.org/1999/xlink" width="938.72998046875" height="1056"><defs/><g><g transform="translate(-21,-6) scale(1,1)"><rect fill="#C0C0C0" stroke="none" x="416" y="114" width="120" height="57" opacity="0.2"/></g><g transform="translate(-21,-6) scale(1,1)"><rect fill="#ffffff" stroke="none" x="409" y="107" width="120" height="57"/></g><g transform="translate(-21,-6) scale(1,1)"><path fill="none" stroke="#000000" d="M 409 107 L 529 107 L 529 164 L 409 164 L 409 107 Z Z" stroke-miterlimit="10"/></g><g transform="translate(-21,-6) scale(1,1)"><path fill="none" stroke="#000000" d="M 409 145 L 529 145" stroke-miterlimit="10"/></g><g transform="translate(-21,-6) scale(1,1)"><path fill="none" stroke="#000000" d="M 409 155 L 529 155" stroke-miterlimit="10"/></g><g transform="translate(-21,-6) scale(1,1)"><g><path fill="none" stroke="none"/><text fill="#000000" stroke="none" font-family="Arial" font-size="13px" font-style="normal" font-weight="normal" text-decoration="none" x="426.3564453125" y="124.5">«&lt;&lt;Servlet&gt;&gt;»</text></g></g><g transform="translate(-21,-6) scale(1,1)"><g><path fill="none" stroke="none"/><text fill="#000000" stroke="none" font-family="Arial" font-size="13px" font-style="normal" font-weight="bold" text-decoration="none" x="424.921875" y="139.5">ElaborerMenus</text></g></g><g transform="translate(-21,-6) scale(1,1)"><rect fill="#C0C0C0" stroke="none" x="159" y="114" width="179.5234375" height="57" opacity="0.2"/></g><g transform="translate(-21,-6) scale(1,1)"><rect fill="#ffffff" stroke="none" x="152" y="107" width="179.5234375" height="57"/></g><g transform="translate(-21,-6) scale(1,1)"><path fill="none" stroke="#000000" d="M 152 107 L 331.5234375 107 L 331.5234375 164 L 152 164 L 152 107 Z Z" stroke-miterlimit="10"/></g><g transform="translate(-21,-6) scale(1,1)"><path fill="none" stroke="#000000" d="M 152 145 L 331.5234375 145" stroke-miterlimit="10"/></g><g transform="translate(-21,-6) scale(1,1)"><path fill="none" stroke="#000000" d="M 152 155 L 331.5234375 155" stroke-miterlimit="10"/></g><g transform="translate(-21,-6) scale(1,1)"><g><path fill="none" stroke="none"/><text fill="#000000" stroke="none" font-family="Arial" font-size="13px" font-style="normal" font-weight="normal" text-decoration="none" x="207.42724609375" y="124.5">«&lt;&lt;JSP&gt;&gt;»</text></g></g><g transform="translate(-21,-6) scale(1,1)"><g><path fill="none" stroke="none"/><text fill="#000000" stroke="none" font-family="Arial" font-size="13px" font-style="normal" font-weight="bold" text-decoration="none" x="186.1181640625" y="139.5">ElaborerMenusVue</text></g></g><g transform="translate(-21,-6) scale(1,1)"><rect fill="#C0C0C0" stroke="none" x="613" y="120" width="269.53955078125" height="45" opacity="0.2"/></g><g transform="translate(-21,-6) scale(1,1)"><rect fill="#ffffff" stroke="none" x="606" y="113" width="269.53955078125" height="45"/></g><g transform="translate(-21,-6) scale(1,1)"><path fill="none" stroke="#000000" d="M 606 113 L 875.53955078125 113 L 875.53955078125 158 L 606 158 L 606 113 Z Z" stroke-miterlimit="10"/></g><g transform="translate(-21,-6) scale(1,1)"><path fill="none" stroke="#000000" d="M 606 138 L 875.53955078125 138" stroke-miterlimit="10"/></g><g transform="translate(-21,-6) scale(1,1)"><path fill="none" stroke="#000000" d="M 606 148 L 875.53955078125 148" stroke-miterlimit="10"/></g><g transform="translate(-21,-6) scale(1,1)"><g><path fill="none" stroke="none"/><text fill="#000000" stroke="none" font-family="Arial" font-size="13px" font-style="normal" font-weight="bold" text-decoration="none" x="681.527099609375" y="132.5">ElaborerMenusForm</text></g></g><g transform="translate(-21,-6) scale(1,1)"><rect fill="#C0C0C0" stroke="none" x="191" y="375" width="289.0205078125" height="44" opacity="0.2"/></g><g transform="translate(-21,-6) scale(1,1)"><rect fill="#ffffff" stroke="none" x="184" y="368" width="289.0205078125" height="44"/></g><g transform="translate(-21,-6) scale(1,1)"><path fill="none" stroke="#000000" d="M 184 368 L 473.0205078125 368 L 473.0205078125 412 L 184 412 L 184 368 Z Z" stroke-miterlimit="10"/></g><g transform="translate(-21,-6) scale(1,1)"><path fill="none" stroke="#000000" d="M 184 393 L 473.0205078125 393" stroke-miterlimit="10"/></g><g transform="translate(-21,-6) scale(1,1)"><path fill="none" stroke="#000000" d="M 184 403 L 473.0205078125 403" stroke-miterlimit="10"/></g><g transform="translate(-21,-6) scale(1,1)"><g><path fill="none" stroke="none"/><text fill="#000000" stroke="none" font-family="Arial" font-size="13px" font-style="normal" font-weight="bold" text-decoration="none" x="265.278076171875" y="387.5">SelectGroupePatients</text></g></g><g transform="translate(-21,-6) scale(1,1)"><rect fill="#C0C0C0" stroke="none" x="606" y="375" width="140.14892578125" height="44" opacity="0.2"/></g><g transform="translate(-21,-6) scale(1,1)"><rect fill="#ffffff" stroke="none" x="599" y="368" width="140.14892578125" height="44"/></g><g transform="translate(-21,-6) scale(1,1)"><path fill="none" stroke="#000000" d="M 599 368 L 739.14892578125 368 L 739.14892578125 412 L 599 412 L 599 368 Z Z" stroke-miterlimit="10"/></g><g transform="translate(-21,-6) scale(1,1)"><path fill="none" stroke="#000000" d="M 599 393 L 739.14892578125 393" stroke-miterlimit="10"/></g><g transform="translate(-21,-6) scale(1,1)"><path fill="none" stroke="#000000" d="M 599 403 L 739.14892578125 403" stroke-miterlimit="10"/></g><g transform="translate(-21,-6) scale(1,1)"><g><path fill="none" stroke="none"/><text fill="#000000" stroke="none" font-family="Arial" font-size="13px" font-style="normal" font-weight="bold" text-decoration="none" x="638.7294921875" y="387.5">MenuDAO</text></g></g><g transform="translate(-21,-6) scale(1,1)"><path fill="none" stroke="#000000" d="M 684 367 L 739 282" stroke-miterlimit="10"/></g><g transform="translate(-21,-6) scale(1,1)"><path fill="none" stroke="#000000" d="M 685.986700621948 356.18089557131685 L 684 367 L 693.0550715898543 360.7545473740797" stroke-miterlimit="10"/></g><g transform="translate(-21,-6) scale(1,1)"><g><path fill="none" stroke="none"/><text fill="#000000" stroke="none" font-family="Arial" font-size="13px" font-style="normal" font-weight="normal" text-decoration="none" x="702.641357421875" y="366.5">1</text></g></g><g transform="translate(-21,-6) scale(1,1)"><g><path fill="none" stroke="none"/><text fill="#000000" stroke="none" font-family="Arial" font-size="13px" font-style="normal" font-weight="normal" text-decoration="none" x="737.641357421875" y="302.5">1</text></g></g><g transform="translate(-21,-6) scale(1,1)"><path fill="none" stroke="#000000" d="M 530 135 L 605 135" stroke-miterlimit="10"/></g><g transform="translate(-21,-6) scale(1,1)"><path fill="none" stroke="#000000" d="M 540.1626748576241 130.790482243984 L 530 135 L 540.1626748576241 139.209517756016" stroke-miterlimit="10"/></g><g transform="translate(-21,-6) scale(1,1)"><g><path fill="none" stroke="none"/><text fill="#000000" stroke="none" font-family="Arial" font-size="13px" font-style="normal" font-weight="normal" text-decoration="none" x="536.5" y="152.5">1</text></g></g><g transform="translate(-21,-6) scale(1,1)"><g><path fill="none" stroke="none"/><text fill="#000000" stroke="none" font-family="Arial" font-size="13px" font-style="normal" font-weight="normal" text-decoration="none" x="589.5" y="153.5">1</text></g></g><g transform="translate(-21,-6) scale(1,1)"><path fill="none" stroke="#000000" d="M 333 135 L 408 135" stroke-miterlimit="10"/></g><g transform="translate(-21,-6) scale(1,1)"><path fill="none" stroke="#000000" d="M 343.16267485762415 130.790482243984 L 333 135 L 343.16267485762415 139.209517756016" stroke-miterlimit="10"/></g><g transform="translate(-21,-6) scale(1,1)"><g><path fill="none" stroke="none"/><text fill="#000000" stroke="none" font-family="Arial" font-size="13px" font-style="normal" font-weight="normal" text-decoration="none" x="335.5" y="152.5">1</text></g></g><g transform="translate(-21,-6) scale(1,1)"><g><path fill="none" stroke="none"/><text fill="#000000" stroke="none" font-family="Arial" font-size="13px" font-style="normal" font-weight="normal" text-decoration="none" x="392.5" y="153.5">1</text></g></g><g transform="translate(-21,-6) scale(1,1)"><path fill="#ffffff" stroke="none" d="M 528 16 L 596.6962890625 16 L 606.6962890625 26 L 606.6962890625 54 L 528 54 L 528 16"/></g><g transform="translate(-21,-6) scale(1,1)"><path fill="none" stroke="#000000" d="M 528 16 L 596.6962890625 16 L 606.6962890625 26 L 606.6962890625 54 L 528 54 L 528 16 L 528 16" stroke-miterlimit="10"/></g><g transform="translate(-21,-6) scale(1,1)"><path fill="none" stroke="#000000" d="M 596.6962890625 16 L 596.6962890625 26 L 606.6962890625 26 L 596.6962890625 16" stroke-miterlimit="10"/></g><g transform="translate(-21,-6) scale(1,1)"><g><path fill="none" stroke="none"/><text fill="#000000" stroke="none" font-family="Arial" font-size="13px" font-style="normal" font-weight="normal" text-decoration="none" x="533" y="34">Contrôleur</text></g></g><g transform="translate(-21,-6) scale(1,1)"><path fill="none" stroke="#000000" d="M 603 56 L 700 112" stroke-miterlimit="10" stroke-dasharray="3"/></g><g transform="translate(-21,-6) scale(1,1)"><path fill="none" stroke="#000000" d="M 546 56 L 497 106" stroke-miterlimit="10" stroke-dasharray="3"/></g><g transform="translate(-21,-6) scale(1,1)"><path fill="#ffffff" stroke="none" d="M 200 24 L 258 24 L 268 34 L 268 62 L 200 62 L 200 24"/></g><g transform="translate(-21,-6) scale(1,1)"><path fill="none" stroke="#000000" d="M 200 24 L 258 24 L 268 34 L 268 62 L 200 62 L 200 24 L 200 24" stroke-miterlimit="10"/></g><g transform="translate(-21,-6) scale(1,1)"><path fill="none" stroke="#000000" d="M 258 24 L 258 34 L 268 34 L 258 24" stroke-miterlimit="10"/></g><g transform="translate(-21,-6) scale(1,1)"><g><path fill="none" stroke="none"/><text fill="#000000" stroke="none" font-family="Arial" font-size="13px" font-style="normal" font-weight="normal" text-decoration="none" x="205" y="42">Vue</text></g></g><g transform="translate(-21,-6) scale(1,1)"><path fill="none" stroke="#000000" d="M 236 64 L 239 106" stroke-miterlimit="10" stroke-dasharray="3"/></g><g transform="translate(-21,-6) scale(1,1)"><path fill="none" stroke="#000000" d="M 701 159 L 365 367" stroke-miterlimit="10"/></g><g transform="translate(-21,-6) scale(1,1)"><path fill="none" stroke="#000000" d="M 371.4252691323706 358.07162295954043 L 365 367 L 375.8566673247471 365.23003542414864" stroke-miterlimit="10"/></g><g transform="translate(-21,-6) scale(1,1)"><g><path fill="none" stroke="none"/><text fill="#000000" stroke="none" font-family="Arial" font-size="13px" font-style="normal" font-weight="normal" text-decoration="none" x="662.641357421875" y="172.5">1</text></g></g><g transform="translate(-21,-6) scale(1,1)"><g><path fill="none" stroke="none"/><text fill="#000000" stroke="none" font-family="Arial" font-size="13px" font-style="normal" font-weight="normal" text-decoration="none" x="372.5" y="350.5">1</text></g></g><g transform="translate(-21,-6) scale(1,1)"><rect fill="#C0C0C0" stroke="none" x="815" y="375" width="61.03076171875" height="44" opacity="0.2"/></g><g transform="translate(-21,-6) scale(1,1)"><rect fill="#ffffff" stroke="none" x="808" y="368" width="61.03076171875" height="44"/></g><g transform="translate(-21,-6) scale(1,1)"><path fill="none" stroke="#000000" d="M 808 368 L 869.03076171875 368 L 869.03076171875 412 L 808 412 L 808 368 Z Z" stroke-miterlimit="10"/></g><g transform="translate(-21,-6) scale(1,1)"><path fill="none" stroke="#000000" d="M 808 393 L 869.03076171875 393" stroke-miterlimit="10"/></g><g transform="translate(-21,-6) scale(1,1)"><path fill="none" stroke="#000000" d="M 808 403 L 869.03076171875 403" stroke-miterlimit="10"/></g><g transform="translate(-21,-6) scale(1,1)"><g><path fill="none" stroke="none"/><text fill="#000000" stroke="none" font-family="Arial" font-size="13px" font-style="normal" font-weight="bold" text-decoration="none" x="824.06494140625" y="387.5">Plats</text></g></g><g transform="translate(-21,-6) scale(1,1)"><path fill="none" stroke="#000000" d="M 776 282 L 825 367" stroke-miterlimit="10"/></g><g transform="translate(-21,-6) scale(1,1)"><path fill="none" stroke="#000000" d="M 816.2775348457734 360.2978658896361 L 825 367 L 823.571410218643 356.09316126292305" stroke-miterlimit="10"/></g><g transform="translate(-21,-6) scale(1,1)"><g><path fill="none" stroke="none"/><text fill="#000000" stroke="none" font-family="Arial" font-size="13px" font-style="normal" font-weight="normal" text-decoration="none" x="765.641357421875" y="300.5">1</text></g></g><g transform="translate(-21,-6) scale(1,1)"><g><path fill="none" stroke="none"/><text fill="#000000" stroke="none" font-family="Arial" font-size="13px" font-style="normal" font-weight="normal" text-decoration="none" x="799.641357421875" y="360.5">1</text></g></g><g transform="translate(-21,-6) scale(1,1)"><rect fill="#C0C0C0" stroke="none" x="703" y="231" width="126.42529296875" height="57" opacity="0.2"/></g><g transform="translate(-21,-6) scale(1,1)"><rect fill="#ffffff" stroke="none" x="696" y="224" width="126.42529296875" height="57"/></g><g transform="translate(-21,-6) scale(1,1)"><path fill="none" stroke="#000000" d="M 696 224 L 822.42529296875 224 L 822.42529296875 281 L 696 281 L 696 224 Z Z" stroke-miterlimit="10"/></g><g transform="translate(-21,-6) scale(1,1)"><path fill="none" stroke="#000000" d="M 696 249 L 822.42529296875 249" stroke-miterlimit="10"/></g><g transform="translate(-21,-6) scale(1,1)"><path fill="none" stroke="#000000" d="M 696 259 L 822.42529296875 259" stroke-miterlimit="10"/></g><g transform="translate(-21,-6) scale(1,1)"><g><path fill="none" stroke="none"/><text fill="#000000" stroke="none" font-family="Arial" font-size="13px" font-style="normal" font-weight="bold" text-decoration="none" x="706.819091796875" y="243.5">ElaborationMenus</text></g></g><g transform="translate(-21,-6) scale(1,1)"><g><path fill="none" stroke="none"/><text fill="#000000" stroke="none" font-family="Arial" font-size="13px" font-style="normal" font-weight="normal" text-decoration="none" x="701" y="276.5">+lancerElaboration()</text></g></g><g transform="translate(-21,-6) scale(1,1)"><path fill="none" stroke="#000000" d="M 744 159 L 754 223" stroke-miterlimit="10"/></g><g transform="translate(-21,-6) scale(1,1)"><path fill="none" stroke="#000000" d="M 748.2720637610122 213.6090071641977 L 754 223 L 756.5901721594777 212.30930272693746" stroke-miterlimit="10"/></g><g transform="translate(-21,-6) scale(1,1)"><g><path fill="none" stroke="none"/><text fill="#000000" stroke="none" font-family="Arial" font-size="13px" font-style="normal" font-weight="normal" text-decoration="none" x="734.5" y="218.5">1</text></g></g><g transform="translate(-21,-6) scale(1,1)"><g><path fill="none" stroke="none"/><text fill="#000000" stroke="none" font-family="Arial" font-size="13px" font-style="normal" font-weight="normal" text-decoration="none" x="734.5" y="180.5">1</text></g></g><g transform="translate(-21,-6) scale(1,1)"><rect fill="#C0C0C0" stroke="none" x="551" y="839" width="233.3515625" height="220" opacity="0.2"/></g><g transform="translate(-21,-6) scale(1,1)"><rect fill="#ffffff" stroke="none" x="544" y="832" width="233.3515625" height="220"/></g><g transform="translate(-21,-6) scale(1,1)"><path fill="none" stroke="#000000" d="M 544 832 L 777.3515625 832 L 777.3515625 1052 L 544 1052 L 544 832 Z Z" stroke-miterlimit="10"/></g><g transform="translate(-21,-6) scale(1,1)"><path fill="none" stroke="#000000" d="M 544 857 L 777.3515625 857" stroke-miterlimit="10"/></g><g transform="translate(-21,-6) scale(1,1)"><path fill="none" stroke="#000000" d="M 544 925 L 777.3515625 925" stroke-miterlimit="10"/></g><g transform="translate(-21,-6) scale(1,1)"><g><path fill="none" stroke="none"/><text fill="#000000" stroke="none" font-family="Arial" font-size="13px" font-style="normal" font-weight="bold" text-decoration="none" x="611.909912109375" y="851.5">AttributsAliments</text></g></g><g transform="translate(-21,-6) scale(1,1)"><g><path fill="none" stroke="none"/><text fill="#000000" stroke="none" font-family="Arial" font-size="13px" font-style="normal" font-weight="normal" text-decoration="none" x="549" y="874.5">-forme: Formes</text></g></g><g transform="translate(-21,-6) scale(1,1)"><g><path fill="none" stroke="none"/><text fill="#000000" stroke="none" font-family="Arial" font-size="13px" font-style="normal" font-weight="normal" text-decoration="none" x="549" y="889.5">-famille: Familles</text></g></g><g transform="translate(-21,-6) scale(1,1)"><g><path fill="none" stroke="none"/><text fill="#000000" stroke="none" font-family="Arial" font-size="13px" font-style="normal" font-weight="normal" text-decoration="none" x="549" y="904.5">-texture: Textures</text></g></g><g transform="translate(-21,-6) scale(1,1)"><g><path fill="none" stroke="none"/><text fill="#000000" stroke="none" font-family="Arial" font-size="13px" font-style="normal" font-weight="normal" text-decoration="none" x="549" y="919.5">-alimentBase: AlimentsBase</text></g></g><g transform="translate(-21,-6) scale(1,1)"><g><path fill="none" stroke="none"/><text fill="#000000" stroke="none" font-family="Arial" font-size="13px" font-style="normal" font-weight="normal" text-decoration="none" x="549" y="942.5">+getForme(): Formes</text></g></g><g transform="translate(-21,-6) scale(1,1)"><g><path fill="none" stroke="none"/><text fill="#000000" stroke="none" font-family="Arial" font-size="13px" font-style="normal" font-weight="normal" text-decoration="none" x="549" y="957.5">+setForme(value: Formes)</text></g></g><g transform="translate(-21,-6) scale(1,1)"><g><path fill="none" stroke="none"/><text fill="#000000" stroke="none" font-family="Arial" font-size="13px" font-style="normal" font-weight="normal" text-decoration="none" x="549" y="972.5">+getFamille(): Familles</text></g></g><g transform="translate(-21,-6) scale(1,1)"><g><path fill="none" stroke="none"/><text fill="#000000" stroke="none" font-family="Arial" font-size="13px" font-style="normal" font-weight="normal" text-decoration="none" x="549" y="987.5">+setFamille(value: Familles)</text></g></g><g transform="translate(-21,-6) scale(1,1)"><g><path fill="none" stroke="none"/><text fill="#000000" stroke="none" font-family="Arial" font-size="13px" font-style="normal" font-weight="normal" text-decoration="none" x="549" y="1002.5">+getTexture(): Textures</text></g></g><g transform="translate(-21,-6) scale(1,1)"><g><path fill="none" stroke="none"/><text fill="#000000" stroke="none" font-family="Arial" font-size="13px" font-style="normal" font-weight="normal" text-decoration="none" x="549" y="1017.5">+setTexture(value: Textures)</text></g></g><g transform="translate(-21,-6) scale(1,1)"><g><path fill="none" stroke="none"/><text fill="#000000" stroke="none" font-family="Arial" font-size="13px" font-style="normal" font-weight="normal" text-decoration="none" x="549" y="1032.5">+getAlimentBase(): AlimentsBase</text></g></g><g transform="translate(-21,-6) scale(1,1)"><g><path fill="none" stroke="none"/><text fill="#000000" stroke="none" font-family="Arial" font-size="13px" font-style="normal" font-weight="normal" text-decoration="none" x="549" y="1047.5">+setAlimentBase(value: AlimentsBase)</text></g></g><g transform="translate(-21,-6) scale(1,1)"><path fill="none" stroke="#000000" d="M 408 412 L 408 776 L 608 776 L 608 832" stroke-miterlimit="10"/></g><g transform="translate(-21,-6) scale(1,1)"><path fill="none" stroke="#000000" d="M 603.790482243984 821.8373251423759 L 608 832 L 612.209517756016 821.8373251423759" stroke-miterlimit="10"/></g><g transform="translate(-21,-6) scale(1,1)"><g><path fill="none" stroke="none"/><text fill="#000000" stroke="none" font-family="Arial" font-size="13px" font-style="normal" font-weight="normal" text-decoration="none" x="391.5" y="439.5">1</text></g></g><g transform="translate(-21,-6) scale(1,1)"><g><path fill="none" stroke="none"/><text fill="#000000" stroke="none" font-family="Arial" font-size="13px" font-style="normal" font-weight="normal" text-decoration="none" x="413.5" y="436.5">+SyntheseContraintes</text></g></g><g transform="translate(-21,-6) scale(1,1)"><g><path fill="none" stroke="none"/><text fill="#000000" stroke="none" font-family="Arial" font-size="13px" font-style="normal" font-weight="normal" text-decoration="none" x="585.5" y="816.5">0..*</text></g></g><g transform="translate(-21,-6) scale(1,1)"><rect fill="#C0C0C0" stroke="none" x="791" y="751" width="110.13720703125" height="57" opacity="0.2"/></g><g transform="translate(-21,-6) scale(1,1)"><rect fill="#ffffff" stroke="none" x="784" y="744" width="110.13720703125" height="57"/></g><g transform="translate(-21,-6) scale(1,1)"><path fill="none" stroke="#000000" d="M 784 744 L 894.13720703125 744 L 894.13720703125 801 L 784 801 L 784 744 Z Z" stroke-miterlimit="10"/></g><g transform="translate(-21,-6) scale(1,1)"><path fill="none" stroke="#000000" d="M 784 769 L 894.13720703125 769" stroke-miterlimit="10"/></g><g transform="translate(-21,-6) scale(1,1)"><path fill="none" stroke="#000000" d="M 784 792 L 894.13720703125 792" stroke-miterlimit="10"/></g><g transform="translate(-21,-6) scale(1,1)"><g><path fill="none" stroke="none"/><text fill="#000000" stroke="none" font-family="Arial" font-size="13px" font-style="normal" font-weight="bold" text-decoration="none" x="792.457763671875" y="763.5">IngredientsPlats</text></g></g><g transform="translate(-21,-6) scale(1,1)"><g><path fill="none" stroke="none"/><text fill="#000000" stroke="none" font-family="Arial" font-size="13px" font-style="normal" font-weight="normal" text-decoration="none" x="789" y="786.5">-idPlat: Integer</text></g></g><g transform="translate(-21,-6) scale(1,1)"><path fill="none" stroke="#000000" d="M 784 776 L 720 776 L 720 832" stroke-miterlimit="10"/></g><g transform="translate(-21,-6) scale(1,1)"><path fill="none" stroke="#000000" d="M 715.790482243984 821.8373251423759 L 720 832 L 724.209517756016 821.8373251423759" stroke-miterlimit="10"/></g><g transform="translate(-21,-6) scale(1,1)"><g><path fill="none" stroke="none"/><text fill="#000000" stroke="none" font-family="Arial" font-size="13px" font-style="normal" font-weight="normal" text-decoration="none" x="766.5" y="792.5">1</text></g></g><g transform="translate(-21,-6) scale(1,1)"><g><path fill="none" stroke="none"/><text fill="#000000" stroke="none" font-family="Arial" font-size="13px" font-style="normal" font-weight="normal" text-decoration="none" x="646.5" y="772.5">+Ingredients</text></g></g><g transform="translate(-21,-6) scale(1,1)"><g><path fill="none" stroke="none"/><text fill="#000000" stroke="none" font-family="Arial" font-size="13px" font-style="normal" font-weight="normal" text-decoration="none" x="697.5" y="816.5">1..*</text></g></g><g transform="translate(-21,-6) scale(1,1)"><path fill="none" stroke="#000000" d="M 840 412 L 840 744" stroke-miterlimit="10"/></g><g transform="translate(-21,-6) scale(1,1)"><path fill="none" stroke="#000000" d="M 835.790482243984 733.8373251423759 L 840 744 L 844.209517756016 733.8373251423759" stroke-miterlimit="10"/></g><g transform="translate(-21,-6) scale(1,1)"><g><path fill="none" stroke="none"/><text fill="#000000" stroke="none" font-family="Arial" font-size="13px" font-style="normal" font-weight="normal" text-decoration="none" x="823.5" y="439.5">1</text></g></g><g transform="translate(-21,-6) scale(1,1)"><g><path fill="none" stroke="none"/><text fill="#000000" stroke="none" font-family="Arial" font-size="13px" font-style="normal" font-weight="normal" text-decoration="none" x="817.5" y="728.5">1..*</text></g></g><g transform="translate(-21,-6) scale(1,1)"><rect fill="#C0C0C0" stroke="none" x="263" y="535" width="134.68359375" height="44" opacity="0.2"/></g><g transform="translate(-21,-6) scale(1,1)"><rect fill="#ffffff" stroke="none" x="256" y="528" width="134.68359375" height="44"/></g><g transform="translate(-21,-6) scale(1,1)"><path fill="none" stroke="#000000" d="M 256 528 L 390.68359375 528 L 390.68359375 572 L 256 572 L 256 528 Z Z" stroke-miterlimit="10"/></g><g transform="translate(-21,-6) scale(1,1)"><path fill="none" stroke="#000000" d="M 256 553 L 390.68359375 553" stroke-miterlimit="10"/></g><g transform="translate(-21,-6) scale(1,1)"><path fill="none" stroke="#000000" d="M 256 563 L 390.68359375 563" stroke-miterlimit="10"/></g><g transform="translate(-21,-6) scale(1,1)"><g><path fill="none" stroke="none"/><text fill="#000000" stroke="none" font-family="Arial" font-size="13px" font-style="normal" font-weight="bold" text-decoration="none" x="264.089599609375" y="547.5">GroupePatientsDAO</text></g></g><g transform="translate(-21,-6) scale(1,1)"><rect fill="#C0C0C0" stroke="none" x="63" y="535" width="105.79541015625" height="44" opacity="0.2"/></g><g transform="translate(-21,-6) scale(1,1)"><rect fill="#ffffff" stroke="none" x="56" y="528" width="105.79541015625" height="44"/></g><g transform="translate(-21,-6) scale(1,1)"><path fill="none" stroke="#000000" d="M 56 528 L 161.79541015625 528 L 161.79541015625 572 L 56 572 L 56 528 Z Z" stroke-miterlimit="10"/></g><g transform="translate(-21,-6) scale(1,1)"><path fill="none" stroke="#000000" d="M 56 553 L 161.79541015625 553" stroke-miterlimit="10"/></g><g transform="translate(-21,-6) scale(1,1)"><path fill="none" stroke="#000000" d="M 56 563 L 161.79541015625 563" stroke-miterlimit="10"/></g><g transform="translate(-21,-6) scale(1,1)"><g><path fill="none" stroke="none"/><text fill="#000000" stroke="none" font-family="Arial" font-size="13px" font-style="normal" font-weight="bold" text-decoration="none" x="63.73095703125" y="547.5">GroupePatients</text></g></g><g transform="translate(-21,-6) scale(1,1)"><path fill="none" stroke="#000000" d="M 255 550 L 163 550" stroke-miterlimit="10"/></g><g transform="translate(-21,-6) scale(1,1)"><path fill="none" stroke="#000000" d="M 173.16267485762415 545.790482243984 L 163 550 L 173.16267485762415 554.209517756016" stroke-miterlimit="10"/></g><g transform="translate(-21,-6) scale(1,1)"><g><path fill="none" stroke="none"/><text fill="#000000" stroke="none" font-family="Arial" font-size="13px" font-style="normal" font-weight="normal" text-decoration="none" x="229.5" y="543.5">1</text></g></g><g transform="translate(-21,-6) scale(1,1)"><g><path fill="none" stroke="none"/><text fill="#000000" stroke="none" font-family="Arial" font-size="13px" font-style="normal" font-weight="normal" text-decoration="none" x="174.5" y="543.5">1..*</text></g></g><g transform="translate(-21,-6) scale(1,1)"><path fill="none" stroke="#000000" d="M 327 413 L 324 527" stroke-miterlimit="10"/></g><g transform="translate(-21,-6) scale(1,1)"><path fill="none" stroke="#000000" d="M 320.0592853332588 516.7301038021151 L 324 527 L 328.4754071800324 516.9515806928197" stroke-miterlimit="10"/></g><g transform="translate(-21,-6) scale(1,1)"><g><path fill="none" stroke="none"/><text fill="#000000" stroke="none" font-family="Arial" font-size="13px" font-style="normal" font-weight="normal" text-decoration="none" x="222.5" y="428.5">+GroupesPatients</text></g></g><g transform="translate(-21,-6) scale(1,1)"><g><path fill="none" stroke="none"/><text fill="#000000" stroke="none" font-family="Arial" font-size="13px" font-style="normal" font-weight="normal" text-decoration="none" x="335.5" y="427.5">1</text></g></g><g transform="translate(-21,-6) scale(1,1)"><g><path fill="none" stroke="none"/><text fill="#000000" stroke="none" font-family="Arial" font-size="13px" font-style="normal" font-weight="normal" text-decoration="none" x="308.641357421875" y="511.5">1</text></g></g><g transform="translate(-21,-6) scale(1,1)"><path fill="none" stroke="#000000" d="M 184 392 L 108 392 L 108 528" stroke-miterlimit="10"/></g><g transform="translate(-21,-6) scale(1,1)"><path fill="none" stroke="#000000" d="M 103.79048224398402 517.8373251423759 L 108 528 L 112.20951775601598 517.8373251423759" stroke-miterlimit="10"/></g><g transform="translate(-21,-6) scale(1,1)"><g><path fill="none" stroke="none"/><text fill="#000000" stroke="none" font-family="Arial" font-size="13px" font-style="normal" font-weight="normal" text-decoration="none" x="30.5" y="387.5">+GrpPatientsSelectionne</text></g></g><g transform="translate(-21,-6) scale(1,1)"><g><path fill="none" stroke="none"/><text fill="#000000" stroke="none" font-family="Arial" font-size="13px" font-style="normal" font-weight="normal" text-decoration="none" x="167.5" y="412.5">1</text></g></g><g transform="translate(-21,-6) scale(1,1)"><g><path fill="none" stroke="none"/><text fill="#000000" stroke="none" font-family="Arial" font-size="13px" font-style="normal" font-weight="normal" text-decoration="none" x="91.641357421875" y="512.5">1</text></g></g><g transform="translate(-21,-6) scale(1,1)"><rect fill="#C0C0C0" stroke="none" x="651" y="527" width="50.919921875" height="44" opacity="0.2"/></g><g transform="translate(-21,-6) scale(1,1)"><rect fill="#ffffff" stroke="none" x="644" y="520" width="50.919921875" height="44"/></g><g transform="translate(-21,-6) scale(1,1)"><path fill="none" stroke="#000000" d="M 644 520 L 694.919921875 520 L 694.919921875 564 L 644 564 L 644 520 Z Z" stroke-miterlimit="10"/></g><g transform="translate(-21,-6) scale(1,1)"><path fill="none" stroke="#000000" d="M 644 545 L 694.919921875 545" stroke-miterlimit="10"/></g><g transform="translate(-21,-6) scale(1,1)"><path fill="none" stroke="#000000" d="M 644 555 L 694.919921875 555" stroke-miterlimit="10"/></g><g transform="translate(-21,-6) scale(1,1)"><g><path fill="none" stroke="none"/><text fill="#000000" stroke="none" font-family="Arial" font-size="13px" font-style="normal" font-weight="bold" text-decoration="none" x="653.200439453125" y="539.5">Menu</text></g></g><g transform="translate(-21,-6) scale(1,1)"><path fill="none" stroke="#000000" d="M 669 413 L 669 519" stroke-miterlimit="10"/></g><g transform="translate(-21,-6) scale(1,1)"><path fill="none" stroke="#000000" d="M 664.790482243984 508.83732514237585 L 669 519 L 673.209517756016 508.83732514237585" stroke-miterlimit="10"/></g><g transform="translate(-21,-6) scale(1,1)"><g><path fill="none" stroke="none"/><text fill="#000000" stroke="none" font-family="Arial" font-size="13px" font-style="normal" font-weight="normal" text-decoration="none" x="669.5" y="428.5">+ListeMenus</text></g></g><g transform="translate(-21,-6) scale(1,1)"><g><path fill="none" stroke="none"/><text fill="#000000" stroke="none" font-family="Arial" font-size="13px" font-style="normal" font-weight="normal" text-decoration="none" x="647.5" y="428.5">1</text></g></g><g transform="translate(-21,-6) scale(1,1)"><g><path fill="none" stroke="none"/><text fill="#000000" stroke="none" font-family="Arial" font-size="13px" font-style="normal" font-weight="normal" text-decoration="none" x="646.5" y="503.5">1..*</text></g></g><g transform="translate(-21,-6) scale(1,1)"><rect fill="#C0C0C0" stroke="none" x="903" y="591" width="50.919921875" height="44" opacity="0.2"/></g><g transform="translate(-21,-6) scale(1,1)"><rect fill="#ffffff" stroke="none" x="896" y="584" width="50.919921875" height="44"/></g><g transform="translate(-21,-6) scale(1,1)"><path fill="none" stroke="#000000" d="M 896 584 L 946.919921875 584 L 946.919921875 628 L 896 628 L 896 584 Z Z" stroke-miterlimit="10"/></g><g transform="translate(-21,-6) scale(1,1)"><path fill="none" stroke="#000000" d="M 896 609 L 946.919921875 609" stroke-miterlimit="10"/></g><g transform="translate(-21,-6) scale(1,1)"><path fill="none" stroke="#000000" d="M 896 619 L 946.919921875 619" stroke-miterlimit="10"/></g><g transform="translate(-21,-6) scale(1,1)"><g><path fill="none" stroke="none"/><text fill="#000000" stroke="none" font-family="Arial" font-size="13px" font-style="normal" font-weight="bold" text-decoration="none" x="910.259521484375" y="603.5">Plat</text></g></g><g transform="translate(-21,-6) scale(1,1)"><rect fill="#C0C0C0" stroke="none" x="895" y="471" width="61.72998046875" height="44" opacity="0.2"/></g><g transform="translate(-21,-6) scale(1,1)"><rect fill="#ffffff" stroke="none" x="888" y="464" width="61.72998046875" height="44"/></g><g transform="translate(-21,-6) scale(1,1)"><path fill="none" stroke="#000000" d="M 888 464 L 949.72998046875 464 L 949.72998046875 508 L 888 508 L 888 464 Z Z" stroke-miterlimit="10"/></g><g transform="translate(-21,-6) scale(1,1)"><path fill="none" stroke="#000000" d="M 888 489 L 949.72998046875 489" stroke-miterlimit="10"/></g><g transform="translate(-21,-6) scale(1,1)"><path fill="none" stroke="#000000" d="M 888 499 L 949.72998046875 499" stroke-miterlimit="10"/></g><g transform="translate(-21,-6) scale(1,1)"><g><path fill="none" stroke="none"/><text fill="#000000" stroke="none" font-family="Arial" font-size="13px" font-style="normal" font-weight="bold" text-decoration="none" x="893.5791015625" y="483.5">PlatDAO</text></g></g><g transform="translate(-21,-6) scale(1,1)"><path fill="none" stroke="#000000" d="M 919 509 L 920 583" stroke-miterlimit="10"/></g><g transform="translate(-21,-6) scale(1,1)"><path fill="none" stroke="#000000" d="M 915.6535456458295 572.8951331257106 L 920 583 L 924.0718125418456 572.7813727622508" stroke-miterlimit="10"/></g><g transform="translate(-21,-6) scale(1,1)"><g><path fill="none" stroke="none"/><text fill="#000000" stroke="none" font-family="Arial" font-size="13px" font-style="normal" font-weight="normal" text-decoration="none" x="902.641357421875" y="524.5">1</text></g></g><g transform="translate(-21,-6) scale(1,1)"><g><path fill="none" stroke="none"/><text fill="#000000" stroke="none" font-family="Arial" font-size="13px" font-style="normal" font-weight="normal" text-decoration="none" x="897.5" y="571.5">1..*</text></g></g><g transform="translate(-21,-6) scale(1,1)"><path fill="none" stroke="#000000" d="M 869 392 L 912 392 L 912 464" stroke-miterlimit="10"/></g><g transform="translate(-21,-6) scale(1,1)"><path fill="none" stroke="#000000" d="M 907.790482243984 453.83732514237585 L 912 464 L 916.209517756016 453.83732514237585" stroke-miterlimit="10"/></g><g transform="translate(-21,-6) scale(1,1)"><g><path fill="none" stroke="none"/><text fill="#000000" stroke="none" font-family="Arial" font-size="13px" font-style="normal" font-weight="normal" text-decoration="none" x="871.5" y="388.5">+ListePlats</text></g></g><g transform="translate(-21,-6) scale(1,1)"><g><path fill="none" stroke="none"/><text fill="#000000" stroke="none" font-family="Arial" font-size="13px" font-style="normal" font-weight="normal" text-decoration="none" x="871.5" y="411.5">1</text></g></g><g transform="translate(-21,-6) scale(1,1)"><g><path fill="none" stroke="none"/><text fill="#000000" stroke="none" font-family="Arial" font-size="13px" font-style="normal" font-weight="normal" text-decoration="none" x="919.5" y="452.5">1</text></g></g></g></svg>