<?xml version="1.0" encoding="UTF-8" standalone="no"?>
<svg
   xmlns:dc="http://purl.org/dc/elements/1.1/"
   xmlns:cc="http://creativecommons.org/ns#"
   xmlns:rdf="http://www.w3.org/1999/02/22-rdf-syntax-ns#"
   xmlns:svg="http://www.w3.org/2000/svg"
   xmlns="http://www.w3.org/2000/svg"
   xmlns:sodipodi="http://sodipodi.sourceforge.net/DTD/sodipodi-0.dtd"
   xmlns:inkscape="http://www.inkscape.org/namespaces/inkscape"
   version="1.1"
   id="svg2"
   viewBox="0 0 583.70741 370.3932"
   height="370.39322"
   width="583.70746"
   inkscape:version="0.91 r13725"
   sodipodi:docname="usine_vitameal.svg">
  <sodipodi:namedview
     pagecolor="#ffffff"
     bordercolor="#666666"
     borderopacity="1"
     objecttolerance="10"
     gridtolerance="10"
     guidetolerance="10"
     inkscape:pageopacity="0"
     inkscape:pageshadow="2"
     inkscape:window-width="1920"
     inkscape:window-height="1017"
     id="namedview221"
     showgrid="false"
     fit-margin-top="10"
     fit-margin-left="10"
     fit-margin-right="10"
     fit-margin-bottom="10"
     inkscape:zoom="1.3117798"
     inkscape:cx="182.43209"
     inkscape:cy="226.28864"
     inkscape:window-x="1358"
     inkscape:window-y="-8"
     inkscape:window-maximized="1"
     inkscape:current-layer="svg2" />
  <defs
     id="defs4">
    <clipPath
       id="clipPath18"
       clipPathUnits="userSpaceOnUse">
      <path
         id="path20"
         d="M 0,2494.84 0,0 l 1804.34,0 0,2494.84 z"
         inkscape:connector-curvature="0" />
    </clipPath>
  </defs>
  <metadata
     id="metadata7">
    <rdf:RDF>
      <cc:Work
         rdf:about="">
        <dc:format>image/svg+xml</dc:format>
        <dc:type
           rdf:resource="http://purl.org/dc/dcmitype/StillImage" />
        <dc:title></dc:title>
      </cc:Work>
    </rdf:RDF>
  </metadata>
  <g
     transform="matrix(1.4687562,0,0,1.4687562,99.68074,-776.9147)"
     id="layer1">
    <g
       transform="matrix(0.37119121,0,0,0.37119121,-37.462537,483.92646)"
       id="g4698">
      <g
         id="g4252"
         transform="matrix(0.80337461,0,0,0.80337461,-321.60003,73.374254)">
        <g
           id="g4146">
          <line
             id="line4148"
             y2="369.38901"
             x2="750.995"
             y1="367.67001"
             x1="529.005"
             style="fill:none;fill-opacity:0;stroke:#000000;stroke-width:10" />
          <polygon
             id="polygon4150"
             points="529.051,361.67 517.005,367.577 528.958,373.67 "
             style="fill:#000000" />
          <polygon
             id="polygon4152"
             points="529.051,361.67 517.005,367.577 528.958,373.67 "
             style="fill:none;fill-opacity:0;stroke:#000000;stroke-width:10" />
          <polygon
             id="polygon4154"
             points="750.949,375.388 762.995,369.481 751.042,363.389 "
             style="fill:#000000" />
          <polygon
             id="polygon4156"
             points="750.949,375.388 762.995,369.481 751.042,363.389 "
             style="fill:none;fill-opacity:0;stroke:#000000;stroke-width:10" />
        </g>
        <text
           id="text4158"
           y="309.14999"
           x="830"
           style="font-style:normal;font-weight:700;font-size:36.12440109px;font-family:monospace;text-anchor:middle;fill:#000000"
           font-size="36.1244">
          <tspan
             id="tspan4160"
             y="309.14999"
             x="830">Git</tspan>
        </text>
        <text
           id="text4162"
           y="289.14999"
           x="1150"
           style="font-style:normal;font-weight:700;font-size:36.12440109px;font-family:monospace;text-anchor:middle;fill:#000000"
           font-size="36.1244">
          <tspan
             id="tspan4164"
             y="289.14999"
             x="1150">GitHub</tspan>
        </text>
        <g
           id="g4166">
          <line
             id="line4168"
             y2="370"
             x2="1051"
             y1="370"
             x1="909.00201"
             style="fill:none;fill-opacity:0;stroke:#000000;stroke-width:10" />
          <polygon
             id="polygon4170"
             points="909.002,364 897.002,370 909.002,376 "
             style="fill:#000000" />
          <polygon
             id="polygon4172"
             points="909.002,364 897.002,370 909.002,376 "
             style="fill:none;fill-opacity:0;stroke:#000000;stroke-width:10" />
          <polygon
             id="polygon4174"
             points="1051,376 1063,370 1051,364 "
             style="fill:#000000" />
          <polygon
             id="polygon4176"
             points="1051,376 1063,370 1051,364 "
             style="fill:none;fill-opacity:0;stroke:#000000;stroke-width:10" />
        </g>
        <text
           id="text4178"
           y="529.15002"
           x="1140"
           style="font-style:normal;font-weight:700;font-size:36.12440109px;font-family:monospace;text-anchor:middle;fill:#000000"
           font-size="36.1244">
          <tspan
             id="tspan4180"
             y="529.15002"
             x="1140">Jenkins</tspan>
        </text>
        <text
           id="text4182"
           y="749.15002"
           x="450"
           style="font-style:normal;font-weight:700;font-size:36.12440109px;font-family:monospace;text-anchor:middle;fill:#000000"
           font-size="36.1244">
          <tspan
             id="tspan4184"
             y="749.15002"
             x="450">GanttProject</tspan>
        </text>
        <text
           id="text4186"
           y="549.15002"
           x="450"
           style="font-style:normal;font-weight:700;font-size:36.12440109px;font-family:monospace;text-anchor:middle;fill:#000000"
           font-size="36.1244">
          <tspan
             id="tspan4188"
             y="549.15002"
             x="450">StarUML</tspan>
        </text>
        <g
           id="g4190">
          <line
             id="line4192"
             y2="621.45398"
             x2="1051.04"
             y1="620.336"
             x1="978.849"
             style="fill:none;fill-opacity:0;stroke:#000000;stroke-width:10" />
          <polygon
             id="polygon4194"
             points="978.942,614.337 966.85,620.15 978.756,626.335 "
             style="fill:#000000" />
          <polygon
             id="polygon4196"
             points="978.942,614.337 966.85,620.15 978.756,626.335 "
             style="fill:none;fill-opacity:0;stroke:#000000;stroke-width:10" />
          <polygon
             id="polygon4198"
             points="1050.94,627.453 1063.04,621.64 1051.13,615.455 "
             style="fill:#000000" />
          <polygon
             id="polygon4200"
             points="1050.94,627.453 1063.04,621.64 1051.13,615.455 "
             style="fill:none;fill-opacity:0;stroke:#000000;stroke-width:10" />
        </g>
        <g
           id="g4202">
          <line
             id="line4204"
             y2="621.24298"
             x2="1331.03"
             y1="622.091"
             x1="1229.01"
             style="fill:none;fill-opacity:0;stroke:#000000;stroke-width:10" />
          <polygon
             id="polygon4206"
             points="1228.96,616.092 1217.01,622.191 1229.06,628.091 "
             style="fill:#000000" />
          <polygon
             id="polygon4208"
             points="1228.96,616.092 1217.01,622.191 1229.06,628.091 "
             style="fill:none;fill-opacity:0;stroke:#000000;stroke-width:10" />
          <polygon
             id="polygon4210"
             points="1331.08,627.242 1343.03,621.143 1330.98,615.243 "
             style="fill:#000000" />
          <polygon
             id="polygon4212"
             points="1331.08,627.242 1343.03,621.143 1330.98,615.243 "
             style="fill:none;fill-opacity:0;stroke:#000000;stroke-width:10" />
        </g>
        <g
           id="g4214">
          <line
             id="line4216"
             y2="602.17401"
             x2="719.64899"
             y1="430.13101"
             x1="522.336"
             style="fill:none;fill-opacity:0;stroke:#000000;stroke-width:10" />
          <polygon
             id="polygon4218"
             points="526.279,425.608 513.291,422.244 518.393,434.653 "
             style="fill:#000000" />
          <polygon
             id="polygon4220"
             points="526.279,425.608 513.291,422.244 518.393,434.653 "
             style="fill:none;fill-opacity:0;stroke:#000000;stroke-width:10" />
          <polygon
             id="polygon4222"
             points="715.706,606.696 728.694,610.06 723.593,597.651 "
             style="fill:#000000" />
          <polygon
             id="polygon4224"
             points="715.706,606.696 728.694,610.06 723.593,597.651 "
             style="fill:none;fill-opacity:0;stroke:#000000;stroke-width:10" />
        </g>
        <g
           id="g4226">
          <path
             id="path4228"
             d="M 1475.19,578.001 A 586.133,586.133 0 0 0 468.843,270.351"
             style="fill:none;fill-opacity:0;stroke:#000000;stroke-width:5"
             inkscape:connector-curvature="0" />
          <polygon
             id="polygon4230"
             points="468.736,270.251 474.128,271.726 463.731,275.837 466.681,265.053 "
             style="fill:#000000" />
          <polygon
             id="polygon4232"
             points="468.736,270.251 474.128,271.726 463.731,275.837 466.681,265.053 "
             style="fill:none;fill-opacity:0;stroke:#000000;stroke-width:5" />
        </g>
        <text
           id="text4238"
           y="309.14999"
           x="450"
           style="font-style:normal;font-weight:700;font-size:36.12440109px;font-family:monospace;text-anchor:middle;fill:#000000"
           font-size="36.1244">
          <tspan
             id="tspan4240"
             y="309.14999"
             x="450">Eclipse</tspan>
        </text>
      </g>
      <g
         transform="matrix(2.94194,0,0,2.9405407,-6.6846433,330.28814)"
         id="layer1-2">
        <g
           transform="translate(-37.041666,-129.64583)"
           id="g3806">
          <path
             d="m 45.956916,148.40847 -4.430183,0 c 0.586581,2.01216 1.675077,3.81556 3.268663,5.40941 2.540529,2.54079 5.595408,3.80947 9.167812,3.80947 0.71411,0 1.405996,-0.0532 2.078037,-0.15452 2.690813,-0.40613 5.046663,-1.62269 7.065169,-3.65495 1.603904,-1.59332 2.700073,-3.39725 3.291152,-5.40941 l -1.797844,0 -2.6289,0 z"
             id="path3"
             style="fill:#2c2255;stroke-width:0.26458332"
             inkscape:connector-curvature="0" />
          <g
             id="g5"
             transform="matrix(0.26458333,0,0,0.26458333,19.201192,44.444158)">
            <path
               d="m 91.891,370.194 -8.747,0 c -0.32,1.922 -0.538,3.884 -0.637,5.896 l 10.396,0 5.215,0 75.275,0 6.871,0 c -0.1,-2.012 -0.318,-3.974 -0.641,-5.896"
               id="path7"
               style="fill:#2c2255"
               inkscape:connector-curvature="0" />
            <path
               d="m 82.507,381.565 c 0.099,2.013 0.316,3.975 0.637,5.896 l 9.094,0 6.893,0 73.648,0 6.846,0 c 0.322,-1.921 0.542,-3.883 0.642,-5.896"
               id="path9"
               style="fill:#2c2255"
               inkscape:connector-curvature="0" />
          </g>
          <path
             d="m 66.398095,140.94246 c -0.59055,-2.01771 -1.686983,-3.82958 -3.291681,-5.43454 -2.013214,-2.01322 -4.36245,-3.22104 -7.044531,-3.62744 -0.678392,-0.10292 -1.377156,-0.1569 -2.098675,-0.1569 -3.572404,0 -6.627548,1.2618 -9.167812,3.78434 -1.594115,1.60496 -2.68314,3.41683 -3.269457,5.43454"
             id="path11"
             style="fill:#2c2255;stroke-width:0.26458332"
             inkscape:connector-curvature="0" />
          <g
             id="g13"
             transform="matrix(0.26458333,0,0,0.26458333,19.201192,44.444158)">
            <path
               d="m 79.6,378.829 c 0,-25.824 19.395,-47.281 44.626,-51.055 -0.626,-0.023 -1.255,-0.048 -1.887,-0.048 -28.314,0 -51.269,22.88 -51.269,51.103 0,28.224 22.954,51.103 51.269,51.103 0.634,0 1.263,-0.024 1.891,-0.047 C 98.995,426.111 79.6,404.654 79.6,378.829 Z"
               id="path15"
               style="fill:#f7941e"
               inkscape:connector-curvature="0" />
          </g>
          <g
             id="g33"
             transform="matrix(0.26458333,0,0,0.26458333,19.201192,44.444158)">
            <linearGradient
               id="SVGID_1_"
               gradientUnits="userSpaceOnUse"
               x1="131.3853"
               y1="358.5762"
               x2="131.3853"
               y2="432.21109"
               gradientTransform="matrix(1,0,0,-1,0,793)">
              <stop
                 offset="0.3033"
                 style="stop-color:#473788"
                 id="stop36" />
              <stop
                 offset="0.872"
                 style="stop-color:#2C2255"
                 id="stop38" />
            </linearGradient>
            <path
               d="m 164.653,376.089 c -0.164,-2.021 -0.504,-3.992 -1.012,-5.896 l -64.51,0 c -0.508,1.903 -0.849,3.874 -1.013,5.896 z"
               id="path40"
               style="fill:url(#SVGID_1_)"
               inkscape:connector-curvature="0" />
            <linearGradient
               id="SVGID_2_"
               gradientUnits="userSpaceOnUse"
               x1="131.3853"
               y1="358.5752"
               x2="131.3853"
               y2="432.21011"
               gradientTransform="matrix(1,0,0,-1,0,793)">
              <stop
                 offset="0.3033"
                 style="stop-color:#473788"
                 id="stop43" />
              <stop
                 offset="0.872"
                 style="stop-color:#2C2255"
                 id="stop45" />
            </linearGradient>
            <path
               d="m 164.653,381.565 -66.534,0 c 0.164,2.021 0.503,3.992 1.012,5.896 l 64.511,0 c 0.508,-1.904 0.847,-3.875 1.011,-5.896 z"
               id="path47"
               style="fill:url(#SVGID_2_)"
               inkscape:connector-curvature="0" />
            <linearGradient
               id="SVGID_3_"
               gradientUnits="userSpaceOnUse"
               x1="131.3853"
               y1="358.57709"
               x2="131.3853"
               y2="432.2084"
               gradientTransform="matrix(1,0,0,-1,0,793)">
              <stop
                 offset="0.3033"
                 style="stop-color:#473788"
                 id="stop50" />
              <stop
                 offset="0.8631"
                 style="stop-color:#2C2255"
                 id="stop52" />
            </linearGradient>
            <path
               d="m 131.386,412.217 c 13.397,0 24.945,-7.893 30.263,-19.281 l -60.526,0 c 5.318,11.388 16.866,19.281 30.263,19.281 z"
               id="path54"
               style="fill:url(#SVGID_3_)"
               inkscape:connector-curvature="0" />
          </g>
          <g
             id="g56"
             transform="matrix(0.26458333,0,0,0.26458333,19.201192,44.444158)">
            <path
               d="m 93.188,381.565 4.884,0 66.706,0 8.763,0 6.657,0 c 0.046,-0.871 0.072,-1.748 0.072,-2.631 0,-0.955 -0.035,-1.902 -0.089,-2.845 l -6.641,0 -8.763,0 -66.706,0 -5.229,0 -10.335,0 c -0.054,0.942 -0.089,1.89 -0.089,2.845 0,0.883 0.026,1.76 0.072,2.631 z"
               id="path58"
               style="fill:#ffffff"
               inkscape:connector-curvature="0" />
            <path
               d="m 100.928,364.718 -16.552,0 c -0.544,1.783 -0.895,3.612 -1.232,5.476 l 8.525,0 7.259,0 64.679,0 9.16,0 6.547,0 c -0.338,-1.863 -0.773,-3.692 -1.316,-5.476"
               id="path60"
               style="fill:#ffffff"
               inkscape:connector-curvature="0" />
            <path
               d="m 173.026,387.46 -9.16,0 -64.678,0 -6.912,0 -9.133,0 c 0.328,1.863 0.701,3.691 1.236,5.476 l 16.807,0 60.682,0 9.962,0 6.488,0 c 0.534,-1.784 0.965,-3.612 1.294,-5.476 z"
               id="path62"
               style="fill:#ffffff"
               inkscape:connector-curvature="0" />
          </g>
        </g>
      </g>
      <g
         id="layer1-7"
         transform="matrix(0.62617796,0,0,0.62617796,-20.440597,650.15396)">
        <g
           id="g4554">
          <rect
             transform="matrix(0.5,-0.8660254,0.8660254,0.5,0,0)"
             ry="0"
             y="142.94049"
             x="-76.437485"
             height="22.772579"
             width="22.772579"
             id="rect4496"
             style="fill:#ffbe00;fill-opacity:1;fill-rule:nonzero;stroke:none;stroke-width:0.90373069;stroke-linecap:square;stroke-linejoin:miter;stroke-miterlimit:4;stroke-dasharray:none;stroke-opacity:1;paint-order:normal" />
          <rect
             transform="matrix(0.5,-0.8660254,0.8660254,0.5,0,0)"
             ry="0"
             y="143.29224"
             x="-51.061344"
             height="22.772579"
             width="22.772579"
             id="rect4496-3"
             style="fill:#ffbe00;fill-opacity:1;fill-rule:nonzero;stroke:none;stroke-width:0.90373069;stroke-linecap:square;stroke-linejoin:miter;stroke-miterlimit:4;stroke-dasharray:none;stroke-opacity:1;paint-order:normal" />
          <path
             id="path4540"
             d="m 113.8214,209.26047 c -2.60369,-5.48685 -3.98044,-22.18605 -3.04713,-36.96005 0.92766,-14.68477 2.34339,-21.20459 7.07098,-32.56384 8.05556,-19.35553 24.6124,-44.633916 29.19755,-44.577751 1.42827,0.01749 5.00597,1.768052 6.92561,3.388674 2.58033,2.178397 5.34961,6.720457 6.25378,10.257177 0.44718,1.74922 1.08909,5.70608 1.42646,8.79305 0.62769,5.74346 0.8095,32.45741 0.27648,40.62496 -0.16308,2.49897 -0.55808,8.63281 -0.87777,13.63075 -0.47515,7.42828 -0.77417,9.40207 -1.63801,10.81217 -2.30584,3.76396 -10.94887,10.54339 -21.91167,17.18709 -8.30395,5.03238 -20.32378,11.28936 -21.68717,11.28936 -0.72857,0 -1.3957,-0.63107 -1.98911,-1.88159 z"
             style="fill:#999999;fill-opacity:1;fill-rule:nonzero;stroke:none;stroke-width:1.51522875;stroke-linecap:square;stroke-linejoin:miter;stroke-miterlimit:4;stroke-dasharray:none;stroke-opacity:1;paint-order:normal"
             inkscape:connector-curvature="0" />
          <path
             id="path4542"
             d="m 81.057904,183.09096 c -4.306014,-1.21264 -8.054567,-3.32694 -11.240296,-6.33987 -4.905343,-4.63926 -7.432117,-10.26116 -7.975282,-17.74443 l -0.31169,-4.29415 10.460847,-6.26831 10.460844,-6.2683 10.190134,5.92628 10.190129,5.92628 0,11.921 0,11.92099 -2.80633,1.92131 c -1.54348,1.05672 -3.88877,2.30974 -5.211753,2.7845 -3.41489,1.22545 -10.315935,1.48365 -13.756603,0.5147 z"
             style="fill:#ffbe00;fill-opacity:1;fill-rule:nonzero;stroke:none;stroke-width:1.51522875;stroke-linecap:square;stroke-linejoin:miter;stroke-miterlimit:4;stroke-dasharray:none;stroke-opacity:1;paint-order:normal"
             inkscape:connector-curvature="0" />
          <path
             id="path4544"
             d="m 28.271223,162.51006 c -1.364374,-2.2076 -2.359776,-30.78528 -1.387483,-39.83421 1.330203,-12.37993 1.645693,-12.93796 11.234314,-19.87123 23.429391,-16.94115 44.972639,-29.827665 54.490561,-32.594598 5.457973,-1.586677 13.598275,0.05212 16.709585,3.36396 2.43909,2.596293 0.95423,8.169265 -6.03278,22.642187 -7.207615,14.929891 -15.296795,27.606651 -22.966383,35.991171 -7.721354,8.44113 -22.433444,18.84335 -36.820279,26.03388 -8.331742,4.1642 -14.264338,5.82732 -15.227535,4.26884 z"
             style="fill:#999999;fill-opacity:1;fill-rule:nonzero;stroke:none;stroke-width:1.51522875;stroke-linecap:square;stroke-linejoin:miter;stroke-miterlimit:4;stroke-dasharray:none;stroke-opacity:1;paint-order:normal"
             inkscape:connector-curvature="0" />
          <path
             id="path4546"
             d="m 121.54146,99.911081 c -4.55695,-2.650607 -8.62196,-5.016916 -9.03336,-5.258467 -0.60035,-0.352486 -0.3626,-1.07364 1.20435,-3.653121 6.51493,-10.724718 6.49501,-16.851722 -0.0683,-21.014057 l -2.3846,-1.512276 2.72603,-2.65524 c 9.37176,-9.128379 24.71698,-8.340455 34.15984,1.753992 5.60094,5.987415 7.85824,13.072329 6.5974,20.707011 -0.34721,2.102437 -0.74418,4.005268 -0.88215,4.228513 -0.13798,0.223245 -1.51281,-0.289862 -3.05519,-1.140235 -6.38871,-3.522345 -10.69065,-1.558454 -16.70234,7.624828 -2.05797,3.143701 -3.86203,5.720891 -4.00903,5.727081 -0.147,0.006 -3.99568,-2.15742 -8.55263,-4.808029 z"
             style="fill:#ffbe00;fill-opacity:1;fill-rule:nonzero;stroke:none;stroke-width:1.51522875;stroke-linecap:square;stroke-linejoin:miter;stroke-miterlimit:4;stroke-dasharray:none;stroke-opacity:1;paint-order:normal"
             inkscape:connector-curvature="0" />
        </g>
      </g>
      <g
         id="g4386"
         transform="matrix(0.92503414,0,0,0.92503414,297.56263,319.35126)">
        <path
           id="path4388"
           d="m 92.71,50.87577 -40.119,-40.117 c -2.31,-2.3109997 -6.057,-2.3109997 -8.369,0 l -8.33,8.332 10.567,10.567 c 2.456,-0.83 5.272,-0.273 7.229,1.685 1.969,1.97 2.521,4.81 1.67,7.275 l 10.186,10.185 c 2.465,-0.85 5.307,-0.3 7.275,1.671 2.75,2.75 2.75,7.206 0,9.958 -2.752,2.751 -7.208,2.751 -9.961,0 -2.068,-2.07 -2.58,-5.11 -1.531,-7.658 l -9.5,-9.499 0,24.997 c 0.67,0.332 1.303,0.774 1.861,1.332 2.75,2.75 2.75,7.206 0,9.959 -2.75,2.749 -7.209,2.749 -9.957,0 -2.75,-2.754 -2.75,-7.21 0,-9.959 0.68,-0.679 1.467,-1.193 2.307,-1.537 l 0,-25.23 c -0.84,-0.344 -1.625,-0.853 -2.307,-1.537 -2.083,-2.082 -2.584,-5.14 -1.516,-7.698 l -10.417,-10.419 -27.51,27.507 c -2.311,2.313 -2.311,6.06 0,8.371 l 40.121,40.118 c 2.31,2.311 6.056,2.311 8.369,0 l 39.932,-39.932 c 2.311,-2.311 2.311,-6.06 0,-8.371 z"
           style="fill:#f05133"
           inkscape:connector-curvature="0" />
      </g>
      <g
         id="g4439"
         transform="matrix(0.19382231,0,0,0.19382231,552.97004,331.98472)">
        <g
           id="g4399">
          <path
             id="path4401"
             d="m 397.62898,114.573 c -19.608,-33.596 -46.205,-60.194 -79.798,-79.8 -33.598,-19.607 -70.277,-29.408 -110.063,-29.408 -39.781,0 -76.472,9.804 -110.063004,29.408 -33.596,19.605 -60.192,46.204 -79.8,79.8 -19.6049999,33.595 -29.408,70.281 -29.408,110.057 0,47.78 13.9400001,90.745 41.827,128.906 27.884,38.164 63.906,64.572 108.063004,79.227 5.14,0.954 8.945,0.283 11.419,-1.996 2.475,-2.282 3.711,-5.14 3.711,-8.562 0,-0.571 -0.049,-5.708 -0.144,-15.417 -0.098,-9.709 -0.144,-18.179 -0.144,-25.406 l -6.567,1.136 c -4.187,0.767 -9.469,1.092 -15.846,1 -6.374,-0.089 -12.991,-0.757 -19.842,-1.999 -6.854,-1.231 -13.229004,-4.086 -19.130004,-8.559 -5.898,-4.473 -10.085,-10.328 -12.56,-17.556 l -2.855,-6.57 c -1.903,-4.374 -4.899,-9.233 -8.992,-14.559 -4.093,-5.331 -8.232,-8.945 -12.419,-10.848 l -1.999,-1.431 c -1.332,-0.951 -2.568,-2.098 -3.711,-3.429 -1.142,-1.331 -1.997,-2.663 -2.568,-3.997 -0.572,-1.335 -0.098,-2.43 1.427,-3.289 1.525,-0.859 4.281,-1.276 8.28,-1.276 l 5.708,0.853 c 3.807,0.763 8.516,3.042 14.133,6.851 5.614,3.806 10.229,8.754 13.846,14.842 4.38,7.806 9.657,13.754 15.846004,17.847 6.184,4.093 12.419,6.136 18.699,6.136 6.28,0 11.704,-0.476 16.274,-1.423 4.565,-0.952 8.848,-2.383 12.847,-4.285 1.713,-12.758 6.377,-22.559 13.988,-29.41 -10.848,-1.14 -20.601,-2.857 -29.264,-5.14 -8.658,-2.286 -17.605,-5.996 -26.835,-11.14 -9.235,-5.137 -16.896004,-11.516 -22.985004,-19.126 -6.09,-7.614 -11.088,-17.61 -14.987,-29.979 -3.901,-12.374 -5.852,-26.648 -5.852,-42.826 0,-23.035 7.52,-42.637 22.557,-58.817 -7.044,-17.318 -6.379,-36.732 1.997,-58.24 5.52,-1.715 13.706004,-0.428 24.554004,3.853 10.85,4.283 18.794,7.952 23.84,10.994 5.046,3.041 9.089,5.618 12.135,7.708 17.705,-4.947 35.976,-7.421 54.818,-7.421 18.842,0 37.117,2.474 54.823,7.421 l 10.849,-6.849 c 7.419,-4.57 16.18,-8.758 26.262,-12.565 10.088,-3.805 17.802,-4.853 23.134,-3.138 8.562,21.509 9.325,40.922 2.279,58.24 15.036,16.18 22.559,35.787 22.559,58.817 0,16.178 -1.958,30.497 -5.853,42.966 -3.9,12.471 -8.941,22.457 -15.125,29.979 -6.191,7.521 -13.901,13.85 -23.131,18.986 -9.232,5.14 -18.182,8.85 -26.84,11.136 -8.662,2.286 -18.415,4.004 -29.263,5.146 9.894,8.562 14.842,22.077 14.842,40.539 l 0,60.237 c 0,3.422 1.19,6.279 3.572,8.562 2.379,2.279 6.136,2.95 11.276,1.995 44.163,-14.653 80.185,-41.062 108.068,-79.226 27.88,-38.161 41.825,-81.126 41.825,-128.906 -0.01,-39.771 -9.818,-76.454 -29.414,-110.049 z"
             inkscape:connector-curvature="0" />
        </g>
        <g
           id="g4403" />
        <g
           id="g4405" />
        <g
           id="g4407" />
        <g
           id="g4409" />
        <g
           id="g4411" />
        <g
           id="g4413" />
        <g
           id="g4415" />
        <g
           id="g4417" />
        <g
           id="g4419" />
        <g
           id="g4421" />
        <g
           id="g4423" />
        <g
           id="g4425" />
        <g
           id="g4427" />
        <g
           id="g4429" />
        <g
           id="g4431" />
      </g>
      <g
         id="g4483"
         transform="matrix(0.55330984,0,0,0.5533098,-6.3501923,528.92225)">
        <g
           id="layer1-1"
           style="display:inline"
           transform="translate(-27.927817,-67.473479)" />
        <g
           id="layer2"
           style="display:inline"
           transform="translate(-27.927817,-67.473479)">
          <g
             id="g4732"
             transform="translate(6.4255952,-0.75595238)">
            <path
               style="display:inline;fill:none;stroke:#000000;stroke-width:0.75;stroke-miterlimit:4;stroke-dasharray:none;stroke-opacity:1"
               d="m 152.87816,222.16454 -49.86422,-23.51362 -49.74293,23.76911 6.953889,-54.6898 -37.977174,-39.96328 54.161953,-10.28653 26.271752,-48.467774 26.52004,48.332364 54.214,10.00855 -37.77167,40.15758 z"
               id="path3829"
               inkscape:connector-curvature="0" />
            <path
               id="path4642"
               d="M 145.6438,167.51114 22.247724,127.76695"
               style="display:inline;fill:none;stroke:#000000;stroke-width:0.75;stroke-linecap:butt;stroke-linejoin:miter;stroke-miterlimit:4;stroke-dasharray:none;stroke-opacity:1"
               inkscape:connector-curvature="0" />
            <g
               id="g4711">
              <path
                 style="display:inline;fill:none;stroke:#000000;stroke-width:0.75;stroke-linecap:butt;stroke-linejoin:miter;stroke-miterlimit:4;stroke-dasharray:none;stroke-opacity:1"
                 d="m 102.68142,69.012646 0.33252,129.638274"
                 id="path4638"
                 inkscape:connector-curvature="0" />
              <path
                 style="display:inline;fill:none;stroke:#000000;stroke-width:0.75;stroke-linecap:butt;stroke-linejoin:miter;stroke-miterlimit:4;stroke-dasharray:none;stroke-opacity:1"
                 d="M 129.20146,117.34501 53.271009,222.42002"
                 id="path4640"
                 inkscape:connector-curvature="0" />
              <path
                 style="display:inline;fill:none;stroke:#000000;stroke-width:0.75;stroke-linecap:butt;stroke-linejoin:miter;stroke-miterlimit:4;stroke-dasharray:none;stroke-opacity:1"
                 d="M 183.41547,127.35356 60.224899,167.73023"
                 id="path4644"
                 inkscape:connector-curvature="0" />
              <path
                 style="display:inline;fill:none;stroke:#000000;stroke-width:0.75;stroke-linecap:butt;stroke-linejoin:miter;stroke-miterlimit:4;stroke-dasharray:none;stroke-opacity:1"
                 d="M 152.87815,222.16454 76.409676,117.48042"
                 id="path4646"
                 inkscape:connector-curvature="0" />
              <path
                 style="fill:#ffb900;fill-opacity:1;fill-rule:nonzero;stroke:none;stroke-width:3.77952766;stroke-linecap:square;stroke-linejoin:miter;stroke-miterlimit:4;stroke-dasharray:none;stroke-opacity:1;paint-order:normal"
                 d="m 339.0036,511.23803 c -26.80724,-36.69024 -48.59885,-67.29114 -48.4258,-68.002 0.17306,-0.71085 21.90666,-41.10733 48.29689,-89.76995 l 47.98225,-88.47748 0.65119,156.2496 c 0.35815,85.93727 0.55775,156.35305 0.44355,156.47948 -0.1142,0.12643 -22.14083,-29.78941 -48.94808,-66.47965 z"
                 id="path4648"
                 transform="scale(0.26458333,0.26458333)"
                 inkscape:connector-curvature="0" />
              <path
                 style="fill:#980f39;fill-opacity:1;fill-rule:nonzero;stroke:none;stroke-width:27.10708618;stroke-linecap:butt;stroke-linejoin:miter;stroke-miterlimit:4;stroke-dasharray:none;stroke-opacity:1;paint-order:normal"
                 d="m 389.16594,432.28785 c -0.19349,-80.65019 -0.27852,-151.49946 -0.18896,-157.44281 l 0.16282,-10.80609 48.9924,89.32136 c 26.94582,49.12675 48.97485,89.67312 48.95339,90.10307 -0.0303,0.60879 -95.52436,133.32521 -97.16879,135.04405 -0.2195,0.22942 -0.55738,-65.56939 -0.75086,-146.21958 z"
                 id="path4650"
                 transform="scale(0.26458333,0.26458333)"
                 inkscape:connector-curvature="0" />
              <path
                 style="fill:#e53059;fill-opacity:1;fill-rule:nonzero;stroke:none;stroke-width:0.75590551;stroke-linecap:butt;stroke-linejoin:miter;stroke-miterlimit:4;stroke-dasharray:none;stroke-opacity:1;paint-order:normal"
                 d="m 390.90757,579.57027 c 0,-0.13031 97.39309,-135.1099 97.67851,-135.37514 0.0908,-0.0844 200.52683,36.98855 201.20145,37.2145 0.34784,0.1165 -60.33707,20.19686 -134.85536,44.62303 -161.1623,52.82699 -164.0246,53.76124 -164.0246,53.53761 z"
                 id="path4652"
                 transform="scale(0.26458333,0.26458333)"
                 inkscape:connector-curvature="0" />
              <path
                 style="fill:#838383;fill-opacity:1;fill-rule:nonzero;stroke:none;stroke-width:0.75590551;stroke-linecap:butt;stroke-linejoin:miter;stroke-miterlimit:4;stroke-dasharray:none;stroke-opacity:1;paint-order:normal"
                 d="m 470.37514,606.71321 c -43.6584,-14.07585 -79.11475,-25.6902 -78.79189,-25.80965 3.65185,-1.35119 298.62766,-97.86827 298.75243,-97.75281 0.21682,0.20062 -139.96325,149.24911 -140.31794,149.19508 -0.14503,-0.0221 -35.98419,-11.55677 -79.6426,-25.63262 z"
                 id="path4654"
                 transform="scale(0.26458333,0.26458333)"
                 inkscape:connector-curvature="0" />
              <path
                 style="fill:#c0c0c0;fill-opacity:1;fill-rule:nonzero;stroke:none;stroke-width:27.10708618;stroke-linecap:butt;stroke-linejoin:miter;stroke-miterlimit:4;stroke-dasharray:none;stroke-opacity:1;paint-order:normal"
                 d="M 483.71432,709.78572 C 432.66949,639.90078 390.9678,582.65993 391.04389,582.58384 c 0.11225,-0.11225 158.51502,50.75704 158.79246,50.99443 0.16322,0.13967 26.94674,203.01933 26.81837,203.14359 -0.0724,0.0701 -41.89557,-57.0512 -92.9404,-126.93614 z"
                 id="path4656"
                 transform="scale(0.26458333,0.26458333)"
                 inkscape:connector-curvature="0" />
              <path
                 style="fill:#29006a;fill-opacity:1;fill-rule:nonzero;stroke:none;stroke-width:0.75590551;stroke-linecap:butt;stroke-linejoin:miter;stroke-miterlimit:4;stroke-dasharray:none;stroke-opacity:1;paint-order:normal"
                 d="m 482.28087,793.94034 -92.22193,-43.49393 -0.3002,-83.39114 c -0.16512,-45.86513 -0.22767,-83.46369 -0.13899,-83.55236 0.0887,-0.0887 41.70249,56.72836 92.47517,126.26007 50.77267,69.53171 92.53338,126.7054 92.80157,127.05264 0.26818,0.34724 0.28931,0.62848 0.047,0.62499 -0.24236,-0.004 -41.94052,-19.57861 -92.66257,-43.50027 z"
                 id="path4658"
                 transform="scale(0.26458333,0.26458333)"
                 inkscape:connector-curvature="0" />
              <path
                 style="fill:#8e59e9;fill-opacity:1;fill-rule:nonzero;stroke:none;stroke-width:27.10708618;stroke-linecap:butt;stroke-linejoin:miter;stroke-miterlimit:4;stroke-dasharray:none;stroke-opacity:1;paint-order:normal"
                 d="m 204.0867,838.1175 c 0.10735,-0.27532 41.56093,-57.73511 92.11907,-127.68843 l 91.92388,-127.18784 0.32309,83.54003 c 0.1777,45.94702 0.29134,83.5732 0.25254,83.61372 -0.11601,0.12115 -183.35346,87.65181 -184.1135,87.94915 -0.38515,0.15067 -0.61243,0.0487 -0.50508,-0.22663 z"
                 id="path4660"
                 transform="scale(0.26458333,0.26458333)"
                 inkscape:connector-curvature="0" />
              <path
                 style="fill:#fee250;fill-opacity:1;fill-rule:nonzero;stroke:none;stroke-width:2.83464575;stroke-linecap:butt;stroke-linejoin:miter;stroke-miterlimit:4;stroke-dasharray:none;stroke-opacity:1;paint-order:normal"
                 d="m 202.51412,836.95637 c 0,-1.58724 25.29948,-200.37774 25.63971,-201.46385 0.33722,-1.07649 7.7074,-3.59137 79.41615,-27.09861 43.47444,-14.25159 79.11112,-25.84852 79.19262,-25.77096 0.14246,0.13559 -182.83593,253.56538 -183.78446,254.54622 -0.28966,0.29952 -0.46402,0.21956 -0.46402,-0.2128 z"
                 id="path4662"
                 transform="scale(0.26458333,0.26458333)"
                 inkscape:connector-curvature="0" />
              <path
                 style="fill:#ffb900;fill-opacity:1;fill-rule:nonzero;stroke:none;stroke-width:27.10708618;stroke-linecap:butt;stroke-linejoin:miter;stroke-miterlimit:4;stroke-dasharray:none;stroke-opacity:1;paint-order:normal"
                 d="m 158.23202,560.00505 c -38.28693,-40.28322 -69.683687,-73.64874 -69.77057,-74.14561 -0.134214,-0.76754 0.05567,-0.84067 1.262691,-0.48635 2.186033,0.64172 296.877319,95.58605 296.985119,95.68336 0.0522,0.0471 -24.49455,8.13871 -54.54824,17.98139 -30.05369,9.84267 -65.81957,21.56635 -79.47974,26.0526 l -24.83666,8.15684 z"
                 id="path4664"
                 transform="scale(0.26458333,0.26458333)"
                 inkscape:connector-curvature="0" />
              <path
                 style="fill:#fee250;fill-opacity:1;fill-rule:nonzero;stroke:none;stroke-width:0.75590551;stroke-linecap:butt;stroke-linejoin:miter;stroke-miterlimit:4;stroke-dasharray:none;stroke-opacity:1;paint-order:normal"
                 d="M 259.91931,538.93166 C 191.1658,516.74903 124.04528,495.10217 110.76258,490.82753 l -24.150345,-7.77207 2.937146,-0.56927 c 1.615431,-0.3131 46.689379,-8.8662 100.164329,-19.00689 53.47495,-10.14069 97.57617,-18.51978 98.00271,-18.6202 0.53425,-0.12579 15.85473,20.45509 49.24493,66.15354 26.65818,36.48487 48.78125,66.7933 49.16237,67.35206 0.61706,0.90468 0.58941,1.00953 -0.25254,0.95747 -0.52002,-0.0322 -57.19836,-18.20789 -125.95187,-40.39051 z"
                 id="path4668"
                 transform="scale(0.26458333,0.26458333)"
                 inkscape:connector-curvature="0" />
            </g>
          </g>
        </g>
      </g>
      <g
         id="layer1-10"
         style="display:inline"
         transform="matrix(1.1807492,0,0,1.1807493,769.83901,530.88825)">
        <flowRoot
           transform="matrix(0.26458333,0,0,0.26458333,2.2829492,30.494084)"
           style="font-style:normal;font-weight:normal;font-size:40px;line-height:1.25;font-family:sans-serif;letter-spacing:0px;word-spacing:0px;fill:#000000;fill-opacity:1;stroke:none"
           id="flowRoot4496"
           xml:space="preserve"><flowRegion
             id="flowRegion4498"><rect
               y="545.37683"
               x="232.85715"
               height="87.14286"
               width="347.14285"
               id="rect4500" /></flowRegion><flowPara
             id="flowPara4502" /></flowRoot>        <flowRoot
           transform="matrix(0.26458333,0,0,0.26458333,2.2829492,30.494084)"
           style="font-style:normal;font-weight:normal;font-size:40px;line-height:1.25;font-family:sans-serif;letter-spacing:0px;word-spacing:0px;fill:#000000;fill-opacity:1;stroke:none"
           id="flowRoot4512"
           xml:space="preserve"><flowRegion
             id="flowRegion4514"><rect
               y="569.66254"
               x="217.14285"
               height="91.428574"
               width="331.42856"
               id="rect4516" /></flowRegion><flowPara
             id="flowPara4518" /></flowRoot>        <g
           id="g4544"
           transform="translate(-11.339286,-168.57738)">
          <text
             xml:space="preserve"
             style="font-style:normal;font-weight:normal;font-size:10.58333302px;line-height:1.25;font-family:sans-serif;letter-spacing:0px;word-spacing:0px;fill:#000000;fill-opacity:1;stroke:none;stroke-width:0.26458332"
             x="12.488303"
             y="212.21135"
             id="text4526"><tspan
               id="tspan4524"
               x="12.488303"
               y="212.21135"
               style="font-style:normal;font-variant:normal;font-weight:bold;font-stretch:normal;font-size:25.39999962px;font-family:sans-serif;-inkscape-font-specification:'sans-serif, Bold';text-align:start;writing-mode:lr-tb;text-anchor:start;stroke-width:0.26458332">SonarQube</tspan></text>
          <path
             style="fill:none;stroke:#51cfea;stroke-width:2.5;stroke-linecap:round;stroke-linejoin:miter;stroke-miterlimit:4;stroke-dasharray:none;stroke-opacity:1"
             d="m 124.37386,190.78337 c 19.68888,-18.71506 62.86063,-7.09974 53.57813,34.49033"
             id="path4532"
             inkscape:connector-curvature="0" />
          <path
             style="fill:none;stroke:#51cfea;stroke-width:2.5;stroke-linecap:round;stroke-linejoin:miter;stroke-miterlimit:4;stroke-dasharray:none;stroke-opacity:1"
             d="m 152.3441,176.51476 c 12.3897,0.38794 21.8683,6.77548 27.59226,16.34747"
             id="path4551"
             inkscape:connector-curvature="0" />
          <path
             style="fill:none;stroke:#51cfea;stroke-width:2.5;stroke-linecap:round;stroke-linejoin:miter;stroke-miterlimit:4;stroke-dasharray:none;stroke-opacity:1"
             d="m 163.30541,172.16804 c 5.71676,2.30743 11.18181,4.99242 15.40253,9.5439"
             id="path4553"
             inkscape:connector-curvature="0" />
        </g>
      </g>
      <g
         transform="matrix(4.6864325,0,0,4.6864327,-8.1067797,-595.22712)"
         id="layer1-0">
        <g
           transform="translate(51.762404,21.581336)"
           id="layer1-1-2">
          <g
             id="g4491"
             font-weight="bold"
             font-style="oblique"
             transform="matrix(0.10804782,0,0,0.10804782,0.74041445,220.66764)"
             style="font-style:oblique;font-weight:bold;font-family:Verdana">
            <g
               id="g4516">
              <g
                 id="g4549">
                <g
                   aria-label="m"
                   transform="scale(0.943,1.06)"
                   style="font-size:96px"
                   id="text4485">
                  <path
                     d="m 178.79687,35.078125 q 0,1.453125 -0.23437,3.140625 -0.1875,1.6875 -0.60938,3.515625 L 170.03125,76 l -17.0625,0 6.09375,-26.296875 q 0.60937,-2.71875 1.07812,-5.203125 0.51563,-2.484375 0.51563,-4.03125 0,-2.71875 -1.5,-3.984375 -1.5,-1.265625 -5.34375,-1.265625 -1.82813,0 -4.17188,0.890625 -2.29687,0.84375 -5.57812,2.578125 L 135.4375,76 118.375,76 124.46875,49.703125 q 0.51563,-2.296875 1.03125,-4.96875 0.51563,-2.671875 0.51563,-4.078125 0,-2.859375 -1.45313,-4.125 -1.40625,-1.3125 -5.29687,-1.3125 -2.01563,0 -4.40625,0.9375 -2.39063,0.9375 -5.39063,2.53125 L 100.84375,76 83.875,76 96.0625,23.359375 l 16.96875,0 -1.35937,5.8125 q 5.15625,-3.421875 9.28125,-5.34375 4.17187,-1.921875 8.99999,-1.921875 5.20313,0 8.76563,2.34375 3.5625,2.296875 4.96875,6.796875 6.28125,-4.546875 11.25,-6.84375 4.96875,-2.296875 9.60937,-2.296875 6.9375,0 10.59375,3.421875 3.65625,3.421875 3.65625,9.75 z"
                     style="font-size:96px"
                     id="path4539"
                     inkscape:connector-curvature="0" />
                </g>
                <g
                   aria-label="aven"
                   style="font-size:80px;word-spacing:0"
                   id="text4489">
                  <path
                     d="m 205.92969,59.296875 q -3.75,0.3125 -7.03125,0.742187 -3.28125,0.429688 -5.58594,1.25 -2.38281,0.859375 -3.63281,2.421875 -1.25,1.5625 -1.25,4.140625 0,2.265625 1.64062,3.203125 1.67969,0.898438 4.84375,0.898438 2.07031,0 4.41406,-0.9375 2.38282,-0.976563 4.45313,-2.460938 z m -3.71094,16.054687 q -1.32813,0.859375 -3.20313,2.070313 -1.875,1.210937 -3.47656,1.914062 -2.1875,0.898438 -4.10156,1.367188 -1.91406,0.46875 -5.3125,0.46875 -5.46875,0 -8.94531,-3.046875 -3.4375,-3.085938 -3.4375,-8.007813 0,-5.195312 2.46093,-8.789062 2.46094,-3.632813 7.30469,-5.78125 4.53125,-2.03125 10.78125,-2.929688 6.28906,-0.898437 13.59375,-1.328125 0.0391,-0.234375 0.15625,-0.742187 0.11719,-0.546875 0.11719,-1.210938 0,-2.773437 -2.57813,-3.867187 -2.57812,-1.132813 -7.69531,-1.132813 -3.47656,0 -7.69531,1.171875 -4.17969,1.171875 -6.28906,1.953125 l -1.28907,0 2.07032,-10.390625 q 2.46093,-0.625 7.61718,-1.40625 5.15625,-0.78125 10.27344,-0.78125 10.3125,0 15.11719,2.695313 4.84375,2.695312 4.84375,8.359375 0,0.78125 -0.15625,2.03125 -0.11719,1.25 -0.35156,2.1875 L 215.14844,80 201.16406,80 Z"
                     style="fill:#ff6804"
                     id="path4530"
                     inkscape:connector-curvature="0" />
                  <path
                     d="M 281.86719,36.132812 254.79687,80 l -16.01562,0 -6.64063,-43.867188 14.49219,0 3.20313,30.195313 L 266.75,36.132812 Z"
                     style="font-size:80px;word-spacing:0"
                     id="path4532-8"
                     inkscape:connector-curvature="0" />
                  <path
                     d="m 315.38281,52.421875 q 0.11719,-0.703125 0.15625,-1.289063 0.0781,-0.585937 0.0781,-1.210937 0,-3.085938 -1.91407,-4.726563 -1.91406,-1.640625 -5.50781,-1.640625 -4.33594,0 -7.30469,2.34375 -2.92968,2.34375 -4.45312,6.523438 z m -10.74219,28.75 q -11.21093,0 -17.30468,-4.960938 Q 281.24219,71.25 281.24219,62.5 q 0,-5.976563 1.99218,-10.976563 1.99219,-5 5.74219,-8.789062 3.59375,-3.671875 8.98438,-5.820313 5.39062,-2.148437 11.83593,-2.148437 9.80469,0 14.76563,3.984375 5,3.945312 5,11.679687 0,2.65625 -0.54688,5.195313 -0.50781,2.539062 -1.36718,5.039062 l -32.57813,0 q 0,0.234375 0,0.46875 0,0.195313 0,0.429688 0,4.570312 3.20313,7.148437 3.20312,2.578125 9.80468,2.578125 4.60938,0 8.71094,-1.5625 4.14063,-1.5625 7.1875,-3.476562 l 1.5625,0 -2.61719,11.289062 q -4.10156,1.796875 -8.63281,2.695313 -4.53125,0.9375 -9.64844,0.9375 z"
                     style="font-size:80px;word-spacing:0"
                     id="path4534"
                     inkscape:connector-curvature="0" />
                  <path
                     d="m 384.36719,46.054687 q 0,1.171875 -0.15625,2.539063 -0.15625,1.367187 -0.50782,2.851562 L 377.14062,80 l -14.21875,0 5,-21.757813 q 0.54688,-2.421875 0.85938,-4.140625 0.3125,-1.71875 0.3125,-3.203125 0,-2.539062 -1.28906,-3.710937 -1.28907,-1.171875 -4.72657,-1.171875 -1.67968,0 -3.86718,0.742187 -2.1875,0.703125 -4.92188,2.148438 L 347.14062,80 333,80 l 10.11719,-43.867188 14.14062,0 -1.13281,4.84375 q 4.33594,-2.851562 7.89062,-4.453125 3.59375,-1.601562 7.89063,-1.601562 5.89844,0 9.17969,2.851562 3.28125,2.851563 3.28125,8.28125 z"
                     style="font-size:80px;word-spacing:0"
                     id="path4536"
                     inkscape:connector-curvature="0" />
                </g>
              </g>
            </g>
          </g>
        </g>
      </g>
      <g
         transform="matrix(3.5433071,0,0,3.5433071,371.30289,181.08853)"
         id="layer1-6">
        <g
           id="g10"
           transform="matrix(0.13680533,0,0,-0.13680533,50.293559,125.83322)">
          <g
             id="g3393">
            <path
               d="m 177.718,129.264 c 0,-49.4288 -39.175,-89.4992 -87.5,-89.4992 -48.3242,0 -87.49925,40.0704 -87.49925,89.4992 0,49.43 39.17505,89.501 87.49925,89.501 48.325,0 87.5,-40.071 87.5,-89.501"
               style="fill:#d33833;fill-opacity:1;fill-rule:evenodd;stroke:none"
               id="path22"
               inkscape:connector-curvature="0" />
            <path
               d="m 6.28438,107.098 c 0,0 -6.33438,93.333 79.66602,96 l -5.9996,10 -46.6664,-15.667 -13.3336,-15.333 -11.66642,-22.334 -6.66719,-26 2,-17.333"
               style="fill:#ef3d3a;fill-opacity:1;fill-rule:nonzero;stroke:none"
               id="path24"
               inkscape:connector-curvature="0" />
            <path
               d="M 30.2883,190.319 C 14.9363,174.611 5.43633,152.923 5.43633,128.93 l 0,0 c 0,-23.988 9.49997,-45.6788 24.85197,-61.3839 l 0,0 C 45.6477,51.841 66.8152,42.15 90.2168,42.15 l 0,0 c 23.4022,0 44.5712,9.691 59.9292,25.3961 l 0,0 c 15.351,15.7051 24.853,37.3959 24.853,61.3839 l 0,0 c 0,23.993 -9.502,45.681 -24.853,61.389 l 0,0 c -15.358,15.702 -36.527,25.393 -59.9292,25.395 l 0,0 C 66.8152,215.712 45.6477,206.021 30.2883,190.319 Z M 26.4023,63.7469 C 10.0867,80.4328 0,103.493 0,128.93 l 0,0 c 0,25.441 10.0867,48.499 26.4023,65.186 l 0,0 c 16.3118,16.69 38.8915,27.035 63.8145,27.032 l 0,0 c 24.9232,0.003 47.5052,-10.342 63.8142,-27.032 l 0,0 c 16.317,-16.687 26.405,-39.747 26.403,-65.186 l 0,0 c 0.002,-25.437 -10.086,-48.4972 -26.403,-65.1831 l 0,0 C 137.722,47.0578 115.14,36.7141 90.2168,36.7141 l 0,0 c -24.923,0 -47.5027,10.3437 -63.8145,27.0328 l 0,0"
               style="fill:#231f20;fill-opacity:1;fill-rule:nonzero;stroke:none"
               id="path26"
               inkscape:connector-curvature="0" />
            <path
               d="m 127.051,128.768 -13.334,-2 -18.0002,-2 -11.6672,-0.333 -11.3328,0.333 -8.6672,2.667 -7.6668,8.333 -6,17 -1.3332,3.667 -8,2.666 -4.6668,7.667 -3.3332,11 3.6672,9.667 8.666,3 7,-3.334 3.334,-7.333 4,0.667 1.3328,1.666 -1.3328,7.667 -0.334,9.667 2,13.333 -0.0781,7.616 6.0781,9.717 10.6668,7.667 18.6672,8 20.6662,-3 18,-13 8.334,-13.333 5.333,-9.667 1.333,-24 -4,-20.667 -7.333,-18.333 -7,-9.667"
               style="fill:#f0d6b7;fill-opacity:1;fill-rule:evenodd;stroke:none"
               id="path28"
               inkscape:connector-curvature="0" />
            <path
               d="m 115.717,71.102 -47.6674,-2 0,-8 4,-28 -2,-2.334 -33.3328,11.334 -2.334,4 -3.3332,37.666 -7.6656,22.667 -1.6672,5.333 26.666,18.333 8.334,3.334 7.3328,-9 6.3332,-5.667 7.334,-2.333 3.3328,-1 4,-17.333 3,-3.6668 7.6672,2.6668 -5.334,-10.334 29.0002,-13.666 -3.666,-2"
               style="fill:#335061;fill-opacity:1;fill-rule:evenodd;stroke:none"
               id="path30"
               inkscape:connector-curvature="0" />
            <path
               d="m 36.7168,187.435 8.666,3 7,-3.334 3.334,-7.333 4,0.667 1,4 -2,7.666 2,18.334 -1.6672,10 6,7 13,10.333 -3.6668,5 -18.3332,-9 -7.6668,-6 -4.3332,-9.333 -6.6668,-9 -2,-10.667 1.334,-11.333"
               style="fill:#6d6b6d;fill-opacity:1;fill-rule:evenodd;stroke:none"
               id="path32"
               inkscape:connector-curvature="0" />
            <path
               d="m 50.3828,218.768 c 0,0 5,12.333 25,18.333 20,6 1,4.334 1,4.334 l -21.666,-8.334 -8.334,-8.333 -3.666,-6.667 7.666,0.667"
               style="fill:#dcd9d8;fill-opacity:1;fill-rule:evenodd;stroke:none"
               id="path34"
               inkscape:connector-curvature="0" />
            <path
               d="m 40.3828,189.768 c 0,0 -7,23.334 19.6668,26.667 l -1,4 -18.3328,-4.334 -5.334,-17.333 1.334,-11.333 3.666,2.333"
               style="fill:#dcd9d8;fill-opacity:1;fill-rule:evenodd;stroke:none"
               id="path36"
               inkscape:connector-curvature="0" />
            <path
               d="m 51.0496,158.768 4.3645,4.229 c 0,0 1.9699,-0.229 2.3027,-2.562 0.3328,-2.334 1.3328,-23.334 15.666,-34.668 1.3074,-1.034 -10.666,1.668 -10.666,1.668 l -10.6672,16.666"
               style="fill:#f7e4cd;fill-opacity:1;fill-rule:evenodd;stroke:none"
               id="path38"
               inkscape:connector-curvature="0" />
            <path
               d="m 112.385,165.101 c 0,0 0.777,10.104 3.498,9.327 2.721,-0.777 2.721,-3.498 2.721,-3.498 0,0 -6.608,-4.275 -6.219,-5.829"
               style="fill:#f7e4cd;fill-opacity:1;fill-rule:evenodd;stroke:none"
               id="path40-5"
               inkscape:connector-curvature="0" />
            <path
               d="m 140.05,202.101 c 0,0 -5.494,-1.16 -6,-6 -0.506,-4.841 6,-1 7,-0.667"
               style="fill:#f7e4cd;fill-opacity:1;fill-rule:nonzero;stroke:none"
               id="path42"
               inkscape:connector-curvature="0" />
            <path
               d="m 99.7168,201.767 c 0,0 -7.334,-1 -7.334,-5.666 0,-4.667 8.3342,-4.334 10.6672,-2.334"
               style="fill:#f7e4cd;fill-opacity:1;fill-rule:nonzero;stroke:none"
               id="path44"
               inkscape:connector-curvature="0" />
            <path
               d="m 54.3828,180.101 c 0,0 -12.6672,7.667 -14,0.333 -1.3332,-7.333 -4.334,-12.667 2,-20.333 l -4.3332,1.333 -4,10.333 -1.3328,10 7.666,8.001 8.6668,-0.667 5,-4 0.3332,-5"
               style="fill:#f7e4cd;fill-opacity:1;fill-rule:evenodd;stroke:none"
               id="path46"
               inkscape:connector-curvature="0" />
            <path
               d="m 60.3828,201.101 c 0,0 5.6668,29.333 34.334,35 23.6012,4.665 35.9992,-1 40.6662,-6.333 0,0 -21,24.999 -41.0002,17.333 -20,-7.667 -34.666,-21.667 -34.3332,-30.666 0.5676,-15.328 0.3332,-15.334 0.3332,-15.334"
               style="fill:#f7e4cd;fill-opacity:1;fill-rule:evenodd;stroke:none"
               id="path48"
               inkscape:connector-curvature="0" />
            <path
               d="m 137.717,226.435 c 0,0 -9.666,0.333 -10,-8.334 0,0 -0.001,-1.333 0.666,-2.666 0,0 7.668,8.667 12.334,4"
               style="fill:#f7e4cd;fill-opacity:1;fill-rule:evenodd;stroke:none"
               id="path50"
               inkscape:connector-curvature="0" />
            <path
               d="m 95.3887,214.532 c 0,0 -1.6641,13.303 -13.0059,5.569 -7.3332,-5 -6.666,-12 -5.3332,-13.333 1.3332,-1.334 0.9707,-4.019 1.9856,-2.176 1.0144,1.843 0.6804,7.843 4.3476,9.509 3.6668,1.667 9.6777,3.529 12.0059,0.431"
               style="fill:#f7e4cd;fill-opacity:1;fill-rule:evenodd;stroke:none"
               id="path52"
               inkscape:connector-curvature="0" />
            <path
               d="m 64.0496,124.435 -31.3328,-14 c 0,0 13,-51.667 6.3328,-67.667 l -4.6668,1.666 -0.3332,19.6672 -8.6656,37.3328 -3.6672,10.334 32.666,21.999 9.6668,-9.332"
               style="fill:#49728b;fill-opacity:1;fill-rule:evenodd;stroke:none"
               id="path54-3"
               inkscape:connector-curvature="0" />
            <path
               d="m 67.2715,95.8578 4.4453,-5.4238 0,-20 -5.334,0 c 0,0 -0.666,14 -0.666,15.6672 0,1.6668 0.666,7.6668 0.666,7.6668"
               style="fill:#49728b;fill-opacity:1;fill-rule:evenodd;stroke:none"
               id="path56"
               inkscape:connector-curvature="0" />
            <path
               d="m 67.3828,67.434 -15,-0.666 4.334,-3 10.666,-1.6668"
               style="fill:#49728b;fill-opacity:1;fill-rule:evenodd;stroke:none"
               id="path58-5"
               inkscape:connector-curvature="0" />
            <path
               d="m 118.717,70.768 12.333,0.3332 3,-30.6672 -12.667,-1.666 -2.666,32"
               style="fill:#335061;fill-opacity:1;fill-rule:evenodd;stroke:none"
               id="path60-5"
               inkscape:connector-curvature="0" />
            <path
               d="m 122.05,70.768 18.667,1 c 0,0 7.666,19.3332 7.666,20.3332 0,1 6.667,27.9998 6.667,27.9998 l -15,15.666 -3,2.667 -8,-8 0,-31 -7,-28.666"
               style="fill:#335061;fill-opacity:1;fill-rule:evenodd;stroke:none"
               id="path62-3"
               inkscape:connector-curvature="0" />
            <path
               d="m 130.383,73.1012 -11.666,-2.3332 1.666,-9.334 c 4.333,-2 11.667,3.334 11.667,3.334"
               style="fill:#49728b;fill-opacity:1;fill-rule:evenodd;stroke:none"
               id="path64"
               inkscape:connector-curvature="0" />
            <path
               d="m 130.717,131.434 23.333,-17.333 0.667,8 -17.667,16.333 -6.333,-7"
               style="fill:#49728b;fill-opacity:1;fill-rule:evenodd;stroke:none"
               id="path66"
               inkscape:connector-curvature="0" />
            <path
               d="M 78.9508,5.09805 72.0496,33.102 68.6172,53.7648 68.0496,69.102 l 31.2348,1.6628 19.4326,0.0032 -1.767,-35.0032 3,-26.99996 -0.333,-5 -25.3326,-2 -15.3336,3.33321"
               style="fill:#ffffff;fill-opacity:1;fill-rule:evenodd;stroke:none"
               id="path68"
               inkscape:connector-curvature="0" />
            <path
               d="m 114.383,71.1012 c 0,0 -1.666,-34.6672 3.334,-59.3332 0,0 -10,-6.33402 -24.6674,-8.00003 l 28.0004,1 3.333,2 -4,54.66603 -1,11.668"
               style="fill:#dcd9d8;fill-opacity:1;fill-rule:evenodd;stroke:none"
               id="path70"
               inkscape:connector-curvature="0" />
            <path
               d="m 134.618,43.098 13,3.6668 24.666,1.3332 3.667,11.3329 -6.667,19.6671 -7.666,1 -10.667,-3.3332 -10.234,-4.9968 -5.433,0.9968 -4.234,-1.6636"
               style="fill:#ffffff;fill-opacity:1;fill-rule:evenodd;stroke:none"
               id="path72"
               inkscape:connector-curvature="0" />
            <path
               d="m 134.383,49.768 c 0,0 8.666,3.9992 10,3.666 l -3.666,18.334 4.333,1.666 c 0,0 3,-17.3328 3,-19.3328 0,0 18.666,-1 20.333,-1 0,0 4,7.6668 3,15.6668 l 3.667,-10.6668 0.333,-6 -5.333,-8 -6,-1.3332 -10,0.3332 -3.333,4.3328 -11.667,-1.666 -3.667,-1.334"
               style="fill:#dcd9d8;fill-opacity:1;fill-rule:evenodd;stroke:none"
               id="path74"
               inkscape:connector-curvature="0" />
            <path
               d="m 121.284,73.4309 -7.333,18.6671 -7.667,11 c 0,0 1.666,4.667 4,4.667 2.334,0 7.667,0 7.667,0 l 7.333,-2.667 -0.666,-12.3332 -3.334,-19.3339"
               style="fill:#ffffff;fill-opacity:1;fill-rule:nonzero;stroke:none"
               id="path76"
               inkscape:connector-curvature="0" />
            <path
               d="m 122.717,79.768 c 0,0 -9.334,17.9992 -9.334,20.666 0,0 1.666,4 4,3 2.334,-1 7.334,-3.666 7.334,-3.666 l 0,6.333 -11.334,2.334 -7.666,-1 13,-30.667 2.666,-0.334"
               style="fill:#dcd9d8;fill-opacity:1;fill-rule:evenodd;stroke:none"
               id="path78"
               inkscape:connector-curvature="0" />
            <path
               d="m 81.9512,123.764 -9.2344,1.004 -8.6672,2.667 0,-3 4.2348,-4.67 13.3332,-6"
               style="fill:#ffffff;fill-opacity:1;fill-rule:nonzero;stroke:none"
               id="path80"
               inkscape:connector-curvature="0" />
            <path
               d="m 67.0508,122.765 c 0,0 10.334,-4.334 13.6672,-3.334 l 0.3316,-3.996 -9.3316,1.996 -5.6672,4 1,1.334"
               style="fill:#dcd9d8;fill-opacity:1;fill-rule:evenodd;stroke:none"
               id="path82"
               inkscape:connector-curvature="0" />
            <path
               d="m 134.582,106.63 c -5.656,0.166 -10.766,0.838 -15.24,2.1 0.304,1.834 -0.265,3.634 0.192,4.955 1.247,0.898 3.337,0.884 5.222,1.095 -1.63,0.801 -3.92,1.118 -5.801,0.655 -0.044,1.273 -0.615,2.062 -0.961,3.058 3.18,1.135 10.687,8.576 14.91,6.112 2.012,-1.172 2.867,-7.866 3.023,-11.121 0.13,-2.7 -0.245,-5.424 -1.345,-6.854"
               style="fill:#d33833;fill-opacity:1;fill-rule:evenodd;stroke:none"
               id="path84"
               inkscape:connector-curvature="0" />
            <path
               d="m 134.582,106.63 c -5.656,0.166 -10.766,0.838 -15.24,2.1 0.304,1.834 -0.265,3.634 0.192,4.955 1.247,0.898 3.337,0.884 5.222,1.095 -1.63,0.801 -3.92,1.118 -5.801,0.655 -0.044,1.273 -0.615,2.062 -0.961,3.058 3.18,1.135 10.687,8.576 14.91,6.112 2.012,-1.172 2.867,-7.866 3.023,-11.121 0.13,-2.7 -0.245,-5.424 -1.345,-6.854 z"
               style="fill:none;stroke:#d33833;stroke-width:2;stroke-linecap:butt;stroke-linejoin:miter;stroke-miterlimit:4;stroke-dasharray:none;stroke-opacity:1"
               id="path86"
               inkscape:connector-curvature="0" />
            <path
               d="m 107.535,115.876 c -0.015,-0.428 -0.033,-0.859 -0.05,-1.291 -1.766,-1.16 -4.617,-1.146 -6.555,-2.121 2.857,-0.125 5.106,-0.813 7.052,-1.783 -0.043,-1.078 -0.084,-2.155 -0.126,-3.233 -3.237,-2.216 -6.194,-5.516 -10.0052,-7.5941 -1.802,-0.9828 -8.1262,-3.5117 -10.0434,-3.0648 -1.0847,0.2519 -1.1824,1.598 -1.616,2.8668 -0.9238,2.7171 -3.0508,7.0421 -3.2363,11.1321 -0.2363,5.166 -0.7578,13.824 4.8094,12.76 4.4914,-0.857 9.7152,-2.926 13.1925,-4.826 2.125,-1.162 3.354,-2.598 6.578,-2.846"
               style="fill:#d33833;fill-opacity:1;fill-rule:evenodd;stroke:none"
               id="path88"
               inkscape:connector-curvature="0" />
            <path
               d="m 107.535,115.876 c -0.015,-0.428 -0.033,-0.859 -0.05,-1.291 -1.766,-1.16 -4.617,-1.146 -6.555,-2.121 2.857,-0.125 5.106,-0.813 7.052,-1.783 -0.043,-1.078 -0.084,-2.155 -0.126,-3.233 -3.237,-2.216 -6.194,-5.516 -10.0052,-7.5941 -1.802,-0.9828 -8.1262,-3.5117 -10.0434,-3.0648 -1.0847,0.2519 -1.1824,1.598 -1.616,2.8668 -0.9238,2.7171 -3.0508,7.0421 -3.2363,11.1321 -0.2363,5.166 -0.7578,13.824 4.8094,12.76 4.4914,-0.857 9.7152,-2.926 13.1925,-4.826 2.125,-1.162 3.354,-2.598 6.578,-2.846 z"
               style="fill:none;stroke:#d33833;stroke-width:2;stroke-linecap:butt;stroke-linejoin:miter;stroke-miterlimit:4;stroke-dasharray:none;stroke-opacity:1"
               id="path90"
               inkscape:connector-curvature="0" />
            <path
               d="m 110.75,109.712 c -0.494,2.814 -1.065,3.617 -0.844,6.072 7.505,5.004 8.914,-8.595 0.844,-6.072"
               style="fill:#d33833;fill-opacity:1;fill-rule:evenodd;stroke:none"
               id="path92"
               inkscape:connector-curvature="0" />
            <path
               d="m 110.75,109.712 c -0.494,2.814 -1.065,3.617 -0.844,6.072 7.505,5.004 8.914,-8.595 0.844,-6.072 z"
               style="fill:none;stroke:#d33833;stroke-width:2;stroke-linecap:butt;stroke-linejoin:miter;stroke-miterlimit:4;stroke-dasharray:none;stroke-opacity:1"
               id="path94"
               inkscape:connector-curvature="0" />
            <path
               d="m 121.617,107.431 c 0,0 -2.334,3.334 -0.667,4.334 1.667,1 3.334,-0.001 4.334,1.666 1,1.667 0,2.667 0.333,4.667 0.333,2 2.001,2.334 3.667,2.667 1.666,0.333 6.334,1 7,-0.667 l -2,6 -4,1.333 -12.667,-7.333 -0.667,-3.667 0,-7.333"
               style="fill:#ef3d3a;fill-opacity:1;fill-rule:evenodd;stroke:none"
               id="path96"
               inkscape:connector-curvature="0" />
            <path
               d="m 86.6172,96.4309 c -0.4004,5.2021 -0.8242,10.3971 -1.2957,15.5941 -0.7055,7.76 1.864,6.406 8.5906,6.406 1.0274,0 6.3259,-1.225 6.7049,-2 1.818,-3.713 -3.04,-2.888 2.094,-5.688 4.334,-2.363 11.99,1.435 10.239,6.688 -0.98,1.168 -5.106,0.364 -6.585,1.131 -2.604,1.35 -5.208,2.7 -7.8123,4.05 -3.3132,1.719 -10.9707,4.225 -14.5031,1.823 -8.9504,-6.087 0.5649,-21.296 3.7578,-27.6459"
               style="fill:#ef3d3a;fill-opacity:1;fill-rule:evenodd;stroke:none"
               id="path98"
               inkscape:connector-curvature="0" />
            <path
               d="m 95.3887,214.532 c -9.0852,2.116 -13.5996,-3.802 -16.3535,-9.94 -2.459,0.596 -1.4805,3.94 -0.8594,5.644 1.6262,4.472 8.1797,10.425 13.5344,9.618 2.3043,-0.347 5.4226,-2.454 3.6785,-5.322"
               style="fill:#231f20;fill-opacity:1;fill-rule:evenodd;stroke:none"
               id="path100"
               inkscape:connector-curvature="0" />
            <path
               d="m 139.655,204.186 c 0.143,-0.006 0.288,-0.011 0.431,-0.017 2.053,-4.265 3.83,-8.783 6.42,-12.548 -1.735,-4.041 -13.138,-7.617 -12.962,-0.361 2.466,1.078 6.723,0.22 8.909,1.597 -1.264,3.469 -3.088,6.422 -2.798,11.329"
               style="fill:#231f20;fill-opacity:1;fill-rule:evenodd;stroke:none"
               id="path102"
               inkscape:connector-curvature="0" />
            <path
               d="m 100.04,204.075 c 1.948,-3.571 2.582,-7.323 5.351,-10.022 1.247,-1.215 3.672,-2.696 2.47,-6.075 -0.281,-0.797 -2.334,-2.574 -3.519,-2.923 -4.329,-1.278 -14.4162,-0.264 -11.0002,5.133 3.5801,-0.167 8.3922,-2.325 11.0682,0.274 -2.055,3.285 -5.7186,9.784 -4.37,13.613"
               style="fill:#231f20;fill-opacity:1;fill-rule:evenodd;stroke:none"
               id="path104"
               inkscape:connector-curvature="0" />
            <path
               d="m 138.03,167.781 c -6.518,-4.187 -13.786,-8.74 -24.466,-7.684 -2.282,1.984 -3.152,6.399 -0.935,9.315 1.154,-1.984 0.429,-5.633 3.645,-6.182 6.06,-1.037 13.113,3.707 17.472,5.365 2.703,4.557 -0.233,6.233 -2.668,9.166 -4.985,6.009 -11.672,13.457 -11.429,22.453 2.015,1.461 2.189,-2.23 2.478,-2.902 2.603,-6.092 9.154,-13.883 13.935,-19.097 1.174,-1.284 3.107,-2.516 3.322,-3.365 0.62,-2.469 -1.613,-5.427 -1.354,-7.069"
               style="fill:#231f20;fill-opacity:1;fill-rule:evenodd;stroke:none"
               id="path106"
               inkscape:connector-curvature="0" />
            <path
               d="m 52.1016,172.189 c -2.043,1.166 -2.5293,6.302 -4.9278,6.448 -3.4277,0.208 -2.8027,-6.663 -2.789,-10.681 -2.3594,2.142 -2.7743,8.737 -1.041,12.124 -1.9754,0.97 -2.8575,-1.07 -3.9532,-1.789 1.4082,10.23 14.9649,4.745 12.711,-6.102"
               style="fill:#231f20;fill-opacity:1;fill-rule:evenodd;stroke:none"
               id="path108"
               inkscape:connector-curvature="0" />
            <path
               d="m 142.18,163.521 c -3.034,-5.775 -7.326,-12.135 -16.229,-12.32 -0.181,1.865 -0.32,4.703 0.01,5.826 6.806,0.654 11.008,4.118 16.219,6.494"
               style="fill:#231f20;fill-opacity:1;fill-rule:evenodd;stroke:none"
               id="path110"
               inkscape:connector-curvature="0" />
            <path
               d="m 99.5266,159.777 c 5.6784,-2.986 16.1144,-3.307 23.8324,-3.081 0.414,-1.691 0.404,-3.78 0.42,-5.842 -9.921,-0.495 -21.651,1.96 -24.2524,8.923"
               style="fill:#231f20;fill-opacity:1;fill-rule:evenodd;stroke:none"
               id="path112"
               inkscape:connector-curvature="0" />
            <path
               d="m 98.4473,154.209 c 3.9267,-9.859 17.4227,-8.724 28.8037,-8.452 -0.501,-1.28 -1.587,-2.792 -2.937,-3.339 -3.647,-1.484 -13.706,-2.61 -18.769,0.079 -3.211,1.707 -5.274,5.564 -7.0333,7.825 -0.8496,1.092 -5.0801,3.881 -0.0644,3.887"
               style="fill:#231f20;fill-opacity:1;fill-rule:evenodd;stroke:none"
               id="path114"
               inkscape:connector-curvature="0" />
            <path
               d="m 137.556,99.8262 c -4.608,-7.8922 -9.017,-15.9981 -14.484,-22.9594 2.292,6.7391 3.273,18.0184 3.619,26.6172 4.795,2.244 8.901,-0.505 10.865,-3.6578"
               style="fill:#81b0c4;fill-opacity:1;fill-rule:evenodd;stroke:none"
               id="path116"
               inkscape:connector-curvature="0" />
            <path
               d="m 162.352,71.4609 c -5.159,-1.0328 -8.784,-6.0468 -13.817,-5.725 2.766,3.8993 7.613,5.543 13.817,5.725"
               style="fill:#231f20;fill-opacity:1;fill-rule:evenodd;stroke:none"
               id="path118"
               inkscape:connector-curvature="0" />
            <path
               d="m 164.628,63.3871 c -4.205,-0.4441 -9.144,-1.125 -13.409,-0.7742 2.019,3.084 9.798,2.0199 13.409,0.7742"
               style="fill:#231f20;fill-opacity:1;fill-rule:evenodd;stroke:none"
               id="path120"
               inkscape:connector-curvature="0" />
            <path
               d="m 166.085,56.4262 c -4.726,-0.1024 -10.6,-0.0082 -15.092,0.3687 2.657,2.8539 12.027,1.059 15.092,-0.3687"
               style="fill:#231f20;fill-opacity:1;fill-rule:evenodd;stroke:none"
               id="path122"
               inkscape:connector-curvature="0" />
            <path
               d="m 128.664,37.377 c 0.678,-5.9352 3.031,-11.9489 2.736,-18.4489 -2.613,-0.8812 -4.114,-1.6519 -7.615,-1.6472 -0.247,5.5242 -0.986,13.9691 -0.765,19.2351 1.722,-0.114 4.261,1.2301 5.644,0.861"
               style="fill:#dcd9d8;fill-opacity:1;fill-rule:evenodd;stroke:none"
               id="path124"
               inkscape:connector-curvature="0" />
            <path
               d="m 121.045,124.849 c -2.373,-1.549 -4.394,-3.483 -6.673,-5.137 -5.054,-0.25 -7.812,0.35 -11.525,3.252 0.061,0.233 0.434,0.129 0.448,0.415 5.41,-2.411 12.287,0.982 17.75,1.47"
               style="fill:#f0d6b7;fill-opacity:1;fill-rule:evenodd;stroke:none"
               id="path126"
               inkscape:connector-curvature="0" />
            <path
               d="m 92.6445,87.9711 c 1.4864,6.441 7.3106,9.7769 12.5995,13.3239 5.459,-6.9282 8.779,-15.838 12.435,-24.436 -8.638,2.6039 -17.464,6.8289 -25.0345,11.1121"
               style="fill:#81b0c4;fill-opacity:1;fill-rule:evenodd;stroke:none"
               id="path128"
               inkscape:connector-curvature="0" />
            <path
               d="m 123.02,36.516 c -0.221,-5.266 0.518,-13.7109 0.765,-19.2351 3.501,-0.0047 5.002,0.766 7.615,1.6472 0.295,6.5 -2.058,12.5137 -2.736,18.4489 -1.383,0.3691 -3.922,-0.975 -5.644,-0.861 z M 68.5059,66.4648 C 70.8145,45.2418 74.1582,27.4012 80.291,8.60781 93.9023,4.475 110.311,4.11484 122.342,7.84414 120.133,18.4512 121.098,31.3648 119.807,42.684 c -0.973,8.5078 -0.477,17.068 -1.811,25.748 -14.578,3.0328 -35.1835,0.709 -49.4901,-1.9672 z m 52.9371,1.834 c -0.123,-9.1148 0.408,-18.1058 1.104,-27.232 3.5,0.5254 5.875,0.8762 9.127,1.5891 -1.056,8.7859 -0.926,18.6722 -3.077,26.4441 -2.486,-0.0238 -4.675,0.0289 -7.154,-0.8012 z m 17.755,1.4692 c -1.661,0.3808 -3.595,0.0148 -5.182,-0.016 0.746,-7.4301 2.556,-15.629 3.193,-23.4282 2.497,-0.0777 3.831,1.1 5.885,1.4961 0.11,6.8461 -0.598,16.2781 -3.896,21.9481 z m 26.884,-24.5629 c 5.205,1.264 8.478,7.639 7.022,14.1859 -0.977,4.4 -2.717,12.6852 -4.579,15.5 -1.376,2.082 -5.107,4.8078 -8.086,2.9 -4.846,-3.1031 -13.383,-4.0039 -16.917,-7.7601 1.772,-5.9 2.322,-14.0039 3.053,-21.4797 6.054,-0.3774 13.503,1.666 18.538,-0.5024 -3.515,-1.1386 -8.076,-1.1476 -11.113,-2.807 2.482,-1.1988 8.293,-0.9566 12.082,-0.0367 z M 117.679,76.859 c -3.656,8.598 -6.976,17.5078 -12.435,24.436 C 99.9551,97.748 94.1309,94.4121 92.6445,87.9711 100.215,83.6879 109.041,79.4629 117.679,76.859 Z m 9.012,26.625 c -0.346,-8.5988 -1.327,-19.8781 -3.619,-26.6172 5.467,6.9613 9.876,15.0672 14.484,22.9594 -1.964,3.1528 -6.07,5.9018 -10.865,3.6578 z m -10.216,3.63 c -2.071,0.223 -3.829,-2.381 -6.522,-1.255 -0.617,-0.682 -1.178,-1.421 -1.807,-2.087 5.948,-7.1681 8.651,-17.338 13.245,-25.7618 2.465,8.0918 2.181,16.957 2.724,25.7888 -3.387,-0.215 -5.266,3.063 -7.64,3.315 z m -6.569,8.67 c -0.221,-2.455 0.35,-3.258 0.844,-6.072 8.07,-2.523 6.661,11.076 -0.844,6.072 z m -8.949,2.938 c -3.4773,1.9 -8.7011,3.969 -13.1925,4.826 -5.5672,1.065 -5.0457,-7.594 -4.8094,-12.76 0.1855,-4.09 2.3125,-8.415 3.2363,-11.1321 0.4336,-1.2688 0.5313,-2.6149 1.616,-2.8668 1.9172,-0.4469 8.2414,2.082 10.0434,3.0648 3.8112,2.0781 6.7682,5.3781 10.0052,7.5941 0.042,1.078 0.083,2.155 0.126,3.233 -1.946,0.97 -4.195,1.658 -7.052,1.783 1.938,0.975 4.789,0.961 6.555,2.121 0.017,0.432 0.035,0.863 0.05,1.291 -3.224,0.248 -4.453,1.684 -6.578,2.846 z m -33.2136,6.033 c -2.886,-2.93 8.0945,-6.924 11.5906,-7.139 -0.0195,1.854 1.0566,3.602 0.8398,4.932 -4.1523,0.729 -9.6093,0.248 -12.4304,2.207 z m 35.5516,-1.376 c -0.014,-0.286 -0.387,-0.182 -0.448,-0.415 3.713,-2.902 6.471,-3.502 11.525,-3.252 2.279,1.654 4.3,3.588 6.673,5.137 -5.463,-0.488 -12.34,-3.881 -17.75,-1.47 z m 32.632,-9.895 c -0.156,3.255 -1.011,9.949 -3.023,11.121 -4.223,2.465 -11.73,-4.977 -14.91,-6.112 0.346,-0.996 0.917,-1.785 0.961,-3.058 1.881,0.463 4.171,0.146 5.801,-0.655 -1.885,-0.211 -3.975,-0.197 -5.222,-1.095 -0.457,-1.321 0.112,-3.121 -0.192,-4.955 4.474,-1.262 9.584,-1.934 15.24,-2.1 1.1,1.43 1.475,4.154 1.345,6.854 z m -73.0422,8.437 c -0.9063,0.646 -7.0371,8.623 -7.877,8.292 C 43.9141,125.838 33.541,118.273 24.2715,111.118 33.1094,92.1539 36.677,68.9199 37.3074,46.5262 47.4316,41.791 56.3242,34.9648 70.0625,34.252 68.4727,45.5 67.0215,55.5352 66.1191,66.125 c -3.4519,1.4551 -8.4043,-0.066 -11.6347,0.4512 -0.0274,3.8929 4.9336,1.7047 5.3468,4.3226 0.3114,1.9801 -2.7296,2.1301 -1.7394,5.2481 2.5254,-0.918 3.8516,-2.9457 6.5449,-3.7071 2.461,5.384 -0.0344,14.9102 0.3203,19.4102 0.0672,0.8449 0.4219,4.6809 2.3145,4.0078 1.675,-0.5957 -0.0957,-10.2019 0.0879,-14.4609 0.1672,-3.9239 -0.4739,-7.7207 1.1152,-10.184 13.2754,1.807 26.7656,2.975 41.1294,3.3691 -3.16,1.3559 -6.914,2.6391 -11.0298,4.959 -2.2312,1.2578 -9.2644,3.875 -9.9082,5.9942 -1.0273,3.3769 2.6953,5.1757 3.332,8.0707 -6.7011,-3.6547 -8.0085,3.5031 -9.5937,8.5741 -1.4363,4.593 -2.2539,8.024 -2.6063,10.673 -5.7726,2.752 -11.9445,5.539 -16.9132,9.068 z m 67.1792,7.327 c 9.243,4.482 10.909,-16.751 7.286,-23.591 0.56,-2.04 2.486,-2.821 3.272,-4.655 -5.158,-9.2399 -10.887,-17.8649 -16.15,-26.9961 3.915,2.4371 9.507,0.4359 14.114,2.2601 1.684,0.666 2.903,4.5211 4.178,7.6051 3.507,8.4848 7.189,19.1819 8.827,27.2789 0.37,1.845 1.378,5.865 1.152,7.507 -0.403,2.94 -4.392,5.12 -6.421,6.938 -3.738,3.358 -6.092,6.313 -9.991,9.453 -1.581,-2.334 -4.974,-3.902 -6.267,-5.8 z m -88.3179,81.968 c -4.4043,-4.846 -3.4824,-13.926 -2.9492,-20.386 7.9609,5.008 18.5273,-0.396 18.4277,-8.914 3.8008,0.101 1.4199,4.747 0.7324,7.74 -2.2468,9.776 3.7852,20.397 0.2735,29.337 -6.8184,-0.517 -12.42,-3.302 -16.4844,-7.777 z m 31.5137,28.126 c -9.9707,-2.826 -22.7493,-10.071 -26.8465,-19.028 3.1726,0.461 5.375,2.061 8.5047,2.259 1.1828,0.077 2.7324,-0.496 4.0918,-0.158 2.709,0.672 4.9953,6.746 7.039,9.006 1.9922,2.207 4.3867,3.15 6.0254,5.162 1.0528,0.508 2.6094,0.473 2.6692,2.054 -0.4563,0.488 -0.9368,0.86 -1.4836,0.705 z m 51.9032,-2.658 c -10.349,5.839 -27.8661,10.231 -38.8747,4.743 -8.8828,-4.429 -20.8899,-11.757 -24.9836,-21.043 3.8242,-8.961 -1.1328,-17.172 -1.4492,-26.27 -0.168,-4.841 2.2793,-9.067 2.4668,-14.337 -1.3086,-2.159 -5.3067,-2.425 -8.0743,-2.277 -0.9316,4.662 -2.5625,9.902 -7.3632,10.428 -6.793,0.743 -11.7598,-4.879 -12.0684,-10.754 -0.3652,-6.909 5.3066,-18.36 13.3457,-17.565 3.1055,0.307 3.8684,3.42 7.252,3.388 1.8339,-3.659 -2.8289,-4.808 -3.3086,-7.425 -0.125,-0.676 0.3867,-3.318 0.6843,-4.557 1.4602,-6.033 4.7153,-13.841 7.9192,-18.434 4.0664,-5.826 12.0555,-6.704 20.6504,-7.275 1.5351,3.307 7.1902,3.035 10.875,2.17 -4.416,1.749 -8.5215,5.989 -11.9239,9.742 -3.9082,4.306 -7.8671,8.925 -8.0671,14.553 7.3855,-10.246 13.4871,-19.194 26.9168,-23.701 10.1618,-3.408 22.0298,1.562 29.8378,7.045 3.24,2.279 5.174,5.895 7.477,9.205 8.617,12.395 12.638,30.087 11.754,47.235 -0.364,7.072 -0.348,14.12 -2.721,18.878 -2.48,4.975 -10.868,9.426 -15.778,4.926 -0.91,4.838 4.083,7.83 9.948,6.089 -4.182,5.397 -8.571,11.882 -14.515,15.236 z M 144.444,77.1168 c 8.087,4.0203 23.197,10.8211 28.267,-0.0148 1.871,-3.9942 4.066,-10.7461 5.035,-14.8692 1.369,-5.8168 -1.484,-18.043 -7.463,-19.9949 -5.281,-1.7238 -11.443,-1.6188 -17.804,-0.341 -0.749,0.623 -1.583,1.709 -2.166,2.841 -4.542,0.1762 -8.795,-0.2438 -12.383,-2.1109 0.34,-3.359 -1.932,-3.8981 -4.062,-4.5899 -1.579,-6.2609 3.159,-14.4371 2.025,-20.1461 -0.809,-4.0672 -5.813,-4.6961 -9.491,-5.457 -0.12,-2.2602 0.161,-4.14689 0.412,-6.059 -0.841,-3.09883 -4.613,-4.86289 -8.187,-5.29492 -11.759,-1.414064 -29.6133,-2.049221 -40.9239,2.01797 -3.1562,7.74175 -5.6426,17.15785 -8.2715,25.99805 -11.0312,-1.1781 -19.9531,4.7598 -28.364,8.65 -2.9121,1.35 -6.9406,2.0937 -8.0285,4.4117 -1.0547,2.2442 -0.6231,6.5453 -0.8848,10.6082 -0.666,10.377 -1.2363,20.386 -3.9766,31.011 -1.2304,4.7679 -3.375,8.975 -4.8711,13.5691 -1.3828,4.2579 -3.7988,9.5199 -4.4289,13.7659 -0.9343,6.293 4.9914,6.643 8.7805,9.37 5.8574,4.217 10.4551,6.549 16.7988,10.355 1.8789,1.127 7.545,3.98 8.1895,5.294 1.2812,2.605 -2.1992,6.278 -3.1297,8.32 -1.4719,3.229 -2.2395,5.972 -2.4504,9.158 -5.3215,0.841 -9.3555,4.008 -11.7922,7.579 -4.0308,5.91 -6.8262,16.844 -3.3387,25.161 0.2735,0.655 1.6375,1.943 1.8387,2.949 0.3969,1.981 -0.7469,4.615 -0.818,6.722 -0.3664,10.81 1.829,20.124 9.1063,23.384 2.9543,11.769 13.5281,15.682 23.4902,21.531 3.7239,2.186 7.8289,3.583 12.0684,5.143 15.2082,5.597 38.5419,4.543 51.1639,-5.003 5.352,-4.048 13.907,-12.595 16.967,-18.783 8.082,-16.337 7.508,-43.64 1.855,-63.513 -0.76,-2.668 -1.862,-6.59 -3.401,-9.795 -1.073,-2.238 -4.408,-6.716 -4.003,-8.692 0.417,-2.043 7.604,-7.5 9.145,-8.986 2.775,-2.677 8.047,-6.23 8.474,-9.608 0.459,-3.595 -1.584,-8.513 -2.619,-11.982 -3.46,-11.5769 -6.836,-22.2781 -10.759,-32.5992"
               style="fill:#231f20;fill-opacity:1;fill-rule:evenodd;stroke:none"
               id="path130"
               inkscape:connector-curvature="0" />
            <path
               d="m 90.491,157.255 c 0.4387,0.584 2.8508,1.471 6.2258,-0.154 0,0 -4,-0.667 -3.6672,-7.336 l -1.6668,0.334 c 0,0 -1.7226,6.047 -0.8918,7.156"
               style="fill:#f7e4cd;fill-opacity:1;fill-rule:evenodd;stroke:none"
               id="path132"
               inkscape:connector-curvature="0" />
            <path
               d="m 119.717,99.934 c 0,-1.0121 -0.821,-1.8328 -1.834,-1.8328 -1.012,0 -1.833,0.8207 -1.833,1.8328 0,1.012 0.821,1.834 1.833,1.834 1.013,0 1.834,-0.822 1.834,-1.834"
               style="fill:#1d1919;fill-opacity:1;fill-rule:evenodd;stroke:none"
               id="path134"
               inkscape:connector-curvature="0" />
            <path
               d="m 121.55,91.434 c 0,-1.0121 -0.821,-1.8328 -1.834,-1.8328 -1.012,0 -1.833,0.8207 -1.833,1.8328 0,1.0121 0.821,1.834 1.833,1.834 1.013,0 1.834,-0.8219 1.834,-1.834"
               style="fill:#1d1919;fill-opacity:1;fill-rule:evenodd;stroke:none"
               id="path136"
               inkscape:connector-curvature="0" />
          </g>
        </g>
      </g>
    </g>
    <text
       transform="matrix(0.67189886,0.74064291,-0.74064291,0.67189886,0,0)"
       x="583.67145"
       y="217.92319"
       id="text4910"
       style="font-style:normal;font-weight:normal;font-size:8.23998165px;line-height:125%;font-family:sans-serif;letter-spacing:0px;word-spacing:0px;fill:#000000;fill-opacity:1;stroke:none;stroke-width:1px;stroke-linecap:butt;stroke-linejoin:miter;stroke-opacity:1"
       xml:space="preserve"
       sodipodi:linespacing="125%"><tspan
         y="217.92319"
         x="583.67145"
         id="tspan4912">FEEDBACK</tspan></text>
  </g>
</svg>
