<?xml version="1.0" encoding="UTF-8" standalone="no"?>
<svg
   xmlns:dc="http://purl.org/dc/elements/1.1/"
   xmlns:cc="http://creativecommons.org/ns#"
   xmlns:rdf="http://www.w3.org/1999/02/22-rdf-syntax-ns#"
   xmlns:svg="http://www.w3.org/2000/svg"
   xmlns="http://www.w3.org/2000/svg"
   xmlns:sodipodi="http://sodipodi.sourceforge.net/DTD/sodipodi-0.dtd"
   xmlns:inkscape="http://www.inkscape.org/namespaces/inkscape"
   width="13.82823cm"
   height="19.391859cm"
   viewBox="319 -5 272.67541 386.40075"
   id="svg2"
   version="1.1"
   inkscape:version="0.91 r13725"
   sodipodi:docname="architectureVitameal_details.svg">
  <metadata
     id="metadata384">
    <rdf:RDF>
      <cc:Work
         rdf:about="">
        <dc:format>image/svg+xml</dc:format>
        <dc:type
           rdf:resource="http://purl.org/dc/dcmitype/StillImage" />
        <dc:title></dc:title>
      </cc:Work>
    </rdf:RDF>
  </metadata>
  <defs
     id="defs382" />
  <sodipodi:namedview
     pagecolor="#ffffff"
     bordercolor="#666666"
     borderopacity="1"
     objecttolerance="10"
     gridtolerance="10"
     guidetolerance="10"
     inkscape:pageopacity="0"
     inkscape:pageshadow="2"
     inkscape:window-width="1920"
     inkscape:window-height="1017"
     id="namedview380"
     showgrid="false"
     fit-margin-top="0"
     fit-margin-left="0"
     fit-margin-right="0"
     fit-margin-bottom="0"
     inkscape:zoom="0.88804754"
     inkscape:cx="164.03903"
     inkscape:cy="287.50825"
     inkscape:window-x="1358"
     inkscape:window-y="-8"
     inkscape:window-maximized="1"
     inkscape:current-layer="svg2" />
  <text
     font-size="12.7998"
     style="font-style:normal;font-weight:normal;font-size:12.79979992px;font-family:sans-serif;text-anchor:start;fill:#000000"
     x="473.05212"
     y="158.65947"
     id="text232">
    <tspan
       x="473.05212"
       y="158.65947"
       id="tspan234" />
  </text>
  <text
     font-size="12.7998"
     style="font-style:normal;font-weight:normal;font-size:12.79979992px;font-family:sans-serif;text-anchor:start;fill:#000000"
     x="473.05212"
     y="248.65947"
     id="text236">
    <tspan
       x="473.05212"
       y="248.65947"
       id="tspan238" />
  </text>
  <text
     font-size="12.7998"
     style="font-style:normal;font-weight:normal;font-size:12.79979992px;font-family:sans-serif;text-anchor:start;fill:#000000"
     x="473.05212"
     y="238.65947"
     id="text240">
    <tspan
       x="473.05212"
       y="238.65947"
       id="tspan242" />
  </text>
  <g
     id="g4389"
     transform="translate(11.713467,7.8942603)">
    <rect
       style="fill:#ffffff"
       x="318.14246"
       y="70.408791"
       width="254.20219"
       height="225.9575"
       id="rect6" />
    <rect
       style="fill:none;fill-opacity:0;stroke:#000000;stroke-width:1.41223443"
       x="318.14246"
       y="70.408791"
       width="254.20219"
       height="225.9575"
       id="rect8" />
    <g
       transform="matrix(0.70611719,0,0,0.70611719,-543.3205,-0.2029187)"
       id="g146">
      <rect
         id="rect148"
         height="48.9706"
         width="55.5"
         y="4.1617599"
         x="1352"
         style="fill:#ffffff" />
      <ellipse
         id="ellipse150"
         ry="8.1617603"
         rx="27.75"
         cy="53.132401"
         cx="1379.75"
         style="fill:#ffffff" />
      <ellipse
         id="ellipse152"
         ry="8.1617603"
         rx="27.75"
         cy="4.1617599"
         cx="1379.75"
         style="fill:#ffffff" />
      <ellipse
         id="ellipse154"
         ry="8.1617603"
         rx="27.75"
         cy="4.1617599"
         cx="1379.75"
         style="fill:none;fill-opacity:0;stroke:#000000;stroke-width:2" />
      <path
         id="path156"
         d="m 1407.5,4.16176 0,48.97064 c 0,4.5076 -12.42,8.1617 -27.75,8.1617 -15.33,0 -27.75,-3.6541 -27.75,-8.1617 l 0,-48.97064"
         style="fill:none;fill-opacity:0;stroke:#000000;stroke-width:2"
         inkscape:connector-curvature="0" />
      <text
         id="text158"
         y="73.294098"
         x="1379.75"
         style="font-style:normal;font-weight:normal;font-size:12.79979992px;font-family:sans-serif;text-anchor:middle;fill:#000000"
         font-size="12.7998">
        <tspan
           id="tspan160"
           y="73.294098"
           x="1379.75" />
      </text>
    </g>
    <g
       transform="matrix(0.70611719,0,0,0.70611719,93.289084,-1.0972129)"
       id="g4364">
      <rect
         id="rect164"
         height="59.449799"
         width="25.4785"
         y="261.26651"
         x="623.53632"
         style="fill:#b3b3b3" />
      <rect
         id="rect166"
         height="59.449799"
         width="25.4785"
         y="261.26651"
         x="623.53632"
         style="fill:none;fill-opacity:0;stroke:#000000;stroke-width:1.60000002" />
      <rect
         id="rect168"
         height="6.79426"
         width="20.382799"
         y="264.8335"
         x="626.07635"
         style="fill:none;fill-opacity:0;stroke:#000000;stroke-width:0.2" />
      <rect
         id="rect170"
         height="6.79426"
         width="20.382799"
         y="271.6275"
         x="626.07635"
         style="fill:none;fill-opacity:0;stroke:#000000;stroke-width:0.2" />
      <rect
         id="rect172"
         height="6.79426"
         width="20.382799"
         y="278.42252"
         x="626.07635"
         style="fill:none;fill-opacity:0;stroke:#000000;stroke-width:0.2" />
      <rect
         id="rect174"
         height="6.79426"
         width="20.382799"
         y="285.21652"
         x="626.07635"
         style="fill:none;fill-opacity:0;stroke:#000000;stroke-width:0.2" />
      <rect
         id="rect176"
         height="4.07656"
         width="12.7392"
         y="293.36951"
         x="626.07635"
         style="fill:none;fill-opacity:0;stroke:#000000;stroke-width:0.2" />
      <circle
         id="ellipse178"
         cy="294.04852"
         cx="645.18634"
         style="fill:#00ff00"
         r="0.89174598" />
      <circle
         id="ellipse180"
         cy="294.04852"
         cx="645.18634"
         style="fill:none;fill-opacity:0;stroke:#000000;stroke-width:0.2"
         r="0.89174598" />
      <circle
         id="ellipse182"
         cy="296.76651"
         cx="645.18634"
         style="fill:#ffff00"
         r="0.89174598" />
      <circle
         id="ellipse184"
         cy="296.76651"
         cx="645.18634"
         style="fill:none;fill-opacity:0;stroke:#000000;stroke-width:0.2"
         r="0.89174598" />
      <rect
         id="rect186"
         height="2.7177"
         width="3.05742"
         y="294.72852"
         x="640.09637"
         style="fill:#ffffff" />
      <rect
         id="rect188"
         height="2.7177"
         width="3.05742"
         y="294.72852"
         x="640.09637"
         style="fill:none;fill-opacity:0;stroke:#000000;stroke-width:0.2" />
      <path
         id="path190"
         d="m 627.77635,302.8815 0,14.862"
         style="fill:none;fill-opacity:0;stroke:#000000;stroke-width:0.2"
         inkscape:connector-curvature="0" />
      <path
         id="path192"
         d="m 632.02635,302.8815 0,14.862"
         style="fill:none;fill-opacity:0;stroke:#000000;stroke-width:0.2"
         inkscape:connector-curvature="0" />
      <path
         id="path194"
         d="m 636.26635,302.8815 0,14.862"
         style="fill:none;fill-opacity:0;stroke:#000000;stroke-width:0.2"
         inkscape:connector-curvature="0" />
      <path
         id="path196"
         d="m 640.51635,302.8815 0,14.862"
         style="fill:none;fill-opacity:0;stroke:#000000;stroke-width:0.2"
         inkscape:connector-curvature="0" />
      <path
         id="path198"
         d="m 644.76635,302.8815 0,14.862"
         style="fill:none;fill-opacity:0;stroke:#000000;stroke-width:0.2"
         inkscape:connector-curvature="0" />
      <path
         id="path200"
         d="m 649.00635,302.8815 0,14.862"
         style="fill:none;fill-opacity:0;stroke:#000000;stroke-width:0.2"
         inkscape:connector-curvature="0" />
      <polygon
         id="polygon202"
         points="1525.1,319.45 1550.57,319.45 1550.57,314.354 1557.37,324.545 1520,324.545 1525.1,314.354 "
         style="fill:#999999"
         transform="translate(-901.56365,1.2664955)" />
      <polygon
         id="polygon204"
         points="1525.1,319.45 1550.57,319.45 1550.57,314.354 1557.37,324.545 1520,324.545 1525.1,314.354 "
         style="fill:none;fill-opacity:0;stroke:#000000;stroke-width:0.2"
         transform="translate(-901.56365,1.2664955)" />
      <text
         id="text206"
         y="339.5105"
         x="637.11639"
         style="font-style:normal;font-weight:normal;font-size:12.79979992px;font-family:sans-serif;text-anchor:middle;fill:#000000"
         font-size="12.7998">
        <tspan
           id="tspan208"
           y="339.5105"
           x="637.11639" />
      </text>
    </g>
    <g
       transform="matrix(0.70611719,0,0,0.70611719,-543.3205,-0.2029187)"
       id="g210">
      <rect
         id="rect212"
         height="40"
         width="240"
         y="120"
         x="1260"
         style="fill:#ffffff" />
      <rect
         id="rect214"
         height="40"
         width="240"
         y="120"
         x="1260"
         style="fill:none;fill-opacity:0;stroke:#000000;stroke-width:2" />
    </g>
    <text
       id="text216"
       y="101.79571"
       x="431.12122"
       style="font-style:normal;font-weight:700;font-size:9.03830051px;font-family:sans-serif;text-anchor:middle;fill:#000000"
       font-size="12.8">
      <tspan
         id="tspan218"
         y="101.79571"
         x="431.12122">DAO</tspan>
    </text>
    <g
       transform="matrix(0.70611719,0,0,0.70611719,-543.3205,-0.2029187)"
       id="g220">
      <line
         id="line222"
         y2="73.736099"
         x2="1380"
         y1="110.264"
         x1="1380"
         style="fill:none;fill-opacity:0;stroke:#000000;stroke-width:2" />
      <polygon
         id="polygon224"
         points="1380,117.764 1375,107.764 1380,110.264 1385,107.764 "
         style="fill:#000000" />
      <polygon
         id="polygon226"
         points="1380,117.764 1375,107.764 1380,110.264 1385,107.764 "
         style="fill:none;fill-opacity:0;stroke:#000000;stroke-width:2" />
      <polygon
         id="polygon228"
         points="1380,66.2361 1385,76.2361 1380,73.7361 1375,76.2361 "
         style="fill:#000000" />
      <polygon
         id="polygon230"
         points="1380,66.2361 1385,76.2361 1380,73.7361 1375,76.2361 "
         style="fill:none;fill-opacity:0;stroke:#000000;stroke-width:2" />
    </g>
    <g
       transform="matrix(0.70611719,0,0,0.70611719,-543.3205,-0.2029187)"
       id="g244">
      <rect
         id="rect246"
         height="40"
         width="240"
         y="160"
         x="1260"
         style="fill:#ffffff" />
      <rect
         id="rect248"
         height="40"
         width="240"
         y="160"
         x="1260"
         style="fill:none;fill-opacity:0;stroke:#000000;stroke-width:2" />
    </g>
    <text
       id="text250"
       y="130.04039"
       x="431.12122"
       style="font-style:normal;font-weight:700;font-size:9.03830051px;font-family:sans-serif;text-anchor:middle;fill:#000000"
       font-size="12.8">
      <tspan
         id="tspan252"
         y="130.04039"
         x="431.12122">SERVICES</tspan>
    </text>
    <g
       transform="matrix(0.70611719,0,0,0.70611719,-543.3205,-0.2029187)"
       id="g254">
      <rect
         id="rect256"
         height="40"
         width="240"
         y="360"
         x="1260"
         style="fill:#ffffff" />
      <rect
         id="rect258"
         height="40"
         width="240"
         y="360"
         x="1260"
         style="fill:none;fill-opacity:0;stroke:#000000;stroke-width:2" />
    </g>
    <text
       id="text260"
       y="271.26385"
       x="431.12122"
       style="font-style:normal;font-weight:700;font-size:9.03830051px;font-family:sans-serif;text-anchor:middle;fill:#000000"
       font-size="12.8">
      <tspan
         id="tspan262"
         y="271.26385"
         x="431.12122">SERVLET</tspan>
    </text>
    <g
       transform="matrix(0.70611719,0,0,0.70611719,-543.3205,-0.2029187)"
       id="g264">
      <rect
         id="rect266"
         height="37.7542"
         width="50.339001"
         y="464"
         x="1356"
         style="fill:#b3b3b3" />
      <rect
         id="rect268"
         height="37.7542"
         width="50.339001"
         y="464"
         x="1356"
         style="fill:none;fill-opacity:0;stroke:#000000;stroke-width:1" />
      <rect
         id="rect270"
         height="26.008499"
         width="39.432201"
         y="469.453"
         x="1361.45"
         style="fill:#000000" />
      <polygon
         id="polygon272"
         points="1362.82,501.754 1388.72,501.754 1388.72,507.627 1364.18,507.627 "
         style="fill:#b3b3b3" />
      <polygon
         id="polygon274"
         points="1362.82,501.754 1388.72,501.754 1388.72,507.627 1364.18,507.627 "
         style="fill:none;fill-opacity:0;stroke:#000000;stroke-width:1" />
      <polygon
         id="polygon276"
         points="1388.72,501.754 1399.52,501.754 1398.16,507.627 1388.72,507.627 "
         style="fill:#b3b3b3" />
      <polygon
         id="polygon278"
         points="1388.72,501.754 1399.52,501.754 1398.16,507.627 1388.72,507.627 "
         style="fill:none;fill-opacity:0;stroke:#000000;stroke-width:1" />
      <rect
         id="rect280"
         height="2.3491499"
         width="2.3491499"
         y="503.51599"
         x="1390.48"
         style="fill:#ffffff" />
      <rect
         id="rect282"
         height="2.3491499"
         width="2.3491499"
         y="503.51599"
         x="1390.48"
         style="fill:none;fill-opacity:0;stroke:#000000;stroke-width:0.5" />
      <polygon
         id="polygon284"
         points="1376.14,507.627 1386.2,507.627 1386.2,510.564 1391.24,510.564 1391.24,513.5 1371.1,513.5 1371.1,510.564 1376.14,510.564 "
         style="fill:#b3b3b3" />
      <polygon
         id="polygon286"
         points="1376.14,507.627 1386.2,507.627 1386.2,510.564 1391.24,510.564 1391.24,513.5 1371.1,513.5 1371.1,510.564 1376.14,510.564 "
         style="fill:none;fill-opacity:0;stroke:#000000;stroke-width:1" />
      <text
         id="text288"
         y="527.17798"
         x="1381.17"
         style="font-style:normal;font-weight:normal;font-size:12.79979992px;font-family:sans-serif;text-anchor:middle;fill:#000000"
         font-size="12.7998">
        <tspan
           id="tspan290"
           y="527.17798"
           x="1381.17" />
      </text>
    </g>
    <text
       id="text292"
       y="66.560638"
       x="434.25125"
       style="font-style:normal;font-weight:normal;font-size:9.03815842px;font-family:sans-serif;text-anchor:start;fill:#000000"
       font-size="12.7998">
      <tspan
         id="tspan294"
         y="66.560638"
         x="434.25125">SQL</tspan>
    </text>
    <g
       transform="matrix(0.70611719,0,0,0.70611719,-543.3205,-0.2029187)"
       id="g296">
      <rect
         id="rect298"
         height="40"
         width="240"
         y="320"
         x="1260"
         style="fill:#ffffff" />
      <rect
         id="rect300"
         height="40"
         width="240"
         y="320"
         x="1260"
         style="fill:none;fill-opacity:0;stroke:#000000;stroke-width:2" />
    </g>
    <text
       id="text302"
       y="243.01917"
       x="431.12122"
       style="font-style:normal;font-weight:700;font-size:9.03830051px;font-family:sans-serif;text-anchor:middle;fill:#000000"
       font-size="12.8">
      <tspan
         id="tspan304"
         y="243.01917"
         x="431.12122">JSP</tspan>
    </text>
    <g
       transform="matrix(0.70611719,0,0,0.70611719,-543.3205,-0.2029187)"
       id="g306">
      <rect
         id="rect308"
         height="40"
         width="240"
         y="240"
         x="1260"
         style="fill:#ffffff" />
      <rect
         id="rect310"
         height="40"
         width="240"
         y="240"
         x="1260"
         style="fill:none;fill-opacity:0;stroke:#000000;stroke-width:2" />
    </g>
    <text
       id="text312"
       y="186.52979"
       x="431.12122"
       style="font-style:normal;font-weight:700;font-size:9.03830051px;font-family:sans-serif;text-anchor:middle;fill:#000000"
       font-size="12.8">
      <tspan
         id="tspan314"
         y="186.52979"
         x="431.12122">BEANS</tspan>
    </text>
    <g
       transform="matrix(0.70611719,0,0,0.70611719,-543.3205,-0.2029187)"
       id="g316">
      <line
         id="line318"
         y2="450.26401"
         x2="1380"
         y1="409.73599"
         x1="1380"
         style="fill:none;fill-opacity:0;stroke:#000000;stroke-width:2" />
      <polygon
         id="polygon320"
         points="1380,402.236 1385,412.236 1380,409.736 1375,412.236 "
         style="fill:#000000" />
      <polygon
         id="polygon322"
         points="1380,402.236 1385,412.236 1380,409.736 1375,412.236 "
         style="fill:none;fill-opacity:0;stroke:#000000;stroke-width:2" />
      <polygon
         id="polygon324"
         points="1380,457.764 1375,447.764 1380,450.264 1385,447.764 "
         style="fill:#000000" />
      <polygon
         id="polygon326"
         points="1380,457.764 1375,447.764 1380,450.264 1385,447.764 "
         style="fill:none;fill-opacity:0;stroke:#000000;stroke-width:2" />
    </g>
    <text
       id="text328"
       y="307.01685"
       x="434.02765"
       style="font-style:normal;font-weight:normal;font-size:9.03815842px;font-family:sans-serif;text-anchor:start;fill:#000000"
       font-size="12.7998">
      <tspan
         id="tspan330"
         y="307.01685"
         x="434.02765">http</tspan>
    </text>
    <g
       transform="matrix(0.70611719,0,0,0.70611719,-543.3205,-0.2029187)"
       id="g356">
      <line
         id="line358"
         y2="289.73599"
         x2="1380"
         y1="310.26401"
         x1="1380"
         style="fill:none;fill-opacity:0;stroke:#000000;stroke-width:2" />
      <polygon
         id="polygon360"
         points="1380,317.764 1375,307.764 1380,310.264 1385,307.764 "
         style="fill:#000000" />
      <polygon
         id="polygon362"
         points="1380,317.764 1375,307.764 1380,310.264 1385,307.764 "
         style="fill:none;fill-opacity:0;stroke:#000000;stroke-width:2" />
      <polygon
         id="polygon364"
         points="1380,282.236 1385,292.236 1380,289.736 1375,292.236 "
         style="fill:#000000" />
      <polygon
         id="polygon366"
         points="1380,282.236 1385,292.236 1380,289.736 1375,292.236 "
         style="fill:none;fill-opacity:0;stroke:#000000;stroke-width:2" />
    </g>
    <g
       transform="matrix(0.70611719,0,0,0.70611719,-543.3205,-0.2029187)"
       id="g368">
      <line
         id="line370"
         y2="209.73599"
         x2="1380"
         y1="230.26401"
         x1="1380"
         style="fill:none;fill-opacity:0;stroke:#000000;stroke-width:2" />
      <polygon
         id="polygon372"
         points="1380,237.764 1375,227.764 1380,230.264 1385,227.764 "
         style="fill:#000000" />
      <polygon
         id="polygon374"
         points="1380,237.764 1375,227.764 1380,230.264 1385,227.764 "
         style="fill:none;fill-opacity:0;stroke:#000000;stroke-width:2" />
      <polygon
         id="polygon376"
         points="1380,202.236 1385,212.236 1380,209.736 1375,212.236 "
         style="fill:#000000" />
      <polygon
         id="polygon378"
         points="1380,202.236 1385,212.236 1380,209.736 1375,212.236 "
         style="fill:none;fill-opacity:0;stroke:#000000;stroke-width:2" />
    </g>
  </g>
</svg>
