<svg xmlns="http://www.w3.org/2000/svg" xmlns:xlink="http://www.w3.org/1999/xlink" width="1348.03" height="346.46"><g transform="translate(0 0)"><path d="M28.03 183.03c-2.76 0-5 2.24-5 5v110c0 2.76 2.24 5 5 5h150c2.76 0 5-2.24 5-5v-110c0-2.76-2.24-5-5-5z" stroke="#3d4752" stroke-width="2" fill="url(#a)"/><path d="M173.03 193.03h-15v20h15z" stroke="#3d4752" fill="url(#b)"/><path d="M163.03 196.36h-10v3.34h10zm0 10h-10v3.34h10z" stroke="#3d4752" fill="url(#c)"/><use xlink:href="#d" transform="matrix(1,0,0,1,23.029229406554478,183.02922940655446) translate(11.103144531250004 54.2492578125)"/><use xlink:href="#e" transform="matrix(1,0,0,1,23.029229406554478,183.02922940655446) translate(38.6348828125 78.76195312499999)"/><use xlink:href="#f" transform="matrix(1,0,0,1,23.029229406554478,183.02922940655446) translate(83.5821484375 78.76195312499999)"/><path d="M269.18 183.03c-2.76 0-5 2.24-5 5v110c0 2.76 2.24 5 5 5h180c2.77 0 5-2.24 5-5v-110c0-2.76-2.23-5-5-5z" stroke="#3d4752" stroke-width="2" fill="url(#g)"/><path d="M444.18 193.03h-15v20h15z" stroke="#3d4752" fill="url(#h)"/><path d="M434.18 196.36h-10v3.34h10zm0 10h-10v3.34h10z" stroke="#3d4752" fill="url(#i)"/><use xlink:href="#d" transform="matrix(1,0,0,1,264.18398293200306,183.02922940655446) translate(13.603144531250004 52.9892578125)"/><use xlink:href="#j" transform="matrix(1,0,0,1,264.18398293200306,183.02922940655446) translate(13.398554687500004 77.501953125)"/><use xlink:href="#k" transform="matrix(1,0,0,1,264.18398293200306,183.02922940655446) translate(108.61046875000001 77.501953125)"/><path d="M549 20c-2.76 0-5 2.24-5 5v70c0 2.76 2.24 5 5 5h350c2.76 0 5-2.24 5-5V25c0-2.76-2.24-5-5-5z" stroke="#3d4752" stroke-width="2" fill="url(#l)"/><path d="M894 30h-15v20h15z" stroke="#3d4752" fill="url(#m)"/><path d="M884 33.33h-10v3.34h10zm0 10h-10v3.34h10z" stroke="#3d4752" fill="url(#n)"/><use xlink:href="#d" transform="matrix(1,0,0,1,544,20) translate(96.10314453125001 34.2392578125)"/><use xlink:href="#o" transform="matrix(1,0,0,1,544,20) translate(128.26818359375 58.751953125)"/><use xlink:href="#p" transform="matrix(1,0,0,1,544,20) translate(180.33458984375 58.751953125)"/><path d="M749.18 183.03c-2.76 0-5 2.24-5 5v110c0 2.76 2.24 5 5 5h150c2.77 0 5-2.24 5-5v-110c0-2.76-2.23-5-5-5z" stroke="#3d4752" stroke-width="2" fill="url(#q)"/><path d="M894.18 193.03h-15v20h15z" stroke="#3d4752" fill="url(#r)"/><path d="M884.18 196.36h-10v3.34h10zm0 10h-10v3.34h10z" stroke="#3d4752" fill="url(#s)"/><use xlink:href="#d" transform="matrix(1,0,0,1,744.1839829320031,183.02922940655446) translate(11.103144531250004 54.2492578125)"/><use xlink:href="#t" transform="matrix(1,0,0,1,744.1839829320031,183.02922940655446) translate(39.557734375 78.76195312499999)"/><use xlink:href="#u" transform="matrix(1,0,0,1,744.1839829320031,183.02922940655446) translate(82.0440625 78.76195312499999)"/><path d="M549.18 183.03c-2.76 0-5 2.24-5 5v110c0 2.76 2.24 5 5 5h150c2.77 0 5-2.24 5-5v-110c0-2.76-2.23-5-5-5z" stroke="#3d4752" stroke-width="2" fill="url(#v)"/><path d="M694.18 193.03h-15v20h15z" stroke="#3d4752" fill="url(#w)"/><path d="M684.18 196.36h-10v3.34h10zm0 10h-10v3.34h10z" stroke="#3d4752" fill="url(#x)"/><use xlink:href="#d" transform="matrix(1,0,0,1,544.1839829320031,183.02922940655446) translate(11.103144531250004 54.2492578125)"/><use xlink:href="#y" transform="matrix(1,0,0,1,544.1839829320031,183.02922940655446) translate(31.208124999999995 78.76195312499999)"/><use xlink:href="#z" transform="matrix(1,0,0,1,544.1839829320031,183.02922940655446) translate(90.58703125 78.76195312499999)"/><path d="M183.03 243.03h80.15" stroke="#000" stroke-width="2" fill="none"/><path d="M264.18 244.03h-1v-2h1z"/><path d="M454.18 243.03h89" stroke="#000" stroke-width="2" fill="none"/><path d="M544.18 244.03h-1v-2h1z"/><path d="M634 100v40.92c0 .05.04.1.1.1.04 0 .08.04.08.1V182" stroke="#000" stroke-width="2" fill="none"/><path d="M635.18 183.03h-2v-1h2z"/><path d="M814 100v40.92c0 .05.04.1.1.1.04 0 .08.04.08.1V182" stroke="#000" stroke-width="2" fill="none"/><path d="M815.18 183.03h-2v-1h2z"/><path d="M983.03 228c0-2.76 2.24-5 5-5h90c2.76 0 5 2.24 5 5v30c0 2.76-2.24 5-5 5h-90c-2.76 0-5-2.24-5-5z" stroke="#000" stroke-width="2" fill="url(#A)"/><g><use xlink:href="#B" transform="matrix(1,0,0,1,983.0292294065546,223) translate(11.079999999999993 24.4)"/></g><path d="M1163.03 188c0-2.76 2.24-5 5-5h150c2.76 0 5 2.24 5 5v110c0 2.76-2.24 5-5 5h-150c-2.76 0-5-2.24-5-5z" stroke="#000" stroke-width="2" fill="url(#C)"/><g><use xlink:href="#D" transform="matrix(1,0,0,1,1163.0292294065546,183) translate(61.055 63.15)"/></g><path d="M904.18 243.03h38.9c.02 0 .03 0 .03-.02h38.92" stroke="#000" stroke-width="2" fill="none"/><path d="M983.03 244h-1v-2h1z"/><path d="M1083.03 243h79" stroke="#000" stroke-width="2" fill="none"/><path d="M1163.03 244h-1v-2h1z"/><path d="M193.03 228.03c0-2.76 2.24-5 5-5h50c2.76 0 5 2.24 5 5v10c0 2.76-2.24 5-5 5h-50c-2.76 0-5-2.24-5-5z" fill="none"/><g><use xlink:href="#E" transform="matrix(1,0,0,1,193.02922940655446,223.02922940655446) translate(6.574999999999999 14.4)"/></g><defs><linearGradient gradientUnits="userSpaceOnUse" id="a" x1="23.03" y1="183.03" x2="23.03" y2="303.03"><stop offset="0%" stop-color="#ffb463"/><stop offset="50.14%" stop-color="#ef8d22"/><stop offset="100%" stop-color="#c26b0e"/></linearGradient><linearGradient gradientUnits="userSpaceOnUse" id="b" x1="23.03" y1="183.03" x2="23.03" y2="303.03"><stop offset="0%" stop-color="#ffb463"/><stop offset="50.14%" stop-color="#ef8d22"/><stop offset="100%" stop-color="#c26b0e"/></linearGradient><linearGradient gradientUnits="userSpaceOnUse" id="c" x1="23.03" y1="183.03" x2="23.03" y2="303.03"><stop offset="0%" stop-color="#ffb463"/><stop offset="50.14%" stop-color="#ef8d22"/><stop offset="100%" stop-color="#c26b0e"/></linearGradient><path fill="#3d4752" d="M1065-242L104-664v-98l961-479v149L283-721l782 328v151" id="F"/><path fill="#3d4752" d="M287-543c-1 247 91 418 323 418 91 0 185-20 281-59v147C818 1 725 20 614 20c-329 0-499-221-499-561 0-349 172-575 510-575 96 0 221 26 282 57l-51 141c-61-25-157-50-235-51-223 0-334 142-334 426" id="G"/><path fill="#3d4752" d="M621-1116c316 0 501 239 501 567 0 339-180 575-508 569S119-212 115-549c-4-339 178-567 506-567zm-5 141c-239 0-329 168-329 426 0 255 93 430 331 430s332-174 332-430-95-426-334-426" id="H"/><path fill="#3d4752" d="M1368-1116c259 2 372 131 371 401V0h-166v-713c0-168-66-262-230-262-221 0-303 131-303 363V0H874v-713c-1-169-66-262-231-262-235 0-301 142-301 400V0H176v-1096h135l27 150h8c56-99 174-170 324-170 171 0 283 62 336 186h8c60-108 189-187 354-186" id="I"/><path fill="#3d4752" d="M1141-549c0 329-147 569-455 569-159 0-273-61-344-161h-12c23 199 7 418 12 633H176v-1588h135l23 150h8c77-108 175-170 344-170 311 0 455 237 455 567zm-172-2c0-242-88-424-307-424-256 0-323 154-320 426 3 280 68 430 324 430 213 0 303-196 303-432" id="J"/><path fill="#3d4752" d="M694-1116c270 0 399 125 398 401V0H926v-709c-1-177-76-266-252-266-250 0-332 133-332 400V0H176v-1096h135l27 150h8c62-101 190-170 348-170" id="K"/><path fill="#3d4752" d="M995-51C878-2 799 19 639 20c-329 2-524-221-524-559 0-326 172-577 481-577 278 0 451 210 446 493v105H287c4 242 121 392 358 393 118 0 235-25 350-74v148zM864-653c2-195-85-324-270-324-190 0-288 139-303 324h573" id="L"/><path fill="#3d4752" d="M354-322c-2 123 60 204 176 205 51 1 114-10 150-20v127C647 7 557 20 506 20 294 20 188-92 188-315v-652H31v-80l157-69 70-234h96v254h318v129H354v645" id="M"/><path fill="#3d4752" d="M104-393l783-326-783-373v-149l961 479v98L104-242v-151" id="N"/><g id="d"><use transform="matrix(0.0087890625,0,0,0.0087890625,0,0)" xlink:href="#F"/><use transform="matrix(0.0087890625,0,0,0.0087890625,10.2919921875,0)" xlink:href="#F"/><use transform="matrix(0.0087890625,0,0,0.0087890625,20.583984375,0)" xlink:href="#G"/><use transform="matrix(0.0087890625,0,0,0.0087890625,29.1533203125,0)" xlink:href="#H"/><use transform="matrix(0.0087890625,0,0,0.0087890625,40.025390625,0)" xlink:href="#I"/><use transform="matrix(0.0087890625,0,0,0.0087890625,56.7685546875,0)" xlink:href="#J"/><use transform="matrix(0.0087890625,0,0,0.0087890625,67.798828125,0)" xlink:href="#H"/><use transform="matrix(0.0087890625,0,0,0.0087890625,78.6708984375,0)" xlink:href="#K"/><use transform="matrix(0.0087890625,0,0,0.0087890625,89.71875,0)" xlink:href="#L"/><use transform="matrix(0.0087890625,0,0,0.0087890625,99.8173828125,0)" xlink:href="#K"/><use transform="matrix(0.0087890625,0,0,0.0087890625,110.865234375,0)" xlink:href="#M"/><use transform="matrix(0.0087890625,0,0,0.0087890625,117.2197265625,0)" xlink:href="#N"/><use transform="matrix(0.0087890625,0,0,0.0087890625,127.51171875,0)" xlink:href="#N"/></g><path fill="#3d4752" d="M1036-1462h183L692 0H524L0-1462h180l336 946c39 109 69 214 92 317 24-108 55-216 94-323" id="O"/><path fill="#3d4752" d="M563 20c-271 0-399-123-399-399v-717h168v711c1 177 76 266 252 266 250 0 331-135 331-401v-576h166V0H944l-24-147h-9C848-44 724 20 563 20" id="P"/><path fill="#3d4752" d="M502-977c-130 0-238 32-238 139 0 75 39 101 95 134 33 19 97 46 192 81 130 48 217 95 263 143s69 108 69 181C883-73 695 20 449 20 304 20 190-3 109-49v-154c91 47 216 86 344 86 149 0 270-36 270-168 0-43-21-76-55-109-56-55-367-158-434-208-74-55-128-109-128-225 0-327 490-342 754-217l-59 135c-110-45-210-68-299-68" id="Q"/><g id="e"><use transform="matrix(0.0087890625,0,0,0.0087890625,0,0)" xlink:href="#O"/><use transform="matrix(0.0087890625,0,0,0.0087890625,10.5380859375,0)" xlink:href="#P"/><use transform="matrix(0.0087890625,0,0,0.0087890625,21.5859375,0)" xlink:href="#L"/><use transform="matrix(0.0087890625,0,0,0.0087890625,31.6845703125,0)" xlink:href="#Q"/></g><path fill="#3d4752" d="M383 324C201 116 82-188 82-561c0-378 120-688 301-901h162c-172 227-289 529-289 899 0 361 122 665 287 887H383" id="R"/><path fill="#3d4752" d="M360-14c2 246-129 400-372 399-63 0-112-9-148-27V213c47 13 97 20 148 20 138 0 203-90 202-233v-1462h170V-14" id="S"/><path fill="#3d4752" d="M584-1331c-162 0-287 69-287 219 0 118 43 164 123 214 44 28 112 56 203 89 153 55 259 113 317 176s86 144 86 244c-1 276-228 409-520 409-173 0-307-22-400-67v-164c109 46 257 81 406 82 199 1 342-68 342-244 0-120-47-164-132-214-47-28-121-58-218-93-136-49-234-106-292-173s-87-154-87-261c-1-239 209-369 463-369 145 0 279 27 401 80l-53 148c-121-51-238-76-352-76" id="T"/><path fill="#3d4752" d="M1128-1036c0 321-241 464-585 461H371V0H201v-1462h379c365 0 548 142 548 426zm-176 8c0-218-150-286-391-287H371v594h153c270-3 428-62 428-307" id="U"/><path fill="#3d4752" d="M223-1462c182 213 301 524 301 901 0 373-119 679-301 885H63c166-222 287-526 287-887 0-369-117-672-289-899h162" id="V"/><g id="f"><use transform="matrix(0.0087890625,0,0,0.0087890625,0,0)" xlink:href="#R"/><use transform="matrix(0.0087890625,0,0,0.0087890625,6.943359375,0)" xlink:href="#S"/><use transform="matrix(0.0087890625,0,0,0.0087890625,11.7509765625,0)" xlink:href="#T"/><use transform="matrix(0.0087890625,0,0,0.0087890625,21.6298828125,0)" xlink:href="#U"/><use transform="matrix(0.0087890625,0,0,0.0087890625,32.466796875,0)" xlink:href="#V"/></g><linearGradient gradientUnits="userSpaceOnUse" id="g" x1="264.18" y1="183.03" x2="264.18" y2="303.03"><stop offset="0%" stop-color="#ffb463"/><stop offset="50.14%" stop-color="#ef8d22"/><stop offset="100%" stop-color="#c26b0e"/></linearGradient><linearGradient gradientUnits="userSpaceOnUse" id="h" x1="264.18" y1="183.03" x2="264.18" y2="303.03"><stop offset="0%" stop-color="#ffb463"/><stop offset="50.14%" stop-color="#ef8d22"/><stop offset="100%" stop-color="#c26b0e"/></linearGradient><linearGradient gradientUnits="userSpaceOnUse" id="i" x1="264.18" y1="183.03" x2="264.18" y2="303.03"><stop offset="0%" stop-color="#ffb463"/><stop offset="50.14%" stop-color="#ef8d22"/><stop offset="100%" stop-color="#c26b0e"/></linearGradient><path fill="#3d4752" d="M125-733c6-459 248-750 704-750 153 0 287 28 402 84l-72 146c-111-52-221-78-332-78-334-1-520 251-520 600 0 361 171 600 518 600 102 0 218-18 349-55v149C1073 1 948 20 799 20c-445 1-680-294-674-753" id="W"/><path fill="#3d4752" d="M340-893c80-153 237-262 467-211l-23 154c-45-10-85-15-120-15-184-3-322 182-322 377V0H176v-1096h137l19 203h8" id="X"/><path fill="#3d4752" d="M621-1116c316 0 501 239 501 567 0 339-180 575-508 569S119-212 115-549c-4-339 178-567 506-567zm-5 141c-239 0-329 168-329 426 0 255 93 430 331 430s332-174 332-430-95-426-334-426zm84-594c72 117 132 172 256 305v23H837c-59-37-132-99-221-186-91 89-164 151-219 186H282v-23c128-140 176-186 252-305h166" id="Y"/><path fill="#3d4752" d="M342 0H176v-1556h166V0" id="Z"/><g id="j"><use transform="matrix(0.0087890625,0,0,0.0087890625,0,0)" xlink:href="#W"/><use transform="matrix(0.0087890625,0,0,0.0087890625,11.35546875,0)" xlink:href="#H"/><use transform="matrix(0.0087890625,0,0,0.0087890625,22.2275390625,0)" xlink:href="#K"/><use transform="matrix(0.0087890625,0,0,0.0087890625,33.275390625,0)" xlink:href="#M"/><use transform="matrix(0.0087890625,0,0,0.0087890625,39.6298828125,0)" xlink:href="#X"/><use transform="matrix(0.0087890625,0,0,0.0087890625,46.6171875,0)" xlink:href="#Y"/><use transform="matrix(0.0087890625,0,0,0.0087890625,57.4892578125,0)" xlink:href="#Z"/><use transform="matrix(0.0087890625,0,0,0.0087890625,62.0419921875,0)" xlink:href="#L"/><use transform="matrix(0.0087890625,0,0,0.0087890625,72.140625,0)" xlink:href="#P"/><use transform="matrix(0.0087890625,0,0,0.0087890625,83.1884765625,0)" xlink:href="#X"/></g><path fill="#3d4752" d="M516-150c94-315 146-423 332-946h178L610 0H416L0-1096h178c98 281 253 670 330 946h8" id="aa"/><g id="k"><use transform="matrix(0.0087890625,0,0,0.0087890625,0,0)" xlink:href="#R"/><use transform="matrix(0.0087890625,0,0,0.0087890625,5.326171875,0)" xlink:href="#T"/><use transform="matrix(0.0087890625,0,0,0.0087890625,15.205078125,0)" xlink:href="#L"/><use transform="matrix(0.0087890625,0,0,0.0087890625,25.3037109375,0)" xlink:href="#X"/><use transform="matrix(0.0087890625,0,0,0.0087890625,32.6513671875,0)" xlink:href="#aa"/><use transform="matrix(0.0087890625,0,0,0.0087890625,41.6689453125,0)" xlink:href="#Z"/><use transform="matrix(0.0087890625,0,0,0.0087890625,46.2216796875,0)" xlink:href="#L"/><use transform="matrix(0.0087890625,0,0,0.0087890625,56.3203125,0)" xlink:href="#M"/><use transform="matrix(0.0087890625,0,0,0.0087890625,62.6748046875,0)" xlink:href="#V"/></g><linearGradient gradientUnits="userSpaceOnUse" id="l" x1="904" y1="20" x2="904" y2="100"><stop offset="0%" stop-color="#ffdcb6"/><stop offset="55.98%" stop-color="#ffb463"/><stop offset="100%" stop-color="#ff9320"/></linearGradient><linearGradient gradientUnits="userSpaceOnUse" id="m" x1="904" y1="20" x2="904" y2="100"><stop offset="0%" stop-color="#ffdcb6"/><stop offset="55.98%" stop-color="#ffb463"/><stop offset="100%" stop-color="#ff9320"/></linearGradient><linearGradient gradientUnits="userSpaceOnUse" id="n" x1="904" y1="20" x2="904" y2="100"><stop offset="0%" stop-color="#ffdcb6"/><stop offset="55.98%" stop-color="#ffb463"/><stop offset="100%" stop-color="#ff9320"/></linearGradient><path fill="#3d4752" d="M1016 0H201v-1462h815v151H371v471h606v150H371v538h645V0" id="ab"/><path fill="#3d4752" d="M342 0H176v-1096h166V0zm-82-1282c-61 0-98-43-98-111 0-69 36-110 98-110 59 0 98 43 98 110s-39 111-98 111" id="ac"/><path fill="#3d4752" d="M526-162c88-293 120-356 326-934h178L559 152c-47 123-102 209-163 262-93 80-237 94-380 61V342c184 39 305-9 367-180L444 6 2-1096h178c103 283 263 645 338 934h8" id="ad"/><g id="o"><use transform="matrix(0.0087890625,0,0,0.0087890625,0,0)" xlink:href="#ab"/><use transform="matrix(0.0087890625,0,0,0.0087890625,10.0107421875,0)" xlink:href="#K"/><use transform="matrix(0.0087890625,0,0,0.0087890625,21.05859375,0)" xlink:href="#M"/><use transform="matrix(0.0087890625,0,0,0.0087890625,27.4130859375,0)" xlink:href="#ac"/><use transform="matrix(0.0087890625,0,0,0.0087890625,31.9658203125,0)" xlink:href="#M"/><use transform="matrix(0.0087890625,0,0,0.0087890625,38.3203125,0)" xlink:href="#ad"/></g><path fill="#3d4752" d="M1214-416C1213-138 1004 0 711 0H201v-1462h413c194 0 334 29 421 87s130 150 130 275c0 188-114 295-284 324v10c222 38 333 155 333 350zm-225-667c0-194-147-232-368-232H371v479h280c219-3 338-46 338-247zm43 655c0-204-147-264-370-264H371v547h305c220-1 356-73 356-283" id="ae"/><path fill="#3d4752" d="M588-1114c260 0 384 106 385 366V0H850l-33-156h-8C708-34 639 17 442 20 231 23 94-94 94-303c0-221 177-337 531-348l186-6c11-203-40-320-233-320-91 0-195 28-310 84l-51-127c97-53 229-94 371-94zM268-301c-1 123 81 184 207 184 203 0 334-120 332-323v-99c-257 14-539-7-539 238" id="af"/><g id="p"><use transform="matrix(0.0087890625,0,0,0.0087890625,0,0)" xlink:href="#ae"/><use transform="matrix(0.0087890625,0,0,0.0087890625,11.6630859375,0)" xlink:href="#L"/><use transform="matrix(0.0087890625,0,0,0.0087890625,21.76171875,0)" xlink:href="#af"/><use transform="matrix(0.0087890625,0,0,0.0087890625,31.7724609375,0)" xlink:href="#K"/><use transform="matrix(0.0087890625,0,0,0.0087890625,42.8203125,0)" xlink:href="#Q"/></g><linearGradient gradientUnits="userSpaceOnUse" id="q" x1="744.18" y1="183.03" x2="744.18" y2="303.03"><stop offset="0%" stop-color="#ffb463"/><stop offset="50.14%" stop-color="#ef8d22"/><stop offset="100%" stop-color="#c26b0e"/></linearGradient><linearGradient gradientUnits="userSpaceOnUse" id="r" x1="744.18" y1="183.03" x2="744.18" y2="303.03"><stop offset="0%" stop-color="#ffb463"/><stop offset="50.14%" stop-color="#ef8d22"/><stop offset="100%" stop-color="#c26b0e"/></linearGradient><linearGradient gradientUnits="userSpaceOnUse" id="s" x1="744.18" y1="183.03" x2="744.18" y2="303.03"><stop offset="0%" stop-color="#ffb463"/><stop offset="50.14%" stop-color="#ef8d22"/><stop offset="100%" stop-color="#c26b0e"/></linearGradient><path fill="#3d4752" d="M649-1462c450-4 719 268 719 717 0 484-276 748-762 745H201v-1462h448zM578-147c400 1 610-197 610-592 1-379-192-576-570-576H371v1168h207" id="ag"/><path fill="#3d4752" d="M1120 0L938-465H352L172 0H0l578-1468h143L1296 0h-176zM885-618c-81-228-168-420-238-664-57 230-159 449-235 664h473" id="ah"/><path fill="#3d4752" d="M801-1485c433 0 669 306 669 752S1232 20 799 20c-445 0-674-297-674-755 0-456 232-750 676-750zm0 152c-345 0-496 236-496 600 0 367 148 604 494 604 348 0 491-235 491-604 0-366-143-600-489-600" id="ai"/><g id="t"><use transform="matrix(0.0087890625,0,0,0.0087890625,0,0)" xlink:href="#ag"/><use transform="matrix(0.0087890625,0,0,0.0087890625,12.76171875,0)" xlink:href="#ah"/><use transform="matrix(0.0087890625,0,0,0.0087890625,23.7919921875,0)" xlink:href="#ai"/></g><g id="u"><use transform="matrix(0.0087890625,0,0,0.0087890625,0,0)" xlink:href="#R"/><use transform="matrix(0.0087890625,0,0,0.0087890625,6.943359375,0)" xlink:href="#S"/><use transform="matrix(0.0087890625,0,0,0.0087890625,11.7509765625,0)" xlink:href="#U"/><use transform="matrix(0.0087890625,0,0,0.0087890625,21.69140625,0)" xlink:href="#ah"/><use transform="matrix(0.0087890625,0,0,0.0087890625,33.08203125,0)" xlink:href="#V"/></g><linearGradient gradientUnits="userSpaceOnUse" id="v" x1="544.18" y1="183.03" x2="544.18" y2="303.03"><stop offset="0%" stop-color="#ffb463"/><stop offset="50.14%" stop-color="#ef8d22"/><stop offset="100%" stop-color="#c26b0e"/></linearGradient><linearGradient gradientUnits="userSpaceOnUse" id="w" x1="544.18" y1="183.03" x2="544.18" y2="303.03"><stop offset="0%" stop-color="#ffb463"/><stop offset="50.14%" stop-color="#ef8d22"/><stop offset="100%" stop-color="#c26b0e"/></linearGradient><linearGradient gradientUnits="userSpaceOnUse" id="x" x1="544.18" y1="183.03" x2="544.18" y2="303.03"><stop offset="0%" stop-color="#ffb463"/><stop offset="50.14%" stop-color="#ef8d22"/><stop offset="100%" stop-color="#c26b0e"/></linearGradient><path fill="#3d4752" d="M848 0L352-1296h-8c27 395 8 875 14 1296H201v-1462h256L920-256h8l467-1206h254V0h-170c6-439-13-873 14-1294h-8L985 0H848" id="aj"/><path fill="#3d4752" d="M995-51C878-2 799 19 639 20c-329 2-524-221-524-559 0-326 172-577 481-577 278 0 451 210 446 493v105H287c4 242 121 392 358 393 118 0 235-25 350-74v148zM864-653c2-195-85-324-270-324-190 0-288 139-303 324h573zm0-895c-53 81-206 247-282 307H471v-25c58-73 149-217 191-303h202v21" id="ak"/><g id="y"><use transform="matrix(0.0087890625,0,0,0.0087890625,0,0)" xlink:href="#aj"/><use transform="matrix(0.0087890625,0,0,0.0087890625,16.2509765625,0)" xlink:href="#ak"/><use transform="matrix(0.0087890625,0,0,0.0087890625,26.349609375,0)" xlink:href="#M"/><use transform="matrix(0.0087890625,0,0,0.0087890625,32.7041015625,0)" xlink:href="#ac"/><use transform="matrix(0.0087890625,0,0,0.0087890625,37.2568359375,0)" xlink:href="#L"/><use transform="matrix(0.0087890625,0,0,0.0087890625,47.35546875,0)" xlink:href="#X"/></g><g id="z"><use transform="matrix(0.0087890625,0,0,0.0087890625,0,0)" xlink:href="#R"/><use transform="matrix(0.0087890625,0,0,0.0087890625,5.326171875,0)" xlink:href="#ab"/><use transform="matrix(0.0087890625,0,0,0.0087890625,16.41796875,0)" xlink:href="#S"/><use transform="matrix(0.0087890625,0,0,0.0087890625,21.2255859375,0)" xlink:href="#ae"/><use transform="matrix(0.0087890625,0,0,0.0087890625,32.888671875,0)" xlink:href="#V"/></g><linearGradient gradientUnits="userSpaceOnUse" id="A" x1="983.03" y1="223" x2="983.03" y2="263"><stop offset="0%" stop-color="#ffb463"/><stop offset="50.14%" stop-color="#ef8d22"/><stop offset="100%" stop-color="#c26b0e"/></linearGradient><path d="M197 0v-115H63V0H30v-248h33v105h134v-105h34V0h-34" id="al"/><path d="M24-231v-30h32v30H24zM24 0v-190h32V0H24" id="am"/><path d="M115-194c53 0 69 39 70 98 0 66-23 100-70 100C84 3 66-7 56-30L54 0H23l1-261h32v101c10-23 28-34 59-34zm-8 174c40 0 45-34 45-75 0-40-5-75-45-74-42 0-51 32-51 76 0 43 10 73 51 73" id="an"/><path d="M100-194c63 0 86 42 84 106H49c0 40 14 67 53 68 26 1 43-12 49-29l28 8c-11 28-37 45-77 45C44 4 14-33 15-96c1-61 26-98 85-98zm52 81c6-60-76-77-97-28-3 7-6 17-6 28h103" id="ao"/><path d="M114-163C36-179 61-72 57 0H25l-1-190h30c1 12-1 29 2 39 6-27 23-49 58-41v29" id="ap"/><path d="M117-194c89-4 53 116 60 194h-32v-121c0-31-8-49-39-48C34-167 62-67 57 0H25l-1-190h30c1 10-1 24 2 32 11-22 29-35 61-36" id="aq"/><path d="M141-36C126-15 110 5 73 4 37 3 15-17 15-53c-1-64 63-63 125-63 3-35-9-54-41-54-24 1-41 7-42 31l-33-3c5-37 33-52 76-52 45 0 72 20 72 64v82c-1 20 7 32 28 27v20c-31 9-61-2-59-35zM48-53c0 20 12 33 32 33 41-3 63-29 60-74-43 2-92-5-92 41" id="ar"/><path d="M59-47c-2 24 18 29 38 22v24C64 9 27 4 27-40v-127H5v-23h24l9-43h21v43h35v23H59v120" id="as"/><g id="B"><use transform="matrix(0.05,0,0,0.05,0,0)" xlink:href="#al"/><use transform="matrix(0.05,0,0,0.05,12.950000000000001,0)" xlink:href="#am"/><use transform="matrix(0.05,0,0,0.05,16.900000000000002,0)" xlink:href="#an"/><use transform="matrix(0.05,0,0,0.05,26.900000000000002,0)" xlink:href="#ao"/><use transform="matrix(0.05,0,0,0.05,36.900000000000006,0)" xlink:href="#ap"/><use transform="matrix(0.05,0,0,0.05,42.85000000000001,0)" xlink:href="#aq"/><use transform="matrix(0.05,0,0,0.05,52.85,0)" xlink:href="#ar"/><use transform="matrix(0.05,0,0,0.05,62.85,0)" xlink:href="#as"/><use transform="matrix(0.05,0,0,0.05,67.85000000000001,0)" xlink:href="#ao"/></g><linearGradient gradientUnits="userSpaceOnUse" id="C" x1="1163.03" y1="183" x2="1163.03" y2="303"><stop offset="0%" stop-color="#ffb463"/><stop offset="50.14%" stop-color="#ef8d22"/><stop offset="100%" stop-color="#c26b0e"/></linearGradient><path d="M160-131c35 5 61 23 61 61C221 17 115-2 30 0v-248c76 3 177-17 177 60 0 33-19 50-47 57zm-97-11c50-1 110 9 110-42 0-47-63-36-110-37v79zm0 115c55-2 124 14 124-45 0-56-70-42-124-44v89" id="at"/><path d="M30-248c118-7 216 8 213 122C240-48 200 0 122 0H30v-248zM63-27c89 8 146-16 146-99s-60-101-146-95v194" id="au"/><g id="D"><use transform="matrix(0.05,0,0,0.05,0,0)" xlink:href="#at"/><use transform="matrix(0.05,0,0,0.05,12,0)" xlink:href="#au"/><use transform="matrix(0.05,0,0,0.05,24.950000000000003,0)" xlink:href="#au"/></g><path d="M127-220V0H93v-220H8v-28h204v28h-85" id="av"/><path d="M30-248c87 1 191-15 191 75 0 78-77 80-158 76V0H30v-248zm33 125c57 0 124 11 124-50 0-59-68-47-124-48v98" id="aw"/><g id="E"><use transform="matrix(0.05,0,0,0.05,0,0)" xlink:href="#al"/><use transform="matrix(0.05,0,0,0.05,12.950000000000001,0)" xlink:href="#av"/><use transform="matrix(0.05,0,0,0.05,23.900000000000002,0)" xlink:href="#av"/><use transform="matrix(0.05,0,0,0.05,34.85,0)" xlink:href="#aw"/></g></defs></g></svg>