<?xml version="1.0" encoding="utf-8" ?>
<!DOCTYPE svg PUBLIC "-//W3C//DTD SVG 1.1//EN" "http://www.w3.org/Graphics/SVG/1.1/DTD/svg11.dtd">
<svg height="548" version="1.1" width="1202" xmlns="http://www.w3.org/2000/svg">
<rect fill="#ffffff" height="520" stroke="#ffffff" stroke-width="1" width="896" x="158" y="14"/>
<rect fill="none" height="520" stroke="#000000" stroke-width="1" width="896" x="158" y="14"/>
<text font-family="Dialog" font-size="12" x="58" y="117">
Diététicien</text>
<ellipse cx="87" cy="63" fill="#000000" rx="8.0" ry="7.5" stroke="#000000" stroke-width="1"/>
<ellipse cx="87" cy="63" fill="#ffffff" rx="7.0" ry="6.5" stroke="#ffffff" stroke-width="1"/>
<line fill="#000000" stroke="#000000" stroke-width="1" x1="87" x2="87" y1="71" y2="86"/>
<line fill="#000000" stroke="#000000" stroke-width="1" x1="77" x2="97" y1="76" y2="76"/>
<line fill="#000000" stroke="#000000" stroke-width="1" x1="87" x2="82" y1="86" y2="101"/>
<line fill="#000000" stroke="#000000" stroke-width="1" x1="87" x2="92" y1="86" y2="101"/>
<ellipse cx="404" cy="75" fill="#000000" rx="102.0" ry="21.0" stroke="#000000" stroke-width="1"/>
<ellipse cx="404" cy="75" fill="#ffffff" rx="101.0" ry="20.0" stroke="#ffffff" stroke-width="1"/>
<ellipse cx="404" cy="75" fill="#000000" rx="102.0" ry="21.0" stroke="#000000" stroke-width="1"/>
<ellipse cx="404" cy="75" fill="#ffffff" rx="101.0" ry="20.0" stroke="#ffffff" stroke-width="1"/>
<text font-family="Dialog" font-size="12" x="340" y="79">
Gérer les profils patient</text>
<polyline fill="none" points="97,76 302,75" stroke="#000000" stroke-width="1"/>
<text font-family="Dialog" font-size="12" x="167" y="59">
 </text>
<ellipse cx="835" cy="51" fill="#000000" rx="197.0" ry="21.0" stroke="#000000" stroke-width="1"/>
<ellipse cx="835" cy="51" fill="#ffffff" rx="196.0" ry="20.0" stroke="#ffffff" stroke-width="1"/>
<ellipse cx="835" cy="51" fill="#000000" rx="197.0" ry="21.0" stroke="#000000" stroke-width="1"/>
<ellipse cx="835" cy="51" fill="#ffffff" rx="196.0" ry="20.0" stroke="#ffffff" stroke-width="1"/>
<text font-family="Dialog" font-size="12" x="707" y="55">
Ajouter les informations personnel d'un patient</text>
<ellipse cx="823" cy="123" fill="#000000" rx="153.0" ry="21.0" stroke="#000000" stroke-width="1"/>
<ellipse cx="823" cy="123" fill="#ffffff" rx="152.0" ry="20.0" stroke="#ffffff" stroke-width="1"/>
<ellipse cx="823" cy="123" fill="#000000" rx="153.0" ry="21.0" stroke="#000000" stroke-width="1"/>
<ellipse cx="823" cy="123" fill="#ffffff" rx="152.0" ry="20.0" stroke="#ffffff" stroke-width="1"/>
<text font-family="Dialog" font-size="12" x="724" y="127">
Gérer le profil diététique d'un patient</text>
<line fill="#000000" stroke="#000000" stroke-width="1" x1="502" x2="507" y1="69" y2="69"/>
<line fill="#000000" stroke="#000000" stroke-width="1" x1="512" x2="517" y1="69" y2="69"/>
<line fill="#000000" stroke="#000000" stroke-width="1" x1="522" x2="527" y1="68" y2="68"/>
<line fill="#000000" stroke="#000000" stroke-width="1" x1="532" x2="537" y1="68" y2="67"/>
<line fill="#000000" stroke="#000000" stroke-width="1" x1="542" x2="547" y1="67" y2="67"/>
<line fill="#000000" stroke="#000000" stroke-width="1" x1="552" x2="557" y1="67" y2="66"/>
<line fill="#000000" stroke="#000000" stroke-width="1" x1="562" x2="567" y1="66" y2="66"/>
<line fill="#000000" stroke="#000000" stroke-width="1" x1="572" x2="577" y1="65" y2="65"/>
<line fill="#000000" stroke="#000000" stroke-width="1" x1="582" x2="587" y1="65" y2="65"/>
<line fill="#000000" stroke="#000000" stroke-width="1" x1="592" x2="597" y1="64" y2="64"/>
<line fill="#000000" stroke="#000000" stroke-width="1" x1="602" x2="607" y1="64" y2="63"/>
<line fill="#000000" stroke="#000000" stroke-width="1" x1="612" x2="617" y1="63" y2="63"/>
<line fill="#000000" stroke="#000000" stroke-width="1" x1="622" x2="627" y1="63" y2="62"/>
<line fill="#000000" stroke="#000000" stroke-width="1" x1="632" x2="637" y1="62" y2="62"/>
<line fill="#000000" stroke="#000000" stroke-width="1" x1="642" x2="647" y1="61" y2="61"/>
<line fill="#000000" stroke="#000000" stroke-width="1" x1="652" x2="657" y1="61" y2="61"/>
<line fill="#000000" stroke="#000000" stroke-width="1" x1="647" x2="659" y1="67" y2="60"/>
<line fill="#000000" stroke="#000000" stroke-width="1" x1="646" x2="659" y1="53" y2="60"/>
<text font-family="Dialog" font-size="12" x="546" y="59">
&lt;&lt;include&gt;&gt;</text>
<line fill="#000000" stroke="#000000" stroke-width="1" x1="493" x2="497" y1="85" y2="85"/>
<line fill="#000000" stroke="#000000" stroke-width="1" x1="502" x2="507" y1="86" y2="86"/>
<line fill="#000000" stroke="#000000" stroke-width="1" x1="512" x2="517" y1="87" y2="87"/>
<line fill="#000000" stroke="#000000" stroke-width="1" x1="522" x2="527" y1="88" y2="88"/>
<line fill="#000000" stroke="#000000" stroke-width="1" x1="532" x2="537" y1="89" y2="90"/>
<line fill="#000000" stroke="#000000" stroke-width="1" x1="542" x2="547" y1="90" y2="91"/>
<line fill="#000000" stroke="#000000" stroke-width="1" x1="552" x2="557" y1="91" y2="92"/>
<line fill="#000000" stroke="#000000" stroke-width="1" x1="562" x2="567" y1="92" y2="93"/>
<line fill="#000000" stroke="#000000" stroke-width="1" x1="572" x2="577" y1="94" y2="94"/>
<line fill="#000000" stroke="#000000" stroke-width="1" x1="582" x2="587" y1="95" y2="95"/>
<line fill="#000000" stroke="#000000" stroke-width="1" x1="592" x2="597" y1="96" y2="96"/>
<line fill="#000000" stroke="#000000" stroke-width="1" x1="602" x2="607" y1="97" y2="97"/>
<line fill="#000000" stroke="#000000" stroke-width="1" x1="612" x2="617" y1="98" y2="99"/>
<line fill="#000000" stroke="#000000" stroke-width="1" x1="622" x2="627" y1="99" y2="100"/>
<line fill="#000000" stroke="#000000" stroke-width="1" x1="632" x2="637" y1="100" y2="101"/>
<line fill="#000000" stroke="#000000" stroke-width="1" x1="642" x2="647" y1="101" y2="102"/>
<line fill="#000000" stroke="#000000" stroke-width="1" x1="652" x2="657" y1="103" y2="103"/>
<line fill="#000000" stroke="#000000" stroke-width="1" x1="662" x2="667" y1="104" y2="104"/>
<line fill="#000000" stroke="#000000" stroke-width="1" x1="672" x2="677" y1="105" y2="105"/>
<line fill="#000000" stroke="#000000" stroke-width="1" x1="682" x2="687" y1="106" y2="106"/>
<line fill="#000000" stroke="#000000" stroke-width="1" x1="692" x2="697" y1="107" y2="108"/>
<line fill="#000000" stroke="#000000" stroke-width="1" x1="702" x2="705" y1="108" y2="109"/>
<line fill="#000000" stroke="#000000" stroke-width="1" x1="692" x2="705" y1="114" y2="109"/>
<line fill="#000000" stroke="#000000" stroke-width="1" x1="693" x2="705" y1="100" y2="109"/>
<text font-family="Dialog" font-size="12" x="565" y="90">
&lt;&lt;include&gt;&gt;</text>
<text font-family="Dialog" font-size="12" x="18" y="325">
Service restauration</text>
<ellipse cx="72" cy="271" fill="#000000" rx="8.0" ry="7.5" stroke="#000000" stroke-width="1"/>
<ellipse cx="72" cy="271" fill="#ffffff" rx="7.0" ry="6.5" stroke="#ffffff" stroke-width="1"/>
<line fill="#000000" stroke="#000000" stroke-width="1" x1="72" x2="72" y1="279" y2="294"/>
<line fill="#000000" stroke="#000000" stroke-width="1" x1="62" x2="82" y1="284" y2="284"/>
<line fill="#000000" stroke="#000000" stroke-width="1" x1="72" x2="67" y1="294" y2="309"/>
<line fill="#000000" stroke="#000000" stroke-width="1" x1="72" x2="77" y1="294" y2="309"/>
<ellipse cx="406" cy="195" fill="#000000" rx="232.0" ry="21.0" stroke="#000000" stroke-width="1"/>
<ellipse cx="406" cy="195" fill="#ffffff" rx="231.0" ry="20.0" stroke="#ffffff" stroke-width="1"/>
<ellipse cx="406" cy="195" fill="#000000" rx="232.0" ry="21.0" stroke="#000000" stroke-width="1"/>
<ellipse cx="406" cy="195" fill="#ffffff" rx="231.0" ry="20.0" stroke="#ffffff" stroke-width="1"/>
<text font-family="Dialog" font-size="12" x="255" y="199">
Créer un menu selon les profils diététique des patients</text>
<ellipse cx="402" cy="391" fill="#000000" rx="236.0" ry="41.0" stroke="#000000" stroke-width="1"/>
<ellipse cx="402" cy="391" fill="#ffffff" rx="235.0" ry="40.0" stroke="#ffffff" stroke-width="1"/>
<ellipse cx="402" cy="391" fill="#000000" rx="236.0" ry="41.0" stroke="#000000" stroke-width="1"/>
<ellipse cx="402" cy="391" fill="#ffffff" rx="235.0" ry="40.0" stroke="#ffffff" stroke-width="1"/>
<text font-family="Dialog" font-size="12" x="310" y="379">
Gérér les ingrédients disponibles</text>
<line fill="#000000" stroke="#000000" stroke-width="1" x1="167" x2="637" y1="388" y2="388"/>
<text font-family="Dialog" font-size="12" x="307" y="408">
commande_nouveaux_ingredients</text>
<ellipse cx="400" cy="283" fill="#000000" rx="194.0" ry="21.0" stroke="#000000" stroke-width="1"/>
<ellipse cx="400" cy="283" fill="#ffffff" rx="193.0" ry="20.0" stroke="#ffffff" stroke-width="1"/>
<ellipse cx="400" cy="283" fill="#000000" rx="194.0" ry="21.0" stroke="#000000" stroke-width="1"/>
<ellipse cx="400" cy="283" fill="#ffffff" rx="193.0" ry="20.0" stroke="#ffffff" stroke-width="1"/>
<text font-family="Dialog" font-size="12" x="274" y="287">
Créer un plat selon un type de profil diététique</text>
<ellipse cx="871" cy="395" fill="#000000" rx="161.0" ry="21.0" stroke="#000000" stroke-width="1"/>
<ellipse cx="871" cy="395" fill="#ffffff" rx="160.0" ry="20.0" stroke="#ffffff" stroke-width="1"/>
<ellipse cx="871" cy="395" fill="#000000" rx="161.0" ry="21.0" stroke="#000000" stroke-width="1"/>
<ellipse cx="871" cy="395" fill="#ffffff" rx="160.0" ry="20.0" stroke="#ffffff" stroke-width="1"/>
<text font-family="Dialog" font-size="12" x="767" y="399">
Commander de nouveaux ingrédients</text>
<text font-family="Dialog" font-size="12" x="1074" y="501">
Service comptabilité</text>
<ellipse cx="1129" cy="447" fill="#000000" rx="8.0" ry="7.5" stroke="#000000" stroke-width="1"/>
<ellipse cx="1129" cy="447" fill="#ffffff" rx="7.0" ry="6.5" stroke="#ffffff" stroke-width="1"/>
<line fill="#000000" stroke="#000000" stroke-width="1" x1="1129" x2="1129" y1="455" y2="470"/>
<line fill="#000000" stroke="#000000" stroke-width="1" x1="1119" x2="1139" y1="460" y2="460"/>
<line fill="#000000" stroke="#000000" stroke-width="1" x1="1129" x2="1124" y1="470" y2="485"/>
<line fill="#000000" stroke="#000000" stroke-width="1" x1="1129" x2="1134" y1="470" y2="485"/>
<line fill="#000000" stroke="#000000" stroke-width="1" x1="711" x2="706" y1="392" y2="392"/>
<line fill="#000000" stroke="#000000" stroke-width="1" x1="701" x2="696" y1="392" y2="392"/>
<line fill="#000000" stroke="#000000" stroke-width="1" x1="691" x2="686" y1="392" y2="392"/>
<line fill="#000000" stroke="#000000" stroke-width="1" x1="681" x2="676" y1="392" y2="392"/>
<line fill="#000000" stroke="#000000" stroke-width="1" x1="671" x2="666" y1="392" y2="392"/>
<line fill="#000000" stroke="#000000" stroke-width="1" x1="661" x2="656" y1="392" y2="392"/>
<line fill="#000000" stroke="#000000" stroke-width="1" x1="651" x2="646" y1="392" y2="392"/>
<line fill="#000000" stroke="#000000" stroke-width="1" x1="641" x2="637" y1="392" y2="391"/>
<line fill="#000000" stroke="#000000" stroke-width="1" x1="649" x2="637" y1="384" y2="391"/>
<line fill="#000000" stroke="#000000" stroke-width="1" x1="648" x2="637" y1="398" y2="391"/>
<text font-family="Dialog" font-size="12" x="643" y="432">
&lt;&lt;extend&gt;&gt;</text>
<polyline fill="none" points="959,412 1120,444" stroke="#000000" stroke-width="1"/>
<text font-family="Dialog" font-size="12" x="1011" y="412">
 </text>
<polyline fill="none" points="81,271 322,214" stroke="#000000" stroke-width="1"/>
<text font-family="Dialog" font-size="12" x="163" y="227">
 </text>
<polyline fill="none" points="82,284 206,283" stroke="#000000" stroke-width="1"/>
<text font-family="Dialog" font-size="12" x="112" y="267">
 </text>
<polyline fill="none" points="77,309 268,357" stroke="#000000" stroke-width="1"/>
<text font-family="Dialog" font-size="12" x="145" y="317">
 </text>
<polygon fill="#ffffff" points="526,454 807,454 817,464 817,513 526,513 526,454" stroke="#ffffff" stroke-width="1"/>
<polyline fill="none" points="526,454 807,454 817,464 817,513 526,513 526,454" stroke="#000000" stroke-width="1"/>
<polygon fill="#ffffff" points="807,454 817,464 807,464 807,454" stroke="#ffffff" stroke-width="1"/>
<polyline fill="none" points="807,454 817,464 807,464 807,454" stroke="#000000" stroke-width="1"/>
<text font-family="Dialog" font-size="12" x="528" y="472">
Condition : </text>
<text font-family="Dialog" font-size="12" x="528" y="488">
si ingrédient non disponible</text>
<text font-family="Dialog" font-size="12" x="528" y="504">
extension point : commande_nouveau_ingredients</text>
<rect fill="#ffffff" height="24" stroke="#ffffff" stroke-width="1" width="104" x="158" y="14"/>
<rect fill="none" height="23" stroke="#000000" stroke-width="1" width="103" x="158" y="14"/>
<text font-family="Dialog" font-size="12" font-weight="bold" x="181" y="30">
VITAMEAL</text>
</svg>
