<svg version="1.1" xmlns="http://www.w3.org/2000/svg" xmlns:xlink="http://www.w3.org/1999/xlink" width="1219.43896484375" height="428"><defs/><g><g transform="translate(-38,-70) scale(1,1)"><rect fill="#C0C0C0" stroke="none" x="207" y="87" width="896" height="408" opacity="0.2"/></g><g transform="translate(-38,-70) scale(1,1)"><rect fill="#dffbed" stroke="none" x="200" y="80" width="896" height="408"/></g><g transform="translate(-38,-70) scale(1,1)"><path fill="none" stroke="#159957" d="M 200 80 L 1096 80 L 1096 488 L 200 488 L 200 80 Z Z" stroke-miterlimit="10"/></g><g transform="translate(-38,-70) scale(1,1)"><g><path fill="none" stroke="none"/><text fill="#000000" stroke="none" font-family="Arial" font-size="13px" font-style="normal" font-weight="bold" text-decoration="none" x="622.7109375" y="99.5">Vitameal</text></g></g><g transform="translate(-38,-70) scale(1,1)"><path fill="#ffffff" stroke="none" d="M 106.69206516335228 153.68 C 106.69206516335228 148.886167936 110.57790748829774 145 115.371337890625 145 C 120.16476829295226 145 124.05061061789772 148.886167936 124.05061061789772 153.68 C 124.05061061789772 158.47383206400002 120.16476829295226 162.36 115.371337890625 162.36 C 110.57790748829774 162.36 106.69206516335228 158.47383206400002 106.69206516335228 153.68 Z"/></g><g transform="translate(-38,-70) scale(1,1)"><path fill="none" stroke="#000000" d="M 106.69206516335228 153.68 C 106.69206516335228 148.886167936 110.57790748829774 145 115.371337890625 145 C 120.16476829295226 145 124.05061061789772 148.886167936 124.05061061789772 153.68 C 124.05061061789772 158.47383206400002 120.16476829295226 162.36 115.371337890625 162.36 C 110.57790748829774 162.36 106.69206516335228 158.47383206400002 106.69206516335228 153.68 Z" stroke-miterlimit="10"/></g><g transform="translate(-38,-70) scale(1,1)"><path fill="none" stroke="#000000" d="M 115.371337890625 162.36 L 115.371337890625 179.64" stroke-miterlimit="10"/></g><g transform="translate(-38,-70) scale(1,1)"><path fill="none" stroke="#000000" d="M 106.18151970880683 168.84 L 124.56115607244317 168.84" stroke-miterlimit="10"/></g><g transform="translate(-38,-70) scale(1,1)"><path fill="none" stroke="#000000" d="M 115.371337890625 179.64 L 102.60770152698865 197" stroke-miterlimit="10"/></g><g transform="translate(-38,-70) scale(1,1)"><path fill="none" stroke="#000000" d="M 115.371337890625 179.64 L 128.13497425426135 197" stroke-miterlimit="10"/></g><g transform="translate(-38,-70) scale(1,1)"><g><path fill="none" stroke="none"/><text fill="#000000" stroke="none" font-family="Arial" font-size="13px" font-style="normal" font-weight="bold" text-decoration="none" x="85.023193359375" y="217.5">Diététicien</text></g></g><g transform="translate(-38,-70) scale(1,1)"><path fill="#ffffff" stroke="none" d="M 106.32292453835227 341.68 C 106.32292453835227 336.886167936 110.20876686329773 333 115.002197265625 333 C 119.79562766795227 333 123.68146999289773 336.886167936 123.68146999289773 341.68 C 123.68146999289773 346.473832064 119.79562766795227 350.36 115.002197265625 350.36 C 110.20876686329773 350.36 106.32292453835227 346.473832064 106.32292453835227 341.68 Z"/></g><g transform="translate(-38,-70) scale(1,1)"><path fill="none" stroke="#000000" d="M 106.32292453835227 341.68 C 106.32292453835227 336.886167936 110.20876686329773 333 115.002197265625 333 C 119.79562766795227 333 123.68146999289773 336.886167936 123.68146999289773 341.68 C 123.68146999289773 346.473832064 119.79562766795227 350.36 115.002197265625 350.36 C 110.20876686329773 350.36 106.32292453835227 346.473832064 106.32292453835227 341.68 Z" stroke-miterlimit="10"/></g><g transform="translate(-38,-70) scale(1,1)"><path fill="none" stroke="#000000" d="M 115.002197265625 350.36 L 115.002197265625 367.64" stroke-miterlimit="10"/></g><g transform="translate(-38,-70) scale(1,1)"><path fill="none" stroke="#000000" d="M 105.81237908380682 356.84 L 124.19201544744318 356.84" stroke-miterlimit="10"/></g><g transform="translate(-38,-70) scale(1,1)"><path fill="none" stroke="#000000" d="M 115.002197265625 367.64 L 102.23856090198863 385" stroke-miterlimit="10"/></g><g transform="translate(-38,-70) scale(1,1)"><path fill="none" stroke="#000000" d="M 115.002197265625 367.64 L 127.76583362926137 385" stroke-miterlimit="10"/></g><g transform="translate(-38,-70) scale(1,1)"><g><path fill="none" stroke="none"/><text fill="#000000" stroke="none" font-family="Arial" font-size="13px" font-style="normal" font-weight="bold" text-decoration="none" x="57.197265625" y="405.5">Service restauration</text></g></g><g transform="translate(-38,-70) scale(1,1)"><path fill="#ffffff" stroke="none" d="M 1171.0402096946023 337.68 C 1171.0402096946023 332.886167936 1174.9260520195478 329 1179.719482421875 329 C 1184.5129128242022 329 1188.3987551491477 332.886167936 1188.3987551491477 337.68 C 1188.3987551491477 342.473832064 1184.5129128242022 346.36 1179.719482421875 346.36 C 1174.9260520195478 346.36 1171.0402096946023 342.473832064 1171.0402096946023 337.68 Z"/></g><g transform="translate(-38,-70) scale(1,1)"><path fill="none" stroke="#000000" d="M 1171.0402096946023 337.68 C 1171.0402096946023 332.886167936 1174.9260520195478 329 1179.719482421875 329 C 1184.5129128242022 329 1188.3987551491477 332.886167936 1188.3987551491477 337.68 C 1188.3987551491477 342.473832064 1184.5129128242022 346.36 1179.719482421875 346.36 C 1174.9260520195478 346.36 1171.0402096946023 342.473832064 1171.0402096946023 337.68 Z" stroke-miterlimit="10"/></g><g transform="translate(-38,-70) scale(1,1)"><path fill="none" stroke="#000000" d="M 1179.719482421875 346.36 L 1179.719482421875 363.64" stroke-miterlimit="10"/></g><g transform="translate(-38,-70) scale(1,1)"><path fill="none" stroke="#000000" d="M 1170.5296642400567 352.84 L 1188.9093006036933 352.84" stroke-miterlimit="10"/></g><g transform="translate(-38,-70) scale(1,1)"><path fill="none" stroke="#000000" d="M 1179.719482421875 363.64 L 1166.9558460582386 381" stroke-miterlimit="10"/></g><g transform="translate(-38,-70) scale(1,1)"><path fill="none" stroke="#000000" d="M 1179.719482421875 363.64 L 1192.4831187855114 381" stroke-miterlimit="10"/></g><g transform="translate(-38,-70) scale(1,1)"><g><path fill="none" stroke="none"/><text fill="#000000" stroke="none" font-family="Arial" font-size="13px" font-style="normal" font-weight="bold" text-decoration="none" x="1121.555908203125" y="401.5">Service comptabilité</text></g></g><g transform="translate(-38,-70) scale(1,1)"><path fill="#C0C0C0" stroke="none" d="M 272 190 C 272 180.6111584 321.02481439999997 173 381.5 173 C 441.97518560000003 173 491 180.6111584 491 190 C 491 199.3888416 441.97518560000003 207 381.5 207 C 321.02481439999997 207 272 199.3888416 272 190 Z" opacity="0.2"/></g><g transform="translate(-38,-70) scale(1,1)"><path fill="#ffffff" stroke="none" d="M 265 183 C 265 173.6111584 314.02481439999997 166 374.5 166 C 434.97518560000003 166 484 173.6111584 484 183 C 484 192.3888416 434.97518560000003 200 374.5 200 C 314.02481439999997 200 265 192.3888416 265 183 Z"/></g><g transform="translate(-38,-70) scale(1,1)"><path fill="none" stroke="#000000" d="M 265 183 C 265 173.6111584 314.02481439999997 166 374.5 166 C 434.97518560000003 166 484 173.6111584 484 183 C 484 192.3888416 434.97518560000003 200 374.5 200 C 314.02481439999997 200 265 192.3888416 265 183 Z" stroke-miterlimit="10"/></g><g transform="translate(-38,-70) scale(1,1)"><g><path fill="none" stroke="none"/><text fill="#000000" stroke="none" font-family="Arial" font-size="13px" font-style="normal" font-weight="bold" text-decoration="none" x="307.3037109375" y="190">Gérer les profils patient</text></g></g><g transform="translate(-38,-70) scale(1,1)"><path fill="#C0C0C0" stroke="none" d="M 524 136 C 524 126.6111584 619.3633376 119 737 119 C 854.6366624 119 950 126.6111584 950 136 C 950 145.3888416 854.6366624 153 737 153 C 619.3633376 153 524 145.3888416 524 136 Z" opacity="0.2"/></g><g transform="translate(-38,-70) scale(1,1)"><path fill="#ffffff" stroke="none" d="M 517 129 C 517 119.6111584 612.3633376 112 730 112 C 847.6366624 112 943 119.6111584 943 129 C 943 138.3888416 847.6366624 146 730 146 C 612.3633376 146 517 138.3888416 517 129 Z"/></g><g transform="translate(-38,-70) scale(1,1)"><path fill="none" stroke="#000000" d="M 517 129 C 517 119.6111584 612.3633376 112 730 112 C 847.6366624 112 943 119.6111584 943 129 C 943 138.3888416 847.6366624 146 730 146 C 612.3633376 146 517 138.3888416 517 129 Z" stroke-miterlimit="10"/></g><g transform="translate(-38,-70) scale(1,1)"><g><path fill="none" stroke="none"/><text fill="#000000" stroke="none" font-family="Arial" font-size="13px" font-style="normal" font-weight="bold" text-decoration="none" x="596.511962890625" y="136">Ajouter les informations personnel d'un patient</text></g></g><g transform="translate(-38,-70) scale(1,1)"><path fill="#C0C0C0" stroke="none" d="M 570 216 C 570 206.6111584 644.7684384 199 737 199 C 829.2315616 199 904 206.6111584 904 216 C 904 225.3888416 829.2315616 233 737 233 C 644.7684384 233 570 225.3888416 570 216 Z" opacity="0.2"/></g><g transform="translate(-38,-70) scale(1,1)"><path fill="#ffffff" stroke="none" d="M 563 209 C 563 199.6111584 637.7684384 192 730 192 C 822.2315616 192 897 199.6111584 897 209 C 897 218.3888416 822.2315616 226 730 226 C 637.7684384 226 563 218.3888416 563 209 Z"/></g><g transform="translate(-38,-70) scale(1,1)"><path fill="none" stroke="#000000" d="M 563 209 C 563 199.6111584 637.7684384 192 730 192 C 822.2315616 192 897 199.6111584 897 209 C 897 218.3888416 822.2315616 226 730 226 C 637.7684384 226 563 218.3888416 563 209 Z" stroke-miterlimit="10"/></g><g transform="translate(-38,-70) scale(1,1)"><g><path fill="none" stroke="none"/><text fill="#000000" stroke="none" font-family="Arial" font-size="13px" font-style="normal" font-weight="bold" text-decoration="none" x="625.416015625" y="216">Gérer le profil diététique d'un patient</text></g></g><g transform="translate(-38,-70) scale(1,1)"><path fill="#C0C0C0" stroke="none" d="M 390 456 C 390 446.6111584 545.3571744 439 737 439 C 928.6428256 439 1084 446.6111584 1084 456 C 1084 465.3888416 928.6428256 473 737 473 C 545.3571744 473 390 465.3888416 390 456 Z" opacity="0.2"/></g><g transform="translate(-38,-70) scale(1,1)"><path fill="#ffffff" stroke="none" d="M 383 449 C 383 439.6111584 538.3571744 432 730 432 C 921.6428256 432 1077 439.6111584 1077 449 C 1077 458.3888416 921.6428256 466 730 466 C 538.3571744 466 383 458.3888416 383 449 Z"/></g><g transform="translate(-38,-70) scale(1,1)"><path fill="none" stroke="#000000" d="M 383 449 C 383 439.6111584 538.3571744 432 730 432 C 921.6428256 432 1077 439.6111584 1077 449 C 1077 458.3888416 921.6428256 466 730 466 C 538.3571744 466 383 458.3888416 383 449 Z" stroke-miterlimit="10"/></g><g transform="translate(-38,-70) scale(1,1)"><g><path fill="none" stroke="none"/><text fill="#000000" stroke="none" font-family="Arial" font-size="13px" font-style="normal" font-weight="bold" text-decoration="none" x="506.69580078125" y="456">Récuperer la liste des ingrédients adapatés aux profils diététique des patients</text></g></g><g transform="translate(-38,-70) scale(1,1)"><path fill="#C0C0C0" stroke="none" d="M 229 364.5 C 229 356.4918704 297.0527104 350 381 350 C 464.9472896 350 533 356.4918704 533 364.5 C 533 372.5081296 464.9472896 379 381 379 C 297.0527104 379 229 372.5081296 229 364.5 Z" opacity="0.2"/></g><g transform="translate(-38,-70) scale(1,1)"><path fill="#ffffff" stroke="none" d="M 222 357.5 C 222 349.4918704 290.0527104 343 374 343 C 457.9472896 343 526 349.4918704 526 357.5 C 526 365.5081296 457.9472896 372 374 372 C 290.0527104 372 222 365.5081296 222 357.5 Z"/></g><g transform="translate(-38,-70) scale(1,1)"><path fill="none" stroke="#000000" d="M 222 357.5 C 222 349.4918704 290.0527104 343 374 343 C 457.9472896 343 526 349.4918704 526 357.5 C 526 365.5081296 457.9472896 372 374 372 C 290.0527104 372 222 365.5081296 222 357.5 Z" stroke-miterlimit="10"/></g><g transform="translate(-38,-70) scale(1,1)"><path fill="none" stroke="#000000" d="M 222 377 L 526 377" stroke-miterlimit="10"/></g><g transform="translate(-38,-70) scale(1,1)"><g><path fill="none" stroke="none"/><text fill="#000000" stroke="none" font-family="Arial" font-size="13px" font-style="normal" font-weight="bold" text-decoration="none" x="276.81103515625" y="367">Composer le menu de la semaine</text></g></g><g transform="translate(-38,-70) scale(1,1)"><g><path fill="none" stroke="none"/><text fill="#000000" stroke="none" font-family="Arial" font-size="13px" font-style="normal" font-weight="normal" text-decoration="none" x="227" y="394.5">commander_ingedient_manquant</text></g></g><g transform="translate(-38,-70) scale(1,1)"><path fill="#C0C0C0" stroke="none" d="M 711 376 C 711 366.6111584 791.1410208 359 890 359 C 988.8589792 359 1069 366.6111584 1069 376 C 1069 385.3888416 988.8589792 393 890 393 C 791.1410208 393 711 385.3888416 711 376 Z" opacity="0.2"/></g><g transform="translate(-38,-70) scale(1,1)"><path fill="#ffffff" stroke="none" d="M 704 369 C 704 359.6111584 784.1410208 352 883 352 C 981.8589792 352 1062 359.6111584 1062 369 C 1062 378.3888416 981.8589792 386 883 386 C 784.1410208 386 704 378.3888416 704 369 Z"/></g><g transform="translate(-38,-70) scale(1,1)"><path fill="none" stroke="#000000" d="M 704 369 C 704 359.6111584 784.1410208 352 883 352 C 981.8589792 352 1062 359.6111584 1062 369 C 1062 378.3888416 981.8589792 386 883 386 C 784.1410208 386 704 378.3888416 704 369 Z" stroke-miterlimit="10"/></g><g transform="translate(-38,-70) scale(1,1)"><g><path fill="none" stroke="none"/><text fill="#000000" stroke="none" font-family="Arial" font-size="13px" font-style="normal" font-weight="bold" text-decoration="none" x="769.551513671875" y="376">Commander les ingrédients manquants</text></g></g><g transform="translate(-38,-70) scale(1,1)"><path fill="none" stroke="#000000" d="M 703 370 L 527 370" stroke-miterlimit="10" stroke-dasharray="3"/></g><g transform="translate(-38,-70) scale(1,1)"><path fill="none" stroke="#000000" d="M 537.1626748576241 365.790482243984 L 527 370 L 537.1626748576241 374.209517756016" stroke-miterlimit="10"/></g><g transform="translate(-38,-70) scale(1,1)"><g><path fill="none" stroke="none"/><text fill="#000000" stroke="none" font-family="Arial" font-size="13px" font-style="normal" font-weight="normal" text-decoration="none" x="515.5" y="360.5">«extend»</text></g></g><g transform="translate(-38,-70) scale(1,1)"><path fill="#ffffff" stroke="none" d="M 574 248 L 875 248 L 885 258 L 885 314 L 574 314 L 574 248"/></g><g transform="translate(-38,-70) scale(1,1)"><path fill="none" stroke="#000000" d="M 574 248 L 875 248 L 885 258 L 885 314 L 574 314 L 574 248 L 574 248" stroke-miterlimit="10"/></g><g transform="translate(-38,-70) scale(1,1)"><path fill="none" stroke="#000000" d="M 875 248 L 875 258 L 885 258 L 875 248" stroke-miterlimit="10"/></g><g transform="translate(-38,-70) scale(1,1)"><g><path fill="none" stroke="none"/><text fill="#000000" stroke="none" font-family="Arial" font-size="13px" font-style="normal" font-weight="normal" text-decoration="none" x="579" y="266">Condition :</text></g></g><g transform="translate(-38,-70) scale(1,1)"><g><path fill="none" stroke="none"/><text fill="#000000" stroke="none" font-family="Arial" font-size="13px" font-style="normal" font-weight="normal" text-decoration="none" x="579" y="281">si ingrédient manquant</text></g></g><g transform="translate(-38,-70) scale(1,1)"><g><path fill="none" stroke="none"/><text fill="#000000" stroke="none" font-family="Arial" font-size="13px" font-style="normal" font-weight="normal" text-decoration="none" x="579" y="296">extension point : commander_ingredient_manquant</text></g></g><g transform="translate(-38,-70) scale(1,1)"><path fill="none" stroke="#000000" d="M 615 370 L 685 316" stroke-miterlimit="10" stroke-dasharray="3"/></g><g transform="translate(-38,-70) scale(1,1)"><path fill="none" stroke="#000000" d="M 511 401 L 648 431" stroke-miterlimit="10" stroke-dasharray="3"/></g><g transform="translate(-38,-70) scale(1,1)"><path fill="none" stroke="#000000" d="M 637.1720997967745 432.9381891520156 L 648 431 L 638.9730116476757 424.7140250329005" stroke-miterlimit="10"/></g><g transform="translate(-38,-70) scale(1,1)"><g><path fill="none" stroke="none"/><text fill="#000000" stroke="none" font-family="Arial" font-size="13px" font-style="normal" font-weight="normal" text-decoration="none" x="512.5" y="398.5">«include»</text></g></g><g transform="translate(-38,-70) scale(1,1)"><path fill="none" stroke="#000000" d="M 485 166 L 611 147" stroke-miterlimit="10" stroke-dasharray="3"/></g><g transform="translate(-38,-70) scale(1,1)"><path fill="none" stroke="#000000" d="M 601.5786068377362 152.67779454383904 L 611 147 L 600.3232619826061 144.35287603087124" stroke-miterlimit="10"/></g><g transform="translate(-38,-70) scale(1,1)"><g><path fill="none" stroke="none"/><text fill="#000000" stroke="none" font-family="Arial" font-size="13px" font-style="normal" font-weight="normal" text-decoration="none" x="519.5" y="180.5">«include»</text></g></g><g transform="translate(-38,-70) scale(1,1)"><path fill="none" stroke="#000000" d="M 485 191 L 562 197" stroke-miterlimit="10" stroke-dasharray="3"/></g><g transform="translate(-38,-70) scale(1,1)"><path fill="none" stroke="#000000" d="M 551.5410154121291 200.40729238409028 L 562 197 L 552.1950615233154 192.01370062386644" stroke-miterlimit="10"/></g><g transform="translate(-38,-70) scale(1,1)"><g><path fill="none" stroke="none"/><text fill="#000000" stroke="none" font-family="Arial" font-size="13px" font-style="normal" font-weight="normal" text-decoration="none" x="487.5" y="212.5">«include»</text></g></g><g transform="translate(-38,-70) scale(1,1)"><path fill="none" stroke="#000000" d="M 154 183 L 264 183" stroke-miterlimit="10"/></g><g transform="translate(-38,-70) scale(1,1)"><path fill="none" stroke="#000000" d="M 183 371 L 221 371" stroke-miterlimit="10"/></g><g transform="translate(-38,-70) scale(1,1)"><path fill="none" stroke="#000000" d="M 1111 367 L 1063 368" stroke-miterlimit="10"/></g></g></svg>
