<svg xmlns="http://www.w3.org/2000/svg" xmlns:xlink="http://www.w3.org/1999/xlink" width="1222.28" height="1715.73"><g transform="translate(0 0)"><path d="M246 206v1434" fill="none"/><path d="M246 206v9.96m0 9.96v19.9m0 9.97v19.9m0 9.97v19.9m0 9.97v19.92m0 9.96v19.9m0 9.97v19.9m0 9.97v19.9m0 9.97v19.92m0 9.96v19.9m0 9.97v19.9m0 9.97v19.9m0 9.97v19.92m0 9.96v19.9m0 9.97v19.9m0 9.97v19.9m0 9.97v19.92m0 9.96v19.9m0 9.97v19.9m0 9.97v19.9m0 9.97v19.92m0 9.96v19.9m0 9.97v19.9m0 9.97v19.9m0 9.97v19.92m0 9.96v19.9m0 9.97v19.9m0 9.97v19.9m0 9.97v19.92m0 9.96v19.9m0 9.97v19.9m0 9.97v19.9m0 9.97v19.92m0 9.96v19.9m0 9.97v19.9m0 9.97v19.9m0 9.97v19.92m0 9.96v19.9m0 9.97v19.9m0 9.97v19.9m0 9.97v19.92m0 9.96v19.9m0 9.97v19.9m0 9.97v19.9m0 9.97v19.92m0 9.96v19.9m0 9.97v19.9m0 9.97v19.9m0 9.97v9.96" stroke="#999" stroke-width="2" fill="none"/><path d="M247 206h-2v-3h2z" fill="#999"/><path d="M226.4 325c0-2.76 2.24-5 5-5h30c2.76 0 5 2.24 5 5v1230c0 2.76-2.24 5-5 5h-30c-2.76 0-5-2.24-5-5z" stroke="#666" stroke-width="2" fill="#f2f2f2"/><path d="M829.6 165c0-2.76 2.24-5 5-5H991c2.76 0 5 2.24 5 5v36.2c0 2.77-2.24 5-5 5H834.6c-2.76 0-5-2.23-5-5z" stroke="#666" stroke-width="2" fill="#a3d977"/><use xlink:href="#a" transform="matrix(1,0,0,1,829.5999999999999,160) translate(40.58024691358025 25.97222222222222)"/><path d="M912.8 206.2v1009.66" fill="none"/><path d="M912.8 206.2v9.9m0 9.9v19.8m0 9.9v19.8m0 9.9v19.8m0 9.9v19.8m0 9.9v19.78m0 9.9v19.8m0 9.9v19.8m0 9.9v19.8m0 9.9v19.8m0 9.9v19.78m0 9.9v19.8m0 9.9v19.8m0 9.9v19.8m0 9.9v19.8m0 9.88v19.8m0 9.9v19.8m0 9.9v19.8m0 9.9v19.8m0 9.9v19.78m0 9.9v19.8m0 9.9v19.8m0 9.9v19.8m0 9.9v19.8m0 9.9v19.78m0 9.9v19.8m0 9.9v19.8m0 9.9v19.8m0 9.9v19.8m0 9.88v19.8m0 9.9v19.8m0 9.9v19.8m0 9.9v19.8m0 9.9v19.78m0 9.9v9.9" stroke="#999" stroke-width="2" fill="none"/><path d="M912.8 1640v-445.17" fill="none"/><path d="M912.8 1640v-9.9m0-9.9v-19.77m0-9.9v-19.78m0-9.9v-19.78m0-9.9v-19.78m0-9.9v-19.78m0-9.9v-19.78m0-9.9v-19.78m0-9.9v-19.78m0-9.9V1363m0-9.9v-19.77m0-9.9v-19.78m0-9.9v-19.78m0-9.9v-19.78m0-9.9v-19.8m0-9.88v-9.9" stroke="#999" stroke-width="2" fill="none"/><path d="M892 325c0-2.76 2.24-5 5-5h30c2.76 0 5 2.24 5 5v1230c0 2.76-2.24 5-5 5h-30c-2.76 0-5-2.24-5-5z" stroke="#666" stroke-width="2" fill="#f2f2f2"/><path d="M266.4 390H892" stroke="#999" stroke-width="2" fill="none"/><path d="M892 390l-14.27 4.64v-9.28z" fill="#999"/><path d="M892 388.95v2.1L876.73 396v-12zm-13.27 4.3l10.03-3.25-10.03-3.26z" fill="#999"/><use xlink:href="#b" transform="matrix(1,0,0,1,423.67500000000007,364.3999999999997) translate(0 14.4)"/><use xlink:href="#c" transform="matrix(1,0,0,1,423.67500000000007,364.3999999999997) translate(38.6 14.4)"/><use xlink:href="#d" transform="matrix(1,0,0,1,423.67500000000007,364.3999999999997) translate(58.6 14.4)"/><use xlink:href="#e" transform="matrix(1,0,0,1,423.67500000000007,364.3999999999997) translate(99.55000000000001 14.4)"/><use xlink:href="#f" transform="matrix(1,0,0,1,423.67500000000007,364.3999999999997) translate(135.5 14.4)"/><use xlink:href="#g" transform="matrix(1,0,0,1,423.67500000000007,364.3999999999997) translate(211.3 14.4)"/><use xlink:href="#h" transform="matrix(1,0,0,1,423.67500000000007,364.3999999999997) translate(237.25 14.4)"/><path d="M892 437.6H266.4" fill="none"/><path d="M892 437.6h-3.03m-4.03 0h-6.06m-4.03 0h-6.06m-4.04 0h-6.06m-4.03 0h-6.06m-4.02 0h-6.06m-4.03 0h-6.07m-4.04 0h-6.06m-4.04 0h-6.05m-4.04 0h-6.04m-4.04 0h-6.05m-4.04 0h-6.05m-4.04 0h-6.05m-4.05 0h-6.05m-4.04 0h-6.05m-4.03 0h-6.05m-4.04 0h-6.05m-4.04 0h-6.06m-4.04 0h-6.05m-4.04 0h-6.04m-4.04 0h-6.05m-4.04 0h-6.05m-4.04 0H667m-4.05 0h-6.05m-4.04 0h-6.05m-4.03 0h-6.06m-4.02 0h-6.06m-4.03 0h-6.07m-4.03 0h-6.06m-4.03 0h-6.05m-4.03 0h-6.06m-4.03 0h-6.06m-4.03 0h-6.06m-4.03 0H556m-4.04 0h-6.06m-4.03 0h-6.06m-4.02 0h-6.06m-4.03 0h-6.07m-4.04 0h-6.06m-4.04 0h-6.05m-4.04 0h-6.04m-4.04 0h-6.05m-4.04 0h-6.05m-4.04 0h-6.05m-4.05 0H445m-4.04 0h-6.05m-4.03 0h-6.05m-4.04 0h-6.05m-4.04 0h-6.06m-4.04 0h-6.05m-4.04 0h-6.04m-4.04 0h-6.05m-4.04 0h-6.05m-4.04 0h-6.05m-4.05 0h-6.05m-4.04 0H334m-4.03 0h-6.06m-4.02 0h-6.06m-4.03 0h-6.07m-4.03 0h-6.06m-4.03 0h-6.05m-4.03 0h-6.06m-4.03 0h-3.03" stroke="#999" stroke-width="2" fill="none"/><path d="M280.67 442.24l-14.27-4.64 14.27-4.64z" fill="#999"/><path d="M281.67 443.6l-15.27-4.95v-2.1l15.27-4.96zm-12.03-6l10.03 3.26v-6.52z" fill="#999"/><use xlink:href="#i" transform="matrix(1,0,0,1,488.2775641025641,441.60000000000014) translate(0 14.4)"/><use xlink:href="#j" transform="matrix(1,0,0,1,488.2775641025641,441.60000000000014) translate(42.95 14.4)"/><use xlink:href="#k" transform="matrix(1,0,0,1,488.2775641025641,441.60000000000014) translate(76.95 14.4)"/><use xlink:href="#l" transform="matrix(1,0,0,1,488.2775641025641,441.60000000000014) translate(146.9 14.4)"/><use xlink:href="#m" transform="matrix(1,0,0,1,488.2775641025641,441.60000000000014) translate(171.9 14.4)"/><path d="M266.4 520.27H892" stroke="#999" stroke-width="2" fill="none"/><path d="M892 520.27l-14.27 4.63v-9.27z" fill="#999"/><path d="M892 519.22v2.1l-15.27 4.96v-12.03zm-13.27 4.3l10.03-3.25-10.03-3.26z" fill="#999"/><use xlink:href="#n" transform="matrix(1,0,0,1,439.82500000000005,494.66666666666674) translate(0 14.4)"/><use xlink:href="#o" transform="matrix(1,0,0,1,439.82500000000005,494.66666666666674) translate(104.85000000000001 14.4)"/><use xlink:href="#p" transform="matrix(1,0,0,1,439.82500000000005,494.66666666666674) translate(129.85000000000002 14.4)"/><use xlink:href="#l" transform="matrix(1,0,0,1,439.82500000000005,494.66666666666674) translate(190.8 14.4)"/><use xlink:href="#m" transform="matrix(1,0,0,1,439.82500000000005,494.66666666666674) translate(215.8 14.4)"/><path d="M892 564.27H267.4" fill="none"/><path d="M892 564.27h-3.02m-4.03 0h-6.05m-4.03 0h-6.04m-4.03 0h-6.04m-4.03 0h-6.05m-4.03 0h-6.04m-4.02 0h-6.05m-4.03 0h-6.04m-4.03 0h-6.05m-4.03 0h-6.04m-4.02 0h-6.04m-4.03 0h-6.04m-4.03 0h-6.04m-4.04 0H758m-4.02 0h-6.04m-4.03 0h-6.04m-4.02 0h-6.05m-4.04 0h-6.04m-4.03 0h-6.06m-4.03 0h-6.03m-4.03 0h-6.05m-4.04 0h-6.04m-4.03 0h-6.05m-4.03 0h-6.05m-4.03 0h-6.04m-4.03 0h-6.05m-4.03 0h-6.05m-4.03 0h-6.05m-4.03 0h-6.04m-4.03 0h-6.04m-4.03 0h-6.05m-4.03 0h-6.04m-4.03 0h-6.05m-4.03 0h-6.04m-4.03 0h-6.04m-4.03 0h-6.05m-4.03 0h-6.04m-4.02 0h-6.05m-4.03 0h-6.04m-4.03 0h-6.05m-4.03 0H486m-4.02 0h-6.04m-4.03 0h-6.04m-4.03 0h-6.04m-4.04 0h-6.05m-4.02 0h-6.04m-4.03 0h-6.04m-4.02 0h-6.05m-4.04 0h-6.04m-4.03 0h-6.06m-4.03 0h-6.03m-4.03 0h-6.05m-4.04 0h-6.04m-4.03 0h-6.05m-4.03 0h-6.05m-4.03 0h-6.04m-4.03 0h-6.05m-4.03 0h-6.05m-4.03 0h-6.05m-4.03 0h-6.04m-4.03 0h-6.04m-4.03 0h-6.05m-4.03 0h-3.02" stroke="#999" stroke-width="2" fill="none"/><path d="M281.67 568.9l-14.27-4.63 14.27-4.64z" fill="#999"/><path d="M282.67 570.28l-16.27-5.3v-1.44l16.27-5.3zm-12.03-6l10.03 3.25V561z" fill="#999"/><use xlink:href="#q" transform="matrix(1,0,0,1,501.7749999999999,568.2666666666668) translate(0 14.4)"/><use xlink:href="#r" transform="matrix(1,0,0,1,501.7749999999999,568.2666666666668) translate(64.95 14.4)"/><path d="M266.4 672.27H892" stroke="#999" stroke-width="2" fill="none"/><path d="M892 672.27l-14.27 4.63v-9.27z" fill="#999"/><path d="M892 671.22v2.1l-15.27 4.96v-12.03zm-13.27 4.3l10.03-3.25-10.03-3.26z" fill="#999"/><use xlink:href="#s" transform="matrix(1,0,0,1,454.65000000000003,646.666666666667) translate(0 14.4)"/><use xlink:href="#t" transform="matrix(1,0,0,1,454.65000000000003,646.666666666667) translate(59.95 14.4)"/><use xlink:href="#j" transform="matrix(1,0,0,1,454.65000000000003,646.666666666667) translate(161.15 14.4)"/><use xlink:href="#u" transform="matrix(1,0,0,1,454.65000000000003,646.666666666667) translate(195.15 14.4)"/><path d="M892 716.27H266.4" fill="none"/><path d="M892 716.27h-2.98m-3.97 0h-5.96m-3.98 0h-5.96m-3.97 0h-5.97m-3.97 0h-5.96m-3.97 0h-5.96m-3.97 0h-5.96m-3.97 0h-5.96m-3.96 0h-5.96m-3.97 0h-5.95m-3.97 0h-5.96m-3.97 0h-5.96m-3.98 0h-5.96m-3.97 0h-5.97m-3.97 0H750m-3.97 0h-5.96m-3.97 0h-5.96m-3.97 0h-5.96m-3.96 0h-5.96m-3.97 0h-5.95m-3.97 0h-5.96m-3.97 0h-5.96m-3.98 0h-5.96m-3.97 0h-5.97m-3.97 0h-5.96m-3.97 0h-5.96m-3.98 0h-5.96m-3.98 0h-5.95m-3.97 0h-5.95m-3.98 0h-5.95m-3.98 0h-5.95m-3.98 0h-5.95m-4 0h-5.94m-3.98 0h-5.95m-3.98 0h-5.95m-3.98 0h-5.95m-3.98 0h-5.96m-3.98 0h-5.95m-3.97 0h-5.96m-3.97 0h-5.96m-3.97 0h-5.96m-3.96 0h-5.96m-3.97 0h-5.95m-3.97 0h-5.96m-3.97 0h-5.96m-3.98 0h-5.96m-3.97 0h-5.97m-3.97 0h-5.96m-3.97 0h-5.96m-3.97 0h-5.96m-3.97 0h-5.96m-3.96 0h-5.96m-3.97 0h-5.95m-3.97 0h-5.96m-3.97 0h-5.96m-3.98 0h-5.96m-3.97 0h-5.97m-3.97 0H323m-3.97 0h-5.96m-3.97 0h-5.96m-3.97 0h-5.96m-3.96 0h-5.96m-3.97 0h-5.95m-3.97 0h-2.98" stroke="#999" stroke-width="2" fill="none"/><path d="M280.67 720.9l-14.27-4.63 14.27-4.64z" fill="#999"/><path d="M281.67 722.28l-15.27-4.96v-2.1l15.27-4.97zm-12.03-6l10.03 3.25V713z" fill="#999"/><use xlink:href="#v" transform="matrix(1,0,0,1,515.2750000000001,720.2666666666668) translate(0 14.4)"/><use xlink:href="#w" transform="matrix(1,0,0,1,515.2750000000001,720.2666666666668) translate(58.95 14.4)"/><path d="M101.6 785c0-2.76 2.24-5 5-5h90c2.76 0 5 2.24 5 5v10c0 2.76-1.58 6.58-3.54 8.54l-2.92 2.92c-1.96 1.96-5.78 3.54-8.54 3.54h-80c-2.76 0-5-2.24-5-5z" fill="#fff"/><path d="M201.6 780v20l-10 10h-90" stroke="#666" stroke-width="2" fill="none"/><path d="M101.6 785c0-2.76 2.24-5 5-5H1035c2.76 0 5 2.24 5 5v690c0 2.76-2.24 5-5 5H106.6c-2.76 0-5-2.24-5-5zM101.6 900h20m15 0h20m15 0h20m15 0h20m15 0h20m15 0h20m15 0h20m15 0h20m15 0h20m15 0h20m15 0h20m15 0h20m15 0h20m15 0h20m15 0h20m15 0h20m15 0h20m15 0h20m15 0h20m15 0h20m15 0h20m15 0h20m15 0h20m15 0h20m15 0h20m15 0h20m15 0h20" stroke="#666" stroke-width="2" fill="none"/><use xlink:href="#x" transform="matrix(1,0,0,1,109.59999999999991,780) translate(-1.4249999999999972 18.6)"/><use xlink:href="#y" transform="matrix(1,0,0,1,113.59999999999991,818) translate(0 18.6)"/><use xlink:href="#z" transform="matrix(1,0,0,1,113.59999999999991,818) translate(95.85000000000001 18.6)"/><use xlink:href="#A" transform="matrix(1,0,0,1,113.59999999999991,908) translate(0 14.4)"/><use xlink:href="#B" transform="matrix(1,0,0,1,113.59999999999991,908) translate(0 36)"/><path d="M60 625c0-2.76 2.24-5 5-5h90c2.76 0 5 2.24 5 5v10c0 2.76-1.58 6.58-3.54 8.54l-2.92 2.92c-1.96 1.96-5.78 3.54-8.54 3.54H65c-2.76 0-5-2.24-5-5z" fill="#fff"/><path d="M60 625c0-2.76 2.24-5 5-5h1030c2.76 0 5 2.24 5 5v890c0 2.76-2.24 5-5 5H65c-2.76 0-5-2.24-5-5z" stroke="#666" stroke-width="2" fill="none"/><path d="M160 620v20l-10 10H60" stroke="#666" stroke-width="2" fill="#fff"/><use xlink:href="#C" transform="matrix(1,0,0,1,68.00000000000011,620) translate(21 18.6)"/><use xlink:href="#D" transform="matrix(1,0,0,1,72.00000000000011,658) translate(13.575000000000003 18.6)"/><use xlink:href="#E" transform="matrix(1,0,0,1,72.00000000000011,658) translate(72.525 18.6)"/><path d="M266.4 840.27H892" stroke="#999" stroke-width="2" fill="none"/><path d="M892 840.27l-14.27 4.63v-9.27z" fill="#999"/><path d="M892 839.22v2.1l-15.27 4.96v-12.03zm-13.27 4.3l10.03-3.25-10.03-3.26z" fill="#999"/><use xlink:href="#v" transform="matrix(1,0,0,1,521.7750000000001,814.6666666666666) translate(0 14.4)"/><use xlink:href="#F" transform="matrix(1,0,0,1,521.7750000000001,814.6666666666666) translate(58.95 14.4)"/><path d="M267.4 1017.87H891" stroke="#999" stroke-width="2" fill="none"/><path d="M267.4 1018.87h-1v-2h1zM891 1017.87l-14.27 4.63v-9.27z" fill="#999"/><path d="M892 1017.14v1.45l-16.27 5.28v-12.03zm-14.27 4l10.03-3.27-10.03-3.26z" fill="#999"/><use xlink:href="#v" transform="matrix(1,0,0,1,522.7750000000001,992.2666666666669) translate(0 14.4)"/><use xlink:href="#G" transform="matrix(1,0,0,1,522.7750000000001,992.2666666666669) translate(58.95 14.4)"/><path d="M932 840.27h35c2.76 0 5 2.24 5 5v31.33c0 2.76-2.24 5-5 5h-35" stroke="#999" stroke-width="2" fill="none"/><path d="M946.27 886.24L932 881.6l14.27-4.64z" fill="#999"/><path d="M947.27 887.6L932 882.66v-2.1l15.27-4.96zm-12.03-6l10.03 3.26v-6.52z" fill="#999"/><use xlink:href="#H" transform="matrix(1,0,0,1,979.9999999999999,850.1333333333333) translate(0 14.4)"/><use xlink:href="#I" transform="matrix(1,0,0,1,979.9999999999999,850.1333333333333) translate(92.80000000000001 14.4)"/><use xlink:href="#u" transform="matrix(1,0,0,1,979.9999999999999,850.1333333333333) translate(120.75000000000001 14.4)"/><path d="M933 1017.87h35c2.76 0 5 2.24 5 5v51.33c0 2.76-2.24 5-5 5h-35" stroke="#999" stroke-width="2" fill="none"/><path d="M933 1018.87h-1v-2h1zM947.27 1083.84L933 1079.2l14.27-4.64z" fill="#999"/><path d="M948.27 1085.2l-16.27-5.27v-1.46l16.27-5.28zm-12.03-6l10.03 3.26v-6.52z" fill="#999"/><use xlink:href="#J" transform="matrix(1,0,0,1,980.9999999999999,1037.7333333333336) translate(0 14.4)"/><use xlink:href="#I" transform="matrix(1,0,0,1,980.9999999999999,1037.7333333333336) translate(87.80000000000001 14.4)"/><use xlink:href="#u" transform="matrix(1,0,0,1,980.9999999999999,1037.7333333333336) translate(115.75000000000001 14.4)"/><path d="M258.25 98.25c0 6.77-5.48 12.25-12.25 12.25s-12.25-5.48-12.25-12.25S239.23 86 246 86s12.25 5.48 12.25 12.25z" stroke="#666" stroke-width="2" fill="#fff"/><path d="M220.5 91c0-2.76 2.24-5 5-5h41c2.76 0 5 2.24 5 5v88c0 2.76-2.24 5-5 5h-41c-2.76 0-5-2.24-5-5z" fill="none"/><path d="M246 110.5v29.3c0 2.76 1.22 6.88 2.73 9.2l22.77 35M246 144.8L220.5 184m0-61.25h51" stroke="#666" stroke-width="2" fill="none"/><use xlink:href="#K" transform="matrix(1,0,0,1,140.5,184) translate(63.599999999999994 14.6)"/><path d="M140 965c0-2.76 2.24-5 5-5h90c2.76 0 5 2.24 5 5v10c0 2.76-1.58 6.58-3.54 8.54l-2.92 2.92c-1.96 1.96-5.78 3.54-8.54 3.54h-80c-2.76 0-5-2.24-5-5z" fill="#fff"/><path d="M240 960v20l-10 10h-90" stroke="#666" stroke-width="2" fill="none"/><path d="M140 965c0-2.76 2.24-5 5-5h846c2.76 0 5 2.24 5 5v490c0 2.76-2.24 5-5 5H145c-2.76 0-5-2.24-5-5zM140 1100h20m15 0h20m15 0h20m15 0h20m15 0h20m15 0h20m15 0h20m15 0h20m15 0h20m15 0h20m15 0h20m15 0h20m15 0h20m15 0h20m15 0h20m15 0h20m15 0h20m15 0h20m15 0h20m15 0h20m15 0h20m15 0h20m15 0h20m15 0h20m15 0h16" stroke="#666" stroke-width="2" fill="none"/><use xlink:href="#L" transform="matrix(1,0,0,1,148,960) translate(-1.4249999999999972 18.6)"/><use xlink:href="#M" transform="matrix(1,0,0,1,152,998) translate(0 18.6)"/><g><use xlink:href="#N" transform="matrix(1,0,0,1,152,1108) translate(0 18.6)"/></g><path d="M267.4 1180.53H891" stroke="#999" stroke-width="2" fill="none"/><path d="M267.4 1181.53h-1v-2h1zM891 1180.53l-14.27 4.64v-9.27z" fill="#999"/><path d="M892 1179.8v1.46l-16.27 5.3v-12.04zm-14.27 4l10.03-3.27-10.03-3.26z" fill="#999"/><g><use xlink:href="#O" transform="matrix(1,0,0,1,452.92500000000007,1154.9333333333338) translate(0 14.4)"/><use xlink:href="#P" transform="matrix(1,0,0,1,452.92500000000007,1154.9333333333338) translate(104.85000000000001 14.4)"/><use xlink:href="#Q" transform="matrix(1,0,0,1,452.92500000000007,1154.9333333333338) translate(123.80000000000001 14.4)"/><use xlink:href="#R" transform="matrix(1,0,0,1,452.92500000000007,1154.9333333333338) translate(173.75 14.4)"/><use xlink:href="#S" transform="matrix(1,0,0,1,452.92500000000007,1154.9333333333338) translate(188.75 14.4)"/></g><path d="M891 1219.2H267.4" fill="none"/><path d="M891 1219.2h-3.02m-4.02 0h-6.04m-4.02 0h-6.03m-4.03 0h-6.03m-4 0h-6.05m-4.02 0h-6.04m-4.03 0h-6.04m-4.02 0h-6.02m-4.03 0h-6.03m-4.03 0h-6.04m-4.02 0h-6.04m-4.02 0h-6.04m-4.02 0h-6.03m-4.04 0h-6.03m-4.03 0h-6.03m-4.02 0h-6.04m-4 0h-6.05m-4.02 0H717m-4.03 0h-6.03m-4.03 0h-6.02m-4.02 0h-6.04m-4.02 0h-6.04m-4.02 0h-6.03m-4.02 0h-6.03m-4.03 0h-6.03m-4.03 0h-6.04m-4.02 0h-6.03m-4.02 0h-6.04m-4 0h-6.04m-4.03 0h-6.03m-4.02 0h-6.04m-4.02 0h-6.04m-4.02 0h-6.04m-4.02 0h-6.03m-4.03 0H546m-4 0h-6.05m-4.02 0h-6.04m-4.03 0h-6.04m-4.02 0h-6.02m-4.03 0h-6.03m-4.03 0h-6.04m-4.02 0h-6.04m-4.02 0h-6.04m-4.02 0h-6.03m-4.04 0h-6.03m-4.03 0h-6.03m-4.02 0h-6.04m-4 0h-6.05m-4.02 0h-6.03m-4.03 0h-6.03m-4.03 0h-6.02m-4.02 0h-6.04m-4.02 0h-6.04m-4.02 0h-6.03m-4.02 0h-6.03m-4.03 0h-6.03m-4.03 0h-6.04m-4.02 0h-6.03m-4.02 0h-6.04m-4 0h-6.04m-4.03 0h-6.03m-4.02 0h-6.04m-4.02 0h-3.02" stroke="#999" stroke-width="2" fill="none"/><path d="M892 1220.2h-1v-2h1zM281.67 1223.84l-14.27-4.64 14.27-4.64z" fill="#999"/><path d="M282.67 1225.2l-16.27-5.27v-1.46l16.27-5.28zm-12.03-6l10.03 3.26v-6.52z" fill="#999"/><g><use xlink:href="#T" transform="matrix(1,0,0,1,508.77500000000003,1223.2) translate(0 14.4)"/><use xlink:href="#U" transform="matrix(1,0,0,1,508.77500000000003,1223.2) translate(49.95 14.4)"/></g><path d="M267.4 1280.53H891" stroke="#999" stroke-width="2" fill="none"/><path d="M267.4 1281.53h-1v-2h1zM891 1280.53l-14.27 4.64v-9.27z" fill="#999"/><path d="M892 1279.8v1.46l-16.27 5.3v-12.04zm-14.27 4l10.03-3.27-10.03-3.26z" fill="#999"/><g><use xlink:href="#V" transform="matrix(1,0,0,1,512.85,1254.9333333333336) translate(0 14.4)"/><use xlink:href="#P" transform="matrix(1,0,0,1,512.85,1254.9333333333336) translate(68.80000000000001 14.4)"/><use xlink:href="#W" transform="matrix(1,0,0,1,512.85,1254.9333333333336) translate(87.75000000000001 14.4)"/></g><path d="M267.4 1319.2H891" stroke="#999" stroke-width="2" fill="none"/><path d="M267.4 1320.2h-1v-2h1zM891 1319.2l-14.27 4.64v-9.28z" fill="#999"/><path d="M892 1318.47v1.46l-16.27 5.28v-12zm-14.27 4l10.03-3.27-10.03-3.26z" fill="#999"/><g><use xlink:href="#X" transform="matrix(1,0,0,1,493.87500000000006,1293.6000000000001) translate(0 14.4)"/><use xlink:href="#Y" transform="matrix(1,0,0,1,493.87500000000006,1293.6000000000001) translate(100.80000000000001 14.4)"/></g><path d="M933 1319.2h35c2.76 0 5 2.24 5 5v48.67c0 2.76-2.24 5-5 5h-35" stroke="#999" stroke-width="2" fill="none"/><path d="M933 1320.2h-1v-2h1zM947.27 1382.5l-14.27-4.63 14.27-4.64z" fill="#999"/><path d="M948.27 1383.88l-16.27-5.3v-1.44l16.27-5.3zm-12.03-6l10.03 3.25v-6.52z" fill="#999"/><g><use xlink:href="#Z" transform="matrix(1,0,0,1,980.9999999999999,1337.7333333333336) translate(0 14.4)"/><use xlink:href="#P" transform="matrix(1,0,0,1,980.9999999999999,1337.7333333333336) translate(92.80000000000001 14.4)"/><use xlink:href="#W" transform="matrix(1,0,0,1,980.9999999999999,1337.7333333333336) translate(111.75000000000001 14.4)"/></g><defs><path fill="#333" d="M169-182c-1-43-94-46-97-3 18 66 151 10 154 114 3 95-165 93-204 36-6-8-10-19-12-30l50-8c3 46 112 56 116 5-17-69-150-10-154-114-4-87 153-88 188-35 5 8 8 18 10 28" id="aa"/><path fill="#333" d="M146-102V0H94v-102L6-248h54l60 105 60-105h54" id="ab"/><path fill="#333" d="M136-208V0H84v-208H4v-40h212v40h-80" id="ac"/><path fill="#333" d="M129-269l-59-42v-8h45l44 45v5h-30zM24 0v-248h195v40H76v63h132v40H76v65h150V0H24" id="ad"/><path fill="#333" d="M230 0l2-204L168 0h-37L68-204 70 0H24v-248h70l56 185 57-185h69V0h-46" id="ae"/><path fill="#333" d="M24 0v-248h195v40H76v63h132v40H76v65h150V0H24" id="af"/><g id="a"><use transform="matrix(0.04938271604938272,0,0,0.04938271604938272,0,0)" xlink:href="#aa"/><use transform="matrix(0.04938271604938272,0,0,0.04938271604938272,11.851851851851853,0)" xlink:href="#ab"/><use transform="matrix(0.04938271604938272,0,0,0.04938271604938272,23.703703703703706,0)" xlink:href="#aa"/><use transform="matrix(0.04938271604938272,0,0,0.04938271604938272,35.55555555555556,0)" xlink:href="#ac"/><use transform="matrix(0.04938271604938272,0,0,0.04938271604938272,46.370370370370374,0)" xlink:href="#ad"/><use transform="matrix(0.04938271604938272,0,0,0.04938271604938272,58.22222222222223,0)" xlink:href="#ae"/><use transform="matrix(0.04938271604938272,0,0,0.04938271604938272,72.98765432098766,0)" xlink:href="#af"/></g><path fill="#333" d="M147 0H94L2-248h55l64 206c17-72 42-137 63-206h54" id="ag"/><path fill="#333" d="M110-194c64 0 96 36 96 99 0 64-35 99-97 99-61 0-95-36-95-99 0-62 34-99 96-99zm-1 164c35 0 45-28 45-65 0-40-10-65-43-65-34 0-45 26-45 65 0 36 10 65 43 65" id="ah"/><path fill="#333" d="M25-224v-37h50v37H25zM25 0v-190h50V0H25" id="ai"/><path fill="#333" d="M135-150c-39-12-60 13-60 57V0H25l-1-190h47c2 13-1 29 3 40 6-28 27-53 61-41v41" id="aj"/><g id="b"><use transform="matrix(0.05,0,0,0.05,0,0)" xlink:href="#ag"/><use transform="matrix(0.05,0,0,0.05,10.65,0)" xlink:href="#ah"/><use transform="matrix(0.05,0,0,0.05,21.6,0)" xlink:href="#ai"/><use transform="matrix(0.05,0,0,0.05,26.6,0)" xlink:href="#aj"/></g><path fill="#333" d="M25 0v-261h50V0H25" id="ak"/><path fill="#333" d="M133-34C117-15 103 5 69 4 32 3 11-16 11-54c-1-60 55-63 116-61 1-26-3-47-28-47-18 1-26 9-28 27l-52-2c7-38 36-58 82-57s74 22 75 68l1 82c-1 14 12 18 25 15v27c-30 8-71 5-69-32zm-48 3c29 0 43-24 42-57-32 0-66-3-65 30 0 17 8 27 23 27" id="al"/><g id="c"><use transform="matrix(0.05,0,0,0.05,0,0)" xlink:href="#ak"/><use transform="matrix(0.05,0,0,0.05,5,0)" xlink:href="#al"/></g><path fill="#333" d="M137-138c1-29-70-34-71-4 15 46 118 7 119 86 1 83-164 76-172 9l43-7c4 19 20 25 44 25 33 8 57-30 24-41C81-84 22-81 20-136c-2-80 154-74 161-7" id="am"/><path fill="#333" d="M115-3C79 11 28 4 28-45v-112H4v-33h27l15-45h31v45h36v33H77v99c-1 23 16 31 38 25v30" id="an"/><path fill="#333" d="M185-48c-13 30-37 53-82 52C43 2 14-33 14-96s30-98 90-98c62 0 83 45 84 108H66c0 31 8 55 39 56 18 0 30-7 34-22zm-45-69c5-46-57-63-70-21-2 6-4 13-4 21h74" id="ao"/><g id="d"><use transform="matrix(0.05,0,0,0.05,0,0)" xlink:href="#ak"/><use transform="matrix(0.05,0,0,0.05,5,0)" xlink:href="#ai"/><use transform="matrix(0.05,0,0,0.05,10,0)" xlink:href="#am"/><use transform="matrix(0.05,0,0,0.05,20,0)" xlink:href="#an"/><use transform="matrix(0.05,0,0,0.05,25.950000000000003,0)" xlink:href="#ao"/></g><path fill="#333" d="M88-194c31-1 46 15 58 34l-1-101h50l1 261h-48c-2-10 0-23-3-31C134-8 116 4 84 4 32 4 16-41 15-95c0-56 19-97 73-99zm17 164c33 0 40-30 41-66 1-37-9-64-41-64s-38 30-39 65c0 43 13 65 39 65" id="ap"/><g id="e"><use transform="matrix(0.05,0,0,0.05,0,0)" xlink:href="#ap"/><use transform="matrix(0.05,0,0,0.05,10.950000000000001,0)" xlink:href="#ao"/><use transform="matrix(0.05,0,0,0.05,20.950000000000003,0)" xlink:href="#am"/></g><path fill="#333" d="M195-6C206 82 75 100 31 46c-4-6-6-13-8-21l49-6c3 16 16 24 34 25 40 0 42-37 40-79-11 22-30 35-61 35-53 0-70-43-70-97 0-56 18-96 73-97 30 0 46 14 59 34l2-30h47zm-90-29c32 0 41-27 41-63 0-35-9-62-40-62-32 0-39 29-40 63 0 36 9 62 39 62" id="aq"/><path fill="#333" d="M85 4C-2 5 27-109 22-190h50c7 57-23 150 33 157 60-5 35-97 40-157h50l1 190h-47c-2-12 1-28-3-38-12 25-28 42-61 42" id="ar"/><path fill="#333" d="M135-194c53 0 70 44 70 98 0 56-19 98-73 100-31 1-45-17-59-34 3 33 2 69 2 105H25l-1-265h48c2 10 0 23 3 31 11-24 29-35 60-35zM114-30c33 0 39-31 40-66 0-38-9-64-40-64-56 0-55 130 0 130" id="as"/><g id="f"><use transform="matrix(0.05,0,0,0.05,0,0)" xlink:href="#aq"/><use transform="matrix(0.05,0,0,0.05,10.950000000000001,0)" xlink:href="#aj"/><use transform="matrix(0.05,0,0,0.05,17.950000000000003,0)" xlink:href="#ah"/><use transform="matrix(0.05,0,0,0.05,28.900000000000006,0)" xlink:href="#ar"/><use transform="matrix(0.05,0,0,0.05,39.85000000000001,0)" xlink:href="#as"/><use transform="matrix(0.05,0,0,0.05,50.80000000000001,0)" xlink:href="#ao"/><use transform="matrix(0.05,0,0,0.05,60.80000000000001,0)" xlink:href="#am"/></g><g id="g"><use transform="matrix(0.05,0,0,0.05,0,0)" xlink:href="#ap"/><use transform="matrix(0.05,0,0,0.05,10.950000000000001,0)" xlink:href="#ao"/></g><path fill="#333" d="M135-194c87-1 58 113 63 194h-50c-7-57 23-157-34-157-59 0-34 97-39 157H25l-1-190h47c2 12-1 28 3 38 12-26 28-41 61-42" id="at"/><path fill="#333" d="M24 0v-54h51V0H24" id="au"/><g id="h"><use transform="matrix(0.05,0,0,0.05,0,0)" xlink:href="#as"/><use transform="matrix(0.05,0,0,0.05,10.950000000000001,0)" xlink:href="#al"/><use transform="matrix(0.05,0,0,0.05,20.950000000000003,0)" xlink:href="#an"/><use transform="matrix(0.05,0,0,0.05,26.900000000000002,0)" xlink:href="#ai"/><use transform="matrix(0.05,0,0,0.05,31.900000000000002,0)" xlink:href="#ao"/><use transform="matrix(0.05,0,0,0.05,41.900000000000006,0)" xlink:href="#at"/><use transform="matrix(0.05,0,0,0.05,52.85,0)" xlink:href="#an"/><use transform="matrix(0.05,0,0,0.05,58.80000000000001,0)" xlink:href="#am"/><use transform="matrix(0.05,0,0,0.05,68.80000000000001,0)" xlink:href="#au"/></g><path d="M30 0v-248h33v221h125V0H30" id="av"/><path d="M24-231v-30h32v30H24zM24 0v-190h32V0H24" id="aw"/><path d="M135-143c-3-34-86-38-87 0 15 53 115 12 119 90S17 21 10-45l28-5c4 36 97 45 98 0-10-56-113-15-118-90-4-57 82-63 122-42 12 7 21 19 24 35" id="ax"/><path d="M59-47c-2 24 18 29 38 22v24C64 9 27 4 27-40v-127H5v-23h24l9-43h21v43h35v23H59v120" id="ay"/><path d="M100-194c63 0 86 42 84 106H49c0 40 14 67 53 68 26 1 43-12 49-29l28 8c-11 28-37 45-77 45C44 4 14-33 15-96c1-61 26-98 85-98zm52 81c6-60-76-77-97-28-3 7-6 17-6 28h103" id="az"/><g id="i"><use transform="matrix(0.05,0,0,0.05,0,0)" xlink:href="#av"/><use transform="matrix(0.05,0,0,0.05,10,0)" xlink:href="#aw"/><use transform="matrix(0.05,0,0,0.05,13.949999999999998,0)" xlink:href="#ax"/><use transform="matrix(0.05,0,0,0.05,22.95,0)" xlink:href="#ay"/><use transform="matrix(0.05,0,0,0.05,27.950000000000003,0)" xlink:href="#az"/></g><path d="M85-194c31 0 48 13 60 33l-1-100h32l1 261h-30c-2-10 0-23-3-31C134-8 116 4 85 4 32 4 16-35 15-94c0-66 23-100 70-100zm9 24c-40 0-46 34-46 75 0 40 6 74 45 74 42 0 51-32 51-76 0-42-9-74-50-73" id="aA"/><g id="j"><use transform="matrix(0.05,0,0,0.05,0,0)" xlink:href="#aA"/><use transform="matrix(0.05,0,0,0.05,10,0)" xlink:href="#az"/><use transform="matrix(0.05,0,0,0.05,20,0)" xlink:href="#ax"/></g><path d="M177-190C167-65 218 103 67 71c-23-6-38-20-44-43l32-5c15 47 100 32 89-28v-30C133-14 115 1 83 1 29 1 15-40 15-95c0-56 16-97 71-98 29-1 48 16 59 35 1-10 0-23 2-32h30zM94-22c36 0 50-32 50-73 0-42-14-75-50-75-39 0-46 34-46 75s6 73 46 73" id="aB"/><path d="M114-163C36-179 61-72 57 0H25l-1-190h30c1 12-1 29 2 39 6-27 23-49 58-41v29" id="aC"/><path d="M100-194c62-1 85 37 85 99 1 63-27 99-86 99S16-35 15-95c0-66 28-99 85-99zM99-20c44 1 53-31 53-75 0-43-8-75-51-75s-53 32-53 75 10 74 51 75" id="aD"/><path d="M84 4C-5 8 30-112 23-190h32v120c0 31 7 50 39 49 72-2 45-101 50-169h31l1 190h-30c-1-10 1-25-2-33-11 22-28 36-60 37" id="aE"/><path d="M115-194c55 1 70 41 70 98S169 2 115 4C84 4 66-9 55-30l1 105H24l-1-265h31l2 30c10-21 28-34 59-34zm-8 174c40 0 45-34 45-75s-6-73-45-74c-42 0-51 32-51 76 0 43 10 73 51 73" id="aF"/><g id="k"><use transform="matrix(0.05,0,0,0.05,0,0)" xlink:href="#aB"/><use transform="matrix(0.05,0,0,0.05,10,0)" xlink:href="#aC"/><use transform="matrix(0.05,0,0,0.05,15.949999999999998,0)" xlink:href="#aD"/><use transform="matrix(0.05,0,0,0.05,25.950000000000003,0)" xlink:href="#aE"/><use transform="matrix(0.05,0,0,0.05,35.95,0)" xlink:href="#aF"/><use transform="matrix(0.05,0,0,0.05,45.95,0)" xlink:href="#az"/><use transform="matrix(0.05,0,0,0.05,55.95,0)" xlink:href="#ax"/></g><g id="l"><use transform="matrix(0.05,0,0,0.05,0,0)" xlink:href="#aA"/><use transform="matrix(0.05,0,0,0.05,10,0)" xlink:href="#az"/></g><path d="M141-36C126-15 110 5 73 4 37 3 15-17 15-53c-1-64 63-63 125-63 3-35-9-54-41-54-24 1-41 7-42 31l-33-3c5-37 33-52 76-52 45 0 72 20 72 64v82c-1 20 7 32 28 27v20c-31 9-61-2-59-35zM48-53c0 20 12 33 32 33 41-3 63-29 60-74-43 2-92-5-92 41" id="aG"/><path d="M117-194c89-4 53 116 60 194h-32v-121c0-31-8-49-39-48C34-167 62-67 57 0H25l-1-190h30c1 10-1 24 2 32 11-22 29-35 61-36" id="aH"/><g id="m"><use transform="matrix(0.05,0,0,0.05,0,0)" xlink:href="#aF"/><use transform="matrix(0.05,0,0,0.05,10,0)" xlink:href="#aG"/><use transform="matrix(0.05,0,0,0.05,20,0)" xlink:href="#ay"/><use transform="matrix(0.05,0,0,0.05,25,0)" xlink:href="#aw"/><use transform="matrix(0.05,0,0,0.05,28.950000000000003,0)" xlink:href="#az"/><use transform="matrix(0.05,0,0,0.05,38.95,0)" xlink:href="#aH"/><use transform="matrix(0.05,0,0,0.05,48.95,0)" xlink:href="#ay"/><use transform="matrix(0.05,0,0,0.05,53.95,0)" xlink:href="#ax"/></g><path d="M185-189c-5-48-123-54-124 2 14 75 158 14 163 119 3 78-121 87-175 55-17-10-28-26-33-46l33-7c5 56 141 63 141-1 0-78-155-14-162-118-5-82 145-84 179-34 5 7 8 16 11 25" id="aI"/><path d="M100-194c63 0 86 42 84 106H49c0 40 14 67 53 68 26 1 43-12 49-29l28 8c-11 28-37 45-77 45C44 4 14-33 15-96c1-61 26-98 85-98zm52 81c6-60-76-77-97-28-3 7-6 17-6 28h103zm-74-98c8-23 27-35 38-54h36v5l-58 49H78" id="aJ"/><path d="M24 0v-261h32V0H24" id="aK"/><path d="M96-169c-40 0-48 33-48 73s9 75 48 75c24 0 41-14 43-38l32 2c-6 37-31 61-74 61-59 0-76-41-82-99-10-93 101-131 147-64 4 7 5 14 7 22l-32 3c-4-21-16-35-41-35" id="aL"/><g id="n"><use transform="matrix(0.05,0,0,0.05,0,0)" xlink:href="#aI"/><use transform="matrix(0.05,0,0,0.05,12,0)" xlink:href="#aJ"/><use transform="matrix(0.05,0,0,0.05,22,0)" xlink:href="#aK"/><use transform="matrix(0.05,0,0,0.05,25.950000000000003,0)" xlink:href="#az"/><use transform="matrix(0.05,0,0,0.05,35.95,0)" xlink:href="#aL"/><use transform="matrix(0.05,0,0,0.05,44.95,0)" xlink:href="#ay"/><use transform="matrix(0.05,0,0,0.05,49.95,0)" xlink:href="#aw"/><use transform="matrix(0.05,0,0,0.05,53.900000000000006,0)" xlink:href="#aD"/><use transform="matrix(0.05,0,0,0.05,63.900000000000006,0)" xlink:href="#aH"/><use transform="matrix(0.05,0,0,0.05,73.9,0)" xlink:href="#aH"/><use transform="matrix(0.05,0,0,0.05,83.9,0)" xlink:href="#az"/><use transform="matrix(0.05,0,0,0.05,93.9,0)" xlink:href="#aC"/></g><g id="o"><use transform="matrix(0.05,0,0,0.05,0,0)" xlink:href="#aE"/><use transform="matrix(0.05,0,0,0.05,10,0)" xlink:href="#aH"/></g><g id="p"><use transform="matrix(0.05,0,0,0.05,0,0)" xlink:href="#aB"/><use transform="matrix(0.05,0,0,0.05,10,0)" xlink:href="#aC"/><use transform="matrix(0.05,0,0,0.05,15.949999999999998,0)" xlink:href="#aD"/><use transform="matrix(0.05,0,0,0.05,25.950000000000003,0)" xlink:href="#aE"/><use transform="matrix(0.05,0,0,0.05,35.95,0)" xlink:href="#aF"/><use transform="matrix(0.05,0,0,0.05,45.95,0)" xlink:href="#az"/></g><path d="M143 4C61 4 22-44 18-125c-5-107 100-154 193-111 17 8 29 25 37 43l-32 9c-13-25-37-40-76-40-61 0-88 39-88 99 0 61 29 100 91 101 35 0 62-11 79-27v-45h-74v-28h105v86C228-13 192 4 143 4" id="aM"/><g id="q"><use transform="matrix(0.05,0,0,0.05,0,0)" xlink:href="#aM"/><use transform="matrix(0.05,0,0,0.05,14,0)" xlink:href="#aC"/><use transform="matrix(0.05,0,0,0.05,19.95,0)" xlink:href="#aD"/><use transform="matrix(0.05,0,0,0.05,29.950000000000003,0)" xlink:href="#aE"/><use transform="matrix(0.05,0,0,0.05,39.95,0)" xlink:href="#aF"/><use transform="matrix(0.05,0,0,0.05,49.95,0)" xlink:href="#az"/></g><g id="r"><use transform="matrix(0.05,0,0,0.05,0,0)" xlink:href="#ax"/><use transform="matrix(0.05,0,0,0.05,9,0)" xlink:href="#aJ"/><use transform="matrix(0.05,0,0,0.05,19,0)" xlink:href="#aK"/><use transform="matrix(0.05,0,0,0.05,22.95,0)" xlink:href="#az"/><use transform="matrix(0.05,0,0,0.05,32.95,0)" xlink:href="#aL"/><use transform="matrix(0.05,0,0,0.05,41.95,0)" xlink:href="#ay"/><use transform="matrix(0.05,0,0,0.05,46.95,0)" xlink:href="#aw"/><use transform="matrix(0.05,0,0,0.05,50.900000000000006,0)" xlink:href="#aD"/><use transform="matrix(0.05,0,0,0.05,60.900000000000006,0)" xlink:href="#aH"/><use transform="matrix(0.05,0,0,0.05,70.9,0)" xlink:href="#aH"/><use transform="matrix(0.05,0,0,0.05,80.9,0)" xlink:href="#aJ"/></g><g id="s"><use transform="matrix(0.05,0,0,0.05,0,0)" xlink:href="#av"/><use transform="matrix(0.05,0,0,0.05,10,0)" xlink:href="#aG"/><use transform="matrix(0.05,0,0,0.05,20,0)" xlink:href="#aH"/><use transform="matrix(0.05,0,0,0.05,30,0)" xlink:href="#aL"/><use transform="matrix(0.05,0,0,0.05,39,0)" xlink:href="#az"/><use transform="matrix(0.05,0,0,0.05,49,0)" xlink:href="#aC"/></g><path d="M47-170H22l-4-78h33" id="aN"/><path d="M115-194c53 0 69 39 70 98 0 66-23 100-70 100C84 3 66-7 56-30L54 0H23l1-261h32v101c10-23 28-34 59-34zm-8 174c40 0 45-34 45-75 0-40-5-75-45-74-42 0-51 32-51 76 0 43 10 73 51 73" id="aO"/><g id="t"><use transform="matrix(0.05,0,0,0.05,0,0)" xlink:href="#aK"/><use transform="matrix(0.05,0,0,0.05,3.95,0)" xlink:href="#aN"/><use transform="matrix(0.05,0,0,0.05,7.3500000000000005,0)" xlink:href="#aJ"/><use transform="matrix(0.05,0,0,0.05,17.35,0)" xlink:href="#aK"/><use transform="matrix(0.05,0,0,0.05,21.3,0)" xlink:href="#aG"/><use transform="matrix(0.05,0,0,0.05,31.3,0)" xlink:href="#aO"/><use transform="matrix(0.05,0,0,0.05,41.3,0)" xlink:href="#aD"/><use transform="matrix(0.05,0,0,0.05,51.29999999999999,0)" xlink:href="#aC"/><use transform="matrix(0.05,0,0,0.05,57.25,0)" xlink:href="#aG"/><use transform="matrix(0.05,0,0,0.05,67.25,0)" xlink:href="#ay"/><use transform="matrix(0.05,0,0,0.05,72.25,0)" xlink:href="#aw"/><use transform="matrix(0.05,0,0,0.05,76.2,0)" xlink:href="#aD"/><use transform="matrix(0.05,0,0,0.05,86.2,0)" xlink:href="#aH"/></g><path d="M210-169c-67 3-38 105-44 169h-31v-121c0-29-5-50-35-48C34-165 62-65 56 0H25l-1-190h30c1 10-1 24 2 32 10-44 99-50 107 0 11-21 27-35 58-36 85-2 47 119 55 194h-31v-121c0-29-5-49-35-48" id="aP"/><g id="u"><use transform="matrix(0.05,0,0,0.05,0,0)" xlink:href="#aP"/><use transform="matrix(0.05,0,0,0.05,14.950000000000001,0)" xlink:href="#az"/><use transform="matrix(0.05,0,0,0.05,24.950000000000003,0)" xlink:href="#aH"/><use transform="matrix(0.05,0,0,0.05,34.95,0)" xlink:href="#aE"/><use transform="matrix(0.05,0,0,0.05,44.95,0)" xlink:href="#ax"/></g><path d="M240 0l2-218c-23 76-54 145-80 218h-23L58-218 59 0H30v-248h44l77 211c21-75 51-140 76-211h43V0h-30" id="aQ"/><g id="v"><use transform="matrix(0.05,0,0,0.05,0,0)" xlink:href="#aQ"/><use transform="matrix(0.05,0,0,0.05,14.950000000000001,0)" xlink:href="#az"/><use transform="matrix(0.05,0,0,0.05,24.950000000000003,0)" xlink:href="#aH"/><use transform="matrix(0.05,0,0,0.05,34.95,0)" xlink:href="#aE"/><use transform="matrix(0.05,0,0,0.05,44.95,0)" xlink:href="#ax"/></g><g id="w"><use transform="matrix(0.05,0,0,0.05,0,0)" xlink:href="#aJ"/><use transform="matrix(0.05,0,0,0.05,10,0)" xlink:href="#aK"/><use transform="matrix(0.05,0,0,0.05,13.949999999999998,0)" xlink:href="#aG"/><use transform="matrix(0.05,0,0,0.05,23.95,0)" xlink:href="#aO"/><use transform="matrix(0.05,0,0,0.05,33.95,0)" xlink:href="#aD"/><use transform="matrix(0.05,0,0,0.05,43.95,0)" xlink:href="#aC"/><use transform="matrix(0.05,0,0,0.05,49.900000000000006,0)" xlink:href="#aJ"/><use transform="matrix(0.05,0,0,0.05,59.900000000000006,0)" xlink:href="#ax"/></g><path fill="#333" d="M205 0l-28-72H64L36 0H1l101-248h38L239 0h-34zm-38-99l-47-123c-12 45-31 82-46 123h93" id="aR"/><path fill="#333" d="M24 0v-261h32V0H24" id="aS"/><path fill="#333" d="M59-47c-2 24 18 29 38 22v24C64 9 27 4 27-40v-127H5v-23h24l9-43h21v43h35v23H59v120" id="aT"/><path fill="#333" d="M100-194c63 0 86 42 84 106H49c0 40 14 67 53 68 26 1 43-12 49-29l28 8c-11 28-37 45-77 45C44 4 14-33 15-96c1-61 26-98 85-98zm52 81c6-60-76-77-97-28-3 7-6 17-6 28h103" id="aU"/><path fill="#333" d="M114-163C36-179 61-72 57 0H25l-1-190h30c1 12-1 29 2 39 6-27 23-49 58-41v29" id="aV"/><path fill="#333" d="M117-194c89-4 53 116 60 194h-32v-121c0-31-8-49-39-48C34-167 62-67 57 0H25l-1-190h30c1 10-1 24 2 32 11-22 29-35 61-36" id="aW"/><path fill="#333" d="M141-36C126-15 110 5 73 4 37 3 15-17 15-53c-1-64 63-63 125-63 3-35-9-54-41-54-24 1-41 7-42 31l-33-3c5-37 33-52 76-52 45 0 72 20 72 64v82c-1 20 7 32 28 27v20c-31 9-61-2-59-35zM48-53c0 20 12 33 32 33 41-3 63-29 60-74-43 2-92-5-92 41" id="aX"/><path fill="#333" d="M24-231v-30h32v30H24zM24 0v-190h32V0H24" id="aY"/><path fill="#333" d="M108 0H70L1-190h34L89-25l56-165h34" id="aZ"/><g id="x"><use transform="matrix(0.05,0,0,0.05,0,0)" xlink:href="#aR"/><use transform="matrix(0.05,0,0,0.05,12,0)" xlink:href="#aS"/><use transform="matrix(0.05,0,0,0.05,15.949999999999998,0)" xlink:href="#aT"/><use transform="matrix(0.05,0,0,0.05,20.95,0)" xlink:href="#aU"/><use transform="matrix(0.05,0,0,0.05,30.950000000000003,0)" xlink:href="#aV"/><use transform="matrix(0.05,0,0,0.05,36.9,0)" xlink:href="#aW"/><use transform="matrix(0.05,0,0,0.05,46.9,0)" xlink:href="#aX"/><use transform="matrix(0.05,0,0,0.05,56.900000000000006,0)" xlink:href="#aT"/><use transform="matrix(0.05,0,0,0.05,61.900000000000006,0)" xlink:href="#aY"/><use transform="matrix(0.05,0,0,0.05,65.85,0)" xlink:href="#aZ"/><use transform="matrix(0.05,0,0,0.05,74.85,0)" xlink:href="#aU"/></g><path fill="#333" d="M97-269c9-18 26-28 38-43h36v5l-54 38H97zM30 0v-248h187v28H63v79h144v27H63v87h162V0H30" id="ba"/><path fill="#333" d="M115-194c53 0 69 39 70 98 0 66-23 100-70 100C84 3 66-7 56-30L54 0H23l1-261h32v101c10-23 28-34 59-34zm-8 174c40 0 45-34 45-75 0-40-5-75-45-74-42 0-51 32-51 76 0 43 10 73 51 73" id="bb"/><path fill="#333" d="M100-194c62-1 85 37 85 99 1 63-27 99-86 99S16-35 15-95c0-66 28-99 85-99zM99-20c44 1 53-31 53-75 0-43-8-75-51-75s-53 32-53 75 10 74 51 75" id="bc"/><g id="y"><use transform="matrix(0.05,0,0,0.05,0,0)" xlink:href="#ba"/><use transform="matrix(0.05,0,0,0.05,12,0)" xlink:href="#aS"/><use transform="matrix(0.05,0,0,0.05,15.949999999999998,0)" xlink:href="#aX"/><use transform="matrix(0.05,0,0,0.05,25.950000000000003,0)" xlink:href="#bb"/><use transform="matrix(0.05,0,0,0.05,35.95,0)" xlink:href="#bc"/><use transform="matrix(0.05,0,0,0.05,45.95,0)" xlink:href="#aV"/><use transform="matrix(0.05,0,0,0.05,51.900000000000006,0)" xlink:href="#aX"/><use transform="matrix(0.05,0,0,0.05,61.900000000000006,0)" xlink:href="#aT"/><use transform="matrix(0.05,0,0,0.05,66.9,0)" xlink:href="#aY"/><use transform="matrix(0.05,0,0,0.05,70.85000000000001,0)" xlink:href="#bc"/><use transform="matrix(0.05,0,0,0.05,80.85000000000001,0)" xlink:href="#aW"/></g><path fill="#333" d="M96-169c-40 0-48 33-48 73s9 75 48 75c24 0 41-14 43-38l32 2c-6 37-31 61-74 61-59 0-76-41-82-99-10-93 101-131 147-64 4 7 5 14 7 22l-32 3c-4-21-16-35-41-35" id="bd"/><g id="z"><use transform="matrix(0.05,0,0,0.05,0,0)" xlink:href="#bd"/><use transform="matrix(0.05,0,0,0.05,9,0)" xlink:href="#bc"/><use transform="matrix(0.05,0,0,0.05,19,0)" xlink:href="#aV"/><use transform="matrix(0.05,0,0,0.05,24.95,0)" xlink:href="#aV"/><use transform="matrix(0.05,0,0,0.05,30.899999999999995,0)" xlink:href="#aU"/><use transform="matrix(0.05,0,0,0.05,40.9,0)" xlink:href="#bd"/><use transform="matrix(0.05,0,0,0.05,49.9,0)" xlink:href="#aT"/><use transform="matrix(0.05,0,0,0.05,54.900000000000006,0)" xlink:href="#aU"/></g><g id="A"><use transform="matrix(0.05,0,0,0.05,0,0)" xlink:href="#ba"/><use transform="matrix(0.05,0,0,0.05,12,0)" xlink:href="#aS"/><use transform="matrix(0.05,0,0,0.05,15.949999999999998,0)" xlink:href="#aX"/><use transform="matrix(0.05,0,0,0.05,25.950000000000003,0)" xlink:href="#bb"/><use transform="matrix(0.05,0,0,0.05,35.95,0)" xlink:href="#bc"/><use transform="matrix(0.05,0,0,0.05,45.95,0)" xlink:href="#aV"/><use transform="matrix(0.05,0,0,0.05,51.900000000000006,0)" xlink:href="#aX"/><use transform="matrix(0.05,0,0,0.05,61.900000000000006,0)" xlink:href="#aT"/><use transform="matrix(0.05,0,0,0.05,66.9,0)" xlink:href="#aY"/><use transform="matrix(0.05,0,0,0.05,70.85000000000001,0)" xlink:href="#bc"/><use transform="matrix(0.05,0,0,0.05,80.85000000000001,0)" xlink:href="#aW"/></g><g id="B"><use transform="matrix(0.05,0,0,0.05,0,0)" xlink:href="#aY"/><use transform="matrix(0.05,0,0,0.05,3.95,0)" xlink:href="#aW"/><use transform="matrix(0.05,0,0,0.05,13.949999999999998,0)" xlink:href="#bd"/><use transform="matrix(0.05,0,0,0.05,22.95,0)" xlink:href="#bc"/><use transform="matrix(0.05,0,0,0.05,32.95,0)" xlink:href="#aV"/><use transform="matrix(0.05,0,0,0.05,38.900000000000006,0)" xlink:href="#aV"/><use transform="matrix(0.05,0,0,0.05,44.85000000000001,0)" xlink:href="#aU"/><use transform="matrix(0.05,0,0,0.05,54.85,0)" xlink:href="#bd"/><use transform="matrix(0.05,0,0,0.05,63.85,0)" xlink:href="#aT"/><use transform="matrix(0.05,0,0,0.05,68.85000000000001,0)" xlink:href="#aU"/></g><path fill="#333" d="M30 0v-248h33v221h125V0H30" id="be"/><path fill="#333" d="M115-194c55 1 70 41 70 98S169 2 115 4C84 4 66-9 55-30l1 105H24l-1-265h31l2 30c10-21 28-34 59-34zm-8 174c40 0 45-34 45-75s-6-73-45-74c-42 0-51 32-51 76 0 43 10 73 51 73" id="bf"/><g id="C"><use transform="matrix(0.05,0,0,0.05,0,0)" xlink:href="#be"/><use transform="matrix(0.05,0,0,0.05,10,0)" xlink:href="#bc"/><use transform="matrix(0.05,0,0,0.05,20,0)" xlink:href="#bc"/><use transform="matrix(0.05,0,0,0.05,30,0)" xlink:href="#bf"/></g><path fill="#333" d="M240 0l2-218c-23 76-54 145-80 218h-23L58-218 59 0H30v-248h44l77 211c21-75 51-140 76-211h43V0h-30" id="bg"/><path fill="#333" d="M84 4C-5 8 30-112 23-190h32v120c0 31 7 50 39 49 72-2 45-101 50-169h31l1 190h-30c-1-10 1-25-2-33-11 22-28 36-60 37" id="bh"/><path fill="#333" d="M135-143c-3-34-86-38-87 0 15 53 115 12 119 90S17 21 10-45l28-5c4 36 97 45 98 0-10-56-113-15-118-90-4-57 82-63 122-42 12 7 21 19 24 35" id="bi"/><g id="D"><use transform="matrix(0.05,0,0,0.05,0,0)" xlink:href="#bg"/><use transform="matrix(0.05,0,0,0.05,14.950000000000001,0)" xlink:href="#aU"/><use transform="matrix(0.05,0,0,0.05,24.950000000000003,0)" xlink:href="#aW"/><use transform="matrix(0.05,0,0,0.05,34.95,0)" xlink:href="#bh"/><use transform="matrix(0.05,0,0,0.05,44.95,0)" xlink:href="#bi"/></g><path fill="#333" d="M24-231v-30h32v30H24zM-9 49c24 4 33-6 33-30v-209h32V24c2 40-23 58-65 49V49" id="bj"/><path fill="#333" d="M100-194c63 0 86 42 84 106H49c0 40 14 67 53 68 26 1 43-12 49-29l28 8c-11 28-37 45-77 45C44 4 14-33 15-96c1-61 26-98 85-98zm52 81c6-60-76-77-97-28-3 7-6 17-6 28h103zm-74-98c8-23 27-35 38-54h36v5l-58 49H78" id="bk"/><g id="E"><use transform="matrix(0.05,0,0,0.05,0,0)" xlink:href="#aV"/><use transform="matrix(0.05,0,0,0.05,5.95,0)" xlink:href="#aU"/><use transform="matrix(0.05,0,0,0.05,15.949999999999998,0)" xlink:href="#bj"/><use transform="matrix(0.05,0,0,0.05,19.9,0)" xlink:href="#aU"/><use transform="matrix(0.05,0,0,0.05,29.899999999999995,0)" xlink:href="#aT"/><use transform="matrix(0.05,0,0,0.05,34.9,0)" xlink:href="#bk"/><use transform="matrix(0.05,0,0,0.05,44.9,0)" xlink:href="#bi"/></g><path d="M108 0H70L1-190h34L89-25l56-165h34" id="bl"/><g id="F"><use transform="matrix(0.05,0,0,0.05,0,0)" xlink:href="#bl"/><use transform="matrix(0.05,0,0,0.05,9,0)" xlink:href="#aG"/><use transform="matrix(0.05,0,0,0.05,19,0)" xlink:href="#aK"/><use transform="matrix(0.05,0,0,0.05,22.95,0)" xlink:href="#aw"/><use transform="matrix(0.05,0,0,0.05,26.899999999999995,0)" xlink:href="#aA"/><use transform="matrix(0.05,0,0,0.05,36.9,0)" xlink:href="#aJ"/><use transform="matrix(0.05,0,0,0.05,46.9,0)" xlink:href="#ax"/></g><path d="M24-231v-30h32v30H24zM-9 49c24 4 33-6 33-30v-209h32V24c2 40-23 58-65 49V49" id="bm"/><g id="G"><use transform="matrix(0.05,0,0,0.05,0,0)" xlink:href="#aC"/><use transform="matrix(0.05,0,0,0.05,5.95,0)" xlink:href="#az"/><use transform="matrix(0.05,0,0,0.05,15.949999999999998,0)" xlink:href="#bm"/><use transform="matrix(0.05,0,0,0.05,19.9,0)" xlink:href="#az"/><use transform="matrix(0.05,0,0,0.05,29.899999999999995,0)" xlink:href="#ay"/><use transform="matrix(0.05,0,0,0.05,34.9,0)" xlink:href="#aJ"/><use transform="matrix(0.05,0,0,0.05,44.9,0)" xlink:href="#ax"/></g><path d="M30 0v-248h187v28H63v79h144v27H63v87h162V0H30" id="bn"/><g id="H"><use transform="matrix(0.05,0,0,0.05,0,0)" xlink:href="#bn"/><use transform="matrix(0.05,0,0,0.05,12,0)" xlink:href="#aH"/><use transform="matrix(0.05,0,0,0.05,22,0)" xlink:href="#aC"/><use transform="matrix(0.05,0,0,0.05,27.950000000000003,0)" xlink:href="#az"/><use transform="matrix(0.05,0,0,0.05,37.95,0)" xlink:href="#aB"/><use transform="matrix(0.05,0,0,0.05,47.95,0)" xlink:href="#aw"/><use transform="matrix(0.05,0,0,0.05,51.900000000000006,0)" xlink:href="#ax"/><use transform="matrix(0.05,0,0,0.05,60.900000000000006,0)" xlink:href="#ay"/><use transform="matrix(0.05,0,0,0.05,65.9,0)" xlink:href="#aC"/><use transform="matrix(0.05,0,0,0.05,71.85000000000001,0)" xlink:href="#az"/><use transform="matrix(0.05,0,0,0.05,81.85000000000001,0)" xlink:href="#aC"/></g><g id="I"><use transform="matrix(0.05,0,0,0.05,0,0)" xlink:href="#aK"/><use transform="matrix(0.05,0,0,0.05,3.95,0)" xlink:href="#az"/><use transform="matrix(0.05,0,0,0.05,13.949999999999998,0)" xlink:href="#ax"/></g><g id="J"><use transform="matrix(0.05,0,0,0.05,0,0)" xlink:href="#aI"/><use transform="matrix(0.05,0,0,0.05,12,0)" xlink:href="#aE"/><use transform="matrix(0.05,0,0,0.05,22,0)" xlink:href="#aF"/><use transform="matrix(0.05,0,0,0.05,32,0)" xlink:href="#aF"/><use transform="matrix(0.05,0,0,0.05,42,0)" xlink:href="#aC"/><use transform="matrix(0.05,0,0,0.05,47.95,0)" xlink:href="#aw"/><use transform="matrix(0.05,0,0,0.05,51.900000000000006,0)" xlink:href="#aP"/><use transform="matrix(0.05,0,0,0.05,66.85000000000001,0)" xlink:href="#az"/><use transform="matrix(0.05,0,0,0.05,76.85000000000001,0)" xlink:href="#aC"/></g><path fill="#333" d="M30-248c118-7 216 8 213 122C240-48 200 0 122 0H30v-248zM63-27c89 8 146-16 146-99s-60-101-146-95v194" id="bo"/><g id="K"><use transform="matrix(0.05,0,0,0.05,0,0)" xlink:href="#bo"/><use transform="matrix(0.05,0,0,0.05,12.950000000000001,0)" xlink:href="#aY"/><use transform="matrix(0.05,0,0,0.05,16.900000000000002,0)" xlink:href="#bk"/><use transform="matrix(0.05,0,0,0.05,26.900000000000002,0)" xlink:href="#aT"/><use transform="matrix(0.05,0,0,0.05,31.900000000000002,0)" xlink:href="#bk"/><use transform="matrix(0.05,0,0,0.05,41.900000000000006,0)" xlink:href="#aT"/><use transform="matrix(0.05,0,0,0.05,46.900000000000006,0)" xlink:href="#aY"/><use transform="matrix(0.05,0,0,0.05,50.85000000000001,0)" xlink:href="#bd"/><use transform="matrix(0.05,0,0,0.05,59.85,0)" xlink:href="#aY"/><use transform="matrix(0.05,0,0,0.05,63.80000000000001,0)" xlink:href="#aU"/><use transform="matrix(0.05,0,0,0.05,73.80000000000001,0)" xlink:href="#aW"/></g><g id="L"><use transform="matrix(0.05,0,0,0.05,0,0)" xlink:href="#aR"/><use transform="matrix(0.05,0,0,0.05,12,0)" xlink:href="#aS"/><use transform="matrix(0.05,0,0,0.05,15.949999999999998,0)" xlink:href="#aT"/><use transform="matrix(0.05,0,0,0.05,20.95,0)" xlink:href="#aU"/><use transform="matrix(0.05,0,0,0.05,30.950000000000003,0)" xlink:href="#aV"/><use transform="matrix(0.05,0,0,0.05,36.9,0)" xlink:href="#aW"/><use transform="matrix(0.05,0,0,0.05,46.9,0)" xlink:href="#aX"/><use transform="matrix(0.05,0,0,0.05,56.900000000000006,0)" xlink:href="#aT"/><use transform="matrix(0.05,0,0,0.05,61.900000000000006,0)" xlink:href="#aY"/><use transform="matrix(0.05,0,0,0.05,65.85,0)" xlink:href="#aZ"/><use transform="matrix(0.05,0,0,0.05,74.85,0)" xlink:href="#aU"/></g><path fill="#333" d="M233-177c-1 41-23 64-60 70L243 0h-38l-65-103H63V0H30v-248c88 3 205-21 203 71zM63-129c60-2 137 13 137-47 0-61-80-42-137-45v92" id="bp"/><g id="M"><use transform="matrix(0.05,0,0,0.05,0,0)" xlink:href="#bp"/><use transform="matrix(0.05,0,0,0.05,12.950000000000001,0)" xlink:href="#aU"/><use transform="matrix(0.05,0,0,0.05,22.950000000000003,0)" xlink:href="#bj"/><use transform="matrix(0.05,0,0,0.05,26.900000000000002,0)" xlink:href="#aU"/><use transform="matrix(0.05,0,0,0.05,36.900000000000006,0)" xlink:href="#aT"/></g><path fill="#333" d="M85-194c31 0 48 13 60 33l-1-100h32l1 261h-30c-2-10 0-23-3-31C134-8 116 4 85 4 32 4 16-35 15-94c0-66 23-100 70-100zm9 24c-40 0-46 34-46 75 0 40 6 74 45 74 42 0 51-32 51-76 0-42-9-74-50-73" id="bq"/><path fill="#333" d="M101-234c-31-9-42 10-38 44h38v23H63V0H32v-167H5v-23h27c-7-52 17-82 69-68v24" id="br"/><g id="N"><use transform="matrix(0.05,0,0,0.05,0,0)" xlink:href="#bg"/><use transform="matrix(0.05,0,0,0.05,14.950000000000001,0)" xlink:href="#bc"/><use transform="matrix(0.05,0,0,0.05,24.950000000000003,0)" xlink:href="#bq"/><use transform="matrix(0.05,0,0,0.05,34.95,0)" xlink:href="#aY"/><use transform="matrix(0.05,0,0,0.05,38.900000000000006,0)" xlink:href="#br"/><use transform="matrix(0.05,0,0,0.05,43.900000000000006,0)" xlink:href="#aY"/><use transform="matrix(0.05,0,0,0.05,47.85000000000001,0)" xlink:href="#bd"/><use transform="matrix(0.05,0,0,0.05,56.85,0)" xlink:href="#aX"/><use transform="matrix(0.05,0,0,0.05,66.85000000000001,0)" xlink:href="#aT"/><use transform="matrix(0.05,0,0,0.05,71.85000000000001,0)" xlink:href="#aY"/><use transform="matrix(0.05,0,0,0.05,75.80000000000001,0)" xlink:href="#bc"/><use transform="matrix(0.05,0,0,0.05,85.80000000000001,0)" xlink:href="#aW"/></g><g id="O"><use transform="matrix(0.05,0,0,0.05,0,0)" xlink:href="#aI"/><use transform="matrix(0.05,0,0,0.05,12,0)" xlink:href="#aJ"/><use transform="matrix(0.05,0,0,0.05,22,0)" xlink:href="#aK"/><use transform="matrix(0.05,0,0,0.05,25.950000000000003,0)" xlink:href="#az"/><use transform="matrix(0.05,0,0,0.05,35.95,0)" xlink:href="#aL"/><use transform="matrix(0.05,0,0,0.05,44.95,0)" xlink:href="#ay"/><use transform="matrix(0.05,0,0,0.05,49.95,0)" xlink:href="#aw"/><use transform="matrix(0.05,0,0,0.05,53.900000000000006,0)" xlink:href="#aD"/><use transform="matrix(0.05,0,0,0.05,63.900000000000006,0)" xlink:href="#aH"/><use transform="matrix(0.05,0,0,0.05,73.9,0)" xlink:href="#aH"/><use transform="matrix(0.05,0,0,0.05,83.9,0)" xlink:href="#az"/><use transform="matrix(0.05,0,0,0.05,93.9,0)" xlink:href="#aC"/></g><g id="P"><use transform="matrix(0.05,0,0,0.05,0,0)" xlink:href="#aK"/><use transform="matrix(0.05,0,0,0.05,3.95,0)" xlink:href="#az"/></g><g id="Q"><use transform="matrix(0.05,0,0,0.05,0,0)" xlink:href="#aP"/><use transform="matrix(0.05,0,0,0.05,14.950000000000001,0)" xlink:href="#az"/><use transform="matrix(0.05,0,0,0.05,24.950000000000003,0)" xlink:href="#aH"/><use transform="matrix(0.05,0,0,0.05,34.95,0)" xlink:href="#aE"/></g><path d="M141-36C126-15 110 5 73 4 37 3 15-17 15-53c-1-64 63-63 125-63 3-35-9-54-41-54-24 1-41 7-42 31l-33-3c5-37 33-52 76-52 45 0 72 20 72 64v82c-1 20 7 32 28 27v20c-31 9-61-2-59-35zM48-53c0 20 12 33 32 33 41-3 63-29 60-74-43 2-92-5-92 41zm62-158l-58-49v-5h36c12 19 30 32 38 54h-16" id="bs"/><use transform="matrix(0.05,0,0,0.05,0,0)" xlink:href="#bs" id="R"/><path d="M101-234c-31-9-42 10-38 44h38v23H63V0H32v-167H5v-23h27c-7-52 17-82 69-68v24" id="bt"/><g id="S"><use transform="matrix(0.05,0,0,0.05,0,0)" xlink:href="#aP"/><use transform="matrix(0.05,0,0,0.05,14.950000000000001,0)" xlink:href="#aD"/><use transform="matrix(0.05,0,0,0.05,24.950000000000003,0)" xlink:href="#aA"/><use transform="matrix(0.05,0,0,0.05,34.95,0)" xlink:href="#aw"/><use transform="matrix(0.05,0,0,0.05,38.900000000000006,0)" xlink:href="#bt"/><use transform="matrix(0.05,0,0,0.05,43.900000000000006,0)" xlink:href="#aw"/><use transform="matrix(0.05,0,0,0.05,47.85000000000001,0)" xlink:href="#az"/><use transform="matrix(0.05,0,0,0.05,57.85,0)" xlink:href="#aC"/></g><g id="T"><use transform="matrix(0.05,0,0,0.05,0,0)" xlink:href="#aQ"/><use transform="matrix(0.05,0,0,0.05,14.950000000000001,0)" xlink:href="#az"/><use transform="matrix(0.05,0,0,0.05,24.950000000000003,0)" xlink:href="#aH"/><use transform="matrix(0.05,0,0,0.05,34.95,0)" xlink:href="#aE"/></g><g id="U"><use transform="matrix(0.05,0,0,0.05,0,0)" xlink:href="#ax"/><use transform="matrix(0.05,0,0,0.05,9,0)" xlink:href="#aJ"/><use transform="matrix(0.05,0,0,0.05,19,0)" xlink:href="#aK"/><use transform="matrix(0.05,0,0,0.05,22.95,0)" xlink:href="#az"/><use transform="matrix(0.05,0,0,0.05,32.95,0)" xlink:href="#aL"/><use transform="matrix(0.05,0,0,0.05,41.95,0)" xlink:href="#ay"/><use transform="matrix(0.05,0,0,0.05,46.95,0)" xlink:href="#aw"/><use transform="matrix(0.05,0,0,0.05,50.900000000000006,0)" xlink:href="#aD"/><use transform="matrix(0.05,0,0,0.05,60.900000000000006,0)" xlink:href="#aH"/><use transform="matrix(0.05,0,0,0.05,70.9,0)" xlink:href="#aH"/><use transform="matrix(0.05,0,0,0.05,80.9,0)" xlink:href="#aJ"/></g><g id="V"><use transform="matrix(0.05,0,0,0.05,0,0)" xlink:href="#aQ"/><use transform="matrix(0.05,0,0,0.05,14.950000000000001,0)" xlink:href="#aD"/><use transform="matrix(0.05,0,0,0.05,24.950000000000003,0)" xlink:href="#aA"/><use transform="matrix(0.05,0,0,0.05,34.95,0)" xlink:href="#aw"/><use transform="matrix(0.05,0,0,0.05,38.900000000000006,0)" xlink:href="#bt"/><use transform="matrix(0.05,0,0,0.05,43.900000000000006,0)" xlink:href="#aw"/><use transform="matrix(0.05,0,0,0.05,47.85000000000001,0)" xlink:href="#az"/><use transform="matrix(0.05,0,0,0.05,57.85,0)" xlink:href="#aC"/></g><g id="W"><use transform="matrix(0.05,0,0,0.05,0,0)" xlink:href="#aP"/><use transform="matrix(0.05,0,0,0.05,14.950000000000001,0)" xlink:href="#az"/><use transform="matrix(0.05,0,0,0.05,24.950000000000003,0)" xlink:href="#aH"/><use transform="matrix(0.05,0,0,0.05,34.95,0)" xlink:href="#aE"/></g><g id="X"><use transform="matrix(0.05,0,0,0.05,0,0)" xlink:href="#aQ"/><use transform="matrix(0.05,0,0,0.05,14.950000000000001,0)" xlink:href="#aD"/><use transform="matrix(0.05,0,0,0.05,24.950000000000003,0)" xlink:href="#aA"/><use transform="matrix(0.05,0,0,0.05,34.95,0)" xlink:href="#aw"/><use transform="matrix(0.05,0,0,0.05,38.900000000000006,0)" xlink:href="#bt"/><use transform="matrix(0.05,0,0,0.05,43.900000000000006,0)" xlink:href="#aw"/><use transform="matrix(0.05,0,0,0.05,47.85000000000001,0)" xlink:href="#aL"/><use transform="matrix(0.05,0,0,0.05,56.85,0)" xlink:href="#aG"/><use transform="matrix(0.05,0,0,0.05,66.85000000000001,0)" xlink:href="#ay"/><use transform="matrix(0.05,0,0,0.05,71.85000000000001,0)" xlink:href="#aw"/><use transform="matrix(0.05,0,0,0.05,75.80000000000001,0)" xlink:href="#aD"/><use transform="matrix(0.05,0,0,0.05,85.80000000000001,0)" xlink:href="#aH"/></g><g id="Y"><use transform="matrix(0.05,0,0,0.05,0,0)" xlink:href="#ay"/><use transform="matrix(0.05,0,0,0.05,5,0)" xlink:href="#az"/><use transform="matrix(0.05,0,0,0.05,15,0)" xlink:href="#aC"/><use transform="matrix(0.05,0,0,0.05,20.95,0)" xlink:href="#aP"/><use transform="matrix(0.05,0,0,0.05,35.9,0)" xlink:href="#aw"/><use transform="matrix(0.05,0,0,0.05,39.85,0)" xlink:href="#aH"/><use transform="matrix(0.05,0,0,0.05,49.85,0)" xlink:href="#aJ"/><use transform="matrix(0.05,0,0,0.05,59.85,0)" xlink:href="#az"/></g><g id="Z"><use transform="matrix(0.05,0,0,0.05,0,0)" xlink:href="#bn"/><use transform="matrix(0.05,0,0,0.05,12,0)" xlink:href="#aH"/><use transform="matrix(0.05,0,0,0.05,22,0)" xlink:href="#aC"/><use transform="matrix(0.05,0,0,0.05,27.950000000000003,0)" xlink:href="#az"/><use transform="matrix(0.05,0,0,0.05,37.95,0)" xlink:href="#aB"/><use transform="matrix(0.05,0,0,0.05,47.95,0)" xlink:href="#aw"/><use transform="matrix(0.05,0,0,0.05,51.900000000000006,0)" xlink:href="#ax"/><use transform="matrix(0.05,0,0,0.05,60.900000000000006,0)" xlink:href="#ay"/><use transform="matrix(0.05,0,0,0.05,65.9,0)" xlink:href="#aC"/><use transform="matrix(0.05,0,0,0.05,71.85000000000001,0)" xlink:href="#az"/><use transform="matrix(0.05,0,0,0.05,81.85000000000001,0)" xlink:href="#aC"/></g></defs></g></svg>